<svg width="24" height="22" viewBox="0 0 24 22" fill="none" xmlns="http://www.w3.org/2000/svg">
<path d="M21.8461 0.286833C21.9101 0.154042 21.8133 0 21.6659 0H16.9323C16.8546 0 16.7839 0.0450082 16.7511 0.115423L11.0631 12.3039C10.9913 12.4578 10.7724 12.4578 10.7006 12.3039L5.01263 0.115423C4.97977 0.045008 4.9091 0 4.83139 0H0.200248C0.0528395 0 -0.0439185 0.154042 0.0200808 0.286832L8.30949 17.4863C8.39285 17.6593 8.5679 17.7692 8.7599 17.7692H12.1142C12.7769 17.7692 13.3142 18.3065 13.3142 18.9692V21.5C13.3142 21.7761 13.5381 22 13.8142 22H22.9681C23.2442 22 23.4681 21.7761 23.4681 21.5V18.2692C23.4681 17.9931 23.2442 17.7692 22.9681 17.7692H15.0123C14.2753 17.7692 13.7915 16.999 14.1115 16.3351L21.8461 0.286833Z" fill="#111115"/>
</svg>
