<svg width="20" height="20" viewBox="0 0 20 20" fill="none" xmlns="http://www.w3.org/2000/svg">
<g clip-path="url(#clip0_130_126)">
<path d="M0 5.51181C0 2.46772 2.46772 0 5.51181 0H14.4882C17.5323 0 20 2.46772 20 5.51181V14.4882C20 17.5323 17.5323 20 14.4882 20H5.51181C2.46772 20 0 17.5323 0 14.4882V5.51181Z" fill="#C22316"/>
<path d="M2.25781 2.04688V2.99176C2.44206 2.99648 2.55807 2.99963 2.73025 3.08206C3.51766 3.49675 3.22633 4.69518 2.25781 4.61904V5.66891C3.49035 5.79702 3.49035 7.43059 2.25781 7.5587V8.60856C3.25939 8.61539 3.4851 9.86211 2.74337 10.2883C2.57382 10.419 2.46568 10.4243 2.25781 10.4458V11.4957C3.48774 11.6233 3.48774 13.2579 2.25781 13.3854V14.4353C3.13707 14.2254 3.55702 15.5718 2.73025 15.9723C2.55807 16.0547 2.44206 16.0579 2.25781 16.0626V17.0075H3.2027C3.20742 16.8233 3.21057 16.7072 3.29299 16.5351C3.76123 15.6847 4.80163 16.103 4.7775 17.0075H5.82737C5.87566 16.6946 5.98326 16.4075 6.25625 16.2196C6.85361 15.808 7.68721 16.2117 7.76963 17.0075H8.8195L8.97697 16.4301C8.99641 16.429 9.00531 16.4301 9.02947 16.4295C9.03209 16.5214 9.0279 16.819 9.02947 17.0075C9.02947 17.1403 9.02369 17.3009 9.06358 17.4274C9.23681 17.9791 9.7187 17.9524 10.1843 17.9524H16.851C16.9838 17.9524 17.1444 17.9582 17.2709 17.9183C17.4982 17.8469 17.6904 17.6547 17.7617 17.4274C17.8226 17.2343 17.7959 16.1834 17.7959 15.9051V8.13611C17.7959 7.47312 17.8531 6.83584 16.956 6.82379C16.8142 6.82219 16.5161 6.82379 16.3901 6.82694C16.2253 6.7172 16.2767 6.40435 16.3318 6.24635C16.4762 5.82955 16.7906 5.60856 17.2184 5.56392V4.51406C16.3581 4.65579 15.8583 3.43534 16.746 3.08206C16.9182 2.99963 17.0342 2.99648 17.2184 2.99176V2.04688H16.2736C16.2683 2.26052 16.2494 2.42798 16.1408 2.61958C15.7885 3.30408 14.6641 2.96027 14.7513 2.04688H13.7014C13.5728 3.28835 11.8877 3.28835 11.7591 2.04688H10.7093C10.5801 3.28939 8.94705 3.2768 8.8195 2.04688H7.76963C7.63995 3.29779 5.95598 3.28467 5.82737 2.04688H4.7775C4.78275 2.95763 3.74337 3.36235 3.29299 2.51932C3.21057 2.34714 3.20742 2.23113 3.2027 2.04688H2.25781ZM9.23945 4.04163H14.9087C15.1061 4.04214 15.1334 4.04056 15.2321 4.04163C15.2809 4.0411 15.3812 4.12088 15.3812 4.18547C15.3828 4.26 15.3791 4.31302 15.3812 4.40907V6.82379H10.0268C9.89403 6.82379 9.73339 6.818 9.60689 6.8579C9.20795 6.98283 9.03105 7.31931 9.02683 7.72771C9.03577 8.10672 9.02947 8.47259 9.02947 8.76603V15.1702H4.62001C4.55177 15.1687 4.39798 15.1697 4.30454 15.1692C4.23105 15.1692 4.14705 15.0836 4.14705 14.9996C4.14651 14.9067 4.14758 14.5807 4.14758 14.4353V4.51406C4.14758 4.4096 4.14651 4.34347 4.14758 4.19648C4.14705 4.12771 4.22315 4.04214 4.33707 4.04163C4.60742 4.04006 5.06254 4.04163 5.19745 4.04163H8.45203C8.56542 4.04214 8.68406 4.04056 8.79955 4.04163C9.05886 4.27784 9.44678 5.07048 9.56174 5.40646C9.60321 5.52771 9.66937 5.88363 9.72814 5.96918C9.7691 6.03376 9.85625 6.04214 9.90033 6.02483C9.98537 5.99544 10.0184 5.82168 10.0069 5.66891C9.98958 5.45579 9.73393 4.92667 9.62633 4.72403L9.23945 4.04163ZM5.56281 4.29832C5.29457 4.49883 5.81161 4.77232 5.98483 4.93611L7.40006 6.40382C7.50873 6.52403 7.75545 6.93715 7.83473 6.97232C7.97803 7.03584 8.20953 6.87574 7.93131 6.45632C7.73603 6.16184 6.59166 4.9907 6.29979 4.7335C6.12081 4.576 5.70769 4.19806 5.56281 4.29832ZM10.1502 7.76971C10.2295 7.76867 12.1791 7.76867 12.1791 7.76867H16.3261C16.4757 7.76814 16.4998 7.76971 16.6704 7.76918C16.7964 7.76918 16.851 7.8663 16.8515 7.96235C16.8515 8.03008 16.851 8.23848 16.851 8.2936V16.4826C16.8505 16.6159 16.8499 16.7104 16.851 16.8233C16.8531 16.9272 16.7686 17.0075 16.6814 17.0075C16.5738 17.008 16.5045 17.0059 16.431 17.0075H10.4526C10.4237 17.0075 10.2331 17.0075 10.1938 17.007C10.0673 17.0054 9.97171 16.9461 9.97435 16.829C9.97278 16.7272 9.97486 16.6941 9.97435 16.5875L9.97486 8.17968C9.97539 7.9739 9.95755 7.76656 10.1502 7.76971ZM6.61475 8.00488L5.19745 8.18179C5.03787 8.20488 4.75598 8.23952 4.68142 8.40907C4.52867 8.7571 5.18326 8.57286 5.30243 8.55606C6.05571 8.4495 6.74179 8.3424 7.50715 8.35552C7.64102 8.34662 8.04889 8.39648 8.12921 8.35552C8.30033 8.29832 8.30558 8.09096 8.03105 8.00488C7.84521 7.9655 6.84102 7.97339 6.61475 8.00488ZM8.24102 9.95816C7.98379 10.039 7.88931 10.1539 7.66465 10.2836L5.98483 11.3235C5.85675 11.4038 5.22998 11.6952 5.21003 11.7944C5.18169 11.9723 5.32606 12.0101 5.45307 12.0138C5.62158 12.017 5.84259 11.8684 5.98641 11.7854L7.34969 10.9198L7.97961 10.5408C8.11241 10.4521 8.54969 10.2306 8.45203 10.0306C8.40585 9.93558 8.31398 9.934 8.24102 9.95816ZM13.3397 17.1361C13.4478 17.0941 13.5675 17.1088 13.6625 17.2038C13.7817 17.3225 13.7938 17.649 13.5381 17.7188C13.1455 17.8264 12.9533 17.3177 13.3397 17.1361Z" fill="#3F4244"/>
<path d="M9.0308 15.1702V7.82108C9.03184 7.11767 9.32475 6.82476 10.0282 6.82372H15.3825V4.51399C15.3825 4.51399 15.3815 4.31713 15.383 4.18748C15.382 4.11505 15.2749 4.03999 15.2334 4.04103C15.1657 4.04103 15.015 4.04156 15.015 4.04156H9.24078C9.35888 4.24681 9.4964 4.49404 9.62816 4.72503C9.85179 5.1602 10.0082 5.54655 10.0072 5.66991C10.0124 5.75913 10.0214 5.95337 9.9043 6.02369C9.85286 6.04364 9.76571 6.03209 9.72792 5.96649C9.6707 5.87777 9.60875 5.54233 9.5636 5.40689C9.45651 5.07724 9.02713 4.22791 8.80139 4.04156C8.69275 4.04103 8.52424 4.04156 8.40088 4.04156H4.62137C4.50062 4.04156 4.42712 4.04103 4.33683 4.04207C4.21976 4.04207 4.14838 4.13289 4.14891 4.19641C4.14784 4.36177 4.14891 4.67516 4.14891 4.77647V14.6977C4.14891 14.8022 4.14838 14.8956 4.14891 15.0006C4.14891 15.0772 4.22659 15.1691 4.30691 15.1696C4.36939 15.1696 4.50587 15.1696 4.56046 15.1696L9.0308 15.1702ZM5.56624 4.29561C5.72214 4.19273 6.19248 4.63892 6.40614 4.82895C6.40246 4.81793 7.25286 5.67463 7.33107 5.76911C7.33107 5.767 7.90376 6.37332 7.9295 6.45519C8.18827 6.82055 8.01611 7.04785 7.83763 6.97175C7.77464 6.94601 7.64392 6.72239 7.40139 6.40375C7.4035 6.40375 6.33107 5.29615 5.98827 4.93815C5.86019 4.80113 5.28224 4.50087 5.56624 4.29561ZM6.61715 8.00481C6.80822 7.97961 7.80035 7.96385 8.03395 8.00481C8.25547 8.06308 8.33947 8.27777 8.13158 8.35545C8.04339 8.39484 7.65179 8.34812 7.50955 8.35495C6.70534 8.34548 6.09275 8.44417 5.30377 8.55599C5.18459 8.57279 4.53001 8.75703 4.68275 8.409C4.76939 8.24732 4.95731 8.22423 5.20035 8.18119L6.61715 8.00481ZM8.24288 9.95756C8.36782 9.92028 8.4224 9.97332 8.45286 10.0295C8.55784 10.2347 8.09168 10.4615 7.98251 10.5397L7.35102 10.9203L5.98774 11.7854C5.84603 11.8699 5.61872 12.0174 5.44971 12.0137C5.32739 12.0111 5.1804 11.9681 5.21139 11.7938C5.25704 11.6793 5.84654 11.4106 5.98723 11.3235L7.66598 10.2836C7.92267 10.1392 7.95678 10.052 8.24288 9.95756ZM13.34 17.1366C12.9458 17.3271 13.1626 17.8258 13.5374 17.7198C13.7914 17.65 13.7862 17.3319 13.6639 17.2037C13.5568 17.0967 13.424 17.1009 13.34 17.1366Z" fill="#F9BE00"/>
<path d="M10.1485 7.77004C9.95585 7.77004 9.97737 7.97214 9.97473 8.17897C9.97158 8.31334 9.97316 8.39209 9.97316 8.50444L9.97422 16.5895C9.97422 16.7228 9.97158 16.7296 9.97316 16.832C9.97212 16.9527 10.075 17.0084 10.1947 17.0079C10.2802 17.0084 10.3422 17.0073 10.3931 17.0084H16.3249C16.4587 17.0084 16.549 17.0089 16.6824 17.0084C16.7532 17.0131 16.8561 16.9333 16.8503 16.8231C16.8503 16.7359 16.8488 16.6372 16.8498 16.5884L16.8498 8.29446C16.8493 8.16113 16.8503 8.06033 16.8503 7.96321C16.853 7.92017 16.8314 7.77214 16.6697 7.77057C16.581 7.76846 16.4818 7.77057 16.4299 7.76953H11.758C11.3984 7.76953 10.4524 7.76953 10.1485 7.77004Z" fill="#DF8A00"/>
</g>
<defs>
<clipPath id="clip0_130_126">
<rect width="20" height="20" fill="white"/>
</clipPath>
</defs>
</svg>
