<svg width="20" height="20" viewBox="0 0 20 20" fill="none" xmlns="http://www.w3.org/2000/svg">
<g clip-path="url(#clip0_130_120)">
<path d="M19.9621 1.47574C16.7769 0.422199 13.4 -0.0783185 10.009 0.000539737C6.61178 -0.0798502 3.22837 0.420681 0.0371775 1.47574C0.0371775 1.47574 -0.291461 8.00393 1.11699 11.6919C1.83451 13.5791 3.0018 15.3012 4.53655 16.7368C6.07131 18.1724 7.93616 19.2865 9.99962 20.0005C12.0631 19.2865 13.9279 18.1724 15.4627 16.7368C16.9974 15.3012 18.1647 13.5791 18.8822 11.6919C20.3095 8.00393 19.9621 1.47574 19.9621 1.47574Z" fill="#FF0000"/>
<path d="M16.6286 7.09642V10.6912H11.9807V14.8879H7.99945V10.6912H3.35156V7.09642H7.99945V2.9082H11.9807V7.09642H16.6286Z" fill="white"/>
</g>
<defs>
<clipPath id="clip0_130_120">
<rect width="20" height="20" fill="white"/>
</clipPath>
</defs>
</svg>
