<svg width="917" height="965" viewBox="0 0 917 965" fill="none" xmlns="http://www.w3.org/2000/svg" preserveAspectRatio="none">
<path d="M25.5994 27.0629C8.57229 44.9814 0 66.4835 0 91.3222V965H617.087C671.926 965 721.834 950.912 767.044 922.861C812.254 894.809 848.539 856.624 875.9 808.306C903.261 759.988 917 706.975 917 649.265V0H86.5449C62.8243 0 42.5091 9.021 25.482 26.9394L25.5994 27.0629Z" fill="#F5E4C9"/>
<path d="M35.0411 36.502C18.3853 54.0491 10 75.1056 10 99.4295V955H613.628C667.272 955 716.09 941.204 760.314 913.734C804.538 886.264 840.032 848.87 866.796 801.554C893.561 754.237 907 702.322 907 645.809V10H94.6573C71.4541 10 51.582 18.834 34.9262 36.3811L35.0411 36.502Z" fill="#09090B"/>
</svg>
