<svg width="20" height="20" viewBox="0 0 100 101" fill="none" xmlns="http://www.w3.org/2000/svg">
<rect y="0.98999" width="100" height="100" rx="16" fill="#09090B"/>
<rect x="2" y="2.98022" width="96" height="96" rx="16" fill="white"/>
<path d="M58.1494 60.2637V64.5469H14.8555V61.6494L43.1162 18.8594H47.3154L41.3525 29.2314L20.9863 60.2637H58.1494ZM48.6172 18.8594V80H43.6201V18.8594H48.6172Z" fill="#DCA54C"/>
<path d="M71.5127 77.4817V79.594H52.8301V77.6868L62.6123 66.592C63.8291 65.2112 64.7998 64.0012 65.5244 62.9622C66.249 61.9094 66.7686 60.9524 67.083 60.0911C67.4111 59.2161 67.5752 58.3684 67.5752 57.5481C67.5752 56.345 67.3359 55.2854 66.8574 54.3694C66.3926 53.4534 65.6953 52.7356 64.7656 52.2161C63.8359 51.6965 62.6875 51.4368 61.3203 51.4368C59.9531 51.4368 58.7637 51.7307 57.752 52.3186C56.7402 52.9065 55.9609 53.7268 55.4141 54.7795C54.8809 55.8186 54.6143 57.0012 54.6143 58.3274H52.1738C52.1738 56.6868 52.5361 55.1829 53.2607 53.8157C53.999 52.4485 55.0518 51.3616 56.4189 50.5549C57.7861 49.7346 59.4199 49.3245 61.3203 49.3245C63.125 49.3245 64.6768 49.6458 65.9756 50.2883C67.2744 50.9172 68.2725 51.8264 68.9697 53.0159C69.6807 54.2053 70.0361 55.6409 70.0361 57.3225C70.0361 58.2249 69.8721 59.134 69.5439 60.05C69.2295 60.9661 68.792 61.8821 68.2314 62.7981C67.6846 63.7004 67.0557 64.5959 66.3447 65.4846C65.6475 66.3733 64.916 67.2483 64.1504 68.1096L55.8242 77.4817H71.5127Z" fill="#DCA54C"/>
<path d="M50.0508 18.4604V79.9604H45.2861V18.4604H50.0508ZM48.9697 55.6167L46.8477 54.4155C47.0078 51.853 47.5283 49.4507 48.4092 47.2085C49.29 44.9663 50.4779 42.991 51.9727 41.2827C53.4941 39.5744 55.2692 38.2397 57.2979 37.2788C59.3532 36.3179 61.6221 35.8374 64.1045 35.8374C66.2666 35.8374 68.2018 36.131 69.9102 36.7183C71.6185 37.3055 73.0732 38.2397 74.2744 39.521C75.4756 40.8022 76.3831 42.4438 76.9971 44.4458C77.6377 46.4478 77.958 48.8901 77.958 51.7729V79.9604H73.1533V51.7329C73.1533 48.7433 72.7396 46.4077 71.9121 44.7261C71.0846 43.0177 69.9102 41.8032 68.3887 41.0825C66.8672 40.3618 65.0654 40.0015 62.9834 40.0015C60.6878 40.0015 58.6725 40.5086 56.9375 41.5229C55.2292 42.5106 53.7878 43.8052 52.6133 45.4067C51.4655 46.9816 50.5846 48.6766 49.9707 50.4917C49.3568 52.2801 49.0231 53.9884 48.9697 55.6167Z" fill="#09090B"/>
</svg>
