<svg width="100" height="100" viewBox="0 0 100 100" fill="none" xmlns="http://www.w3.org/2000/svg">
<path d="M0.1875 18.5958H14.9527C16.43 18.5958 17.6952 18.0745 18.7556 17.0176C19.816 15.9679 20.3499 14.7155 20.3499 13.2531V0.685547H0.1875V18.5885V18.5958Z" fill="#DCA54C"/>
<path d="M97.2549 9.86508C95.551 7.03449 93.2912 4.79752 90.4756 3.15418C87.6601 1.51084 84.5447 0.685547 81.1367 0.685547H31.5609V13.2531C31.5609 16.2647 30.8223 19.0301 29.345 21.5422C27.8678 24.0543 25.864 26.0379 23.3263 27.5002C20.7886 28.9626 17.995 29.6938 14.9527 29.6938H0.1875V99.3149H31.4951V31.6918H99.8145V19.1822C99.8145 15.8014 98.9589 12.6957 97.2549 9.86508Z" fill="#DCA54C"/>
<path d="M44.2935 44.3608C43.2331 45.4105 42.6992 46.6702 42.6992 48.1253V99.3077H81.1298C84.5451 99.3077 87.6531 98.4824 90.4687 96.8391C93.2843 95.1958 95.544 92.9588 97.248 90.1282C98.952 87.2976 99.8076 84.1919 99.8076 80.8111V42.7754H48.089C46.6118 42.7754 45.3466 43.3039 44.2862 44.3536L44.2935 44.3608Z" fill="#DCA54C"/>
</svg>
