<svg width="237" height="65" viewBox="0 0 237 65" fill="none" xmlns="http://www.w3.org/2000/svg">
<path d="M12.5547 12.0781H16.9843C17.4274 12.0781 17.807 11.9218 18.1251 11.6047C18.4432 11.2898 18.6034 10.9141 18.6034 10.4753V6.70508H12.5547V12.076V12.0781Z" fill="#DCA54C"/>
<path d="M41.6749 9.45894C41.1637 8.60976 40.4858 7.93867 39.6411 7.44567C38.7965 6.95266 37.8618 6.70508 36.8395 6.70508H21.9667V10.4753C21.9667 11.3788 21.7451 12.2085 21.3019 12.9621C20.8588 13.7157 20.2576 14.3108 19.4963 14.7495C18.735 15.1882 17.8969 15.4075 16.9843 15.4075H12.5547V36.2939H21.947V16.007H42.4428V12.2541C42.4428 11.2398 42.1861 10.3081 41.6749 9.45894Z" fill="#DCA54C"/>
<path d="M25.7869 19.8077C25.4688 20.1226 25.3086 20.5005 25.3086 20.937V36.2917H36.8378C37.8623 36.2917 38.7948 36.0441 39.6394 35.5511C40.4841 35.0581 41.162 34.387 41.6732 33.5379C42.1844 32.6887 42.4411 31.757 42.4411 30.7427V19.332H26.9255C26.4824 19.332 26.1028 19.4906 25.7847 19.8055L25.7869 19.8077Z" fill="#DCA54C"/>
<path d="M63.244 35V10.52H66.032V35H63.244ZM79.8315 35V13.274H68.9515V10.52H93.4315V13.274H82.5855V35H79.8315ZM96.0763 26.33V23.542H109.336V26.33H96.0763ZM113.607 35V10.52H134.007C134.755 10.52 135.435 10.7013 136.047 11.064C136.681 11.4267 137.18 11.9253 137.543 12.56C137.905 13.172 138.087 13.852 138.087 14.6V30.92C138.087 31.668 137.905 32.3593 137.543 32.994C137.18 33.606 136.681 34.0933 136.047 34.456C135.435 34.8187 134.755 35 134.007 35H113.607ZM117.687 32.246H134.007C134.369 32.246 134.675 32.1213 134.925 31.872C135.197 31.6 135.333 31.2827 135.333 30.92V14.6C135.333 14.2373 135.197 13.9313 134.925 13.682C134.675 13.41 134.369 13.274 134.007 13.274H117.687C117.324 13.274 117.007 13.41 116.735 13.682C116.485 13.9313 116.361 14.2373 116.361 14.6V30.92C116.361 31.2827 116.485 31.6 116.735 31.872C117.007 32.1213 117.324 32.246 117.687 32.246ZM145.838 35C145.09 35 144.399 34.8187 143.764 34.456C143.152 34.0707 142.654 33.572 142.268 32.96C141.906 32.3253 141.724 31.634 141.724 30.886V19.394C141.724 18.646 141.906 17.966 142.268 17.354C142.654 16.7193 143.152 16.2207 143.764 15.858C144.399 15.4727 145.09 15.28 145.838 15.28H157.67C158.441 15.28 159.132 15.4727 159.744 15.858C160.379 16.2207 160.878 16.7193 161.24 17.354C161.626 17.966 161.818 18.646 161.818 19.394V30.886C161.818 31.634 161.626 32.3253 161.24 32.96C160.878 33.572 160.379 34.0707 159.744 34.456C159.132 34.8187 158.441 35 157.67 35H145.838ZM145.838 32.212H157.67C158.033 32.212 158.339 32.0873 158.588 31.838C158.86 31.566 158.996 31.2487 158.996 30.886V19.394C158.996 19.0313 158.86 18.7253 158.588 18.476C158.339 18.204 158.033 18.068 157.67 18.068H145.838C145.476 18.068 145.158 18.204 144.886 18.476C144.637 18.7253 144.512 19.0313 144.512 19.394V30.886C144.512 31.2487 144.637 31.566 144.886 31.838C145.158 32.0873 145.476 32.212 145.838 32.212ZM165.367 35V8.82H168.155V15.28H181.347C182.095 15.28 182.775 15.4727 183.387 15.858C184.022 16.2207 184.521 16.7193 184.883 17.354C185.269 17.966 185.461 18.646 185.461 19.394V30.886C185.461 31.634 185.269 32.3253 184.883 32.96C184.521 33.572 184.022 34.0707 183.387 34.456C182.775 34.8187 182.095 35 181.347 35H165.367ZM169.515 32.212H181.347C181.71 32.212 182.016 32.0873 182.265 31.838C182.537 31.566 182.673 31.2487 182.673 30.886V19.394C182.673 19.0313 182.537 18.7253 182.265 18.476C182.016 18.204 181.71 18.068 181.347 18.068H169.515C169.153 18.068 168.835 18.204 168.563 18.476C168.291 18.7253 168.155 19.0313 168.155 19.394V30.886C168.155 31.2487 168.291 31.566 168.563 31.838C168.835 32.0873 169.153 32.212 169.515 32.212ZM192.091 35C191.343 35 190.652 34.8187 190.017 34.456C189.405 34.0707 188.906 33.572 188.521 32.96C188.158 32.3253 187.977 31.634 187.977 30.886V8.82H190.765V30.886C190.765 31.2487 190.89 31.566 191.139 31.838C191.411 32.0873 191.728 32.212 192.091 32.212H195.423V35H192.091ZM201.819 35C201.071 35 200.379 34.8187 199.745 34.456C199.133 34.0707 198.634 33.572 198.249 32.96C197.886 32.3253 197.705 31.634 197.705 30.886V19.394C197.705 18.646 197.886 17.966 198.249 17.354C198.634 16.7193 199.133 16.2207 199.745 15.858C200.379 15.4727 201.071 15.28 201.819 15.28H213.651C214.421 15.28 215.113 15.4727 215.725 15.858C216.359 16.2207 216.858 16.7193 217.221 17.354C217.606 17.966 217.799 18.646 217.799 19.394V26.534H200.493V30.886C200.493 31.2487 200.617 31.566 200.867 31.838C201.139 32.0873 201.456 32.212 201.819 32.212H217.799V35H201.819ZM200.493 23.746H214.977V19.394C214.977 19.0313 214.841 18.7253 214.569 18.476C214.319 18.204 214.013 18.068 213.651 18.068H201.819C201.456 18.068 201.139 18.204 200.867 18.476C200.617 18.7253 200.493 19.0313 200.493 19.394V23.746ZM221.114 35V19.394C221.114 18.646 221.295 17.966 221.658 17.354C222.043 16.7193 222.542 16.2207 223.154 15.858C223.788 15.4727 224.48 15.28 225.228 15.28H236.312V18.068H225.228C224.865 18.068 224.548 18.204 224.276 18.476C224.026 18.7253 223.902 19.0313 223.902 19.394V35H221.114Z" fill="#F5E4C9"/>
<path d="M16.3232 60.0928L18.3057 52.0469H19.3789L19.4473 53.7422L17.3281 62H16.1934L16.3232 60.0928ZM15.0723 52.0469L16.6992 60.0654V62H15.4619L13.2061 52.0469H15.0723ZM21.5049 60.0312L23.1045 52.0469H24.9775L22.7217 62H21.4844L21.5049 60.0312ZM19.8916 52.0469L21.874 60.1201L21.9902 62H20.8555L18.7432 53.7354L18.8252 52.0469H19.8916ZM29.1338 62.1367C28.5732 62.1367 28.0697 62.0456 27.623 61.8633C27.1764 61.681 26.7959 61.4281 26.4814 61.1045C26.1715 60.7764 25.9323 60.3958 25.7637 59.9629C25.5996 59.5254 25.5176 59.056 25.5176 58.5547V58.2812C25.5176 57.7116 25.5996 57.1943 25.7637 56.7295C25.9277 56.2601 26.1602 55.8568 26.4609 55.5195C26.7617 55.1823 27.1217 54.9225 27.541 54.7402C27.9603 54.5579 28.4229 54.4668 28.9287 54.4668C29.4528 54.4668 29.9154 54.5557 30.3164 54.7334C30.7174 54.9066 31.0524 55.1527 31.3213 55.4717C31.5902 55.7907 31.793 56.1735 31.9297 56.6201C32.0664 57.0622 32.1348 57.5521 32.1348 58.0898V58.8486H26.3379V57.6045H30.3574V57.4678C30.3483 57.1807 30.2936 56.9186 30.1934 56.6816C30.0931 56.4401 29.9382 56.2487 29.7285 56.1074C29.5189 55.9616 29.2477 55.8887 28.915 55.8887C28.6462 55.8887 28.4115 55.9479 28.2109 56.0664C28.015 56.1803 27.8509 56.3444 27.7188 56.5586C27.5911 56.7682 27.4954 57.0189 27.4316 57.3105C27.3678 57.6022 27.3359 57.9258 27.3359 58.2812V58.5547C27.3359 58.8646 27.377 59.1517 27.459 59.416C27.5456 59.6803 27.6709 59.9105 27.835 60.1064C28.0036 60.2979 28.2041 60.4482 28.4365 60.5576C28.6735 60.6624 28.9424 60.7148 29.2432 60.7148C29.6214 60.7148 29.9632 60.6419 30.2686 60.4961C30.5785 60.3457 30.8473 60.1247 31.0752 59.833L31.9844 60.7764C31.8294 61.0042 31.6198 61.223 31.3555 61.4326C31.0957 61.6423 30.7812 61.8132 30.4121 61.9453C30.043 62.0729 29.6169 62.1367 29.1338 62.1367ZM38.6289 56.1211V62H36.8242V54.6035H38.5264L38.6289 56.1211ZM38.3623 58.0352H37.8086C37.8086 57.5202 37.8701 57.0462 37.9932 56.6133C38.1208 56.1803 38.3076 55.8044 38.5537 55.4854C38.7998 55.1618 39.1029 54.9111 39.4629 54.7334C39.8275 54.5557 40.249 54.4668 40.7275 54.4668C41.0602 54.4668 41.3656 54.5169 41.6436 54.6172C41.9215 54.7129 42.1608 54.8656 42.3613 55.0752C42.5664 55.2803 42.7236 55.5492 42.833 55.8818C42.9424 56.21 42.9971 56.6042 42.9971 57.0645V62H41.1924V57.249C41.1924 56.9027 41.1423 56.6315 41.042 56.4355C40.9463 56.2396 40.8073 56.1029 40.625 56.0254C40.4427 55.9434 40.224 55.9023 39.9688 55.9023C39.6862 55.9023 39.4424 55.9593 39.2373 56.0732C39.0368 56.1826 38.8704 56.3353 38.7383 56.5312C38.6107 56.7272 38.515 56.9528 38.4512 57.208C38.3919 57.4632 38.3623 57.7389 38.3623 58.0352ZM42.8604 57.7002L42.1152 57.8369C42.1198 57.3721 42.1836 56.9368 42.3066 56.5312C42.4297 56.1211 42.6097 55.7633 42.8467 55.458C43.0882 55.1481 43.3867 54.9066 43.7422 54.7334C44.1022 54.5557 44.5169 54.4668 44.9863 54.4668C45.3509 54.4668 45.679 54.5192 45.9707 54.624C46.2669 54.7243 46.5199 54.8861 46.7295 55.1094C46.9391 55.3281 47.0986 55.613 47.208 55.9639C47.3219 56.3148 47.3789 56.7432 47.3789 57.249V62H45.5605V57.2422C45.5605 56.8822 45.5104 56.6064 45.4102 56.415C45.3145 56.2236 45.1755 56.0915 44.9932 56.0186C44.8109 55.9411 44.5967 55.9023 44.3506 55.9023C44.0999 55.9023 43.8812 55.9502 43.6943 56.0459C43.512 56.137 43.3571 56.2646 43.2295 56.4287C43.1064 56.5928 43.013 56.7842 42.9492 57.0029C42.89 57.2171 42.8604 57.4495 42.8604 57.7002ZM53.0732 60.4277V57.0166C53.0732 56.766 53.0299 56.5495 52.9434 56.3672C52.8568 56.1849 52.7246 56.0436 52.5469 55.9434C52.3691 55.8431 52.1436 55.793 51.8701 55.793C51.6286 55.793 51.4167 55.834 51.2344 55.916C51.0566 55.998 50.9199 56.1143 50.8242 56.2646C50.7285 56.4105 50.6807 56.5791 50.6807 56.7705H48.8691C48.8691 56.4652 48.9421 56.1758 49.0879 55.9023C49.2337 55.6243 49.4411 55.3783 49.71 55.1641C49.9834 54.9453 50.3092 54.7744 50.6875 54.6514C51.0703 54.5283 51.4987 54.4668 51.9727 54.4668C52.5332 54.4668 53.0322 54.5625 53.4697 54.7539C53.9118 54.9408 54.2581 55.2233 54.5088 55.6016C54.764 55.9798 54.8916 56.4561 54.8916 57.0303V60.2568C54.8916 60.626 54.9144 60.9427 54.96 61.207C55.0101 61.4668 55.083 61.6924 55.1787 61.8838V62H53.3398C53.2533 61.8132 53.1872 61.5762 53.1416 61.2891C53.096 60.9974 53.0732 60.7103 53.0732 60.4277ZM53.3262 57.4951L53.3398 58.5684H52.1982C51.9157 58.5684 51.6673 58.598 51.4531 58.6572C51.2389 58.7119 51.0635 58.7939 50.9268 58.9033C50.79 59.0081 50.6875 59.1357 50.6191 59.2861C50.5508 59.432 50.5166 59.5983 50.5166 59.7852C50.5166 59.9674 50.5576 60.1315 50.6396 60.2773C50.7262 60.4232 50.8493 60.5394 51.0088 60.626C51.1729 60.708 51.3643 60.749 51.583 60.749C51.902 60.749 52.18 60.6852 52.417 60.5576C52.654 60.4255 52.8385 60.266 52.9707 60.0791C53.1029 59.8923 53.1735 59.7145 53.1826 59.5459L53.7021 60.3252C53.6383 60.512 53.5426 60.7103 53.415 60.9199C53.2874 61.1296 53.1234 61.3255 52.9229 61.5078C52.7223 61.6901 52.4808 61.8405 52.1982 61.959C51.9157 62.0775 51.5876 62.1367 51.2139 62.1367C50.7354 62.1367 50.307 62.041 49.9287 61.8496C49.5505 61.6582 49.252 61.3962 49.0332 61.0635C48.8145 60.7308 48.7051 60.3525 48.7051 59.9287C48.7051 59.5368 48.778 59.1904 48.9238 58.8896C49.0697 58.5889 49.2861 58.3359 49.5732 58.1309C49.8604 57.9212 50.2158 57.764 50.6396 57.6592C51.068 57.5498 51.5579 57.4951 52.1094 57.4951H53.3262ZM58.3232 51.4932V62H56.5186V51.4932H58.3232ZM62.958 54.6035L59.7383 58.2197L57.9951 59.9902L57.4209 58.5889L58.7676 56.8936L60.7773 54.6035H62.958ZM61.1123 62L58.8223 58.5547L60.0254 57.3857L63.2041 62H61.1123ZM67.1006 62.1367C66.54 62.1367 66.0365 62.0456 65.5898 61.8633C65.1432 61.681 64.7627 61.4281 64.4482 61.1045C64.1383 60.7764 63.8991 60.3958 63.7305 59.9629C63.5664 59.5254 63.4844 59.056 63.4844 58.5547V58.2812C63.4844 57.7116 63.5664 57.1943 63.7305 56.7295C63.8945 56.2601 64.127 55.8568 64.4277 55.5195C64.7285 55.1823 65.0885 54.9225 65.5078 54.7402C65.9271 54.5579 66.3896 54.4668 66.8955 54.4668C67.4196 54.4668 67.8822 54.5557 68.2832 54.7334C68.6842 54.9066 69.0192 55.1527 69.2881 55.4717C69.557 55.7907 69.7598 56.1735 69.8965 56.6201C70.0332 57.0622 70.1016 57.5521 70.1016 58.0898V58.8486H64.3047V57.6045H68.3242V57.4678C68.3151 57.1807 68.2604 56.9186 68.1602 56.6816C68.0599 56.4401 67.9049 56.2487 67.6953 56.1074C67.4857 55.9616 67.2145 55.8887 66.8818 55.8887C66.613 55.8887 66.3783 55.9479 66.1777 56.0664C65.9818 56.1803 65.8177 56.3444 65.6855 56.5586C65.5579 56.7682 65.4622 57.0189 65.3984 57.3105C65.3346 57.6022 65.3027 57.9258 65.3027 58.2812V58.5547C65.3027 58.8646 65.3438 59.1517 65.4258 59.416C65.5124 59.6803 65.6377 59.9105 65.8018 60.1064C65.9704 60.2979 66.1709 60.4482 66.4033 60.5576C66.6403 60.6624 66.9092 60.7148 67.21 60.7148C67.5882 60.7148 67.93 60.6419 68.2354 60.4961C68.5452 60.3457 68.8141 60.1247 69.042 59.833L69.9512 60.7764C69.7962 61.0042 69.5866 61.223 69.3223 61.4326C69.0625 61.6423 68.748 61.8132 68.3789 61.9453C68.0098 62.0729 67.5837 62.1367 67.1006 62.1367ZM79.2344 60.4277V51.5H81.0527V62H79.4121L79.2344 60.4277ZM74.4834 58.3906V58.2471C74.4834 57.682 74.5472 57.1693 74.6748 56.709C74.807 56.2441 74.9984 55.8454 75.249 55.5127C75.4997 55.18 75.8027 54.9225 76.1582 54.7402C76.5182 54.5579 76.9261 54.4668 77.3818 54.4668C77.8239 54.4668 78.209 54.5557 78.5371 54.7334C78.8698 54.9111 79.1523 55.1641 79.3848 55.4922C79.6217 55.8203 79.8109 56.21 79.9521 56.6611C80.0934 57.1077 80.196 57.5999 80.2598 58.1377V58.5273C80.196 59.0514 80.0934 59.5322 79.9521 59.9697C79.8109 60.4072 79.6217 60.79 79.3848 61.1182C79.1523 61.4417 78.8698 61.6924 78.5371 61.8701C78.2044 62.0479 77.8148 62.1367 77.3682 62.1367C76.917 62.1367 76.5114 62.0433 76.1514 61.8564C75.7959 61.6696 75.4928 61.4076 75.2422 61.0703C74.9961 60.7331 74.807 60.3366 74.6748 59.8809C74.5472 59.4251 74.4834 58.9284 74.4834 58.3906ZM76.2949 58.2471V58.3906C76.2949 58.7096 76.3223 59.0081 76.377 59.2861C76.4316 59.5641 76.5205 59.8102 76.6436 60.0244C76.7666 60.234 76.9238 60.3981 77.1152 60.5166C77.3112 60.6351 77.5482 60.6943 77.8262 60.6943C78.1816 60.6943 78.4733 60.6169 78.7012 60.4619C78.9336 60.3024 79.1136 60.0859 79.2412 59.8125C79.3688 59.5345 79.4508 59.2223 79.4873 58.876V57.8027C79.4691 57.5293 79.4212 57.2764 79.3438 57.0439C79.2708 56.8115 79.166 56.611 79.0293 56.4424C78.8971 56.2738 78.7331 56.1416 78.5371 56.0459C78.3411 55.9502 78.1087 55.9023 77.8398 55.9023C77.5618 55.9023 77.3249 55.9639 77.1289 56.0869C76.9329 56.2054 76.7734 56.3717 76.6504 56.5859C76.5273 56.8001 76.4362 57.0485 76.377 57.3311C76.3223 57.6136 76.2949 57.9189 76.2949 58.2471ZM84.6006 54.6035V62H82.7891V54.6035H84.6006ZM82.666 52.6689C82.666 52.4001 82.7572 52.1768 82.9395 51.999C83.1263 51.8213 83.377 51.7324 83.6914 51.7324C84.0059 51.7324 84.2542 51.8213 84.4365 51.999C84.6234 52.1768 84.7168 52.4001 84.7168 52.6689C84.7168 52.9333 84.6234 53.1543 84.4365 53.332C84.2542 53.5098 84.0059 53.5986 83.6914 53.5986C83.377 53.5986 83.1263 53.5098 82.9395 53.332C82.7572 53.1543 82.666 52.9333 82.666 52.6689ZM91.0264 54.6035H92.667V61.7744C92.667 62.4443 92.5212 63.0117 92.2295 63.4766C91.9424 63.946 91.5391 64.3014 91.0195 64.543C90.5 64.7891 89.8962 64.9121 89.208 64.9121C88.9118 64.9121 88.5905 64.8711 88.2441 64.7891C87.9023 64.707 87.5719 64.5771 87.2529 64.3994C86.9385 64.2262 86.6764 64.0007 86.4668 63.7227L87.2803 62.6562C87.5264 62.9434 87.8044 63.1598 88.1143 63.3057C88.4242 63.4561 88.7591 63.5312 89.1191 63.5312C89.4837 63.5312 89.7936 63.4629 90.0488 63.3262C90.3086 63.194 90.5068 62.998 90.6436 62.7383C90.7848 62.4831 90.8555 62.1686 90.8555 61.7949V56.292L91.0264 54.6035ZM86.0293 58.3906V58.2471C86.0293 57.682 86.0977 57.1693 86.2344 56.709C86.3711 56.2441 86.5671 55.8454 86.8223 55.5127C87.082 55.18 87.3942 54.9225 87.7588 54.7402C88.1279 54.5579 88.5426 54.4668 89.0029 54.4668C89.4906 54.4668 89.9007 54.5557 90.2334 54.7334C90.5706 54.9111 90.8486 55.1641 91.0674 55.4922C91.2907 55.8203 91.4639 56.21 91.5869 56.6611C91.7145 57.1077 91.8125 57.5999 91.8809 58.1377V58.5273C91.8171 59.0514 91.7145 59.5322 91.5732 59.9697C91.4365 60.4072 91.2542 60.79 91.0264 61.1182C90.7985 61.4417 90.516 61.6924 90.1787 61.8701C89.8415 62.0479 89.445 62.1367 88.9893 62.1367C88.5335 62.1367 88.1234 62.0433 87.7588 61.8564C87.3942 61.6696 87.082 61.4076 86.8223 61.0703C86.5671 60.7331 86.3711 60.3366 86.2344 59.8809C86.0977 59.4251 86.0293 58.9284 86.0293 58.3906ZM87.834 58.2471V58.3906C87.834 58.7096 87.8659 59.0081 87.9297 59.2861C87.9935 59.5641 88.0915 59.8102 88.2236 60.0244C88.3558 60.234 88.5221 60.3981 88.7227 60.5166C88.9232 60.6351 89.1624 60.6943 89.4404 60.6943C89.8141 60.6943 90.1195 60.6169 90.3564 60.4619C90.598 60.3024 90.7803 60.0859 90.9033 59.8125C91.0309 59.5345 91.113 59.2223 91.1494 58.876V57.8027C91.1266 57.5293 91.0765 57.2764 90.999 57.0439C90.9261 56.8115 90.8236 56.611 90.6914 56.4424C90.5592 56.2738 90.3906 56.1416 90.1855 56.0459C89.9805 55.9502 89.7367 55.9023 89.4541 55.9023C89.1807 55.9023 88.9414 55.9639 88.7363 56.0869C88.5312 56.2054 88.3626 56.3717 88.2305 56.5859C88.0983 56.8001 87.998 57.0485 87.9297 57.3311C87.8659 57.6136 87.834 57.9189 87.834 58.2471ZM96.208 54.6035V62H94.3965V54.6035H96.208ZM94.2734 52.6689C94.2734 52.4001 94.3646 52.1768 94.5469 51.999C94.7337 51.8213 94.9844 51.7324 95.2988 51.7324C95.6133 51.7324 95.8617 51.8213 96.0439 51.999C96.2308 52.1768 96.3242 52.4001 96.3242 52.6689C96.3242 52.9333 96.2308 53.1543 96.0439 53.332C95.8617 53.5098 95.6133 53.5986 95.2988 53.5986C94.9844 53.5986 94.7337 53.5098 94.5469 53.332C94.3646 53.1543 94.2734 52.9333 94.2734 52.6689ZM101.431 54.6035V55.9023H97.1924V54.6035H101.431ZM98.3271 52.7852H100.139V59.8672C100.139 60.0859 100.168 60.2546 100.228 60.373C100.287 60.4915 100.376 60.5713 100.494 60.6123C100.613 60.6533 100.754 60.6738 100.918 60.6738C101.036 60.6738 101.146 60.667 101.246 60.6533C101.346 60.6396 101.431 60.626 101.499 60.6123L101.506 61.9658C101.355 62.016 101.185 62.057 100.993 62.0889C100.806 62.1208 100.594 62.1367 100.357 62.1367C99.9518 62.1367 99.5964 62.0684 99.291 61.9316C98.9857 61.7904 98.7487 61.5648 98.5801 61.2549C98.4115 60.9404 98.3271 60.5257 98.3271 60.0107V52.7852ZM106.708 60.4277V57.0166C106.708 56.766 106.665 56.5495 106.578 56.3672C106.492 56.1849 106.359 56.0436 106.182 55.9434C106.004 55.8431 105.778 55.793 105.505 55.793C105.263 55.793 105.051 55.834 104.869 55.916C104.691 55.998 104.555 56.1143 104.459 56.2646C104.363 56.4105 104.315 56.5791 104.315 56.7705H102.504C102.504 56.4652 102.577 56.1758 102.723 55.9023C102.868 55.6243 103.076 55.3783 103.345 55.1641C103.618 54.9453 103.944 54.7744 104.322 54.6514C104.705 54.5283 105.133 54.4668 105.607 54.4668C106.168 54.4668 106.667 54.5625 107.104 54.7539C107.547 54.9408 107.893 55.2233 108.144 55.6016C108.399 55.9798 108.526 56.4561 108.526 57.0303V60.2568C108.526 60.626 108.549 60.9427 108.595 61.207C108.645 61.4668 108.718 61.6924 108.813 61.8838V62H106.975C106.888 61.8132 106.822 61.5762 106.776 61.2891C106.731 60.9974 106.708 60.7103 106.708 60.4277ZM106.961 57.4951L106.975 58.5684H105.833C105.55 58.5684 105.302 58.598 105.088 58.6572C104.874 58.7119 104.698 58.7939 104.562 58.9033C104.425 59.0081 104.322 59.1357 104.254 59.2861C104.186 59.432 104.151 59.5983 104.151 59.7852C104.151 59.9674 104.192 60.1315 104.274 60.2773C104.361 60.4232 104.484 60.5394 104.644 60.626C104.808 60.708 104.999 60.749 105.218 60.749C105.537 60.749 105.815 60.6852 106.052 60.5576C106.289 60.4255 106.473 60.266 106.605 60.0791C106.738 59.8923 106.808 59.7145 106.817 59.5459L107.337 60.3252C107.273 60.512 107.177 60.7103 107.05 60.9199C106.922 61.1296 106.758 61.3255 106.558 61.5078C106.357 61.6901 106.116 61.8405 105.833 61.959C105.55 62.0775 105.222 62.1367 104.849 62.1367C104.37 62.1367 103.942 62.041 103.563 61.8496C103.185 61.6582 102.887 61.3962 102.668 61.0635C102.449 60.7308 102.34 60.3525 102.34 59.9287C102.34 59.5368 102.413 59.1904 102.559 58.8896C102.704 58.5889 102.921 58.3359 103.208 58.1309C103.495 57.9212 103.851 57.764 104.274 57.6592C104.703 57.5498 105.193 57.4951 105.744 57.4951H106.961ZM112.067 51.5V62H110.256V51.5H112.067ZM115.704 54.6035V62H113.893V54.6035H115.704ZM113.77 52.6689C113.77 52.4001 113.861 52.1768 114.043 51.999C114.23 51.8213 114.48 51.7324 114.795 51.7324C115.109 51.7324 115.358 51.8213 115.54 51.999C115.727 52.1768 115.82 52.4001 115.82 52.6689C115.82 52.9333 115.727 53.1543 115.54 53.332C115.358 53.5098 115.109 53.5986 114.795 53.5986C114.48 53.5986 114.23 53.5098 114.043 53.332C113.861 53.1543 113.77 52.9333 113.77 52.6689ZM123.224 60.5781V62H117.659V60.5781H123.224ZM123.094 55.6836L118.336 62H117.146V60.8857L121.877 54.6035H123.094V55.6836ZM122.431 54.6035V56.0322H117.242V54.6035H122.431ZM128.583 60.4277V57.0166C128.583 56.766 128.54 56.5495 128.453 56.3672C128.367 56.1849 128.234 56.0436 128.057 55.9434C127.879 55.8431 127.653 55.793 127.38 55.793C127.138 55.793 126.926 55.834 126.744 55.916C126.566 55.998 126.43 56.1143 126.334 56.2646C126.238 56.4105 126.19 56.5791 126.19 56.7705H124.379C124.379 56.4652 124.452 56.1758 124.598 55.9023C124.743 55.6243 124.951 55.3783 125.22 55.1641C125.493 54.9453 125.819 54.7744 126.197 54.6514C126.58 54.5283 127.008 54.4668 127.482 54.4668C128.043 54.4668 128.542 54.5625 128.979 54.7539C129.422 54.9408 129.768 55.2233 130.019 55.6016C130.274 55.9798 130.401 56.4561 130.401 57.0303V60.2568C130.401 60.626 130.424 60.9427 130.47 61.207C130.52 61.4668 130.593 61.6924 130.688 61.8838V62H128.85C128.763 61.8132 128.697 61.5762 128.651 61.2891C128.606 60.9974 128.583 60.7103 128.583 60.4277ZM128.836 57.4951L128.85 58.5684H127.708C127.425 58.5684 127.177 58.598 126.963 58.6572C126.749 58.7119 126.573 58.7939 126.437 58.9033C126.3 59.0081 126.197 59.1357 126.129 59.2861C126.061 59.432 126.026 59.5983 126.026 59.7852C126.026 59.9674 126.067 60.1315 126.149 60.2773C126.236 60.4232 126.359 60.5394 126.519 60.626C126.683 60.708 126.874 60.749 127.093 60.749C127.412 60.749 127.69 60.6852 127.927 60.5576C128.164 60.4255 128.348 60.266 128.48 60.0791C128.613 59.8923 128.683 59.7145 128.692 59.5459L129.212 60.3252C129.148 60.512 129.052 60.7103 128.925 60.9199C128.797 61.1296 128.633 61.3255 128.433 61.5078C128.232 61.6901 127.991 61.8405 127.708 61.959C127.425 62.0775 127.097 62.1367 126.724 62.1367C126.245 62.1367 125.817 62.041 125.438 61.8496C125.06 61.6582 124.762 61.3962 124.543 61.0635C124.324 60.7308 124.215 60.3525 124.215 59.9287C124.215 59.5368 124.288 59.1904 124.434 58.8896C124.579 58.5889 124.796 58.3359 125.083 58.1309C125.37 57.9212 125.726 57.764 126.149 57.6592C126.578 57.5498 127.068 57.4951 127.619 57.4951H128.836ZM135.528 54.6035V55.9023H131.29V54.6035H135.528ZM132.425 52.7852H134.236V59.8672C134.236 60.0859 134.266 60.2546 134.325 60.373C134.384 60.4915 134.473 60.5713 134.592 60.6123C134.71 60.6533 134.852 60.6738 135.016 60.6738C135.134 60.6738 135.243 60.667 135.344 60.6533C135.444 60.6396 135.528 60.626 135.597 60.6123L135.604 61.9658C135.453 62.016 135.282 62.057 135.091 62.0889C134.904 62.1208 134.692 62.1367 134.455 62.1367C134.049 62.1367 133.694 62.0684 133.389 61.9316C133.083 61.7904 132.846 61.5648 132.678 61.2549C132.509 60.9404 132.425 60.5257 132.425 60.0107V52.7852ZM138.646 54.6035V62H136.834V54.6035H138.646ZM136.711 52.6689C136.711 52.4001 136.802 52.1768 136.984 51.999C137.171 51.8213 137.422 51.7324 137.736 51.7324C138.051 51.7324 138.299 51.8213 138.481 51.999C138.668 52.1768 138.762 52.4001 138.762 52.6689C138.762 52.9333 138.668 53.1543 138.481 53.332C138.299 53.5098 138.051 53.5986 137.736 53.5986C137.422 53.5986 137.171 53.5098 136.984 53.332C136.802 53.1543 136.711 52.9333 136.711 52.6689ZM140.047 58.377V58.2334C140.047 57.6911 140.124 57.1921 140.279 56.7363C140.434 56.276 140.66 55.8773 140.956 55.54C141.252 55.2028 141.615 54.9408 142.043 54.7539C142.471 54.5625 142.959 54.4668 143.506 54.4668C144.062 54.4668 144.554 54.5625 144.982 54.7539C145.415 54.9408 145.78 55.2028 146.076 55.54C146.372 55.8773 146.598 56.276 146.753 56.7363C146.908 57.1921 146.985 57.6911 146.985 58.2334V58.377C146.985 58.9147 146.908 59.4137 146.753 59.874C146.598 60.3298 146.372 60.7285 146.076 61.0703C145.78 61.4076 145.418 61.6696 144.989 61.8564C144.561 62.0433 144.071 62.1367 143.52 62.1367C142.973 62.1367 142.483 62.0433 142.05 61.8564C141.617 61.6696 141.252 61.4076 140.956 61.0703C140.66 60.7285 140.434 60.3298 140.279 59.874C140.124 59.4137 140.047 58.9147 140.047 58.377ZM141.852 58.2334V58.377C141.852 58.7005 141.883 59.0036 141.947 59.2861C142.011 59.5687 142.109 59.8171 142.241 60.0312C142.373 60.2454 142.544 60.4141 142.754 60.5371C142.968 60.6556 143.223 60.7148 143.52 60.7148C143.811 60.7148 144.062 60.6556 144.271 60.5371C144.481 60.4141 144.652 60.2454 144.784 60.0312C144.921 59.8171 145.021 59.5687 145.085 59.2861C145.149 59.0036 145.181 58.7005 145.181 58.377V58.2334C145.181 57.9144 145.149 57.6159 145.085 57.3379C145.021 57.0553 144.921 56.807 144.784 56.5928C144.652 56.374 144.479 56.2031 144.265 56.0801C144.055 55.9525 143.802 55.8887 143.506 55.8887C143.214 55.8887 142.964 55.9525 142.754 56.0801C142.544 56.2031 142.373 56.374 142.241 56.5928C142.109 56.807 142.011 57.0553 141.947 57.3379C141.883 57.6159 141.852 57.9144 141.852 58.2334ZM150.068 56.1826V62H148.264V54.6035H149.959L150.068 56.1826ZM149.781 58.0352H149.248C149.253 57.4974 149.326 57.0098 149.467 56.5723C149.608 56.1348 149.806 55.7588 150.062 55.4443C150.321 55.1299 150.629 54.8883 150.984 54.7197C151.34 54.5511 151.736 54.4668 152.174 54.4668C152.529 54.4668 152.851 54.5169 153.138 54.6172C153.425 54.7174 153.671 54.877 153.876 55.0957C154.086 55.3145 154.245 55.6016 154.354 55.957C154.468 56.3079 154.525 56.7409 154.525 57.2559V62H152.707V57.2422C152.707 56.9049 152.657 56.6383 152.557 56.4424C152.461 56.2464 152.32 56.1074 152.133 56.0254C151.951 55.9434 151.725 55.9023 151.456 55.9023C151.178 55.9023 150.934 55.9593 150.725 56.0732C150.52 56.1826 150.346 56.3353 150.205 56.5312C150.068 56.7272 149.964 56.9528 149.891 57.208C149.818 57.4632 149.781 57.7389 149.781 58.0352ZM162.059 60.6328L163.781 54.6035H165.668L163.132 62H161.983L162.059 60.6328ZM160.801 54.6035L162.544 60.6465L162.605 62H161.45L158.907 54.6035H160.801ZM168.532 54.6035V62H166.721V54.6035H168.532ZM166.598 52.6689C166.598 52.4001 166.689 52.1768 166.871 51.999C167.058 51.8213 167.309 51.7324 167.623 51.7324C167.938 51.7324 168.186 51.8213 168.368 51.999C168.555 52.1768 168.648 52.4001 168.648 52.6689C168.648 52.9333 168.555 53.1543 168.368 53.332C168.186 53.5098 167.938 53.5986 167.623 53.5986C167.309 53.5986 167.058 53.5098 166.871 53.332C166.689 53.1543 166.598 52.9333 166.598 52.6689ZM174.322 59.9766C174.322 59.8216 174.281 59.6826 174.199 59.5596C174.117 59.4365 173.962 59.3249 173.734 59.2246C173.511 59.1198 173.183 59.0218 172.75 58.9307C172.367 58.8486 172.014 58.7461 171.69 58.623C171.367 58.5 171.089 58.3519 170.856 58.1787C170.624 58.001 170.442 57.7936 170.31 57.5566C170.182 57.3151 170.118 57.0371 170.118 56.7227C170.118 56.4173 170.184 56.1302 170.316 55.8613C170.449 55.5879 170.64 55.3486 170.891 55.1436C171.141 54.9339 171.447 54.7699 171.807 54.6514C172.167 54.5283 172.572 54.4668 173.023 54.4668C173.652 54.4668 174.192 54.5693 174.644 54.7744C175.099 54.9795 175.448 55.262 175.689 55.6221C175.931 55.9775 176.052 56.3786 176.052 56.8252H174.247C174.247 56.6292 174.201 56.4515 174.11 56.292C174.024 56.1325 173.889 56.0049 173.707 55.9092C173.525 55.8089 173.295 55.7588 173.017 55.7588C172.766 55.7588 172.554 55.7998 172.381 55.8818C172.212 55.9639 172.085 56.071 171.998 56.2031C171.911 56.3353 171.868 56.4811 171.868 56.6406C171.868 56.7591 171.891 56.8662 171.937 56.9619C171.987 57.0531 172.066 57.1374 172.176 57.2148C172.285 57.2923 172.433 57.363 172.62 57.4268C172.812 57.4906 173.046 57.5521 173.324 57.6113C173.876 57.7207 174.356 57.8665 174.767 58.0488C175.181 58.2266 175.505 58.4635 175.737 58.7598C175.97 59.056 176.086 59.4342 176.086 59.8945C176.086 60.2227 176.015 60.5234 175.874 60.7969C175.733 61.0658 175.528 61.3005 175.259 61.501C174.99 61.7015 174.669 61.8587 174.295 61.9727C173.921 62.082 173.5 62.1367 173.03 62.1367C172.351 62.1367 171.777 62.016 171.308 61.7744C170.838 61.5283 170.483 61.2184 170.241 60.8447C170 60.4665 169.879 60.0745 169.879 59.6689H171.608C171.622 59.9561 171.7 60.1862 171.841 60.3594C171.982 60.5326 172.16 60.6579 172.374 60.7354C172.593 60.8083 172.823 60.8447 173.064 60.8447C173.338 60.8447 173.568 60.8083 173.755 60.7354C173.942 60.6579 174.083 60.5553 174.179 60.4277C174.274 60.2956 174.322 60.1452 174.322 59.9766ZM179.374 54.6035V62H177.562V54.6035H179.374ZM177.439 52.6689C177.439 52.4001 177.531 52.1768 177.713 51.999C177.9 51.8213 178.15 51.7324 178.465 51.7324C178.779 51.7324 179.028 51.8213 179.21 51.999C179.397 52.1768 179.49 52.4001 179.49 52.6689C179.49 52.9333 179.397 53.1543 179.21 53.332C179.028 53.5098 178.779 53.5986 178.465 53.5986C178.15 53.5986 177.9 53.5098 177.713 53.332C177.531 53.1543 177.439 52.9333 177.439 52.6689ZM181.09 51.5H182.901V60.3662L182.724 62H181.09V51.5ZM187.659 58.2266V58.3701C187.659 58.9215 187.598 59.4274 187.475 59.8877C187.356 60.348 187.176 60.7467 186.935 61.084C186.693 61.4167 186.392 61.6764 186.032 61.8633C185.677 62.0456 185.26 62.1367 184.781 62.1367C184.326 62.1367 183.929 62.0479 183.592 61.8701C183.259 61.6924 182.979 61.4417 182.751 61.1182C182.523 60.79 182.341 60.4049 182.204 59.9629C182.067 59.5163 181.965 59.0286 181.896 58.5V58.1104C181.965 57.5771 182.067 57.0895 182.204 56.6475C182.341 56.2054 182.523 55.8203 182.751 55.4922C182.979 55.1641 183.259 54.9111 183.592 54.7334C183.924 54.5557 184.316 54.4668 184.768 54.4668C185.251 54.4668 185.672 54.5602 186.032 54.7471C186.397 54.9294 186.698 55.1891 186.935 55.5264C187.176 55.859 187.356 56.2555 187.475 56.7158C187.598 57.1715 187.659 57.6751 187.659 58.2266ZM185.848 58.3701V58.2266C185.848 57.9121 185.823 57.6159 185.772 57.3379C185.722 57.0553 185.64 56.807 185.526 56.5928C185.412 56.3786 185.257 56.21 185.062 56.0869C184.866 55.9639 184.619 55.9023 184.323 55.9023C184.041 55.9023 183.799 55.9502 183.599 56.0459C183.403 56.1416 183.239 56.2738 183.106 56.4424C182.979 56.611 182.879 56.8092 182.806 57.0371C182.737 57.265 182.692 57.5111 182.669 57.7754V58.8418C182.701 59.1927 182.776 59.5094 182.895 59.792C183.013 60.07 183.188 60.291 183.421 60.4551C183.658 60.6191 183.963 60.7012 184.337 60.7012C184.629 60.7012 184.872 60.6442 185.068 60.5303C185.264 60.4118 185.419 60.2477 185.533 60.0381C185.647 59.8239 185.727 59.5755 185.772 59.293C185.823 59.0104 185.848 58.7028 185.848 58.3701ZM190.886 51.5V62H189.074V51.5H190.886ZM195.931 62.1367C195.37 62.1367 194.867 62.0456 194.42 61.8633C193.973 61.681 193.593 61.4281 193.278 61.1045C192.968 60.7764 192.729 60.3958 192.561 59.9629C192.396 59.5254 192.314 59.056 192.314 58.5547V58.2812C192.314 57.7116 192.396 57.1943 192.561 56.7295C192.725 56.2601 192.957 55.8568 193.258 55.5195C193.559 55.1823 193.919 54.9225 194.338 54.7402C194.757 54.5579 195.22 54.4668 195.726 54.4668C196.25 54.4668 196.712 54.5557 197.113 54.7334C197.514 54.9066 197.849 55.1527 198.118 55.4717C198.387 55.7907 198.59 56.1735 198.727 56.6201C198.863 57.0622 198.932 57.5521 198.932 58.0898V58.8486H193.135V57.6045H197.154V57.4678C197.145 57.1807 197.09 56.9186 196.99 56.6816C196.89 56.4401 196.735 56.2487 196.525 56.1074C196.316 55.9616 196.045 55.8887 195.712 55.8887C195.443 55.8887 195.208 55.9479 195.008 56.0664C194.812 56.1803 194.648 56.3444 194.516 56.5586C194.388 56.7682 194.292 57.0189 194.229 57.3105C194.165 57.6022 194.133 57.9258 194.133 58.2812V58.5547C194.133 58.8646 194.174 59.1517 194.256 59.416C194.342 59.6803 194.468 59.9105 194.632 60.1064C194.8 60.2979 195.001 60.4482 195.233 60.5576C195.47 60.6624 195.739 60.7148 196.04 60.7148C196.418 60.7148 196.76 60.6419 197.065 60.4961C197.375 60.3457 197.644 60.1247 197.872 59.833L198.781 60.7764C198.626 61.0042 198.417 61.223 198.152 61.4326C197.893 61.6423 197.578 61.8132 197.209 61.9453C196.84 62.0729 196.414 62.1367 195.931 62.1367ZM202.199 52.0469L202.001 59.0127H200.477L200.278 52.0469H202.199ZM200.224 61.1592C200.224 60.8903 200.315 60.6647 200.497 60.4824C200.684 60.2956 200.935 60.2021 201.249 60.2021C201.563 60.2021 201.812 60.2956 201.994 60.4824C202.181 60.6647 202.274 60.8903 202.274 61.1592C202.274 61.4235 202.181 61.6468 201.994 61.8291C201.812 62.0114 201.563 62.1025 201.249 62.1025C200.935 62.1025 200.684 62.0114 200.497 61.8291C200.315 61.6468 200.224 61.4235 200.224 61.1592Z" fill="#F5E4C9"/>
</svg>
