<svg width="232" height="75" viewBox="0 0 232 75" fill="none" xmlns="http://www.w3.org/2000/svg">
<path d="M3.55469 12.0781H7.98426C8.42744 12.0781 8.80699 11.9218 9.12511 11.6047C9.44324 11.2898 9.60339 10.9141 9.60339 10.4753V6.70508H3.55469V12.076V12.0781Z" fill="#DCA54C"/>
<path d="M32.6749 9.45894C32.1637 8.60976 31.4858 7.93867 30.6411 7.44567C29.7965 6.95266 28.8618 6.70508 27.8395 6.70508H12.9667V10.4753C12.9667 11.3788 12.7451 12.2085 12.3019 12.9621C11.8588 13.7157 11.2576 14.3108 10.4963 14.7495C9.73503 15.1882 8.89694 15.4075 7.98426 15.4075H3.55469V36.2939H12.947V16.007H33.4428V12.2541C33.4428 11.2398 33.1861 10.3081 32.6749 9.45894Z" fill="#DCA54C"/>
<path d="M16.7869 19.8077C16.4688 20.1226 16.3086 20.5005 16.3086 20.937V36.2917H27.8378C28.8623 36.2917 29.7948 36.0441 30.6394 35.5511C31.4841 35.0581 32.162 34.387 32.6732 33.5379C33.1844 32.6887 33.4411 31.757 33.4411 30.7427V19.332H17.9255C17.4824 19.332 17.1028 19.4906 16.7847 19.8055L16.7869 19.8077Z" fill="#DCA54C"/>
<path d="M54.244 35V10.52H57.032V35H54.244ZM70.8315 35V13.274H59.9515V10.52H84.4315V13.274H73.5855V35H70.8315ZM87.0763 26.33V23.542H100.336V26.33H87.0763ZM104.607 35V10.52H125.007C125.755 10.52 126.435 10.7013 127.047 11.064C127.681 11.4267 128.18 11.9253 128.543 12.56C128.905 13.172 129.087 13.852 129.087 14.6V30.92C129.087 31.668 128.905 32.3593 128.543 32.994C128.18 33.606 127.681 34.0933 127.047 34.456C126.435 34.8187 125.755 35 125.007 35H104.607ZM108.687 32.246H125.007C125.369 32.246 125.675 32.1213 125.925 31.872C126.197 31.6 126.333 31.2827 126.333 30.92V14.6C126.333 14.2373 126.197 13.9313 125.925 13.682C125.675 13.41 125.369 13.274 125.007 13.274H108.687C108.324 13.274 108.007 13.41 107.735 13.682C107.485 13.9313 107.361 14.2373 107.361 14.6V30.92C107.361 31.2827 107.485 31.6 107.735 31.872C108.007 32.1213 108.324 32.246 108.687 32.246ZM136.838 35C136.09 35 135.399 34.8187 134.764 34.456C134.152 34.0707 133.654 33.572 133.268 32.96C132.906 32.3253 132.724 31.634 132.724 30.886V19.394C132.724 18.646 132.906 17.966 133.268 17.354C133.654 16.7193 134.152 16.2207 134.764 15.858C135.399 15.4727 136.09 15.28 136.838 15.28H148.67C149.441 15.28 150.132 15.4727 150.744 15.858C151.379 16.2207 151.878 16.7193 152.24 17.354C152.626 17.966 152.818 18.646 152.818 19.394V30.886C152.818 31.634 152.626 32.3253 152.24 32.96C151.878 33.572 151.379 34.0707 150.744 34.456C150.132 34.8187 149.441 35 148.67 35H136.838ZM136.838 32.212H148.67C149.033 32.212 149.339 32.0873 149.588 31.838C149.86 31.566 149.996 31.2487 149.996 30.886V19.394C149.996 19.0313 149.86 18.7253 149.588 18.476C149.339 18.204 149.033 18.068 148.67 18.068H136.838C136.476 18.068 136.158 18.204 135.886 18.476C135.637 18.7253 135.512 19.0313 135.512 19.394V30.886C135.512 31.2487 135.637 31.566 135.886 31.838C136.158 32.0873 136.476 32.212 136.838 32.212ZM156.367 35V8.82H159.155V15.28H172.347C173.095 15.28 173.775 15.4727 174.387 15.858C175.022 16.2207 175.521 16.7193 175.883 17.354C176.269 17.966 176.461 18.646 176.461 19.394V30.886C176.461 31.634 176.269 32.3253 175.883 32.96C175.521 33.572 175.022 34.0707 174.387 34.456C173.775 34.8187 173.095 35 172.347 35H156.367ZM160.515 32.212H172.347C172.71 32.212 173.016 32.0873 173.265 31.838C173.537 31.566 173.673 31.2487 173.673 30.886V19.394C173.673 19.0313 173.537 18.7253 173.265 18.476C173.016 18.204 172.71 18.068 172.347 18.068H160.515C160.153 18.068 159.835 18.204 159.563 18.476C159.291 18.7253 159.155 19.0313 159.155 19.394V30.886C159.155 31.2487 159.291 31.566 159.563 31.838C159.835 32.0873 160.153 32.212 160.515 32.212ZM183.091 35C182.343 35 181.652 34.8187 181.017 34.456C180.405 34.0707 179.906 33.572 179.521 32.96C179.158 32.3253 178.977 31.634 178.977 30.886V8.82H181.765V30.886C181.765 31.2487 181.89 31.566 182.139 31.838C182.411 32.0873 182.728 32.212 183.091 32.212H186.423V35H183.091ZM192.819 35C192.071 35 191.379 34.8187 190.745 34.456C190.133 34.0707 189.634 33.572 189.249 32.96C188.886 32.3253 188.705 31.634 188.705 30.886V19.394C188.705 18.646 188.886 17.966 189.249 17.354C189.634 16.7193 190.133 16.2207 190.745 15.858C191.379 15.4727 192.071 15.28 192.819 15.28H204.651C205.421 15.28 206.113 15.4727 206.725 15.858C207.359 16.2207 207.858 16.7193 208.221 17.354C208.606 17.966 208.799 18.646 208.799 19.394V26.534H191.493V30.886C191.493 31.2487 191.617 31.566 191.867 31.838C192.139 32.0873 192.456 32.212 192.819 32.212H208.799V35H192.819ZM191.493 23.746H205.977V19.394C205.977 19.0313 205.841 18.7253 205.569 18.476C205.319 18.204 205.013 18.068 204.651 18.068H192.819C192.456 18.068 192.139 18.204 191.867 18.476C191.617 18.7253 191.493 19.0313 191.493 19.394V23.746ZM212.114 35V19.394C212.114 18.646 212.295 17.966 212.658 17.354C213.043 16.7193 213.542 16.2207 214.154 15.858C214.788 15.4727 215.48 15.28 216.228 15.28H227.312V18.068H216.228C215.865 18.068 215.548 18.204 215.276 18.476C215.026 18.7253 214.902 19.0313 214.902 19.394V35H212.114Z" fill="#F5E4C9"/>
<path d="M5.72949 60.0928L7.71191 52.0469H8.78516L8.85352 53.7422L6.73438 62H5.59961L5.72949 60.0928ZM4.47852 52.0469L6.10547 60.0654V62H4.86816L2.6123 52.0469H4.47852ZM10.9111 60.0312L12.5107 52.0469H14.3838L12.1279 62H10.8906L10.9111 60.0312ZM9.29785 52.0469L11.2803 60.1201L11.3965 62H10.2617L8.14941 53.7354L8.23145 52.0469H9.29785ZM17.3506 54.6035V62H15.5391V54.6035H17.3506ZM15.416 52.6689C15.416 52.4001 15.5072 52.1768 15.6895 51.999C15.8763 51.8213 16.127 51.7324 16.4414 51.7324C16.7559 51.7324 17.0042 51.8213 17.1865 51.999C17.3734 52.1768 17.4668 52.4001 17.4668 52.6689C17.4668 52.9333 17.3734 53.1543 17.1865 53.332C17.0042 53.5098 16.7559 53.5986 16.4414 53.5986C16.127 53.5986 15.8763 53.5098 15.6895 53.332C15.5072 53.1543 15.416 52.9333 15.416 52.6689ZM20.8779 56.1143V62H19.0732V54.6035H20.7822L20.8779 56.1143ZM23.127 54.5557L23.0996 56.2373C22.9993 56.2191 22.8854 56.2054 22.7578 56.1963C22.6348 56.1872 22.5186 56.1826 22.4092 56.1826C22.1312 56.1826 21.8874 56.2214 21.6777 56.2988C21.4681 56.3717 21.2926 56.4788 21.1514 56.6201C21.0146 56.7614 20.9098 56.9346 20.8369 57.1396C20.764 57.3402 20.723 57.568 20.7139 57.8232L20.3242 57.7754C20.3242 57.306 20.3721 56.8708 20.4678 56.4697C20.5635 56.0687 20.7025 55.7178 20.8848 55.417C21.0671 55.1162 21.2949 54.8838 21.5684 54.7197C21.8464 54.5511 22.1654 54.4668 22.5254 54.4668C22.6257 54.4668 22.7327 54.4759 22.8467 54.4941C22.9652 54.5078 23.0586 54.5283 23.127 54.5557ZM29.4023 56.1211V62H27.5977V54.6035H29.2998L29.4023 56.1211ZM29.1357 58.0352H28.582C28.582 57.5202 28.6436 57.0462 28.7666 56.6133C28.8942 56.1803 29.0811 55.8044 29.3271 55.4854C29.5732 55.1618 29.8763 54.9111 30.2363 54.7334C30.6009 54.5557 31.0225 54.4668 31.501 54.4668C31.8337 54.4668 32.139 54.5169 32.417 54.6172C32.695 54.7129 32.9342 54.8656 33.1348 55.0752C33.3398 55.2803 33.4971 55.5492 33.6064 55.8818C33.7158 56.21 33.7705 56.6042 33.7705 57.0645V62H31.9658V57.249C31.9658 56.9027 31.9157 56.6315 31.8154 56.4355C31.7197 56.2396 31.5807 56.1029 31.3984 56.0254C31.2161 55.9434 30.9974 55.9023 30.7422 55.9023C30.4596 55.9023 30.2158 55.9593 30.0107 56.0732C29.8102 56.1826 29.6439 56.3353 29.5117 56.5312C29.3841 56.7272 29.2884 56.9528 29.2246 57.208C29.1654 57.4632 29.1357 57.7389 29.1357 58.0352ZM33.6338 57.7002L32.8887 57.8369C32.8932 57.3721 32.957 56.9368 33.0801 56.5312C33.2031 56.1211 33.3831 55.7633 33.6201 55.458C33.8617 55.1481 34.1602 54.9066 34.5156 54.7334C34.8757 54.5557 35.2904 54.4668 35.7598 54.4668C36.1243 54.4668 36.4525 54.5192 36.7441 54.624C37.0404 54.7243 37.2933 54.8861 37.5029 55.1094C37.7126 55.3281 37.8721 55.613 37.9814 55.9639C38.0954 56.3148 38.1523 56.7432 38.1523 57.249V62H36.334V57.2422C36.334 56.8822 36.2839 56.6064 36.1836 56.415C36.0879 56.2236 35.9489 56.0915 35.7666 56.0186C35.5843 55.9411 35.3701 55.9023 35.124 55.9023C34.8734 55.9023 34.6546 55.9502 34.4678 56.0459C34.2855 56.137 34.1305 56.2646 34.0029 56.4287C33.8799 56.5928 33.7865 56.7842 33.7227 57.0029C33.6634 57.2171 33.6338 57.4495 33.6338 57.7002ZM43.8467 60.4277V57.0166C43.8467 56.766 43.8034 56.5495 43.7168 56.3672C43.6302 56.1849 43.498 56.0436 43.3203 55.9434C43.1426 55.8431 42.917 55.793 42.6436 55.793C42.402 55.793 42.1901 55.834 42.0078 55.916C41.8301 55.998 41.6934 56.1143 41.5977 56.2646C41.502 56.4105 41.4541 56.5791 41.4541 56.7705H39.6426C39.6426 56.4652 39.7155 56.1758 39.8613 55.9023C40.0072 55.6243 40.2145 55.3783 40.4834 55.1641C40.7568 54.9453 41.0827 54.7744 41.4609 54.6514C41.8438 54.5283 42.2721 54.4668 42.7461 54.4668C43.3066 54.4668 43.8057 54.5625 44.2432 54.7539C44.6852 54.9408 45.0316 55.2233 45.2822 55.6016C45.5374 55.9798 45.665 56.4561 45.665 57.0303V60.2568C45.665 60.626 45.6878 60.9427 45.7334 61.207C45.7835 61.4668 45.8564 61.6924 45.9521 61.8838V62H44.1133C44.0267 61.8132 43.9606 61.5762 43.915 61.2891C43.8695 60.9974 43.8467 60.7103 43.8467 60.4277ZM44.0996 57.4951L44.1133 58.5684H42.9717C42.6891 58.5684 42.4408 58.598 42.2266 58.6572C42.0124 58.7119 41.8369 58.7939 41.7002 58.9033C41.5635 59.0081 41.4609 59.1357 41.3926 59.2861C41.3242 59.432 41.29 59.5983 41.29 59.7852C41.29 59.9674 41.3311 60.1315 41.4131 60.2773C41.4997 60.4232 41.6227 60.5394 41.7822 60.626C41.9463 60.708 42.1377 60.749 42.3564 60.749C42.6755 60.749 42.9535 60.6852 43.1904 60.5576C43.4274 60.4255 43.612 60.266 43.7441 60.0791C43.8763 59.8923 43.9469 59.7145 43.9561 59.5459L44.4756 60.3252C44.4118 60.512 44.3161 60.7103 44.1885 60.9199C44.0609 61.1296 43.8968 61.3255 43.6963 61.5078C43.4958 61.6901 43.2542 61.8405 42.9717 61.959C42.6891 62.0775 42.361 62.1367 41.9873 62.1367C41.5088 62.1367 41.0804 62.041 40.7021 61.8496C40.3239 61.6582 40.0254 61.3962 39.8066 61.0635C39.5879 60.7308 39.4785 60.3525 39.4785 59.9287C39.4785 59.5368 39.5514 59.1904 39.6973 58.8896C39.8431 58.5889 40.0596 58.3359 40.3467 58.1309C40.6338 57.9212 40.9893 57.764 41.4131 57.6592C41.8415 57.5498 42.3314 57.4951 42.8828 57.4951H44.0996ZM50.3271 60.7148C50.5824 60.7148 50.8102 60.6647 51.0107 60.5645C51.2113 60.4642 51.3708 60.3229 51.4893 60.1406C51.6123 59.9583 51.6784 59.7464 51.6875 59.5049H53.3896C53.3805 60.0062 53.2393 60.4551 52.9658 60.8516C52.6924 61.248 52.3278 61.5625 51.8721 61.7949C51.4209 62.0228 50.915 62.1367 50.3545 62.1367C49.7848 62.1367 49.2881 62.041 48.8643 61.8496C48.4404 61.6582 48.0872 61.3916 47.8047 61.0498C47.5267 60.708 47.3171 60.3115 47.1758 59.8604C47.0391 59.4092 46.9707 58.9261 46.9707 58.4111V58.1924C46.9707 57.6774 47.0391 57.1943 47.1758 56.7432C47.3171 56.292 47.5267 55.8955 47.8047 55.5537C48.0872 55.2119 48.4404 54.9453 48.8643 54.7539C49.2881 54.5625 49.7826 54.4668 50.3477 54.4668C50.9447 54.4668 51.4688 54.583 51.9199 54.8154C52.3757 55.0479 52.7311 55.376 52.9863 55.7998C53.2461 56.2236 53.3805 56.7227 53.3896 57.2969H51.6875C51.6784 57.0326 51.6191 56.7956 51.5098 56.5859C51.4004 56.3763 51.2454 56.2077 51.0449 56.0801C50.8444 55.9525 50.6006 55.8887 50.3135 55.8887C50.0081 55.8887 49.7529 55.9525 49.5479 56.0801C49.3473 56.2077 49.1901 56.3831 49.0762 56.6064C48.9668 56.8252 48.8893 57.0713 48.8438 57.3447C48.8027 57.6136 48.7822 57.8962 48.7822 58.1924V58.4111C48.7822 58.7119 48.8027 58.999 48.8438 59.2725C48.8893 59.5459 48.9668 59.792 49.0762 60.0107C49.1901 60.2249 49.3473 60.3958 49.5479 60.5234C49.7529 60.651 50.0127 60.7148 50.3271 60.7148ZM56.3633 51.5V62H54.5518V51.5H56.3633ZM56.0762 58.0352H55.543C55.543 57.5202 55.6113 57.0462 55.748 56.6133C55.8848 56.1803 56.0785 55.8044 56.3291 55.4854C56.5798 55.1618 56.8783 54.9111 57.2246 54.7334C57.5755 54.5557 57.9629 54.4668 58.3867 54.4668C58.7513 54.4668 59.0817 54.5192 59.3779 54.624C59.6787 54.7243 59.9362 54.8861 60.1504 55.1094C60.3646 55.3327 60.5286 55.6243 60.6426 55.9844C60.7611 56.3398 60.8203 56.7728 60.8203 57.2832V62H59.002V57.2695C59.002 56.9277 58.9518 56.6589 58.8516 56.4629C58.7513 56.2624 58.6077 56.1188 58.4209 56.0322C58.2386 55.9456 58.013 55.9023 57.7441 55.9023C57.4525 55.9023 57.2018 55.9593 56.9922 56.0732C56.7826 56.1826 56.6094 56.3353 56.4727 56.5312C56.3405 56.7272 56.2402 56.9528 56.1719 57.208C56.1081 57.4632 56.0762 57.7389 56.0762 58.0352ZM65.7354 62.1367C65.1748 62.1367 64.6712 62.0456 64.2246 61.8633C63.778 61.681 63.3975 61.4281 63.083 61.1045C62.7731 60.7764 62.5339 60.3958 62.3652 59.9629C62.2012 59.5254 62.1191 59.056 62.1191 58.5547V58.2812C62.1191 57.7116 62.2012 57.1943 62.3652 56.7295C62.5293 56.2601 62.7617 55.8568 63.0625 55.5195C63.3633 55.1823 63.7233 54.9225 64.1426 54.7402C64.5618 54.5579 65.0244 54.4668 65.5303 54.4668C66.0544 54.4668 66.5169 54.5557 66.918 54.7334C67.319 54.9066 67.654 55.1527 67.9229 55.4717C68.1917 55.7907 68.3945 56.1735 68.5312 56.6201C68.668 57.0622 68.7363 57.5521 68.7363 58.0898V58.8486H62.9395V57.6045H66.959V57.4678C66.9499 57.1807 66.8952 56.9186 66.7949 56.6816C66.6947 56.4401 66.5397 56.2487 66.3301 56.1074C66.1204 55.9616 65.8493 55.8887 65.5166 55.8887C65.2477 55.8887 65.013 55.9479 64.8125 56.0664C64.6165 56.1803 64.4525 56.3444 64.3203 56.5586C64.1927 56.7682 64.097 57.0189 64.0332 57.3105C63.9694 57.6022 63.9375 57.9258 63.9375 58.2812V58.5547C63.9375 58.8646 63.9785 59.1517 64.0605 59.416C64.1471 59.6803 64.2725 59.9105 64.4365 60.1064C64.6051 60.2979 64.8057 60.4482 65.0381 60.5576C65.2751 60.6624 65.5439 60.7148 65.8447 60.7148C66.223 60.7148 66.5648 60.6419 66.8701 60.4961C67.18 60.3457 67.4489 60.1247 67.6768 59.833L68.5859 60.7764C68.431 61.0042 68.2214 61.223 67.957 61.4326C67.6973 61.6423 67.3828 61.8132 67.0137 61.9453C66.6445 62.0729 66.2184 62.1367 65.7354 62.1367ZM71.7168 56.1826V62H69.9121V54.6035H71.6074L71.7168 56.1826ZM71.4297 58.0352H70.8965C70.901 57.4974 70.974 57.0098 71.1152 56.5723C71.2565 56.1348 71.4548 55.7588 71.71 55.4443C71.9697 55.1299 72.2773 54.8883 72.6328 54.7197C72.9883 54.5511 73.3848 54.4668 73.8223 54.4668C74.1777 54.4668 74.499 54.5169 74.7861 54.6172C75.0732 54.7174 75.3193 54.877 75.5244 55.0957C75.734 55.3145 75.8936 55.6016 76.0029 55.957C76.1169 56.3079 76.1738 56.7409 76.1738 57.2559V62H74.3555V57.2422C74.3555 56.9049 74.3053 56.6383 74.2051 56.4424C74.1094 56.2464 73.9681 56.1074 73.7812 56.0254C73.599 55.9434 73.3734 55.9023 73.1045 55.9023C72.8265 55.9023 72.5827 55.9593 72.373 56.0732C72.168 56.1826 71.9948 56.3353 71.8535 56.5312C71.7168 56.7272 71.612 56.9528 71.5391 57.208C71.4661 57.4632 71.4297 57.7389 71.4297 58.0352ZM84.3633 62H82.2168L82.2305 60.5234H84.3633C84.9421 60.5234 85.4274 60.3958 85.8193 60.1406C86.2113 59.8809 86.5075 59.5094 86.708 59.0264C86.9085 58.5387 87.0088 57.9554 87.0088 57.2764V56.7637C87.0088 56.2396 86.9518 55.777 86.8379 55.376C86.724 54.9749 86.5553 54.6377 86.332 54.3643C86.1133 54.0908 85.8421 53.8835 85.5186 53.7422C85.195 53.6009 84.8236 53.5303 84.4043 53.5303H82.1758V52.0469H84.4043C85.0697 52.0469 85.6758 52.1585 86.2227 52.3818C86.7741 52.6051 87.2503 52.9264 87.6514 53.3457C88.057 53.7604 88.3669 54.2572 88.5811 54.8359C88.7998 55.4147 88.9092 56.0618 88.9092 56.7773V57.2764C88.9092 57.9873 88.7998 58.6344 88.5811 59.2178C88.3669 59.7965 88.057 60.2933 87.6514 60.708C87.2503 61.1227 86.7718 61.4417 86.2158 61.665C85.6598 61.8883 85.0423 62 84.3633 62ZM83.2695 52.0469V62H81.3896V52.0469H83.2695ZM92.2861 54.6035V62H90.4746V54.6035H92.2861ZM90.3516 52.6689C90.3516 52.4001 90.4427 52.1768 90.625 51.999C90.8118 51.8213 91.0625 51.7324 91.377 51.7324C91.6914 51.7324 91.9398 51.8213 92.1221 51.999C92.3089 52.1768 92.4023 52.4001 92.4023 52.6689C92.4023 52.9333 92.3089 53.1543 92.1221 53.332C91.9398 53.5098 91.6914 53.5986 91.377 53.5986C91.0625 53.5986 90.8118 53.5098 90.625 53.332C90.4427 53.1543 90.3516 52.9333 90.3516 52.6689ZM98.7119 54.6035H100.353V61.7744C100.353 62.4443 100.207 63.0117 99.915 63.4766C99.6279 63.946 99.2246 64.3014 98.7051 64.543C98.1855 64.7891 97.5817 64.9121 96.8936 64.9121C96.5973 64.9121 96.276 64.8711 95.9297 64.7891C95.5879 64.707 95.2575 64.5771 94.9385 64.3994C94.624 64.2262 94.362 64.0007 94.1523 63.7227L94.9658 62.6562C95.2119 62.9434 95.4899 63.1598 95.7998 63.3057C96.1097 63.4561 96.4447 63.5312 96.8047 63.5312C97.1693 63.5312 97.4792 63.4629 97.7344 63.3262C97.9941 63.194 98.1924 62.998 98.3291 62.7383C98.4704 62.4831 98.541 62.1686 98.541 61.7949V56.292L98.7119 54.6035ZM93.7148 58.3906V58.2471C93.7148 57.682 93.7832 57.1693 93.9199 56.709C94.0566 56.2441 94.2526 55.8454 94.5078 55.5127C94.7676 55.18 95.0798 54.9225 95.4443 54.7402C95.8135 54.5579 96.2282 54.4668 96.6885 54.4668C97.1761 54.4668 97.5863 54.5557 97.9189 54.7334C98.2562 54.9111 98.5342 55.1641 98.7529 55.4922C98.9762 55.8203 99.1494 56.21 99.2725 56.6611C99.4001 57.1077 99.498 57.5999 99.5664 58.1377V58.5273C99.5026 59.0514 99.4001 59.5322 99.2588 59.9697C99.1221 60.4072 98.9398 60.79 98.7119 61.1182C98.484 61.4417 98.2015 61.6924 97.8643 61.8701C97.527 62.0479 97.1305 62.1367 96.6748 62.1367C96.2191 62.1367 95.8089 62.0433 95.4443 61.8564C95.0798 61.6696 94.7676 61.4076 94.5078 61.0703C94.2526 60.7331 94.0566 60.3366 93.9199 59.8809C93.7832 59.4251 93.7148 58.9284 93.7148 58.3906ZM95.5195 58.2471V58.3906C95.5195 58.7096 95.5514 59.0081 95.6152 59.2861C95.679 59.5641 95.777 59.8102 95.9092 60.0244C96.0413 60.234 96.2077 60.3981 96.4082 60.5166C96.6087 60.6351 96.848 60.6943 97.126 60.6943C97.4997 60.6943 97.805 60.6169 98.042 60.4619C98.2835 60.3024 98.4658 60.0859 98.5889 59.8125C98.7165 59.5345 98.7985 59.2223 98.835 58.876V57.8027C98.8122 57.5293 98.762 57.2764 98.6846 57.0439C98.6117 56.8115 98.5091 56.611 98.377 56.4424C98.2448 56.2738 98.0762 56.1416 97.8711 56.0459C97.666 55.9502 97.4222 55.9023 97.1396 55.9023C96.8662 55.9023 96.627 55.9639 96.4219 56.0869C96.2168 56.2054 96.0482 56.3717 95.916 56.5859C95.7839 56.8001 95.6836 57.0485 95.6152 57.3311C95.5514 57.6136 95.5195 57.9189 95.5195 58.2471ZM103.894 54.6035V62H102.082V54.6035H103.894ZM101.959 52.6689C101.959 52.4001 102.05 52.1768 102.232 51.999C102.419 51.8213 102.67 51.7324 102.984 51.7324C103.299 51.7324 103.547 51.8213 103.729 51.999C103.916 52.1768 104.01 52.4001 104.01 52.6689C104.01 52.9333 103.916 53.1543 103.729 53.332C103.547 53.5098 103.299 53.5986 102.984 53.5986C102.67 53.5986 102.419 53.5098 102.232 53.332C102.05 53.1543 101.959 52.9333 101.959 52.6689ZM109.116 54.6035V55.9023H104.878V54.6035H109.116ZM106.013 52.7852H107.824V59.8672C107.824 60.0859 107.854 60.2546 107.913 60.373C107.972 60.4915 108.061 60.5713 108.18 60.6123C108.298 60.6533 108.439 60.6738 108.604 60.6738C108.722 60.6738 108.831 60.667 108.932 60.6533C109.032 60.6396 109.116 60.626 109.185 60.6123L109.191 61.9658C109.041 62.016 108.87 62.057 108.679 62.0889C108.492 62.1208 108.28 62.1367 108.043 62.1367C107.637 62.1367 107.282 62.0684 106.977 61.9316C106.671 61.7904 106.434 61.5648 106.266 61.2549C106.097 60.9404 106.013 60.5257 106.013 60.0107V52.7852ZM114.394 60.4277V57.0166C114.394 56.766 114.35 56.5495 114.264 56.3672C114.177 56.1849 114.045 56.0436 113.867 55.9434C113.689 55.8431 113.464 55.793 113.19 55.793C112.949 55.793 112.737 55.834 112.555 55.916C112.377 55.998 112.24 56.1143 112.145 56.2646C112.049 56.4105 112.001 56.5791 112.001 56.7705H110.189C110.189 56.4652 110.262 56.1758 110.408 55.9023C110.554 55.6243 110.761 55.3783 111.03 55.1641C111.304 54.9453 111.63 54.7744 112.008 54.6514C112.391 54.5283 112.819 54.4668 113.293 54.4668C113.854 54.4668 114.353 54.5625 114.79 54.7539C115.232 54.9408 115.578 55.2233 115.829 55.6016C116.084 55.9798 116.212 56.4561 116.212 57.0303V60.2568C116.212 60.626 116.235 60.9427 116.28 61.207C116.33 61.4668 116.403 61.6924 116.499 61.8838V62H114.66C114.574 61.8132 114.507 61.5762 114.462 61.2891C114.416 60.9974 114.394 60.7103 114.394 60.4277ZM114.646 57.4951L114.66 58.5684H113.519C113.236 58.5684 112.988 58.598 112.773 58.6572C112.559 58.7119 112.384 58.7939 112.247 58.9033C112.11 59.0081 112.008 59.1357 111.939 59.2861C111.871 59.432 111.837 59.5983 111.837 59.7852C111.837 59.9674 111.878 60.1315 111.96 60.2773C112.047 60.4232 112.17 60.5394 112.329 60.626C112.493 60.708 112.685 60.749 112.903 60.749C113.222 60.749 113.5 60.6852 113.737 60.5576C113.974 60.4255 114.159 60.266 114.291 60.0791C114.423 59.8923 114.494 59.7145 114.503 59.5459L115.022 60.3252C114.959 60.512 114.863 60.7103 114.735 60.9199C114.608 61.1296 114.444 61.3255 114.243 61.5078C114.043 61.6901 113.801 61.8405 113.519 61.959C113.236 62.0775 112.908 62.1367 112.534 62.1367C112.056 62.1367 111.627 62.041 111.249 61.8496C110.871 61.6582 110.572 61.3962 110.354 61.0635C110.135 60.7308 110.025 60.3525 110.025 59.9287C110.025 59.5368 110.098 59.1904 110.244 58.8896C110.39 58.5889 110.606 58.3359 110.894 58.1309C111.181 57.9212 111.536 57.764 111.96 57.6592C112.388 57.5498 112.878 57.4951 113.43 57.4951H114.646ZM119.753 51.5V62H117.941V51.5H119.753ZM123.39 54.6035V62H121.578V54.6035H123.39ZM121.455 52.6689C121.455 52.4001 121.546 52.1768 121.729 51.999C121.915 51.8213 122.166 51.7324 122.48 51.7324C122.795 51.7324 123.043 51.8213 123.226 51.999C123.412 52.1768 123.506 52.4001 123.506 52.6689C123.506 52.9333 123.412 53.1543 123.226 53.332C123.043 53.5098 122.795 53.5986 122.48 53.5986C122.166 53.5986 121.915 53.5098 121.729 53.332C121.546 53.1543 121.455 52.9333 121.455 52.6689ZM129.18 59.9766C129.18 59.8216 129.139 59.6826 129.057 59.5596C128.975 59.4365 128.82 59.3249 128.592 59.2246C128.368 59.1198 128.04 59.0218 127.607 58.9307C127.225 58.8486 126.871 58.7461 126.548 58.623C126.224 58.5 125.946 58.3519 125.714 58.1787C125.481 58.001 125.299 57.7936 125.167 57.5566C125.039 57.3151 124.976 57.0371 124.976 56.7227C124.976 56.4173 125.042 56.1302 125.174 55.8613C125.306 55.5879 125.497 55.3486 125.748 55.1436C125.999 54.9339 126.304 54.7699 126.664 54.6514C127.024 54.5283 127.43 54.4668 127.881 54.4668C128.51 54.4668 129.05 54.5693 129.501 54.7744C129.957 54.9795 130.305 55.262 130.547 55.6221C130.788 55.9775 130.909 56.3786 130.909 56.8252H129.104C129.104 56.6292 129.059 56.4515 128.968 56.292C128.881 56.1325 128.747 56.0049 128.564 55.9092C128.382 55.8089 128.152 55.7588 127.874 55.7588C127.623 55.7588 127.411 55.7998 127.238 55.8818C127.07 55.9639 126.942 56.071 126.855 56.2031C126.769 56.3353 126.726 56.4811 126.726 56.6406C126.726 56.7591 126.748 56.8662 126.794 56.9619C126.844 57.0531 126.924 57.1374 127.033 57.2148C127.143 57.2923 127.291 57.363 127.478 57.4268C127.669 57.4906 127.904 57.5521 128.182 57.6113C128.733 57.7207 129.214 57.8665 129.624 58.0488C130.039 58.2266 130.362 58.4635 130.595 58.7598C130.827 59.056 130.943 59.4342 130.943 59.8945C130.943 60.2227 130.873 60.5234 130.731 60.7969C130.59 61.0658 130.385 61.3005 130.116 61.501C129.847 61.7015 129.526 61.8587 129.152 61.9727C128.779 62.082 128.357 62.1367 127.888 62.1367C127.209 62.1367 126.634 62.016 126.165 61.7744C125.696 61.5283 125.34 61.2184 125.099 60.8447C124.857 60.4665 124.736 60.0745 124.736 59.6689H126.466C126.479 59.9561 126.557 60.1862 126.698 60.3594C126.84 60.5326 127.017 60.6579 127.231 60.7354C127.45 60.8083 127.68 60.8447 127.922 60.8447C128.195 60.8447 128.425 60.8083 128.612 60.7354C128.799 60.6579 128.94 60.5553 129.036 60.4277C129.132 60.2956 129.18 60.1452 129.18 59.9766ZM134.231 54.6035V62H132.42V54.6035H134.231ZM132.297 52.6689C132.297 52.4001 132.388 52.1768 132.57 51.999C132.757 51.8213 133.008 51.7324 133.322 51.7324C133.637 51.7324 133.885 51.8213 134.067 51.999C134.254 52.1768 134.348 52.4001 134.348 52.6689C134.348 52.9333 134.254 53.1543 134.067 53.332C133.885 53.5098 133.637 53.5986 133.322 53.5986C133.008 53.5986 132.757 53.5098 132.57 53.332C132.388 53.1543 132.297 52.9333 132.297 52.6689ZM139.276 62.1367C138.716 62.1367 138.212 62.0456 137.766 61.8633C137.319 61.681 136.938 61.4281 136.624 61.1045C136.314 60.7764 136.075 60.3958 135.906 59.9629C135.742 59.5254 135.66 59.056 135.66 58.5547V58.2812C135.66 57.7116 135.742 57.1943 135.906 56.7295C136.07 56.2601 136.303 55.8568 136.604 55.5195C136.904 55.1823 137.264 54.9225 137.684 54.7402C138.103 54.5579 138.565 54.4668 139.071 54.4668C139.595 54.4668 140.058 54.5557 140.459 54.7334C140.86 54.9066 141.195 55.1527 141.464 55.4717C141.733 55.7907 141.936 56.1735 142.072 56.6201C142.209 57.0622 142.277 57.5521 142.277 58.0898V58.8486H136.48V57.6045H140.5V57.4678C140.491 57.1807 140.436 56.9186 140.336 56.6816C140.236 56.4401 140.081 56.2487 139.871 56.1074C139.661 55.9616 139.39 55.8887 139.058 55.8887C138.789 55.8887 138.554 55.9479 138.354 56.0664C138.158 56.1803 137.993 56.3444 137.861 56.5586C137.734 56.7682 137.638 57.0189 137.574 57.3105C137.51 57.6022 137.479 57.9258 137.479 58.2812V58.5547C137.479 58.8646 137.52 59.1517 137.602 59.416C137.688 59.6803 137.813 59.9105 137.978 60.1064C138.146 60.2979 138.347 60.4482 138.579 60.5576C138.816 60.6624 139.085 60.7148 139.386 60.7148C139.764 60.7148 140.106 60.6419 140.411 60.4961C140.721 60.3457 140.99 60.1247 141.218 59.833L142.127 60.7764C141.972 61.0042 141.762 61.223 141.498 61.4326C141.238 61.6423 140.924 61.8132 140.555 61.9453C140.186 62.0729 139.759 62.1367 139.276 62.1367ZM145.292 56.1143V62H143.487V54.6035H145.196L145.292 56.1143ZM147.541 54.5557L147.514 56.2373C147.413 56.2191 147.299 56.2054 147.172 56.1963C147.049 56.1872 146.933 56.1826 146.823 56.1826C146.545 56.1826 146.301 56.2214 146.092 56.2988C145.882 56.3717 145.707 56.4788 145.565 56.6201C145.429 56.7614 145.324 56.9346 145.251 57.1396C145.178 57.3402 145.137 57.568 145.128 57.8232L144.738 57.7754C144.738 57.306 144.786 56.8708 144.882 56.4697C144.978 56.0687 145.117 55.7178 145.299 55.417C145.481 55.1162 145.709 54.8838 145.982 54.7197C146.26 54.5511 146.579 54.4668 146.939 54.4668C147.04 54.4668 147.147 54.4759 147.261 54.4941C147.379 54.5078 147.473 54.5283 147.541 54.5557ZM152.935 60.2432V54.6035H154.753V62H153.044L152.935 60.2432ZM153.167 58.7119L153.728 58.6982C153.728 59.195 153.673 59.653 153.563 60.0723C153.454 60.4915 153.283 60.8561 153.051 61.166C152.823 61.4714 152.534 61.7106 152.183 61.8838C151.832 62.0524 151.417 62.1367 150.938 62.1367C150.574 62.1367 150.241 62.0866 149.94 61.9863C149.64 61.8815 149.38 61.7197 149.161 61.501C148.947 61.2777 148.781 60.9928 148.662 60.6465C148.544 60.2956 148.484 59.874 148.484 59.3818V54.6035H150.289V59.3955C150.289 59.6416 150.316 59.8467 150.371 60.0107C150.43 60.1748 150.51 60.3092 150.61 60.4141C150.715 60.5143 150.836 60.5872 150.973 60.6328C151.114 60.6738 151.264 60.6943 151.424 60.6943C151.861 60.6943 152.205 60.6077 152.456 60.4346C152.711 60.2568 152.894 60.0199 153.003 59.7236C153.112 59.4229 153.167 59.0856 153.167 58.7119ZM158.123 56.1826V62H156.318V54.6035H158.014L158.123 56.1826ZM157.836 58.0352H157.303C157.307 57.4974 157.38 57.0098 157.521 56.5723C157.663 56.1348 157.861 55.7588 158.116 55.4443C158.376 55.1299 158.684 54.8883 159.039 54.7197C159.395 54.5511 159.791 54.4668 160.229 54.4668C160.584 54.4668 160.905 54.5169 161.192 54.6172C161.479 54.7174 161.726 54.877 161.931 55.0957C162.14 55.3145 162.3 55.6016 162.409 55.957C162.523 56.3079 162.58 56.7409 162.58 57.2559V62H160.762V57.2422C160.762 56.9049 160.712 56.6383 160.611 56.4424C160.516 56.2464 160.374 56.1074 160.188 56.0254C160.005 55.9434 159.78 55.9023 159.511 55.9023C159.233 55.9023 158.989 55.9593 158.779 56.0732C158.574 56.1826 158.401 56.3353 158.26 56.5312C158.123 56.7272 158.018 56.9528 157.945 57.208C157.872 57.4632 157.836 57.7389 157.836 58.0352ZM168.876 54.6035H170.517V61.7744C170.517 62.4443 170.371 63.0117 170.079 63.4766C169.792 63.946 169.389 64.3014 168.869 64.543C168.35 64.7891 167.746 64.9121 167.058 64.9121C166.761 64.9121 166.44 64.8711 166.094 64.7891C165.752 64.707 165.422 64.5771 165.103 64.3994C164.788 64.2262 164.526 64.0007 164.316 63.7227L165.13 62.6562C165.376 62.9434 165.654 63.1598 165.964 63.3057C166.274 63.4561 166.609 63.5312 166.969 63.5312C167.333 63.5312 167.643 63.4629 167.898 63.3262C168.158 63.194 168.356 62.998 168.493 62.7383C168.634 62.4831 168.705 62.1686 168.705 61.7949V56.292L168.876 54.6035ZM163.879 58.3906V58.2471C163.879 57.682 163.947 57.1693 164.084 56.709C164.221 56.2441 164.417 55.8454 164.672 55.5127C164.932 55.18 165.244 54.9225 165.608 54.7402C165.978 54.5579 166.392 54.4668 166.853 54.4668C167.34 54.4668 167.75 54.5557 168.083 54.7334C168.42 54.9111 168.698 55.1641 168.917 55.4922C169.14 55.8203 169.313 56.21 169.437 56.6611C169.564 57.1077 169.662 57.5999 169.73 58.1377V58.5273C169.667 59.0514 169.564 59.5322 169.423 59.9697C169.286 60.4072 169.104 60.79 168.876 61.1182C168.648 61.4417 168.366 61.6924 168.028 61.8701C167.691 62.0479 167.295 62.1367 166.839 62.1367C166.383 62.1367 165.973 62.0433 165.608 61.8564C165.244 61.6696 164.932 61.4076 164.672 61.0703C164.417 60.7331 164.221 60.3366 164.084 59.8809C163.947 59.4251 163.879 58.9284 163.879 58.3906ZM165.684 58.2471V58.3906C165.684 58.7096 165.715 59.0081 165.779 59.2861C165.843 59.5641 165.941 59.8102 166.073 60.0244C166.205 60.234 166.372 60.3981 166.572 60.5166C166.773 60.6351 167.012 60.6943 167.29 60.6943C167.664 60.6943 167.969 60.6169 168.206 60.4619C168.448 60.3024 168.63 60.0859 168.753 59.8125C168.881 59.5345 168.963 59.2223 168.999 58.876V57.8027C168.976 57.5293 168.926 57.2764 168.849 57.0439C168.776 56.8115 168.673 56.611 168.541 56.4424C168.409 56.2738 168.24 56.1416 168.035 56.0459C167.83 55.9502 167.586 55.9023 167.304 55.9023C167.03 55.9023 166.791 55.9639 166.586 56.0869C166.381 56.2054 166.212 56.3717 166.08 56.5859C165.948 56.8001 165.848 57.0485 165.779 57.3311C165.715 57.6136 165.684 57.9189 165.684 58.2471ZM179.697 59.9766C179.697 59.8216 179.656 59.6826 179.574 59.5596C179.492 59.4365 179.337 59.3249 179.109 59.2246C178.886 59.1198 178.558 59.0218 178.125 58.9307C177.742 58.8486 177.389 58.7461 177.065 58.623C176.742 58.5 176.464 58.3519 176.231 58.1787C175.999 58.001 175.817 57.7936 175.685 57.5566C175.557 57.3151 175.493 57.0371 175.493 56.7227C175.493 56.4173 175.559 56.1302 175.691 55.8613C175.824 55.5879 176.015 55.3486 176.266 55.1436C176.516 54.9339 176.822 54.7699 177.182 54.6514C177.542 54.5283 177.947 54.4668 178.398 54.4668C179.027 54.4668 179.567 54.5693 180.019 54.7744C180.474 54.9795 180.823 55.262 181.064 55.6221C181.306 55.9775 181.427 56.3786 181.427 56.8252H179.622C179.622 56.6292 179.576 56.4515 179.485 56.292C179.399 56.1325 179.264 56.0049 179.082 55.9092C178.9 55.8089 178.67 55.7588 178.392 55.7588C178.141 55.7588 177.929 55.7998 177.756 55.8818C177.587 55.9639 177.46 56.071 177.373 56.2031C177.286 56.3353 177.243 56.4811 177.243 56.6406C177.243 56.7591 177.266 56.8662 177.312 56.9619C177.362 57.0531 177.441 57.1374 177.551 57.2148C177.66 57.2923 177.808 57.363 177.995 57.4268C178.187 57.4906 178.421 57.5521 178.699 57.6113C179.251 57.7207 179.731 57.8665 180.142 58.0488C180.556 58.2266 180.88 58.4635 181.112 58.7598C181.345 59.056 181.461 59.4342 181.461 59.8945C181.461 60.2227 181.39 60.5234 181.249 60.7969C181.108 61.0658 180.903 61.3005 180.634 61.501C180.365 61.7015 180.044 61.8587 179.67 61.9727C179.296 62.082 178.875 62.1367 178.405 62.1367C177.726 62.1367 177.152 62.016 176.683 61.7744C176.213 61.5283 175.858 61.2184 175.616 60.8447C175.375 60.4665 175.254 60.0745 175.254 59.6689H176.983C176.997 59.9561 177.075 60.1862 177.216 60.3594C177.357 60.5326 177.535 60.6579 177.749 60.7354C177.968 60.8083 178.198 60.8447 178.439 60.8447C178.713 60.8447 178.943 60.8083 179.13 60.7354C179.317 60.6579 179.458 60.5553 179.554 60.4277C179.649 60.2956 179.697 60.1452 179.697 59.9766ZM184.749 54.6035V62H182.938V54.6035H184.749ZM182.814 52.6689C182.814 52.4001 182.906 52.1768 183.088 51.999C183.275 51.8213 183.525 51.7324 183.84 51.7324C184.154 51.7324 184.403 51.8213 184.585 51.999C184.772 52.1768 184.865 52.4001 184.865 52.6689C184.865 52.9333 184.772 53.1543 184.585 53.332C184.403 53.5098 184.154 53.5986 183.84 53.5986C183.525 53.5986 183.275 53.5098 183.088 53.332C182.906 53.1543 182.814 52.9333 182.814 52.6689ZM189.507 60.7148C189.762 60.7148 189.99 60.6647 190.19 60.5645C190.391 60.4642 190.55 60.3229 190.669 60.1406C190.792 59.9583 190.858 59.7464 190.867 59.5049H192.569C192.56 60.0062 192.419 60.4551 192.146 60.8516C191.872 61.248 191.507 61.5625 191.052 61.7949C190.601 62.0228 190.095 62.1367 189.534 62.1367C188.965 62.1367 188.468 62.041 188.044 61.8496C187.62 61.6582 187.267 61.3916 186.984 61.0498C186.706 60.708 186.497 60.3115 186.355 59.8604C186.219 59.4092 186.15 58.9261 186.15 58.4111V58.1924C186.15 57.6774 186.219 57.1943 186.355 56.7432C186.497 56.292 186.706 55.8955 186.984 55.5537C187.267 55.2119 187.62 54.9453 188.044 54.7539C188.468 54.5625 188.962 54.4668 189.527 54.4668C190.124 54.4668 190.648 54.583 191.1 54.8154C191.555 55.0479 191.911 55.376 192.166 55.7998C192.426 56.2236 192.56 56.7227 192.569 57.2969H190.867C190.858 57.0326 190.799 56.7956 190.689 56.5859C190.58 56.3763 190.425 56.2077 190.225 56.0801C190.024 55.9525 189.78 55.8887 189.493 55.8887C189.188 55.8887 188.933 55.9525 188.728 56.0801C188.527 56.2077 188.37 56.3831 188.256 56.6064C188.146 56.8252 188.069 57.0713 188.023 57.3447C187.982 57.6136 187.962 57.8962 187.962 58.1924V58.4111C187.962 58.7119 187.982 58.999 188.023 59.2725C188.069 59.5459 188.146 59.792 188.256 60.0107C188.37 60.2249 188.527 60.3958 188.728 60.5234C188.933 60.651 189.192 60.7148 189.507 60.7148ZM195.543 51.5V62H193.731V51.5H195.543ZM195.256 58.0352H194.723C194.723 57.5202 194.791 57.0462 194.928 56.6133C195.064 56.1803 195.258 55.8044 195.509 55.4854C195.759 55.1618 196.058 54.9111 196.404 54.7334C196.755 54.5557 197.143 54.4668 197.566 54.4668C197.931 54.4668 198.261 54.5192 198.558 54.624C198.858 54.7243 199.116 54.8861 199.33 55.1094C199.544 55.3327 199.708 55.6243 199.822 55.9844C199.941 56.3398 200 56.7728 200 57.2832V62H198.182V57.2695C198.182 56.9277 198.132 56.6589 198.031 56.4629C197.931 56.2624 197.787 56.1188 197.601 56.0322C197.418 55.9456 197.193 55.9023 196.924 55.9023C196.632 55.9023 196.382 55.9593 196.172 56.0732C195.962 56.1826 195.789 56.3353 195.652 56.5312C195.52 56.7272 195.42 56.9528 195.352 57.208C195.288 57.4632 195.256 57.7389 195.256 58.0352ZM205.093 54.6035V55.9023H200.854V54.6035H205.093ZM201.989 52.7852H203.801V59.8672C203.801 60.0859 203.83 60.2546 203.89 60.373C203.949 60.4915 204.038 60.5713 204.156 60.6123C204.275 60.6533 204.416 60.6738 204.58 60.6738C204.699 60.6738 204.808 60.667 204.908 60.6533C205.008 60.6396 205.093 60.626 205.161 60.6123L205.168 61.9658C205.018 62.016 204.847 62.057 204.655 62.0889C204.468 62.1208 204.257 62.1367 204.02 62.1367C203.614 62.1367 203.258 62.0684 202.953 61.9316C202.648 61.7904 202.411 61.5648 202.242 61.2549C202.074 60.9404 201.989 60.5257 201.989 60.0107V52.7852ZM206.289 51.5H208.101V60.3662L207.923 62H206.289V51.5ZM212.858 58.2266V58.3701C212.858 58.9215 212.797 59.4274 212.674 59.8877C212.555 60.348 212.375 60.7467 212.134 61.084C211.892 61.4167 211.591 61.6764 211.231 61.8633C210.876 62.0456 210.459 62.1367 209.98 62.1367C209.525 62.1367 209.128 62.0479 208.791 61.8701C208.458 61.6924 208.178 61.4417 207.95 61.1182C207.722 60.79 207.54 60.4049 207.403 59.9629C207.267 59.5163 207.164 59.0286 207.096 58.5V58.1104C207.164 57.5771 207.267 57.0895 207.403 56.6475C207.54 56.2054 207.722 55.8203 207.95 55.4922C208.178 55.1641 208.458 54.9111 208.791 54.7334C209.124 54.5557 209.516 54.4668 209.967 54.4668C210.45 54.4668 210.871 54.5602 211.231 54.7471C211.596 54.9294 211.897 55.1891 212.134 55.5264C212.375 55.859 212.555 56.2555 212.674 56.7158C212.797 57.1715 212.858 57.6751 212.858 58.2266ZM211.047 58.3701V58.2266C211.047 57.9121 211.022 57.6159 210.972 57.3379C210.922 57.0553 210.84 56.807 210.726 56.5928C210.612 56.3786 210.457 56.21 210.261 56.0869C210.065 55.9639 209.819 55.9023 209.522 55.9023C209.24 55.9023 208.998 55.9502 208.798 56.0459C208.602 56.1416 208.438 56.2738 208.306 56.4424C208.178 56.611 208.078 56.8092 208.005 57.0371C207.937 57.265 207.891 57.5111 207.868 57.7754V58.8418C207.9 59.1927 207.975 59.5094 208.094 59.792C208.212 60.07 208.388 60.291 208.62 60.4551C208.857 60.6191 209.162 60.7012 209.536 60.7012C209.828 60.7012 210.072 60.6442 210.268 60.5303C210.464 60.4118 210.618 60.2477 210.732 60.0381C210.846 59.8239 210.926 59.5755 210.972 59.293C211.022 59.0104 211.047 58.7028 211.047 58.3701ZM218.245 60.4277V57.0166C218.245 56.766 218.202 56.5495 218.115 56.3672C218.029 56.1849 217.896 56.0436 217.719 55.9434C217.541 55.8431 217.315 55.793 217.042 55.793C216.8 55.793 216.589 55.834 216.406 55.916C216.229 55.998 216.092 56.1143 215.996 56.2646C215.9 56.4105 215.853 56.5791 215.853 56.7705H214.041C214.041 56.4652 214.114 56.1758 214.26 55.9023C214.406 55.6243 214.613 55.3783 214.882 55.1641C215.155 54.9453 215.481 54.7744 215.859 54.6514C216.242 54.5283 216.671 54.4668 217.145 54.4668C217.705 54.4668 218.204 54.5625 218.642 54.7539C219.084 54.9408 219.43 55.2233 219.681 55.6016C219.936 55.9798 220.063 56.4561 220.063 57.0303V60.2568C220.063 60.626 220.086 60.9427 220.132 61.207C220.182 61.4668 220.255 61.6924 220.351 61.8838V62H218.512C218.425 61.8132 218.359 61.5762 218.313 61.2891C218.268 60.9974 218.245 60.7103 218.245 60.4277ZM218.498 57.4951L218.512 58.5684H217.37C217.088 58.5684 216.839 58.598 216.625 58.6572C216.411 58.7119 216.235 58.7939 216.099 58.9033C215.962 59.0081 215.859 59.1357 215.791 59.2861C215.723 59.432 215.688 59.5983 215.688 59.7852C215.688 59.9674 215.729 60.1315 215.812 60.2773C215.898 60.4232 216.021 60.5394 216.181 60.626C216.345 60.708 216.536 60.749 216.755 60.749C217.074 60.749 217.352 60.6852 217.589 60.5576C217.826 60.4255 218.01 60.266 218.143 60.0791C218.275 59.8923 218.345 59.7145 218.354 59.5459L218.874 60.3252C218.81 60.512 218.715 60.7103 218.587 60.9199C218.459 61.1296 218.295 61.3255 218.095 61.5078C217.894 61.6901 217.653 61.8405 217.37 61.959C217.088 62.0775 216.759 62.1367 216.386 62.1367C215.907 62.1367 215.479 62.041 215.101 61.8496C214.722 61.6582 214.424 61.3962 214.205 61.0635C213.986 60.7308 213.877 60.3525 213.877 59.9287C213.877 59.5368 213.95 59.1904 214.096 58.8896C214.242 58.5889 214.458 58.3359 214.745 58.1309C215.032 57.9212 215.388 57.764 215.812 57.6592C216.24 57.5498 216.73 57.4951 217.281 57.4951H218.498ZM223.495 56.1143V62H221.69V54.6035H223.399L223.495 56.1143ZM225.744 54.5557L225.717 56.2373C225.617 56.2191 225.503 56.2054 225.375 56.1963C225.252 56.1872 225.136 56.1826 225.026 56.1826C224.748 56.1826 224.505 56.2214 224.295 56.2988C224.085 56.3717 223.91 56.4788 223.769 56.6201C223.632 56.7614 223.527 56.9346 223.454 57.1396C223.381 57.3402 223.34 57.568 223.331 57.8232L222.941 57.7754C222.941 57.306 222.989 56.8708 223.085 56.4697C223.181 56.0687 223.32 55.7178 223.502 55.417C223.684 55.1162 223.912 54.8838 224.186 54.7197C224.464 54.5511 224.783 54.4668 225.143 54.4668C225.243 54.4668 225.35 54.4759 225.464 54.4941C225.582 54.5078 225.676 54.5283 225.744 54.5557ZM228.793 52.0469L228.595 59.0127H227.07L226.872 52.0469H228.793ZM226.817 61.1592C226.817 60.8903 226.909 60.6647 227.091 60.4824C227.278 60.2956 227.528 60.2021 227.843 60.2021C228.157 60.2021 228.406 60.2956 228.588 60.4824C228.775 60.6647 228.868 60.8903 228.868 61.1592C228.868 61.4235 228.775 61.6468 228.588 61.8291C228.406 62.0114 228.157 62.1025 227.843 62.1025C227.528 62.1025 227.278 62.0114 227.091 61.8291C226.909 61.6468 226.817 61.4235 226.817 61.1592Z" fill="#F5E4C9"/>
</svg>
