<svg width="598" height="592" viewBox="0 0 598 592" fill="none" xmlns="http://www.w3.org/2000/svg">
<path d="M0.117188 107.573H88.7087C97.5722 107.573 105.163 104.445 111.526 98.1036C117.888 91.8054 121.091 84.2909 121.091 75.5168V0.111328H0.117188V107.529V107.573Z" fill="#DCA54C"/>
<path d="M582.522 55.1885C572.298 38.205 558.739 24.7831 541.846 14.9231C524.953 5.06306 506.26 0.111328 485.813 0.111328H188.358V75.5167C188.358 93.5862 183.926 110.179 175.062 125.251C166.199 140.324 154.176 152.225 138.95 160.999C123.724 169.773 106.962 174.161 88.7087 174.161H0.117188V591.887H187.963V186.149H597.879V111.091C597.879 90.8063 592.745 72.1721 582.522 55.1885Z" fill="#DCA54C"/>
<path d="M264.753 262.163C258.391 268.461 255.188 276.019 255.188 284.75V591.844H485.771C506.263 591.844 524.911 586.893 541.804 577.033C558.698 567.173 572.256 553.751 582.48 536.767C592.704 519.784 597.838 501.149 597.838 480.865V252.65H287.526C278.663 252.65 271.072 255.821 264.709 262.12L264.753 262.163Z" fill="#DCA54C"/>
<path d="M238.826 101V99.92L242.666 97.31V98.57H245.486V101H238.826ZM224.666 101C224.006 101 223.396 100.84 222.836 100.52C222.296 100.2 221.866 99.77 221.546 99.23C221.226 98.67 221.066 98.06 221.066 97.4V83C221.066 82.34 221.226 81.74 221.546 81.2C221.866 80.64 222.296 80.2 222.836 79.88C223.396 79.56 224.006 79.4 224.666 79.4H239.066C239.726 79.4 240.326 79.56 240.866 79.88C241.426 80.2 241.866 80.64 242.186 81.2C242.506 81.74 242.666 82.34 242.666 83V97.4C242.666 98.06 242.506 98.67 242.186 99.23C241.866 99.77 241.426 100.2 240.866 100.52C240.326 100.84 239.726 101 239.066 101H224.666ZM224.666 98.57H239.066C239.386 98.57 239.656 98.46 239.876 98.24C240.116 98 240.236 97.72 240.236 97.4V83C240.236 82.68 240.116 82.41 239.876 82.19C239.656 81.95 239.386 81.83 239.066 81.83H224.666C224.346 81.83 224.066 81.95 223.826 82.19C223.606 82.41 223.496 82.68 223.496 83V97.4C223.496 97.72 223.606 98 223.826 98.24C224.066 98.46 224.346 98.57 224.666 98.57ZM251.18 101C250.52 101 249.91 100.84 249.35 100.52C248.81 100.18 248.37 99.74 248.03 99.2C247.71 98.64 247.55 98.03 247.55 97.37V83.6H250.01V97.37C250.01 97.69 250.12 97.97 250.34 98.21C250.58 98.43 250.86 98.54 251.18 98.54H261.62C261.94 98.54 262.22 98.43 262.46 98.21C262.7 97.97 262.82 97.69 262.82 97.37V83.6H265.28V97.37C265.28 98.03 265.11 98.64 264.77 99.2C264.45 99.74 264.01 100.18 263.45 100.52C262.91 100.84 262.3 101 261.62 101H251.18ZM272.009 101C271.349 101 270.739 100.84 270.179 100.52C269.639 100.18 269.199 99.74 268.859 99.2C268.539 98.64 268.379 98.03 268.379 97.37V91.07H283.619V87.23C283.619 86.91 283.499 86.64 283.259 86.42C283.039 86.18 282.769 86.06 282.449 86.06H268.379V83.6H282.449C283.129 83.6 283.739 83.77 284.279 84.11C284.839 84.43 285.279 84.87 285.599 85.43C285.939 85.97 286.109 86.57 286.109 87.23V101H272.009ZM272.009 98.54H283.619V93.53H270.839V97.37C270.839 97.69 270.949 97.97 271.169 98.21C271.409 98.43 271.689 98.54 272.009 98.54ZM292.546 101C291.886 101 291.276 100.84 290.716 100.52C290.176 100.18 289.736 99.74 289.396 99.2C289.076 98.64 288.916 98.03 288.916 97.37V77.9H291.376V97.37C291.376 97.69 291.486 97.97 291.706 98.21C291.946 98.43 292.226 98.54 292.546 98.54H295.486V101H292.546ZM297.969 101V83.6H300.429V101H297.969ZM297.969 80.36V77.9H300.429V80.36H297.969ZM307.869 101C307.189 101 306.569 100.84 306.009 100.52C305.469 100.18 305.039 99.74 304.719 99.2C304.399 98.64 304.239 98.03 304.239 97.37V77.9H306.699V83.6H314.229V86.06H306.699V97.37C306.699 97.69 306.809 97.97 307.029 98.21C307.269 98.43 307.549 98.54 307.869 98.54H314.229V101H307.869ZM320.144 101C319.484 101 318.874 100.84 318.314 100.52C317.774 100.18 317.334 99.74 316.994 99.2C316.674 98.64 316.514 98.03 316.514 97.37V91.07H331.754V87.23C331.754 86.91 331.634 86.64 331.394 86.42C331.174 86.18 330.904 86.06 330.584 86.06H316.514V83.6H330.584C331.264 83.6 331.874 83.77 332.414 84.11C332.974 84.43 333.414 84.87 333.734 85.43C334.074 85.97 334.244 86.57 334.244 87.23V101H320.144ZM320.144 98.54H331.754V93.53H318.974V97.37C318.974 97.69 319.084 97.97 319.304 98.21C319.544 98.43 319.824 98.54 320.144 98.54ZM327.464 81.8V79.34H329.954V81.8H327.464ZM321.974 81.8V79.34H324.464V81.8H321.974ZM341.004 101C340.324 101 339.704 100.84 339.144 100.52C338.604 100.18 338.174 99.74 337.854 99.2C337.534 98.64 337.374 98.03 337.374 97.37V77.9H339.834V83.6H347.364V86.06H339.834V97.37C339.834 97.69 339.944 97.97 340.164 98.21C340.404 98.43 340.684 98.54 341.004 98.54H347.364V101H341.004ZM353.159 101C352.499 101 351.889 100.84 351.329 100.52C350.789 100.18 350.349 99.74 350.009 99.2C349.689 98.64 349.529 98.03 349.529 97.37V97.13H351.989V97.37C351.989 97.69 352.099 97.97 352.319 98.21C352.559 98.43 352.839 98.54 353.159 98.54H363.599C363.919 98.54 364.189 98.43 364.409 98.21C364.649 97.97 364.769 97.69 364.769 97.37V94.7C364.769 94.38 364.649 94.11 364.409 93.89C364.189 93.65 363.919 93.53 363.599 93.53H353.159C352.499 93.53 351.889 93.37 351.329 93.05C350.789 92.71 350.349 92.27 350.009 91.73C349.689 91.17 349.529 90.56 349.529 89.9V87.23C349.529 86.57 349.689 85.97 350.009 85.43C350.349 84.87 350.789 84.43 351.329 84.11C351.889 83.77 352.499 83.6 353.159 83.6H363.599C364.279 83.6 364.889 83.77 365.429 84.11C365.989 84.43 366.429 84.87 366.749 85.43C367.089 85.97 367.259 86.57 367.259 87.23V87.47H364.769V87.23C364.769 86.91 364.649 86.64 364.409 86.42C364.189 86.18 363.919 86.06 363.599 86.06H353.159C352.839 86.06 352.559 86.18 352.319 86.42C352.099 86.64 351.989 86.91 351.989 87.23V89.9C351.989 90.22 352.099 90.5 352.319 90.74C352.559 90.96 352.839 91.07 353.159 91.07H363.599C364.279 91.07 364.889 91.24 365.429 91.58C365.989 91.9 366.429 92.34 366.749 92.9C367.089 93.44 367.259 94.04 367.259 94.7V97.37C367.259 98.03 367.089 98.64 366.749 99.2C366.429 99.74 365.989 100.18 365.429 100.52C364.889 100.84 364.279 101 363.599 101H353.159ZM378.599 93.35V90.89H390.299V93.35H378.599ZM405.631 101C404.971 101 404.361 100.84 403.801 100.52C403.261 100.2 402.831 99.77 402.511 99.23C402.191 98.67 402.031 98.06 402.031 97.4V96.56H404.461V97.4C404.461 97.72 404.571 98 404.791 98.24C405.031 98.46 405.311 98.57 405.631 98.57H420.031C420.351 98.57 420.621 98.46 420.841 98.24C421.081 98 421.201 97.72 421.201 97.4V92.57C421.201 92.25 421.081 91.98 420.841 91.76C420.621 91.54 420.351 91.43 420.031 91.43H405.631C404.971 91.43 404.361 91.27 403.801 90.95C403.261 90.61 402.831 90.17 402.511 89.63C402.191 89.09 402.031 88.49 402.031 87.83V83C402.031 82.34 402.191 81.74 402.511 81.2C402.831 80.64 403.261 80.2 403.801 79.88C404.361 79.56 404.971 79.4 405.631 79.4H420.031C420.691 79.4 421.291 79.56 421.831 79.88C422.391 80.2 422.831 80.64 423.151 81.2C423.471 81.74 423.631 82.34 423.631 83V83.84H421.201V83C421.201 82.68 421.081 82.41 420.841 82.19C420.621 81.95 420.351 81.83 420.031 81.83H405.631C405.311 81.83 405.031 81.95 404.791 82.19C404.571 82.41 404.461 82.68 404.461 83V87.83C404.461 88.15 404.571 88.42 404.791 88.64C405.031 88.86 405.311 88.97 405.631 88.97H420.031C420.691 88.97 421.291 89.14 421.831 89.48C422.391 89.8 422.831 90.23 423.151 90.77C423.471 91.31 423.631 91.91 423.631 92.57V97.4C423.631 98.06 423.471 98.67 423.151 99.23C422.831 99.77 422.391 100.2 421.831 100.52C421.291 100.84 420.691 101 420.031 101H405.631ZM430.329 101C429.669 101 429.059 100.84 428.499 100.52C427.959 100.18 427.519 99.74 427.179 99.2C426.859 98.64 426.699 98.03 426.699 97.37V87.23C426.699 86.57 426.859 85.97 427.179 85.43C427.519 84.87 427.959 84.43 428.499 84.11C429.059 83.77 429.669 83.6 430.329 83.6H440.769C441.449 83.6 442.059 83.77 442.599 84.11C443.159 84.43 443.599 84.87 443.919 85.43C444.259 85.97 444.429 86.57 444.429 87.23V97.37C444.429 98.03 444.259 98.64 443.919 99.2C443.599 99.74 443.159 100.18 442.599 100.52C442.059 100.84 441.449 101 440.769 101H430.329ZM430.329 98.54H440.769C441.089 98.54 441.359 98.43 441.579 98.21C441.819 97.97 441.939 97.69 441.939 97.37V87.23C441.939 86.91 441.819 86.64 441.579 86.42C441.359 86.18 441.089 86.06 440.769 86.06H430.329C430.009 86.06 429.729 86.18 429.489 86.42C429.269 86.64 429.159 86.91 429.159 87.23V97.37C429.159 97.69 429.269 97.97 429.489 98.21C429.729 98.43 430.009 98.54 430.329 98.54ZM447.53 101V81.53C447.53 80.85 447.69 80.24 448.01 79.7C448.33 79.14 448.76 78.7 449.3 78.38C449.86 78.06 450.48 77.9 451.16 77.9H457.52V80.36H451.16C450.84 80.36 450.56 80.48 450.32 80.72C450.1 80.94 449.99 81.21 449.99 81.53V83.6H457.52V86.06H449.99V101H447.53ZM463.524 101C462.844 101 462.224 100.84 461.664 100.52C461.124 100.18 460.694 99.74 460.374 99.2C460.054 98.64 459.894 98.03 459.894 97.37V77.9H462.354V83.6H469.884V86.06H462.354V97.37C462.354 97.69 462.464 97.97 462.684 98.21C462.924 98.43 463.204 98.54 463.524 98.54H469.884V101H463.524ZM478.498 101L471.658 83.6H474.298L479.578 96.56L485.188 83.6H488.428L494.398 96.53L499.318 83.6H501.988L495.418 101H493.288L486.808 86.63L480.658 101H478.498ZM507.937 101C507.277 101 506.667 100.84 506.107 100.52C505.567 100.18 505.127 99.74 504.787 99.2C504.467 98.64 504.307 98.03 504.307 97.37V91.07H519.547V87.23C519.547 86.91 519.427 86.64 519.187 86.42C518.967 86.18 518.697 86.06 518.377 86.06H504.307V83.6H518.377C519.057 83.6 519.667 83.77 520.207 84.11C520.767 84.43 521.207 84.87 521.527 85.43C521.867 85.97 522.037 86.57 522.037 87.23V101H507.937ZM507.937 98.54H519.547V93.53H506.767V97.37C506.767 97.69 506.877 97.97 507.097 98.21C507.337 98.43 507.617 98.54 507.937 98.54ZM524.991 101V87.23C524.991 86.57 525.151 85.97 525.471 85.43C525.811 84.87 526.251 84.43 526.791 84.11C527.351 83.77 527.961 83.6 528.621 83.6H538.401V86.06H528.621C528.301 86.06 528.021 86.18 527.781 86.42C527.561 86.64 527.451 86.91 527.451 87.23V101H524.991ZM543.942 101C543.282 101 542.672 100.84 542.112 100.52C541.572 100.18 541.132 99.74 540.792 99.2C540.472 98.64 540.312 98.03 540.312 97.37V87.23C540.312 86.57 540.472 85.97 540.792 85.43C541.132 84.87 541.572 84.43 542.112 84.11C542.672 83.77 543.282 83.6 543.942 83.6H554.382C555.062 83.6 555.672 83.77 556.212 84.11C556.772 84.43 557.212 84.87 557.532 85.43C557.872 85.97 558.042 86.57 558.042 87.23V93.53H542.772V97.37C542.772 97.69 542.882 97.97 543.102 98.21C543.342 98.43 543.622 98.54 543.942 98.54H558.042V101H543.942ZM542.772 91.07H555.552V87.23C555.552 86.91 555.432 86.64 555.192 86.42C554.972 86.18 554.702 86.06 554.382 86.06H543.942C543.622 86.06 543.342 86.18 543.102 86.42C542.882 86.64 542.772 86.91 542.772 87.23V91.07Z" fill="#001F29"/>
<path d="M296.758 372V354C296.758 353.34 296.918 352.74 297.238 352.2C297.558 351.64 297.988 351.2 298.528 350.88C299.088 350.56 299.698 350.4 300.358 350.4H314.758C315.418 350.4 316.018 350.56 316.558 350.88C317.118 351.2 317.558 351.64 317.878 352.2C318.198 352.74 318.358 353.34 318.358 354V372H315.928V364.11H299.188V372H296.758ZM299.188 361.68H315.928V354C315.928 353.68 315.808 353.41 315.568 353.19C315.348 352.95 315.078 352.83 314.758 352.83H300.358C300.038 352.83 299.758 352.95 299.518 353.19C299.298 353.41 299.188 353.68 299.188 354V361.68ZM321.716 372V354.6H335.816C336.476 354.6 337.076 354.77 337.616 355.11C338.176 355.43 338.616 355.87 338.936 356.43C339.276 356.97 339.446 357.57 339.446 358.23V372H336.986V358.23C336.986 357.91 336.866 357.64 336.626 357.42C336.406 357.18 336.136 357.06 335.816 357.06H325.376C325.056 357.06 324.776 357.18 324.536 357.42C324.296 357.64 324.176 357.91 324.176 358.23V372H321.716ZM346.054 372C345.394 372 344.784 371.84 344.224 371.52C343.684 371.18 343.244 370.74 342.904 370.2C342.584 369.64 342.424 369.03 342.424 368.37V368.13H344.884V368.37C344.884 368.69 344.994 368.97 345.214 369.21C345.454 369.43 345.734 369.54 346.054 369.54H356.494C356.814 369.54 357.084 369.43 357.304 369.21C357.544 368.97 357.664 368.69 357.664 368.37V365.7C357.664 365.38 357.544 365.11 357.304 364.89C357.084 364.65 356.814 364.53 356.494 364.53H346.054C345.394 364.53 344.784 364.37 344.224 364.05C343.684 363.71 343.244 363.27 342.904 362.73C342.584 362.17 342.424 361.56 342.424 360.9V358.23C342.424 357.57 342.584 356.97 342.904 356.43C343.244 355.87 343.684 355.43 344.224 355.11C344.784 354.77 345.394 354.6 346.054 354.6H356.494C357.174 354.6 357.784 354.77 358.324 355.11C358.884 355.43 359.324 355.87 359.644 356.43C359.984 356.97 360.154 357.57 360.154 358.23V358.47H357.664V358.23C357.664 357.91 357.544 357.64 357.304 357.42C357.084 357.18 356.814 357.06 356.494 357.06H346.054C345.734 357.06 345.454 357.18 345.214 357.42C344.994 357.64 344.884 357.91 344.884 358.23V360.9C344.884 361.22 344.994 361.5 345.214 361.74C345.454 361.96 345.734 362.07 346.054 362.07H356.494C357.174 362.07 357.784 362.24 358.324 362.58C358.884 362.9 359.324 363.34 359.644 363.9C359.984 364.44 360.154 365.04 360.154 365.7V368.37C360.154 369.03 359.984 369.64 359.644 370.2C359.324 370.74 358.884 371.18 358.324 371.52C357.784 371.84 357.174 372 356.494 372H346.054ZM363.171 378.9V354.6H377.271C377.931 354.6 378.531 354.77 379.071 355.11C379.631 355.43 380.071 355.87 380.391 356.43C380.731 356.97 380.901 357.57 380.901 358.23V368.37C380.901 369.03 380.731 369.64 380.391 370.2C380.071 370.74 379.631 371.18 379.071 371.52C378.531 371.84 377.931 372 377.271 372H365.631V378.9H363.171ZM366.831 369.54H377.271C377.591 369.54 377.861 369.43 378.081 369.21C378.321 368.97 378.441 368.69 378.441 368.37V358.23C378.441 357.91 378.321 357.64 378.081 357.42C377.861 357.18 377.591 357.06 377.271 357.06H366.831C366.511 357.06 366.231 357.18 365.991 357.42C365.751 357.64 365.631 357.91 365.631 358.23V368.37C365.631 368.69 365.751 368.97 365.991 369.21C366.231 369.43 366.511 369.54 366.831 369.54ZM383.033 372V358.23C383.033 357.57 383.193 356.97 383.513 356.43C383.853 355.87 384.293 355.43 384.833 355.11C385.393 354.77 386.003 354.6 386.663 354.6H396.443V357.06H386.663C386.343 357.06 386.063 357.18 385.823 357.42C385.603 357.64 385.493 357.91 385.493 358.23V372H383.033ZM402.044 372C401.384 372 400.774 371.84 400.214 371.52C399.674 371.18 399.234 370.74 398.894 370.2C398.574 369.64 398.414 369.03 398.414 368.37V354.6H400.874V368.37C400.874 368.69 400.984 368.97 401.204 369.21C401.444 369.43 401.724 369.54 402.044 369.54H412.484C412.804 369.54 413.084 369.43 413.324 369.21C413.564 368.97 413.684 368.69 413.684 368.37V354.6H416.144V368.37C416.144 369.03 415.974 369.64 415.634 370.2C415.314 370.74 414.874 371.18 414.314 371.52C413.774 371.84 413.164 372 412.484 372H402.044ZM422.258 372C421.598 372 420.988 371.84 420.428 371.52C419.888 371.18 419.448 370.74 419.108 370.2C418.788 369.64 418.628 369.03 418.628 368.37V358.23C418.628 357.57 418.788 356.97 419.108 356.43C419.448 355.87 419.888 355.43 420.428 355.11C420.988 354.77 421.598 354.6 422.258 354.6H436.298V357.06H422.258C421.938 357.06 421.658 357.18 421.418 357.42C421.198 357.64 421.088 357.91 421.088 358.23V368.37C421.088 368.69 421.198 368.97 421.418 369.21C421.658 369.43 421.938 369.54 422.258 369.54H436.358V372H422.258ZM439.138 372V348.9H441.598V354.6H453.238C453.898 354.6 454.498 354.77 455.038 355.11C455.598 355.43 456.038 355.87 456.358 356.43C456.698 356.97 456.868 357.57 456.868 358.23V372H454.408V358.23C454.408 357.91 454.288 357.64 454.048 357.42C453.828 357.18 453.558 357.06 453.238 357.06H442.798C442.478 357.06 442.198 357.18 441.958 357.42C441.718 357.64 441.598 357.91 441.598 358.23V372H439.138ZM462.627 372C461.967 372 461.357 371.84 460.797 371.52C460.257 371.18 459.817 370.74 459.477 370.2C459.157 369.64 458.997 369.03 458.997 368.37V368.13H461.457V368.37C461.457 368.69 461.567 368.97 461.787 369.21C462.027 369.43 462.307 369.54 462.627 369.54H473.067C473.387 369.54 473.657 369.43 473.877 369.21C474.117 368.97 474.237 368.69 474.237 368.37V365.7C474.237 365.38 474.117 365.11 473.877 364.89C473.657 364.65 473.387 364.53 473.067 364.53H462.627C461.967 364.53 461.357 364.37 460.797 364.05C460.257 363.71 459.817 363.27 459.477 362.73C459.157 362.17 458.997 361.56 458.997 360.9V358.23C458.997 357.57 459.157 356.97 459.477 356.43C459.817 355.87 460.257 355.43 460.797 355.11C461.357 354.77 461.967 354.6 462.627 354.6H473.067C473.747 354.6 474.357 354.77 474.897 355.11C475.457 355.43 475.897 355.87 476.217 356.43C476.557 356.97 476.727 357.57 476.727 358.23V358.47H474.237V358.23C474.237 357.91 474.117 357.64 473.877 357.42C473.657 357.18 473.387 357.06 473.067 357.06H462.627C462.307 357.06 462.027 357.18 461.787 357.42C461.567 357.64 461.457 357.91 461.457 358.23V360.9C461.457 361.22 461.567 361.5 461.787 361.74C462.027 361.96 462.307 362.07 462.627 362.07H473.067C473.747 362.07 474.357 362.24 474.897 362.58C475.457 362.9 475.897 363.34 476.217 363.9C476.557 364.44 476.727 365.04 476.727 365.7V368.37C476.727 369.03 476.557 369.64 476.217 370.2C475.897 370.74 475.457 371.18 474.897 371.52C474.357 371.84 473.747 372 473.067 372H462.627ZM487.767 372L478.167 354.6H481.047L489.207 369.6L497.367 354.6H500.247L490.617 372H487.767ZM505.519 372C504.859 372 504.249 371.84 503.689 371.52C503.149 371.18 502.709 370.74 502.369 370.2C502.049 369.64 501.889 369.03 501.889 368.37V358.23C501.889 357.57 502.049 356.97 502.369 356.43C502.709 355.87 503.149 355.43 503.689 355.11C504.249 354.77 504.859 354.6 505.519 354.6H515.959C516.639 354.6 517.249 354.77 517.789 355.11C518.349 355.43 518.789 355.87 519.109 356.43C519.449 356.97 519.619 357.57 519.619 358.23V368.37C519.619 369.03 519.449 369.64 519.109 370.2C518.789 370.74 518.349 371.18 517.789 371.52C517.249 371.84 516.639 372 515.959 372H505.519ZM505.519 369.54H515.959C516.279 369.54 516.549 369.43 516.769 369.21C517.009 368.97 517.129 368.69 517.129 368.37V358.23C517.129 357.91 517.009 357.64 516.769 357.42C516.549 357.18 516.279 357.06 515.959 357.06H505.519C505.199 357.06 504.919 357.18 504.679 357.42C504.459 357.64 504.349 357.91 504.349 358.23V368.37C504.349 368.69 504.459 368.97 504.679 369.21C504.919 369.43 505.199 369.54 505.519 369.54ZM525.735 372C525.075 372 524.465 371.84 523.905 371.52C523.365 371.18 522.925 370.74 522.585 370.2C522.265 369.64 522.105 369.03 522.105 368.37V348.9H524.565V368.37C524.565 368.69 524.675 368.97 524.895 369.21C525.135 369.43 525.415 369.54 525.735 369.54H528.675V372H525.735ZM534.788 372C534.128 372 533.518 371.84 532.958 371.52C532.418 371.18 531.978 370.74 531.638 370.2C531.318 369.64 531.158 369.03 531.158 368.37V348.9H533.618V368.37C533.618 368.69 533.728 368.97 533.948 369.21C534.188 369.43 534.468 369.54 534.788 369.54H537.728V372H534.788ZM543.371 372C542.711 372 542.101 371.84 541.541 371.52C541.001 371.18 540.561 370.74 540.221 370.2C539.901 369.64 539.741 369.03 539.741 368.37V358.23C539.741 357.57 539.901 356.97 540.221 356.43C540.561 355.87 541.001 355.43 541.541 355.11C542.101 354.77 542.711 354.6 543.371 354.6H553.811C554.491 354.6 555.101 354.77 555.641 355.11C556.201 355.43 556.641 355.87 556.961 356.43C557.301 356.97 557.471 357.57 557.471 358.23V364.53H542.201V368.37C542.201 368.69 542.311 368.97 542.531 369.21C542.771 369.43 543.051 369.54 543.371 369.54H557.471V372H543.371ZM542.201 362.07H554.981V358.23C554.981 357.91 554.861 357.64 554.621 357.42C554.401 357.18 554.131 357.06 553.811 357.06H543.371C543.051 357.06 542.771 357.18 542.531 357.42C542.311 357.64 542.201 357.91 542.201 358.23V362.07ZM307.121 422L299.261 400.4H301.841L308.171 417.74L314.471 400.4H317.411L323.741 417.74L330.011 400.4H332.651L324.791 422H322.661L315.941 403.55L309.221 422H307.121ZM337.678 422C337.018 422 336.408 421.84 335.848 421.52C335.308 421.18 334.868 420.74 334.528 420.2C334.208 419.64 334.048 419.03 334.048 418.37V408.23C334.048 407.57 334.208 406.97 334.528 406.43C334.868 405.87 335.308 405.43 335.848 405.11C336.408 404.77 337.018 404.6 337.678 404.6H348.118C348.798 404.6 349.408 404.77 349.948 405.11C350.508 405.43 350.948 405.87 351.268 406.43C351.608 406.97 351.778 407.57 351.778 408.23V414.53H336.508V418.37C336.508 418.69 336.618 418.97 336.838 419.21C337.078 419.43 337.358 419.54 337.678 419.54H351.778V422H337.678ZM336.508 412.07H349.288V408.23C349.288 407.91 349.168 407.64 348.928 407.42C348.708 407.18 348.438 407.06 348.118 407.06H337.678C337.358 407.06 337.078 407.18 336.838 407.42C336.618 407.64 336.508 407.91 336.508 408.23V412.07ZM354.909 422V398.9H357.369V404.6H369.009C369.669 404.6 370.269 404.77 370.809 405.11C371.369 405.43 371.809 405.87 372.129 406.43C372.469 406.97 372.639 407.57 372.639 408.23V418.37C372.639 419.03 372.469 419.64 372.129 420.2C371.809 420.74 371.369 421.18 370.809 421.52C370.269 421.84 369.669 422 369.009 422H354.909ZM358.569 419.54H369.009C369.329 419.54 369.599 419.43 369.819 419.21C370.059 418.97 370.179 418.69 370.179 418.37V408.23C370.179 407.91 370.059 407.64 369.819 407.42C369.599 407.18 369.329 407.06 369.009 407.06H358.569C358.249 407.06 357.969 407.18 357.729 407.42C357.489 407.64 357.369 407.91 357.369 408.23V418.37C357.369 418.69 357.489 418.97 357.729 419.21C357.969 419.43 358.249 419.54 358.569 419.54ZM386.693 422C386.033 422 385.423 421.84 384.863 421.52C384.323 421.18 383.883 420.74 383.543 420.2C383.223 419.64 383.063 419.03 383.063 418.37V404.6H385.523V418.37C385.523 418.69 385.633 418.97 385.853 419.21C386.093 419.43 386.373 419.54 386.693 419.54H397.133C397.453 419.54 397.733 419.43 397.973 419.21C398.213 418.97 398.333 418.69 398.333 418.37V404.6H400.793V418.37C400.793 419.03 400.623 419.64 400.283 420.2C399.963 420.74 399.523 421.18 398.963 421.52C398.423 421.84 397.813 422 397.133 422H386.693ZM404.099 422V404.6H418.199C418.859 404.6 419.459 404.77 419.999 405.11C420.559 405.43 420.999 405.87 421.319 406.43C421.659 406.97 421.829 407.57 421.829 408.23V422H419.369V408.23C419.369 407.91 419.249 407.64 419.009 407.42C418.789 407.18 418.519 407.06 418.199 407.06H407.759C407.439 407.06 407.159 407.18 406.919 407.42C406.679 407.64 406.559 407.91 406.559 408.23V422H404.099ZM427.717 422C427.037 422 426.417 421.84 425.857 421.52C425.317 421.18 424.877 420.74 424.537 420.2C424.217 419.64 424.057 419.03 424.057 418.37V408.23C424.057 407.57 424.217 406.97 424.537 406.43C424.877 405.87 425.317 405.43 425.857 405.11C426.417 404.77 427.037 404.6 427.717 404.6H439.327V398.9H441.787V422H427.717ZM427.717 419.54H438.157C438.477 419.54 438.747 419.43 438.967 419.21C439.207 418.97 439.327 418.69 439.327 418.37V408.23C439.327 407.91 439.207 407.64 438.967 407.42C438.747 407.18 438.477 407.06 438.157 407.06H427.717C427.397 407.06 427.117 407.18 426.877 407.42C426.657 407.64 426.547 407.91 426.547 408.23V418.37C426.547 418.69 426.657 418.97 426.877 419.21C427.117 419.43 427.397 419.54 427.717 419.54ZM453.231 422V400.4H456.561L465.531 411.08L474.501 400.4H477.831V422H475.401V403.16L465.531 414.89L455.661 403.16V422H453.231ZM484.543 422C483.883 422 483.273 421.84 482.713 421.52C482.173 421.18 481.733 420.74 481.393 420.2C481.073 419.64 480.913 419.03 480.913 418.37V408.23C480.913 407.57 481.073 406.97 481.393 406.43C481.733 405.87 482.173 405.43 482.713 405.11C483.273 404.77 483.883 404.6 484.543 404.6H494.983C495.663 404.6 496.273 404.77 496.813 405.11C497.373 405.43 497.813 405.87 498.133 406.43C498.473 406.97 498.643 407.57 498.643 408.23V418.37C498.643 419.03 498.473 419.64 498.133 420.2C497.813 420.74 497.373 421.18 496.813 421.52C496.273 421.84 495.663 422 494.983 422H484.543ZM484.543 419.54H494.983C495.303 419.54 495.573 419.43 495.793 419.21C496.033 418.97 496.153 418.69 496.153 418.37V408.23C496.153 407.91 496.033 407.64 495.793 407.42C495.573 407.18 495.303 407.06 494.983 407.06H484.543C484.223 407.06 483.943 407.18 483.703 407.42C483.483 407.64 483.373 407.91 483.373 408.23V418.37C483.373 418.69 483.483 418.97 483.703 419.21C483.943 419.43 484.223 419.54 484.543 419.54ZM501.774 422V398.9H504.234V404.6H515.874C516.534 404.6 517.134 404.77 517.674 405.11C518.234 405.43 518.674 405.87 518.994 406.43C519.334 406.97 519.504 407.57 519.504 408.23V418.37C519.504 419.03 519.334 419.64 518.994 420.2C518.674 420.74 518.234 421.18 517.674 421.52C517.134 421.84 516.534 422 515.874 422H501.774ZM505.434 419.54H515.874C516.194 419.54 516.464 419.43 516.684 419.21C516.924 418.97 517.044 418.69 517.044 418.37V408.23C517.044 407.91 516.924 407.64 516.684 407.42C516.464 407.18 516.194 407.06 515.874 407.06H505.434C505.114 407.06 504.834 407.18 504.594 407.42C504.354 407.64 504.234 407.91 504.234 408.23V418.37C504.234 418.69 504.354 418.97 504.594 419.21C504.834 419.43 505.114 419.54 505.434 419.54ZM521.724 422V404.6H524.184V422H521.724ZM521.724 401.36V398.9H524.184V401.36H521.724ZM531.594 422C530.934 422 530.324 421.84 529.764 421.52C529.224 421.18 528.784 420.74 528.444 420.2C528.124 419.64 527.964 419.03 527.964 418.37V398.9H530.424V418.37C530.424 418.69 530.534 418.97 530.754 419.21C530.994 419.43 531.274 419.54 531.594 419.54H534.534V422H531.594ZM540.178 422C539.518 422 538.908 421.84 538.348 421.52C537.808 421.18 537.368 420.74 537.028 420.2C536.708 419.64 536.548 419.03 536.548 418.37V408.23C536.548 407.57 536.708 406.97 537.028 406.43C537.368 405.87 537.808 405.43 538.348 405.11C538.908 404.77 539.518 404.6 540.178 404.6H550.618C551.298 404.6 551.908 404.77 552.448 405.11C553.008 405.43 553.448 405.87 553.768 406.43C554.108 406.97 554.278 407.57 554.278 408.23V414.53H539.008V418.37C539.008 418.69 539.118 418.97 539.338 419.21C539.578 419.43 539.858 419.54 540.178 419.54H554.278V422H540.178ZM539.008 412.07H551.788V408.23C551.788 407.91 551.668 407.64 551.428 407.42C551.208 407.18 550.938 407.06 550.618 407.06H540.178C539.858 407.06 539.578 407.18 539.338 407.42C539.118 407.64 539.008 407.91 539.008 408.23V412.07ZM317.734 472V454C317.734 453.34 317.894 452.74 318.214 452.2C318.534 451.64 318.964 451.2 319.504 450.88C320.064 450.56 320.674 450.4 321.334 450.4H335.734C336.394 450.4 336.994 450.56 337.534 450.88C338.094 451.2 338.534 451.64 338.854 452.2C339.174 452.74 339.334 453.34 339.334 454V472H336.904V464.11H320.164V472H317.734ZM320.164 461.68H336.904V454C336.904 453.68 336.784 453.41 336.544 453.19C336.324 452.95 336.054 452.83 335.734 452.83H321.334C321.014 452.83 320.734 452.95 320.494 453.19C320.274 453.41 320.164 453.68 320.164 454V461.68ZM342.692 478.9V454.6H356.792C357.452 454.6 358.052 454.77 358.592 455.11C359.152 455.43 359.592 455.87 359.912 456.43C360.252 456.97 360.422 457.57 360.422 458.23V468.37C360.422 469.03 360.252 469.64 359.912 470.2C359.592 470.74 359.152 471.18 358.592 471.52C358.052 471.84 357.452 472 356.792 472H345.152V478.9H342.692ZM346.352 469.54H356.792C357.112 469.54 357.382 469.43 357.602 469.21C357.842 468.97 357.962 468.69 357.962 468.37V458.23C357.962 457.91 357.842 457.64 357.602 457.42C357.382 457.18 357.112 457.06 356.792 457.06H346.352C346.032 457.06 345.752 457.18 345.512 457.42C345.272 457.64 345.152 457.91 345.152 458.23V468.37C345.152 468.69 345.272 468.97 345.512 469.21C345.752 469.43 346.032 469.54 346.352 469.54ZM362.614 478.9V454.6H376.714C377.374 454.6 377.974 454.77 378.514 455.11C379.074 455.43 379.514 455.87 379.834 456.43C380.174 456.97 380.344 457.57 380.344 458.23V468.37C380.344 469.03 380.174 469.64 379.834 470.2C379.514 470.74 379.074 471.18 378.514 471.52C377.974 471.84 377.374 472 376.714 472H365.074V478.9H362.614ZM366.274 469.54H376.714C377.034 469.54 377.304 469.43 377.524 469.21C377.764 468.97 377.884 468.69 377.884 468.37V458.23C377.884 457.91 377.764 457.64 377.524 457.42C377.304 457.18 377.034 457.06 376.714 457.06H366.274C365.954 457.06 365.674 457.18 365.434 457.42C365.194 457.64 365.074 457.91 365.074 458.23V468.37C365.074 468.69 365.194 468.97 365.434 469.21C365.674 469.43 365.954 469.54 366.274 469.54ZM386.106 472C385.446 472 384.836 471.84 384.276 471.52C383.736 471.18 383.296 470.74 382.956 470.2C382.636 469.64 382.476 469.03 382.476 468.37V448.9H384.936V468.37C384.936 468.69 385.046 468.97 385.266 469.21C385.506 469.43 385.786 469.54 386.106 469.54H389.046V472H386.106ZM391.529 472V454.6H393.989V472H391.529ZM391.529 451.36V448.9H393.989V451.36H391.529ZM397.829 472V448.9H400.289V462.07H405.089L411.929 454.6H415.169V454.63L407.279 463.3L415.139 471.97V472H411.929L405.089 464.53H400.289V472H397.829ZM420.794 472C420.134 472 419.524 471.84 418.964 471.52C418.424 471.18 417.984 470.74 417.644 470.2C417.324 469.64 417.164 469.03 417.164 468.37V462.07H432.404V458.23C432.404 457.91 432.284 457.64 432.044 457.42C431.824 457.18 431.554 457.06 431.234 457.06H417.164V454.6H431.234C431.914 454.6 432.524 454.77 433.064 455.11C433.624 455.43 434.064 455.87 434.384 456.43C434.724 456.97 434.894 457.57 434.894 458.23V472H420.794ZM420.794 469.54H432.404V464.53H419.624V468.37C419.624 468.69 419.734 468.97 419.954 469.21C420.194 469.43 420.474 469.54 420.794 469.54ZM441.654 472C440.974 472 440.354 471.84 439.794 471.52C439.254 471.18 438.824 470.74 438.504 470.2C438.184 469.64 438.024 469.03 438.024 468.37V448.9H440.484V454.6H448.014V457.06H440.484V468.37C440.484 468.69 440.594 468.97 440.814 469.21C441.054 469.43 441.334 469.54 441.654 469.54H448.014V472H441.654ZM450.445 472V454.6H452.905V472H450.445ZM450.445 451.36V448.9H452.905V451.36H450.445ZM460.285 472C459.625 472 459.015 471.84 458.455 471.52C457.915 471.18 457.475 470.74 457.135 470.2C456.815 469.64 456.655 469.03 456.655 468.37V458.23C456.655 457.57 456.815 456.97 457.135 456.43C457.475 455.87 457.915 455.43 458.455 455.11C459.015 454.77 459.625 454.6 460.285 454.6H470.725C471.405 454.6 472.015 454.77 472.555 455.11C473.115 455.43 473.555 455.87 473.875 456.43C474.215 456.97 474.385 457.57 474.385 458.23V468.37C474.385 469.03 474.215 469.64 473.875 470.2C473.555 470.74 473.115 471.18 472.555 471.52C472.015 471.84 471.405 472 470.725 472H460.285ZM460.285 469.54H470.725C471.045 469.54 471.315 469.43 471.535 469.21C471.775 468.97 471.895 468.69 471.895 468.37V458.23C471.895 457.91 471.775 457.64 471.535 457.42C471.315 457.18 471.045 457.06 470.725 457.06H460.285C459.965 457.06 459.685 457.18 459.445 457.42C459.225 457.64 459.115 457.91 459.115 458.23V468.37C459.115 468.69 459.225 468.97 459.445 469.21C459.685 469.43 459.965 469.54 460.285 469.54ZM477.077 472V454.6H491.177C491.837 454.6 492.437 454.77 492.977 455.11C493.537 455.43 493.977 455.87 494.297 456.43C494.637 456.97 494.807 457.57 494.807 458.23V472H492.347V458.23C492.347 457.91 492.227 457.64 491.987 457.42C491.767 457.18 491.497 457.06 491.177 457.06H480.737C480.417 457.06 480.137 457.18 479.897 457.42C479.657 457.64 479.537 457.91 479.537 458.23V472H477.077ZM501.506 472C500.846 472 500.236 471.84 499.676 471.52C499.136 471.18 498.696 470.74 498.356 470.2C498.036 469.64 497.876 469.03 497.876 468.37V458.23C497.876 457.57 498.036 456.97 498.356 456.43C498.696 455.87 499.136 455.43 499.676 455.11C500.236 454.77 500.846 454.6 501.506 454.6H511.946C512.626 454.6 513.236 454.77 513.776 455.11C514.336 455.43 514.776 455.87 515.096 456.43C515.436 456.97 515.606 457.57 515.606 458.23V464.53H500.336V468.37C500.336 468.69 500.446 468.97 500.666 469.21C500.906 469.43 501.186 469.54 501.506 469.54H515.606V472H501.506ZM500.336 462.07H513.116V458.23C513.116 457.91 512.996 457.64 512.756 457.42C512.536 457.18 512.266 457.06 511.946 457.06H501.506C501.186 457.06 500.906 457.18 500.666 457.42C500.446 457.64 500.336 457.91 500.336 458.23V462.07ZM518.737 472V454.6H532.837C533.497 454.6 534.097 454.77 534.637 455.11C535.197 455.43 535.637 455.87 535.957 456.43C536.297 456.97 536.467 457.57 536.467 458.23V472H534.007V458.23C534.007 457.91 533.887 457.64 533.647 457.42C533.427 457.18 533.157 457.06 532.837 457.06H522.397C522.077 457.06 521.797 457.18 521.557 457.42C521.317 457.64 521.197 457.91 521.197 458.23V472H518.737Z" fill="#001F29"/>
<path d="M67.4058 90.0234V95H66.7427L64.2373 91.1616V95H63.5776V90.0234H64.2373L66.7529 93.8721V90.0234H67.4058ZM70.6597 94.3677V92.4639C70.6597 92.318 70.63 92.1916 70.5708 92.0845C70.5138 91.9751 70.4272 91.8908 70.311 91.8315C70.1948 91.7723 70.0513 91.7427 69.8804 91.7427C69.7209 91.7427 69.5807 91.77 69.46 91.8247C69.3415 91.8794 69.248 91.9512 69.1797 92.04C69.1136 92.1289 69.0806 92.2246 69.0806 92.3271H68.4482C68.4482 92.195 68.4824 92.064 68.5508 91.9341C68.6191 91.8042 68.7171 91.6868 68.8447 91.582C68.9746 91.4749 69.1296 91.3906 69.3096 91.3291C69.4919 91.2653 69.6947 91.2334 69.918 91.2334C70.1868 91.2334 70.4238 91.279 70.6289 91.3701C70.8363 91.4613 70.998 91.5991 71.1143 91.7837C71.2327 91.966 71.292 92.195 71.292 92.4707V94.1934C71.292 94.3164 71.3022 94.4474 71.3228 94.5864C71.3455 94.7254 71.3786 94.8451 71.4219 94.9453V95H70.7622C70.7303 94.9271 70.7052 94.8302 70.687 94.7095C70.6688 94.5864 70.6597 94.4725 70.6597 94.3677ZM70.769 92.7578L70.7759 93.2021H70.1367C69.9567 93.2021 69.7961 93.217 69.6548 93.2466C69.5135 93.2739 69.395 93.3161 69.2993 93.373C69.2036 93.43 69.1307 93.5018 69.0806 93.5884C69.0304 93.6727 69.0054 93.7718 69.0054 93.8857C69.0054 94.002 69.0316 94.1079 69.084 94.2036C69.1364 94.2993 69.215 94.3757 69.3198 94.4326C69.4269 94.4873 69.5579 94.5146 69.7129 94.5146C69.9066 94.5146 70.0775 94.4736 70.2256 94.3916C70.3737 94.3096 70.491 94.2093 70.5776 94.0908C70.6665 93.9723 70.7144 93.8573 70.7212 93.7456L70.9912 94.0498C70.9753 94.1455 70.932 94.2515 70.8613 94.3677C70.7907 94.4839 70.6961 94.5955 70.5776 94.7026C70.4614 94.8075 70.3224 94.8952 70.1606 94.9658C70.0011 95.0342 69.8211 95.0684 69.6206 95.0684C69.37 95.0684 69.1501 95.0194 68.9609 94.9214C68.7741 94.8234 68.6283 94.6924 68.5234 94.5283C68.4209 94.362 68.3696 94.1763 68.3696 93.9712C68.3696 93.7729 68.4084 93.5986 68.4858 93.4482C68.5633 93.2956 68.675 93.1691 68.8208 93.0688C68.9666 92.9663 69.1421 92.8888 69.3472 92.8364C69.5522 92.784 69.7812 92.7578 70.0342 92.7578H70.769ZM72.9189 92.0127V96.4219H72.2832V91.3018H72.8643L72.9189 92.0127ZM75.4106 93.1201V93.1919C75.4106 93.4608 75.3787 93.7103 75.3149 93.9404C75.2511 94.1683 75.1577 94.3665 75.0347 94.5352C74.9139 94.7038 74.7646 94.8348 74.5869 94.9282C74.4092 95.0216 74.2052 95.0684 73.9751 95.0684C73.7404 95.0684 73.533 95.0296 73.353 94.9521C73.173 94.8747 73.0203 94.7619 72.895 94.6138C72.7697 94.4657 72.6694 94.2879 72.5942 94.0806C72.5213 93.8732 72.4712 93.6396 72.4438 93.3799V92.9971C72.4712 92.7236 72.5225 92.4787 72.5977 92.2622C72.6729 92.0457 72.772 91.8612 72.895 91.7085C73.0203 91.5535 73.1719 91.4362 73.3496 91.3564C73.5273 91.2744 73.7324 91.2334 73.9648 91.2334C74.1973 91.2334 74.4035 91.279 74.5835 91.3701C74.7635 91.459 74.915 91.5866 75.0381 91.7529C75.1611 91.9193 75.2534 92.1187 75.3149 92.3511C75.3787 92.5812 75.4106 92.8376 75.4106 93.1201ZM74.7749 93.1919V93.1201C74.7749 92.9355 74.7555 92.7624 74.7168 92.6006C74.6781 92.4365 74.6177 92.293 74.5356 92.1699C74.4559 92.0446 74.3534 91.9466 74.228 91.876C74.1027 91.8031 73.9535 91.7666 73.7803 91.7666C73.6208 91.7666 73.4818 91.7939 73.3633 91.8486C73.2471 91.9033 73.1479 91.9774 73.0659 92.0708C72.9839 92.1619 72.9167 92.2668 72.8643 92.3853C72.8141 92.5015 72.7765 92.6222 72.7515 92.7476V93.6328C72.797 93.7923 72.8608 93.9427 72.9429 94.084C73.0249 94.223 73.1343 94.3358 73.271 94.4224C73.4077 94.5067 73.5798 94.5488 73.7871 94.5488C73.958 94.5488 74.105 94.5135 74.228 94.4429C74.3534 94.37 74.4559 94.2708 74.5356 94.1455C74.6177 94.0202 74.6781 93.8766 74.7168 93.7148C74.7555 93.5508 74.7749 93.3765 74.7749 93.1919ZM76.0498 93.1919V93.1133C76.0498 92.8467 76.0885 92.5994 76.166 92.3716C76.2435 92.1414 76.3551 91.9421 76.501 91.7734C76.6468 91.6025 76.8234 91.4704 77.0308 91.377C77.2381 91.2812 77.4705 91.2334 77.728 91.2334C77.9878 91.2334 78.2214 91.2812 78.4287 91.377C78.6383 91.4704 78.8161 91.6025 78.9619 91.7734C79.11 91.9421 79.2228 92.1414 79.3003 92.3716C79.3778 92.5994 79.4165 92.8467 79.4165 93.1133V93.1919C79.4165 93.4585 79.3778 93.7057 79.3003 93.9336C79.2228 94.1615 79.11 94.3608 78.9619 94.5317C78.8161 94.7004 78.6395 94.8325 78.4321 94.9282C78.2271 95.0216 77.9946 95.0684 77.7349 95.0684C77.4751 95.0684 77.2415 95.0216 77.0342 94.9282C76.8268 94.8325 76.6491 94.7004 76.501 94.5317C76.3551 94.3608 76.2435 94.1615 76.166 93.9336C76.0885 93.7057 76.0498 93.4585 76.0498 93.1919ZM76.6821 93.1133V93.1919C76.6821 93.3765 76.7038 93.5508 76.7471 93.7148C76.7904 93.8766 76.8553 94.0202 76.9419 94.1455C77.0308 94.2708 77.1413 94.37 77.2734 94.4429C77.4056 94.5135 77.5594 94.5488 77.7349 94.5488C77.908 94.5488 78.0596 94.5135 78.1895 94.4429C78.3216 94.37 78.431 94.2708 78.5176 94.1455C78.6042 94.0202 78.6691 93.8766 78.7124 93.7148C78.758 93.5508 78.7808 93.3765 78.7808 93.1919V93.1133C78.7808 92.931 78.758 92.759 78.7124 92.5972C78.6691 92.4331 78.603 92.2884 78.5142 92.1631C78.4276 92.0355 78.3182 91.9352 78.186 91.8623C78.0562 91.7894 77.9035 91.7529 77.728 91.7529C77.5549 91.7529 77.4022 91.7894 77.27 91.8623C77.1401 91.9352 77.0308 92.0355 76.9419 92.1631C76.8553 92.2884 76.7904 92.4331 76.7471 92.5972C76.7038 92.759 76.6821 92.931 76.6821 93.1133ZM80.8965 89.75V95H80.2607V89.75H80.8965ZM83.4463 95.0684C83.1888 95.0684 82.9552 95.0251 82.7456 94.9385C82.5382 94.8496 82.3594 94.7254 82.209 94.5659C82.0609 94.4064 81.9469 94.2173 81.8672 93.9985C81.7874 93.7798 81.7476 93.5405 81.7476 93.2808V93.1372C81.7476 92.8364 81.792 92.5687 81.8809 92.334C81.9697 92.097 82.0905 91.8965 82.2432 91.7324C82.3958 91.5684 82.569 91.4442 82.7627 91.3599C82.9564 91.2756 83.1569 91.2334 83.3643 91.2334C83.6286 91.2334 83.8564 91.279 84.0479 91.3701C84.2415 91.4613 84.3999 91.5889 84.5229 91.7529C84.646 91.9147 84.7371 92.1061 84.7964 92.3271C84.8556 92.5459 84.8853 92.7852 84.8853 93.0449V93.3286H82.1235V92.8125H84.2529V92.7646C84.2438 92.6006 84.2096 92.4411 84.1504 92.2861C84.0934 92.1312 84.0023 92.0036 83.877 91.9033C83.7516 91.8031 83.5807 91.7529 83.3643 91.7529C83.2207 91.7529 83.0885 91.7837 82.9678 91.8452C82.847 91.9045 82.7433 91.9933 82.6567 92.1118C82.5701 92.2303 82.5029 92.375 82.4551 92.5459C82.4072 92.7168 82.3833 92.9139 82.3833 93.1372V93.2808C82.3833 93.4562 82.4072 93.6214 82.4551 93.7764C82.5052 93.929 82.577 94.0635 82.6704 94.1797C82.7661 94.2959 82.8812 94.387 83.0156 94.4531C83.1523 94.5192 83.3073 94.5522 83.4805 94.5522C83.7038 94.5522 83.8929 94.5067 84.0479 94.4155C84.2028 94.3244 84.3384 94.2025 84.4546 94.0498L84.8374 94.354C84.7576 94.4748 84.6562 94.5898 84.5332 94.6992C84.4102 94.8086 84.2586 94.8975 84.0786 94.9658C83.9009 95.0342 83.6901 95.0684 83.4463 95.0684ZM85.4561 93.1919V93.1133C85.4561 92.8467 85.4948 92.5994 85.5723 92.3716C85.6497 92.1414 85.7614 91.9421 85.9072 91.7734C86.0531 91.6025 86.2297 91.4704 86.437 91.377C86.6444 91.2812 86.8768 91.2334 87.1343 91.2334C87.394 91.2334 87.6276 91.2812 87.835 91.377C88.0446 91.4704 88.2223 91.6025 88.3682 91.7734C88.5163 91.9421 88.6291 92.1414 88.7065 92.3716C88.784 92.5994 88.8228 92.8467 88.8228 93.1133V93.1919C88.8228 93.4585 88.784 93.7057 88.7065 93.9336C88.6291 94.1615 88.5163 94.3608 88.3682 94.5317C88.2223 94.7004 88.0457 94.8325 87.8384 94.9282C87.6333 95.0216 87.4009 95.0684 87.1411 95.0684C86.8813 95.0684 86.6478 95.0216 86.4404 94.9282C86.2331 94.8325 86.0553 94.7004 85.9072 94.5317C85.7614 94.3608 85.6497 94.1615 85.5723 93.9336C85.4948 93.7057 85.4561 93.4585 85.4561 93.1919ZM86.0884 93.1133V93.1919C86.0884 93.3765 86.11 93.5508 86.1533 93.7148C86.1966 93.8766 86.2616 94.0202 86.3481 94.1455C86.437 94.2708 86.5475 94.37 86.6797 94.4429C86.8118 94.5135 86.9657 94.5488 87.1411 94.5488C87.3143 94.5488 87.4658 94.5135 87.5957 94.4429C87.7279 94.37 87.8372 94.2708 87.9238 94.1455C88.0104 94.0202 88.0754 93.8766 88.1187 93.7148C88.1642 93.5508 88.187 93.3765 88.187 93.1919V93.1133C88.187 92.931 88.1642 92.759 88.1187 92.5972C88.0754 92.4331 88.0093 92.2884 87.9204 92.1631C87.8338 92.0355 87.7244 91.9352 87.5923 91.8623C87.4624 91.7894 87.3097 91.7529 87.1343 91.7529C86.9611 91.7529 86.8084 91.7894 86.6763 91.8623C86.5464 91.9352 86.437 92.0355 86.3481 92.1631C86.2616 92.2884 86.1966 92.4331 86.1533 92.5972C86.11 92.759 86.0884 92.931 86.0884 93.1133ZM90.248 92.0913V95H89.6157V91.3018H90.2139L90.248 92.0913ZM90.0977 93.0107L89.8345 93.0005C89.8368 92.7476 89.8743 92.514 89.9473 92.2998C90.0202 92.0833 90.1227 91.8953 90.2549 91.7358C90.387 91.5763 90.5443 91.4533 90.7266 91.3667C90.9111 91.2778 91.1151 91.2334 91.3384 91.2334C91.5207 91.2334 91.6847 91.2585 91.8306 91.3086C91.9764 91.3564 92.1006 91.4339 92.2031 91.541C92.3079 91.6481 92.3877 91.7871 92.4424 91.958C92.4971 92.1266 92.5244 92.3328 92.5244 92.5767V95H91.8887V92.5698C91.8887 92.3761 91.8602 92.2212 91.8032 92.105C91.7463 91.9865 91.6631 91.901 91.5537 91.8486C91.4443 91.7939 91.3099 91.7666 91.1504 91.7666C90.9932 91.7666 90.8496 91.7996 90.7197 91.8657C90.5921 91.9318 90.4816 92.0229 90.3882 92.1392C90.297 92.2554 90.2253 92.3887 90.1729 92.5391C90.1227 92.6872 90.0977 92.8444 90.0977 93.0107ZM98.5674 92.1631V92.6997H95.874V92.1631H98.5674ZM95.9766 90.0234V95H95.3169V90.0234H95.9766ZM99.1416 90.0234V95H98.4854V90.0234H99.1416ZM100.905 91.3018V95H100.27V91.3018H100.905ZM100.222 90.3208C100.222 90.2183 100.252 90.1317 100.314 90.061C100.378 89.9904 100.471 89.9551 100.594 89.9551C100.715 89.9551 100.807 89.9904 100.871 90.061C100.937 90.1317 100.97 90.2183 100.97 90.3208C100.97 90.4188 100.937 90.5031 100.871 90.5737C100.807 90.6421 100.715 90.6763 100.594 90.6763C100.471 90.6763 100.378 90.6421 100.314 90.5737C100.252 90.5031 100.222 90.4188 100.222 90.3208ZM102.607 89.75V95H101.972V89.75H102.607ZM104.31 89.75V95H103.674V89.75H104.31Z" fill="white"/>
<path d="M15.7637 15.7129V15.0039C15.7637 14.7656 15.8027 14.5176 15.8809 14.2598C15.9629 13.998 16.0801 13.748 16.2324 13.5098C16.3848 13.2676 16.5684 13.0586 16.7832 12.8828L17.3984 13.3105C17.2188 13.5684 17.0801 13.834 16.9824 14.1074C16.8848 14.377 16.8359 14.6699 16.8359 14.9863V15.7129H15.7637ZM17.6094 15.7129V15.0039C17.6094 14.7656 17.6484 14.5176 17.7266 14.2598C17.8086 13.998 17.9258 13.748 18.0781 13.5098C18.2305 13.2676 18.4141 13.0586 18.6289 12.8828L19.2441 13.3105C19.0645 13.5684 18.9258 13.834 18.8281 14.1074C18.7305 14.377 18.6816 14.6699 18.6816 14.9863V15.7129H17.6094ZM22.8359 14.2246L20.0117 22H18.8574L22.1094 13.4688H22.8535L22.8359 14.2246ZM25.2031 22L22.373 14.2246L22.3555 13.4688H23.0996L26.3633 22H25.2031ZM25.0566 18.8418V19.7676H20.2637V18.8418H25.0566ZM28.5195 13V22H27.4297V13H28.5195ZM31.4375 13V22H30.3477V13H31.4375ZM39.8926 20.916V17.6523C39.8926 17.4023 39.8418 17.1855 39.7402 17.002C39.6426 16.8145 39.4941 16.6699 39.2949 16.5684C39.0957 16.4668 38.8496 16.416 38.5566 16.416C38.2832 16.416 38.043 16.4629 37.8359 16.5566C37.6328 16.6504 37.4727 16.7734 37.3555 16.9258C37.2422 17.0781 37.1855 17.2422 37.1855 17.418H36.1016C36.1016 17.1914 36.1602 16.9668 36.2773 16.7441C36.3945 16.5215 36.5625 16.3203 36.7812 16.1406C37.0039 15.957 37.2695 15.8125 37.5781 15.707C37.8906 15.5977 38.2383 15.543 38.6211 15.543C39.082 15.543 39.4883 15.6211 39.8398 15.7773C40.1953 15.9336 40.4727 16.1699 40.6719 16.4863C40.875 16.7988 40.9766 17.1914 40.9766 17.6641V20.6172C40.9766 20.8281 40.9941 21.0527 41.0293 21.291C41.0684 21.5293 41.125 21.7344 41.1992 21.9062V22H40.0684C40.0137 21.875 39.9707 21.709 39.9395 21.502C39.9082 21.291 39.8926 21.0957 39.8926 20.916ZM40.0801 18.1562L40.0918 18.918H38.9961C38.6875 18.918 38.4121 18.9434 38.1699 18.9941C37.9277 19.041 37.7246 19.1133 37.5605 19.2109C37.3965 19.3086 37.2715 19.4316 37.1855 19.5801C37.0996 19.7246 37.0566 19.8945 37.0566 20.0898C37.0566 20.2891 37.1016 20.4707 37.1914 20.6348C37.2812 20.7988 37.416 20.9297 37.5957 21.0273C37.7793 21.1211 38.0039 21.168 38.2695 21.168C38.6016 21.168 38.8945 21.0977 39.1484 20.957C39.4023 20.8164 39.6035 20.6445 39.752 20.4414C39.9043 20.2383 39.9863 20.041 39.998 19.8496L40.4609 20.3711C40.4336 20.5352 40.3594 20.7168 40.2383 20.916C40.1172 21.1152 39.9551 21.3066 39.752 21.4902C39.5527 21.6699 39.3145 21.8203 39.0371 21.9414C38.7637 22.0586 38.4551 22.1172 38.1113 22.1172C37.6816 22.1172 37.3047 22.0332 36.9805 21.8652C36.6602 21.6973 36.4102 21.4727 36.2305 21.1914C36.0547 20.9062 35.9668 20.5879 35.9668 20.2363C35.9668 19.8965 36.0332 19.5977 36.166 19.3398C36.2988 19.0781 36.4902 18.8613 36.7402 18.6895C36.9902 18.5137 37.291 18.3809 37.6426 18.291C37.9941 18.2012 38.3867 18.1562 38.8203 18.1562H40.0801ZM45.2188 21.2266C45.4766 21.2266 45.7148 21.1738 45.9336 21.0684C46.1523 20.9629 46.332 20.8184 46.4727 20.6348C46.6133 20.4473 46.6934 20.2344 46.7129 19.9961H47.7441C47.7246 20.3711 47.5977 20.7207 47.3633 21.0449C47.1328 21.3652 46.8301 21.625 46.4551 21.8242C46.0801 22.0195 45.668 22.1172 45.2188 22.1172C44.7422 22.1172 44.3262 22.0332 43.9707 21.8652C43.6191 21.6973 43.3262 21.4668 43.0918 21.1738C42.8613 20.8809 42.6875 20.5449 42.5703 20.166C42.457 19.7832 42.4004 19.3789 42.4004 18.9531V18.707C42.4004 18.2812 42.457 17.8789 42.5703 17.5C42.6875 17.1172 42.8613 16.7793 43.0918 16.4863C43.3262 16.1934 43.6191 15.9629 43.9707 15.7949C44.3262 15.627 44.7422 15.543 45.2188 15.543C45.7148 15.543 46.1484 15.6445 46.5195 15.8477C46.8906 16.0469 47.1816 16.3203 47.3926 16.668C47.6074 17.0117 47.7246 17.4023 47.7441 17.8398H46.7129C46.6934 17.5781 46.6191 17.3418 46.4902 17.1309C46.3652 16.9199 46.1934 16.752 45.9746 16.627C45.7598 16.498 45.5078 16.4336 45.2188 16.4336C44.8867 16.4336 44.6074 16.5 44.3809 16.6328C44.1582 16.7617 43.9805 16.9375 43.8477 17.1602C43.7188 17.3789 43.625 17.623 43.5664 17.8926C43.5117 18.1582 43.4844 18.4297 43.4844 18.707V18.9531C43.4844 19.2305 43.5117 19.5039 43.5664 19.7734C43.6211 20.043 43.7129 20.2871 43.8418 20.5059C43.9746 20.7246 44.1523 20.9004 44.375 21.0332C44.6016 21.1621 44.8828 21.2266 45.2188 21.2266ZM50.0469 13V22H48.9629V13H50.0469ZM49.7891 18.5898L49.3379 18.5723C49.3418 18.1387 49.4062 17.7383 49.5312 17.3711C49.6562 17 49.832 16.6777 50.0586 16.4043C50.2852 16.1309 50.5547 15.9199 50.8672 15.7715C51.1836 15.6191 51.5332 15.543 51.916 15.543C52.2285 15.543 52.5098 15.5859 52.7598 15.6719C53.0098 15.7539 53.2227 15.8867 53.3984 16.0703C53.5781 16.2539 53.7148 16.4922 53.8086 16.7852C53.9023 17.0742 53.9492 17.4277 53.9492 17.8457V22H52.8594V17.834C52.8594 17.502 52.8105 17.2363 52.7129 17.0371C52.6152 16.834 52.4727 16.6875 52.2852 16.5977C52.0977 16.5039 51.8672 16.457 51.5938 16.457C51.3242 16.457 51.0781 16.5137 50.8555 16.627C50.6367 16.7402 50.4473 16.8965 50.2871 17.0957C50.1309 17.2949 50.0078 17.5234 49.918 17.7812C49.832 18.0352 49.7891 18.3047 49.7891 18.5898ZM56.75 15.6602V22H55.6602V15.6602H56.75ZM55.5781 13.9785C55.5781 13.8027 55.6309 13.6543 55.7363 13.5332C55.8457 13.4121 56.0059 13.3516 56.2168 13.3516C56.4238 13.3516 56.582 13.4121 56.6914 13.5332C56.8047 13.6543 56.8613 13.8027 56.8613 13.9785C56.8613 14.1465 56.8047 14.291 56.6914 14.4121C56.582 14.5293 56.4238 14.5879 56.2168 14.5879C56.0059 14.5879 55.8457 14.5293 55.7363 14.4121C55.6309 14.291 55.5781 14.1465 55.5781 13.9785ZM61.1211 22.1172C60.6797 22.1172 60.2793 22.043 59.9199 21.8945C59.5645 21.7422 59.2578 21.5293 59 21.2559C58.7461 20.9824 58.5508 20.6582 58.4141 20.2832C58.2773 19.9082 58.209 19.498 58.209 19.0527V18.8066C58.209 18.291 58.2852 17.832 58.4375 17.4297C58.5898 17.0234 58.7969 16.6797 59.0586 16.3984C59.3203 16.1172 59.6172 15.9043 59.9492 15.7598C60.2812 15.6152 60.625 15.543 60.9805 15.543C61.4336 15.543 61.8242 15.6211 62.1523 15.7773C62.4844 15.9336 62.7559 16.1523 62.9668 16.4336C63.1777 16.7109 63.334 17.0391 63.4355 17.418C63.5371 17.793 63.5879 18.2031 63.5879 18.6484V19.1348H58.8535V18.25H62.5039V18.168C62.4883 17.8867 62.4297 17.6133 62.3281 17.3477C62.2305 17.082 62.0742 16.8633 61.8594 16.6914C61.6445 16.5195 61.3516 16.4336 60.9805 16.4336C60.7344 16.4336 60.5078 16.4863 60.3008 16.5918C60.0938 16.6934 59.916 16.8457 59.7676 17.0488C59.6191 17.252 59.5039 17.5 59.4219 17.793C59.3398 18.0859 59.2988 18.4238 59.2988 18.8066V19.0527C59.2988 19.3535 59.3398 19.6367 59.4219 19.9023C59.5078 20.1641 59.6309 20.3945 59.791 20.5938C59.9551 20.793 60.1523 20.9492 60.3828 21.0625C60.6172 21.1758 60.8828 21.2324 61.1797 21.2324C61.5625 21.2324 61.8867 21.1543 62.1523 20.998C62.418 20.8418 62.6504 20.6328 62.8496 20.3711L63.5059 20.8926C63.3691 21.0996 63.1953 21.2969 62.9844 21.4844C62.7734 21.6719 62.5137 21.8242 62.2051 21.9414C61.9004 22.0586 61.5391 22.1172 61.1211 22.1172ZM66.6992 21.0215L68.4336 15.6602H69.541L67.2617 22H66.5352L66.6992 21.0215ZM65.252 15.6602L67.0391 21.0508L67.1621 22H66.4355L64.1387 15.6602H65.252ZM73.1328 22.1172C72.6914 22.1172 72.291 22.043 71.9316 21.8945C71.5762 21.7422 71.2695 21.5293 71.0117 21.2559C70.7578 20.9824 70.5625 20.6582 70.4258 20.2832C70.2891 19.9082 70.2207 19.498 70.2207 19.0527V18.8066C70.2207 18.291 70.2969 17.832 70.4492 17.4297C70.6016 17.0234 70.8086 16.6797 71.0703 16.3984C71.332 16.1172 71.6289 15.9043 71.9609 15.7598C72.293 15.6152 72.6367 15.543 72.9922 15.543C73.4453 15.543 73.8359 15.6211 74.1641 15.7773C74.4961 15.9336 74.7676 16.1523 74.9785 16.4336C75.1895 16.7109 75.3457 17.0391 75.4473 17.418C75.5488 17.793 75.5996 18.2031 75.5996 18.6484V19.1348H70.8652V18.25H74.5156V18.168C74.5 17.8867 74.4414 17.6133 74.3398 17.3477C74.2422 17.082 74.0859 16.8633 73.8711 16.6914C73.6562 16.5195 73.3633 16.4336 72.9922 16.4336C72.7461 16.4336 72.5195 16.4863 72.3125 16.5918C72.1055 16.6934 71.9277 16.8457 71.7793 17.0488C71.6309 17.252 71.5156 17.5 71.4336 17.793C71.3516 18.0859 71.3105 18.4238 71.3105 18.8066V19.0527C71.3105 19.3535 71.3516 19.6367 71.4336 19.9023C71.5195 20.1641 71.6426 20.3945 71.8027 20.5938C71.9668 20.793 72.1641 20.9492 72.3945 21.0625C72.6289 21.1758 72.8945 21.2324 73.1914 21.2324C73.5742 21.2324 73.8984 21.1543 74.1641 20.998C74.4297 20.8418 74.6621 20.6328 74.8613 20.3711L75.5176 20.8926C75.3809 21.0996 75.207 21.2969 74.9961 21.4844C74.7852 21.6719 74.5254 21.8242 74.2168 21.9414C73.9121 22.0586 73.5508 22.1172 73.1328 22.1172ZM77.9434 16.9199V22H76.8535V15.6602H77.8848L77.9434 16.9199ZM77.7207 18.5898L77.2168 18.5723C77.2207 18.1387 77.2773 17.7383 77.3867 17.3711C77.4961 17 77.6582 16.6777 77.873 16.4043C78.0879 16.1309 78.3555 15.9199 78.6758 15.7715C78.9961 15.6191 79.3672 15.543 79.7891 15.543C80.0859 15.543 80.3594 15.5859 80.6094 15.6719C80.8594 15.7539 81.0762 15.8848 81.2598 16.0645C81.4434 16.2441 81.5859 16.4746 81.6875 16.7559C81.7891 17.0371 81.8398 17.377 81.8398 17.7754V22H80.7559V17.8281C80.7559 17.4961 80.6992 17.2305 80.5859 17.0312C80.4766 16.832 80.3203 16.6875 80.1172 16.5977C79.9141 16.5039 79.6758 16.457 79.4023 16.457C79.082 16.457 78.8145 16.5137 78.5996 16.627C78.3848 16.7402 78.2129 16.8965 78.084 17.0957C77.9551 17.2949 77.8613 17.5234 77.8027 17.7812C77.748 18.0352 77.7207 18.3047 77.7207 18.5898ZM81.8281 17.9922L81.1016 18.2148C81.1055 17.8672 81.1621 17.5332 81.2715 17.2129C81.3848 16.8926 81.5469 16.6074 81.7578 16.3574C81.9727 16.1074 82.2363 15.9102 82.5488 15.7656C82.8613 15.6172 83.2188 15.543 83.6211 15.543C83.9609 15.543 84.2617 15.5879 84.5234 15.6777C84.7891 15.7676 85.0117 15.9062 85.1914 16.0938C85.375 16.2773 85.5137 16.5137 85.6074 16.8027C85.7012 17.0918 85.748 17.4355 85.748 17.834V22H84.6582V17.8223C84.6582 17.4668 84.6016 17.1914 84.4883 16.9961C84.3789 16.7969 84.2227 16.6582 84.0195 16.5801C83.8203 16.498 83.582 16.457 83.3047 16.457C83.0664 16.457 82.8555 16.498 82.6719 16.5801C82.4883 16.6621 82.334 16.7754 82.209 16.9199C82.084 17.0605 81.9883 17.2227 81.9219 17.4062C81.8594 17.5898 81.8281 17.7852 81.8281 17.9922ZM90.0195 22.1172C89.5781 22.1172 89.1777 22.043 88.8184 21.8945C88.4629 21.7422 88.1562 21.5293 87.8984 21.2559C87.6445 20.9824 87.4492 20.6582 87.3125 20.2832C87.1758 19.9082 87.1074 19.498 87.1074 19.0527V18.8066C87.1074 18.291 87.1836 17.832 87.3359 17.4297C87.4883 17.0234 87.6953 16.6797 87.957 16.3984C88.2188 16.1172 88.5156 15.9043 88.8477 15.7598C89.1797 15.6152 89.5234 15.543 89.8789 15.543C90.332 15.543 90.7227 15.6211 91.0508 15.7773C91.3828 15.9336 91.6543 16.1523 91.8652 16.4336C92.0762 16.7109 92.2324 17.0391 92.334 17.418C92.4355 17.793 92.4863 18.2031 92.4863 18.6484V19.1348H87.752V18.25H91.4023V18.168C91.3867 17.8867 91.3281 17.6133 91.2266 17.3477C91.1289 17.082 90.9727 16.8633 90.7578 16.6914C90.543 16.5195 90.25 16.4336 89.8789 16.4336C89.6328 16.4336 89.4062 16.4863 89.1992 16.5918C88.9922 16.6934 88.8145 16.8457 88.666 17.0488C88.5176 17.252 88.4023 17.5 88.3203 17.793C88.2383 18.0859 88.1973 18.4238 88.1973 18.8066V19.0527C88.1973 19.3535 88.2383 19.6367 88.3203 19.9023C88.4062 20.1641 88.5293 20.3945 88.6895 20.5938C88.8535 20.793 89.0508 20.9492 89.2812 21.0625C89.5156 21.1758 89.7812 21.2324 90.0781 21.2324C90.4609 21.2324 90.7852 21.1543 91.0508 20.998C91.3164 20.8418 91.5488 20.6328 91.748 20.3711L92.4043 20.8926C92.2676 21.0996 92.0938 21.2969 91.8828 21.4844C91.6719 21.6719 91.4121 21.8242 91.1035 21.9414C90.7988 22.0586 90.4375 22.1172 90.0195 22.1172ZM94.8359 17.0137V22H93.752V15.6602H94.7773L94.8359 17.0137ZM94.5781 18.5898L94.127 18.5723C94.1309 18.1387 94.1953 17.7383 94.3203 17.3711C94.4453 17 94.6211 16.6777 94.8477 16.4043C95.0742 16.1309 95.3438 15.9199 95.6562 15.7715C95.9727 15.6191 96.3223 15.543 96.7051 15.543C97.0176 15.543 97.2988 15.5859 97.5488 15.6719C97.7988 15.7539 98.0117 15.8867 98.1875 16.0703C98.3672 16.2539 98.5039 16.4922 98.5977 16.7852C98.6914 17.0742 98.7383 17.4277 98.7383 17.8457V22H97.6484V17.834C97.6484 17.502 97.5996 17.2363 97.502 17.0371C97.4043 16.834 97.2617 16.6875 97.0742 16.5977C96.8867 16.5039 96.6562 16.457 96.3828 16.457C96.1133 16.457 95.8672 16.5137 95.6445 16.627C95.4258 16.7402 95.2363 16.8965 95.0762 17.0957C94.9199 17.2949 94.7969 17.5234 94.707 17.7812C94.6211 18.0352 94.5781 18.3047 94.5781 18.5898ZM103.039 15.6602V16.4922H99.6113V15.6602H103.039ZM100.771 14.1191H101.855V20.4297C101.855 20.6445 101.889 20.8066 101.955 20.916C102.021 21.0254 102.107 21.0977 102.213 21.1328C102.318 21.168 102.432 21.1855 102.553 21.1855C102.643 21.1855 102.736 21.1777 102.834 21.1621C102.936 21.1426 103.012 21.127 103.062 21.1152L103.068 22C102.982 22.0273 102.869 22.0527 102.729 22.0762C102.592 22.1035 102.426 22.1172 102.23 22.1172C101.965 22.1172 101.721 22.0645 101.498 21.959C101.275 21.8535 101.098 21.6777 100.965 21.4316C100.836 21.1816 100.771 20.8457 100.771 20.4238V14.1191ZM105.295 20.7109V21.584C105.295 21.9395 105.205 22.3145 105.025 22.709C104.846 23.1074 104.594 23.4395 104.27 23.7051L103.654 23.2773C103.779 23.1055 103.885 22.9297 103.971 22.75C104.057 22.5742 104.121 22.3906 104.164 22.1992C104.211 22.0117 104.234 21.8125 104.234 21.6016V20.7109H105.295ZM20.1406 36.916V33.6523C20.1406 33.4023 20.0898 33.1855 19.9883 33.002C19.8906 32.8145 19.7422 32.6699 19.543 32.5684C19.3438 32.4668 19.0977 32.416 18.8047 32.416C18.5312 32.416 18.291 32.4629 18.084 32.5566C17.8809 32.6504 17.7207 32.7734 17.6035 32.9258C17.4902 33.0781 17.4336 33.2422 17.4336 33.418H16.3496C16.3496 33.1914 16.4082 32.9668 16.5254 32.7441C16.6426 32.5215 16.8105 32.3203 17.0293 32.1406C17.252 31.957 17.5176 31.8125 17.8262 31.707C18.1387 31.5977 18.4863 31.543 18.8691 31.543C19.3301 31.543 19.7363 31.6211 20.0879 31.7773C20.4434 31.9336 20.7207 32.1699 20.9199 32.4863C21.123 32.7988 21.2246 33.1914 21.2246 33.6641V36.6172C21.2246 36.8281 21.2422 37.0527 21.2773 37.291C21.3164 37.5293 21.373 37.7344 21.4473 37.9062V38H20.3164C20.2617 37.875 20.2188 37.709 20.1875 37.502C20.1562 37.291 20.1406 37.0957 20.1406 36.916ZM20.3281 34.1562L20.3398 34.918H19.2441C18.9355 34.918 18.6602 34.9434 18.418 34.9941C18.1758 35.041 17.9727 35.1133 17.8086 35.2109C17.6445 35.3086 17.5195 35.4316 17.4336 35.5801C17.3477 35.7246 17.3047 35.8945 17.3047 36.0898C17.3047 36.2891 17.3496 36.4707 17.4395 36.6348C17.5293 36.7988 17.6641 36.9297 17.8438 37.0273C18.0273 37.1211 18.252 37.168 18.5176 37.168C18.8496 37.168 19.1426 37.0977 19.3965 36.957C19.6504 36.8164 19.8516 36.6445 20 36.4414C20.1523 36.2383 20.2344 36.041 20.2461 35.8496L20.709 36.3711C20.6816 36.5352 20.6074 36.7168 20.4863 36.916C20.3652 37.1152 20.2031 37.3066 20 37.4902C19.8008 37.6699 19.5625 37.8203 19.2852 37.9414C19.0117 38.0586 18.7031 38.1172 18.3594 38.1172C17.9297 38.1172 17.5527 38.0332 17.2285 37.8652C16.9082 37.6973 16.6582 37.4727 16.4785 37.1914C16.3027 36.9062 16.2148 36.5879 16.2148 36.2363C16.2148 35.8965 16.2812 35.5977 16.4141 35.3398C16.5469 35.0781 16.7383 34.8613 16.9883 34.6895C17.2383 34.5137 17.5391 34.3809 17.8906 34.291C18.2422 34.2012 18.6348 34.1562 19.0684 34.1562H20.3281ZM24.1074 29V38H23.0176V29H24.1074ZM27.0254 29V38H25.9355V29H27.0254ZM34.373 38.1172C33.9316 38.1172 33.5312 38.043 33.1719 37.8945C32.8164 37.7422 32.5098 37.5293 32.252 37.2559C31.998 36.9824 31.8027 36.6582 31.666 36.2832C31.5293 35.9082 31.4609 35.498 31.4609 35.0527V34.8066C31.4609 34.291 31.5371 33.832 31.6895 33.4297C31.8418 33.0234 32.0488 32.6797 32.3105 32.3984C32.5723 32.1172 32.8691 31.9043 33.2012 31.7598C33.5332 31.6152 33.877 31.543 34.2324 31.543C34.6855 31.543 35.0762 31.6211 35.4043 31.7773C35.7363 31.9336 36.0078 32.1523 36.2188 32.4336C36.4297 32.7109 36.5859 33.0391 36.6875 33.418C36.7891 33.793 36.8398 34.2031 36.8398 34.6484V35.1348H32.1055V34.25H35.7559V34.168C35.7402 33.8867 35.6816 33.6133 35.5801 33.3477C35.4824 33.082 35.3262 32.8633 35.1113 32.6914C34.8965 32.5195 34.6035 32.4336 34.2324 32.4336C33.9863 32.4336 33.7598 32.4863 33.5527 32.5918C33.3457 32.6934 33.168 32.8457 33.0195 33.0488C32.8711 33.252 32.7559 33.5 32.6738 33.793C32.5918 34.0859 32.5508 34.4238 32.5508 34.8066V35.0527C32.5508 35.3535 32.5918 35.6367 32.6738 35.9023C32.7598 36.1641 32.8828 36.3945 33.043 36.5938C33.207 36.793 33.4043 36.9492 33.6348 37.0625C33.8691 37.1758 34.1348 37.2324 34.4316 37.2324C34.8145 37.2324 35.1387 37.1543 35.4043 36.998C35.6699 36.8418 35.9023 36.6328 36.1016 36.3711L36.7578 36.8926C36.6211 37.0996 36.4473 37.2969 36.2363 37.4844C36.0254 37.6719 35.7656 37.8242 35.457 37.9414C35.1523 38.0586 34.791 38.1172 34.373 38.1172ZM41.8438 36.916V33.6523C41.8438 33.4023 41.793 33.1855 41.6914 33.002C41.5938 32.8145 41.4453 32.6699 41.2461 32.5684C41.0469 32.4668 40.8008 32.416 40.5078 32.416C40.2344 32.416 39.9941 32.4629 39.7871 32.5566C39.584 32.6504 39.4238 32.7734 39.3066 32.9258C39.1934 33.0781 39.1367 33.2422 39.1367 33.418H38.0527C38.0527 33.1914 38.1113 32.9668 38.2285 32.7441C38.3457 32.5215 38.5137 32.3203 38.7324 32.1406C38.9551 31.957 39.2207 31.8125 39.5293 31.707C39.8418 31.5977 40.1895 31.543 40.5723 31.543C41.0332 31.543 41.4395 31.6211 41.791 31.7773C42.1465 31.9336 42.4238 32.1699 42.623 32.4863C42.8262 32.7988 42.9277 33.1914 42.9277 33.6641V36.6172C42.9277 36.8281 42.9453 37.0527 42.9805 37.291C43.0195 37.5293 43.0762 37.7344 43.1504 37.9062V38H42.0195C41.9648 37.875 41.9219 37.709 41.8906 37.502C41.8594 37.291 41.8438 37.0957 41.8438 36.916ZM42.0312 34.1562L42.043 34.918H40.9473C40.6387 34.918 40.3633 34.9434 40.1211 34.9941C39.8789 35.041 39.6758 35.1133 39.5117 35.2109C39.3477 35.3086 39.2227 35.4316 39.1367 35.5801C39.0508 35.7246 39.0078 35.8945 39.0078 36.0898C39.0078 36.2891 39.0527 36.4707 39.1426 36.6348C39.2324 36.7988 39.3672 36.9297 39.5469 37.0273C39.7305 37.1211 39.9551 37.168 40.2207 37.168C40.5527 37.168 40.8457 37.0977 41.0996 36.957C41.3535 36.8164 41.5547 36.6445 41.7031 36.4414C41.8555 36.2383 41.9375 36.041 41.9492 35.8496L42.4121 36.3711C42.3848 36.5352 42.3105 36.7168 42.1895 36.916C42.0684 37.1152 41.9062 37.3066 41.7031 37.4902C41.5039 37.6699 41.2656 37.8203 40.9883 37.9414C40.7148 38.0586 40.4062 38.1172 40.0625 38.1172C39.6328 38.1172 39.2559 38.0332 38.9316 37.8652C38.6113 37.6973 38.3613 37.4727 38.1816 37.1914C38.0059 36.9062 37.918 36.5879 37.918 36.2363C37.918 35.8965 37.9844 35.5977 38.1172 35.3398C38.25 35.0781 38.4414 34.8613 38.6914 34.6895C38.9414 34.5137 39.2422 34.3809 39.5938 34.291C39.9453 34.2012 40.3379 34.1562 40.7715 34.1562H42.0312ZM45.7168 32.6562V38H44.6328V31.6602H45.6875L45.7168 32.6562ZM47.6973 31.625L47.6914 32.6328C47.6016 32.6133 47.5156 32.6016 47.4336 32.5977C47.3555 32.5898 47.2656 32.5859 47.1641 32.5859C46.9141 32.5859 46.6934 32.625 46.502 32.7031C46.3105 32.7812 46.1484 32.8906 46.0156 33.0312C45.8828 33.1719 45.7773 33.3398 45.6992 33.5352C45.625 33.7266 45.5762 33.9375 45.5527 34.168L45.248 34.3438C45.248 33.9609 45.2852 33.6016 45.3594 33.2656C45.4375 32.9297 45.5566 32.6328 45.7168 32.375C45.877 32.1133 46.0801 31.9102 46.3262 31.7656C46.5762 31.6172 46.873 31.543 47.2168 31.543C47.2949 31.543 47.3848 31.5527 47.4863 31.5723C47.5879 31.5879 47.6582 31.6055 47.6973 31.625ZM49.7832 33.0137V38H48.6992V31.6602H49.7246L49.7832 33.0137ZM49.5254 34.5898L49.0742 34.5723C49.0781 34.1387 49.1426 33.7383 49.2676 33.3711C49.3926 33 49.5684 32.6777 49.7949 32.4043C50.0215 32.1309 50.291 31.9199 50.6035 31.7715C50.9199 31.6191 51.2695 31.543 51.6523 31.543C51.9648 31.543 52.2461 31.5859 52.4961 31.6719C52.7461 31.7539 52.959 31.8867 53.1348 32.0703C53.3145 32.2539 53.4512 32.4922 53.5449 32.7852C53.6387 33.0742 53.6855 33.4277 53.6855 33.8457V38H52.5957V33.834C52.5957 33.502 52.5469 33.2363 52.4492 33.0371C52.3516 32.834 52.209 32.6875 52.0215 32.5977C51.834 32.5039 51.6035 32.457 51.3301 32.457C51.0605 32.457 50.8145 32.5137 50.5918 32.627C50.373 32.7402 50.1836 32.8965 50.0234 33.0957C49.8672 33.2949 49.7441 33.5234 49.6543 33.7812C49.5684 34.0352 49.5254 34.3047 49.5254 34.5898ZM57.9629 38.1172C57.5215 38.1172 57.1211 38.043 56.7617 37.8945C56.4062 37.7422 56.0996 37.5293 55.8418 37.2559C55.5879 36.9824 55.3926 36.6582 55.2559 36.2832C55.1191 35.9082 55.0508 35.498 55.0508 35.0527V34.8066C55.0508 34.291 55.127 33.832 55.2793 33.4297C55.4316 33.0234 55.6387 32.6797 55.9004 32.3984C56.1621 32.1172 56.459 31.9043 56.791 31.7598C57.123 31.6152 57.4668 31.543 57.8223 31.543C58.2754 31.543 58.666 31.6211 58.9941 31.7773C59.3262 31.9336 59.5977 32.1523 59.8086 32.4336C60.0195 32.7109 60.1758 33.0391 60.2773 33.418C60.3789 33.793 60.4297 34.2031 60.4297 34.6484V35.1348H55.6953V34.25H59.3457V34.168C59.3301 33.8867 59.2715 33.6133 59.1699 33.3477C59.0723 33.082 58.916 32.8633 58.7012 32.6914C58.4863 32.5195 58.1934 32.4336 57.8223 32.4336C57.5762 32.4336 57.3496 32.4863 57.1426 32.5918C56.9355 32.6934 56.7578 32.8457 56.6094 33.0488C56.4609 33.252 56.3457 33.5 56.2637 33.793C56.1816 34.0859 56.1406 34.4238 56.1406 34.8066V35.0527C56.1406 35.3535 56.1816 35.6367 56.2637 35.9023C56.3496 36.1641 56.4727 36.3945 56.6328 36.5938C56.7969 36.793 56.9941 36.9492 57.2246 37.0625C57.459 37.1758 57.7246 37.2324 58.0215 37.2324C58.4043 37.2324 58.7285 37.1543 58.9941 36.998C59.2598 36.8418 59.4922 36.6328 59.6914 36.3711L60.3477 36.8926C60.2109 37.0996 60.0371 37.2969 59.8262 37.4844C59.6152 37.6719 59.3555 37.8242 59.0469 37.9414C58.7422 38.0586 58.3809 38.1172 57.9629 38.1172ZM65.6914 36.7695V29H66.7812V38H65.7852L65.6914 36.7695ZM61.4258 34.9004V34.7773C61.4258 34.293 61.4844 33.8535 61.6016 33.459C61.7227 33.0605 61.8926 32.7188 62.1113 32.4336C62.334 32.1484 62.5977 31.9297 62.9023 31.7773C63.2109 31.6211 63.5547 31.543 63.9336 31.543C64.332 31.543 64.6797 31.6133 64.9766 31.7539C65.2773 31.8906 65.5312 32.0918 65.7383 32.3574C65.9492 32.6191 66.1152 32.9355 66.2363 33.3066C66.3574 33.6777 66.4414 34.0977 66.4883 34.5664V35.1055C66.4453 35.5703 66.3613 35.9883 66.2363 36.3594C66.1152 36.7305 65.9492 37.0469 65.7383 37.3086C65.5312 37.5703 65.2773 37.7715 64.9766 37.9121C64.6758 38.0488 64.3242 38.1172 63.9219 38.1172C63.5508 38.1172 63.2109 38.0371 62.9023 37.877C62.5977 37.7168 62.334 37.4922 62.1113 37.2031C61.8926 36.9141 61.7227 36.5742 61.6016 36.1836C61.4844 35.7891 61.4258 35.3613 61.4258 34.9004ZM62.5156 34.7773V34.9004C62.5156 35.2168 62.5469 35.5137 62.6094 35.791C62.6758 36.0684 62.7773 36.3125 62.9141 36.5234C63.0508 36.7344 63.2246 36.9004 63.4355 37.0215C63.6465 37.1387 63.8984 37.1973 64.1914 37.1973C64.5508 37.1973 64.8457 37.1211 65.0762 36.9688C65.3105 36.8164 65.498 36.6152 65.6387 36.3652C65.7793 36.1152 65.8887 35.8438 65.9668 35.5508V34.1387C65.9199 33.9238 65.8516 33.7168 65.7617 33.5176C65.6758 33.3145 65.5625 33.1348 65.4219 32.9785C65.2852 32.8184 65.1152 32.6914 64.9121 32.5977C64.7129 32.5039 64.4766 32.457 64.2031 32.457C63.9062 32.457 63.6504 32.5195 63.4355 32.6445C63.2246 32.7656 63.0508 32.9336 62.9141 33.1484C62.7773 33.3594 62.6758 33.6055 62.6094 33.8867C62.5469 34.1641 62.5156 34.4609 62.5156 34.7773ZM72.5293 32.6562V38H71.4453V31.6602H72.5L72.5293 32.6562ZM74.5098 31.625L74.5039 32.6328C74.4141 32.6133 74.3281 32.6016 74.2461 32.5977C74.168 32.5898 74.0781 32.5859 73.9766 32.5859C73.7266 32.5859 73.5059 32.625 73.3145 32.7031C73.123 32.7812 72.9609 32.8906 72.8281 33.0312C72.6953 33.1719 72.5898 33.3398 72.5117 33.5352C72.4375 33.7266 72.3887 33.9375 72.3652 34.168L72.0605 34.3438C72.0605 33.9609 72.0977 33.6016 72.1719 33.2656C72.25 32.9297 72.3691 32.6328 72.5293 32.375C72.6895 32.1133 72.8926 31.9102 73.1387 31.7656C73.3887 31.6172 73.6855 31.543 74.0293 31.543C74.1074 31.543 74.1973 31.5527 74.2988 31.5723C74.4004 31.5879 74.4707 31.6055 74.5098 31.625ZM76.6895 31.6602V38H75.5996V31.6602H76.6895ZM75.5176 29.9785C75.5176 29.8027 75.5703 29.6543 75.6758 29.5332C75.7852 29.4121 75.9453 29.3516 76.1562 29.3516C76.3633 29.3516 76.5215 29.4121 76.6309 29.5332C76.7441 29.6543 76.8008 29.8027 76.8008 29.9785C76.8008 30.1465 76.7441 30.291 76.6309 30.4121C76.5215 30.5293 76.3633 30.5879 76.1562 30.5879C75.9453 30.5879 75.7852 30.5293 75.6758 30.4121C75.5703 30.291 75.5176 30.1465 75.5176 29.9785ZM80.9668 37.2266C81.2246 37.2266 81.4629 37.1738 81.6816 37.0684C81.9004 36.9629 82.0801 36.8184 82.2207 36.6348C82.3613 36.4473 82.4414 36.2344 82.4609 35.9961H83.4922C83.4727 36.3711 83.3457 36.7207 83.1113 37.0449C82.8809 37.3652 82.5781 37.625 82.2031 37.8242C81.8281 38.0195 81.416 38.1172 80.9668 38.1172C80.4902 38.1172 80.0742 38.0332 79.7188 37.8652C79.3672 37.6973 79.0742 37.4668 78.8398 37.1738C78.6094 36.8809 78.4355 36.5449 78.3184 36.166C78.2051 35.7832 78.1484 35.3789 78.1484 34.9531V34.707C78.1484 34.2812 78.2051 33.8789 78.3184 33.5C78.4355 33.1172 78.6094 32.7793 78.8398 32.4863C79.0742 32.1934 79.3672 31.9629 79.7188 31.7949C80.0742 31.627 80.4902 31.543 80.9668 31.543C81.4629 31.543 81.8965 31.6445 82.2676 31.8477C82.6387 32.0469 82.9297 32.3203 83.1406 32.668C83.3555 33.0117 83.4727 33.4023 83.4922 33.8398H82.4609C82.4414 33.5781 82.3672 33.3418 82.2383 33.1309C82.1133 32.9199 81.9414 32.752 81.7227 32.627C81.5078 32.498 81.2559 32.4336 80.9668 32.4336C80.6348 32.4336 80.3555 32.5 80.1289 32.6328C79.9062 32.7617 79.7285 32.9375 79.5957 33.1602C79.4668 33.3789 79.373 33.623 79.3145 33.8926C79.2598 34.1582 79.2324 34.4297 79.2324 34.707V34.9531C79.2324 35.2305 79.2598 35.5039 79.3145 35.7734C79.3691 36.043 79.4609 36.2871 79.5898 36.5059C79.7227 36.7246 79.9004 36.9004 80.123 37.0332C80.3496 37.1621 80.6309 37.2266 80.9668 37.2266ZM85.7949 29V38H84.7109V29H85.7949ZM85.5371 34.5898L85.0859 34.5723C85.0898 34.1387 85.1543 33.7383 85.2793 33.3711C85.4043 33 85.5801 32.6777 85.8066 32.4043C86.0332 32.1309 86.3027 31.9199 86.6152 31.7715C86.9316 31.6191 87.2812 31.543 87.6641 31.543C87.9766 31.543 88.2578 31.5859 88.5078 31.6719C88.7578 31.7539 88.9707 31.8867 89.1465 32.0703C89.3262 32.2539 89.4629 32.4922 89.5566 32.7852C89.6504 33.0742 89.6973 33.4277 89.6973 33.8457V38H88.6074V33.834C88.6074 33.502 88.5586 33.2363 88.4609 33.0371C88.3633 32.834 88.2207 32.6875 88.0332 32.5977C87.8457 32.5039 87.6152 32.457 87.3418 32.457C87.0723 32.457 86.8262 32.5137 86.6035 32.627C86.3848 32.7402 86.1953 32.8965 86.0352 33.0957C85.8789 33.2949 85.7559 33.5234 85.666 33.7812C85.5801 34.0352 85.5371 34.3047 85.5371 34.5898ZM93.9512 38.1172C93.5098 38.1172 93.1094 38.043 92.75 37.8945C92.3945 37.7422 92.0879 37.5293 91.8301 37.2559C91.5762 36.9824 91.3809 36.6582 91.2441 36.2832C91.1074 35.9082 91.0391 35.498 91.0391 35.0527V34.8066C91.0391 34.291 91.1152 33.832 91.2676 33.4297C91.4199 33.0234 91.627 32.6797 91.8887 32.3984C92.1504 32.1172 92.4473 31.9043 92.7793 31.7598C93.1113 31.6152 93.4551 31.543 93.8105 31.543C94.2637 31.543 94.6543 31.6211 94.9824 31.7773C95.3145 31.9336 95.5859 32.1523 95.7969 32.4336C96.0078 32.7109 96.1641 33.0391 96.2656 33.418C96.3672 33.793 96.418 34.2031 96.418 34.6484V35.1348H91.6836V34.25H95.334V34.168C95.3184 33.8867 95.2598 33.6133 95.1582 33.3477C95.0605 33.082 94.9043 32.8633 94.6895 32.6914C94.4746 32.5195 94.1816 32.4336 93.8105 32.4336C93.5645 32.4336 93.3379 32.4863 93.1309 32.5918C92.9238 32.6934 92.7461 32.8457 92.5977 33.0488C92.4492 33.252 92.334 33.5 92.252 33.793C92.1699 34.0859 92.1289 34.4238 92.1289 34.8066V35.0527C92.1289 35.3535 92.1699 35.6367 92.252 35.9023C92.3379 36.1641 92.4609 36.3945 92.6211 36.5938C92.7852 36.793 92.9824 36.9492 93.2129 37.0625C93.4473 37.1758 93.7129 37.2324 94.0098 37.2324C94.3926 37.2324 94.7168 37.1543 94.9824 36.998C95.248 36.8418 95.4805 36.6328 95.6797 36.3711L96.3359 36.8926C96.1992 37.0996 96.0254 37.2969 95.8145 37.4844C95.6035 37.6719 95.3438 37.8242 95.0352 37.9414C94.7305 38.0586 94.3691 38.1172 93.9512 38.1172ZM101.375 36.3184C101.375 36.1621 101.34 36.0176 101.27 35.8848C101.203 35.748 101.064 35.625 100.854 35.5156C100.646 35.4023 100.334 35.3047 99.916 35.2227C99.5645 35.1484 99.2461 35.0605 98.9609 34.959C98.6797 34.8574 98.4395 34.7344 98.2402 34.5898C98.0449 34.4453 97.8945 34.2754 97.7891 34.0801C97.6836 33.8848 97.6309 33.6562 97.6309 33.3945C97.6309 33.1445 97.6855 32.9082 97.7949 32.6855C97.9082 32.4629 98.0664 32.2656 98.2695 32.0938C98.4766 31.9219 98.7246 31.7871 99.0137 31.6895C99.3027 31.5918 99.625 31.543 99.9805 31.543C100.488 31.543 100.922 31.6328 101.281 31.8125C101.641 31.9922 101.916 32.2324 102.107 32.5332C102.299 32.8301 102.395 33.1602 102.395 33.5234H101.311C101.311 33.3477 101.258 33.1777 101.152 33.0137C101.051 32.8457 100.9 32.707 100.701 32.5977C100.506 32.4883 100.266 32.4336 99.9805 32.4336C99.6797 32.4336 99.4355 32.4805 99.248 32.5742C99.0645 32.6641 98.9297 32.7793 98.8438 32.9199C98.7617 33.0605 98.7207 33.209 98.7207 33.3652C98.7207 33.4824 98.7402 33.5879 98.7793 33.6816C98.8223 33.7715 98.8965 33.8555 99.002 33.9336C99.1074 34.0078 99.2559 34.0781 99.4473 34.1445C99.6387 34.2109 99.8828 34.2773 100.18 34.3438C100.699 34.4609 101.127 34.6016 101.463 34.7656C101.799 34.9297 102.049 35.1309 102.213 35.3691C102.377 35.6074 102.459 35.8965 102.459 36.2363C102.459 36.5137 102.4 36.7676 102.283 36.998C102.17 37.2285 102.004 37.4277 101.785 37.5957C101.57 37.7598 101.312 37.8887 101.012 37.9824C100.715 38.0723 100.381 38.1172 100.01 38.1172C99.4512 38.1172 98.9785 38.0176 98.5918 37.8184C98.2051 37.6191 97.9121 37.3613 97.7129 37.0449C97.5137 36.7285 97.4141 36.3945 97.4141 36.043H98.5039C98.5195 36.3398 98.6055 36.5762 98.7617 36.752C98.918 36.9238 99.1094 37.0469 99.3359 37.1211C99.5625 37.1914 99.7871 37.2266 100.01 37.2266C100.307 37.2266 100.555 37.1875 100.754 37.1094C100.957 37.0312 101.111 36.9238 101.217 36.7871C101.322 36.6504 101.375 36.4941 101.375 36.3184ZM104.867 36.7109V37.584C104.867 37.9395 104.777 38.3145 104.598 38.709C104.418 39.1074 104.166 39.4395 103.842 39.7051L103.227 39.2773C103.352 39.1055 103.457 38.9297 103.543 38.75C103.629 38.5742 103.693 38.3906 103.736 38.1992C103.783 38.0117 103.807 37.8125 103.807 37.6016V36.7109H104.867ZM36.4121 45V54H35.3281V45H36.4121ZM36.1543 50.5898L35.7031 50.5723C35.707 50.1387 35.7715 49.7383 35.8965 49.3711C36.0215 49 36.1973 48.6777 36.4238 48.4043C36.6504 48.1309 36.9199 47.9199 37.2324 47.7715C37.5488 47.6191 37.8984 47.543 38.2812 47.543C38.5938 47.543 38.875 47.5859 39.125 47.6719C39.375 47.7539 39.5879 47.8867 39.7637 48.0703C39.9434 48.2539 40.0801 48.4922 40.1738 48.7852C40.2676 49.0742 40.3145 49.4277 40.3145 49.8457V54H39.2246V49.834C39.2246 49.502 39.1758 49.2363 39.0781 49.0371C38.9805 48.834 38.8379 48.6875 38.6504 48.5977C38.4629 48.5039 38.2324 48.457 37.959 48.457C37.6895 48.457 37.4434 48.5137 37.2207 48.627C37.002 48.7402 36.8125 48.8965 36.6523 49.0957C36.4961 49.2949 36.373 49.5234 36.2832 49.7812C36.1973 50.0352 36.1543 50.3047 36.1543 50.5898ZM45.6758 52.916V49.6523C45.6758 49.4023 45.625 49.1855 45.5234 49.002C45.4258 48.8145 45.2773 48.6699 45.0781 48.5684C44.8789 48.4668 44.6328 48.416 44.3398 48.416C44.0664 48.416 43.8262 48.4629 43.6191 48.5566C43.416 48.6504 43.2559 48.7734 43.1387 48.9258C43.0254 49.0781 42.9688 49.2422 42.9688 49.418H41.8848C41.8848 49.1914 41.9434 48.9668 42.0605 48.7441C42.1777 48.5215 42.3457 48.3203 42.5645 48.1406C42.7871 47.957 43.0527 47.8125 43.3613 47.707C43.6738 47.5977 44.0215 47.543 44.4043 47.543C44.8652 47.543 45.2715 47.6211 45.623 47.7773C45.9785 47.9336 46.2559 48.1699 46.4551 48.4863C46.6582 48.7988 46.7598 49.1914 46.7598 49.6641V52.6172C46.7598 52.8281 46.7773 53.0527 46.8125 53.291C46.8516 53.5293 46.9082 53.7344 46.9824 53.9062V54H45.8516C45.7969 53.875 45.7539 53.709 45.7227 53.502C45.6914 53.291 45.6758 53.0957 45.6758 52.916ZM45.8633 50.1562L45.875 50.918H44.7793C44.4707 50.918 44.1953 50.9434 43.9531 50.9941C43.7109 51.041 43.5078 51.1133 43.3438 51.2109C43.1797 51.3086 43.0547 51.4316 42.9688 51.5801C42.8828 51.7246 42.8398 51.8945 42.8398 52.0898C42.8398 52.2891 42.8848 52.4707 42.9746 52.6348C43.0645 52.7988 43.1992 52.9297 43.3789 53.0273C43.5625 53.1211 43.7871 53.168 44.0527 53.168C44.3848 53.168 44.6777 53.0977 44.9316 52.957C45.1855 52.8164 45.3867 52.6445 45.5352 52.4414C45.6875 52.2383 45.7695 52.041 45.7812 51.8496L46.2441 52.3711C46.2168 52.5352 46.1426 52.7168 46.0215 52.916C45.9004 53.1152 45.7383 53.3066 45.5352 53.4902C45.3359 53.6699 45.0977 53.8203 44.8203 53.9414C44.5469 54.0586 44.2383 54.1172 43.8945 54.1172C43.4648 54.1172 43.0879 54.0332 42.7637 53.8652C42.4434 53.6973 42.1934 53.4727 42.0137 53.1914C41.8379 52.9062 41.75 52.5879 41.75 52.2363C41.75 51.8965 41.8164 51.5977 41.9492 51.3398C42.082 51.0781 42.2734 50.8613 42.5234 50.6895C42.7734 50.5137 43.0742 50.3809 43.4258 50.291C43.7773 50.2012 44.1699 50.1562 44.6035 50.1562H45.8633ZM50.2988 53.0215L52.0332 47.6602H53.1406L50.8613 54H50.1348L50.2988 53.0215ZM48.8516 47.6602L50.6387 53.0508L50.7617 54H50.0352L47.7383 47.6602H48.8516ZM56.7324 54.1172C56.291 54.1172 55.8906 54.043 55.5312 53.8945C55.1758 53.7422 54.8691 53.5293 54.6113 53.2559C54.3574 52.9824 54.1621 52.6582 54.0254 52.2832C53.8887 51.9082 53.8203 51.498 53.8203 51.0527V50.8066C53.8203 50.291 53.8965 49.832 54.0488 49.4297C54.2012 49.0234 54.4082 48.6797 54.6699 48.3984C54.9316 48.1172 55.2285 47.9043 55.5605 47.7598C55.8926 47.6152 56.2363 47.543 56.5918 47.543C57.0449 47.543 57.4355 47.6211 57.7637 47.7773C58.0957 47.9336 58.3672 48.1523 58.5781 48.4336C58.7891 48.7109 58.9453 49.0391 59.0469 49.418C59.1484 49.793 59.1992 50.2031 59.1992 50.6484V51.1348H54.4648V50.25H58.1152V50.168C58.0996 49.8867 58.041 49.6133 57.9395 49.3477C57.8418 49.082 57.6855 48.8633 57.4707 48.6914C57.2559 48.5195 56.9629 48.4336 56.5918 48.4336C56.3457 48.4336 56.1191 48.4863 55.9121 48.5918C55.7051 48.6934 55.5273 48.8457 55.3789 49.0488C55.2305 49.252 55.1152 49.5 55.0332 49.793C54.9512 50.0859 54.9102 50.4238 54.9102 50.8066V51.0527C54.9102 51.3535 54.9512 51.6367 55.0332 51.9023C55.1191 52.1641 55.2422 52.3945 55.4023 52.5938C55.5664 52.793 55.7637 52.9492 55.9941 53.0625C56.2285 53.1758 56.4941 53.2324 56.791 53.2324C57.1738 53.2324 57.498 53.1543 57.7637 52.998C58.0293 52.8418 58.2617 52.6328 58.4609 52.3711L59.1172 52.8926C58.9805 53.0996 58.8066 53.2969 58.5957 53.4844C58.3848 53.6719 58.125 53.8242 57.8164 53.9414C57.5117 54.0586 57.1504 54.1172 56.7324 54.1172ZM66.0957 47.6602V48.4922H62.668V47.6602H66.0957ZM63.8281 46.1191H64.9121V52.4297C64.9121 52.6445 64.9453 52.8066 65.0117 52.916C65.0781 53.0254 65.1641 53.0977 65.2695 53.1328C65.375 53.168 65.4883 53.1855 65.6094 53.1855C65.6992 53.1855 65.793 53.1777 65.8906 53.1621C65.9922 53.1426 66.0684 53.127 66.1191 53.1152L66.125 54C66.0391 54.0273 65.9258 54.0527 65.7852 54.0762C65.6484 54.1035 65.4824 54.1172 65.2871 54.1172C65.0215 54.1172 64.7773 54.0645 64.5547 53.959C64.332 53.8535 64.1543 53.6777 64.0215 53.4316C63.8926 53.1816 63.8281 52.8457 63.8281 52.4238V46.1191ZM68.4512 45V54H67.3672V45H68.4512ZM68.1934 50.5898L67.7422 50.5723C67.7461 50.1387 67.8105 49.7383 67.9355 49.3711C68.0605 49 68.2363 48.6777 68.4629 48.4043C68.6895 48.1309 68.959 47.9199 69.2715 47.7715C69.5879 47.6191 69.9375 47.543 70.3203 47.543C70.6328 47.543 70.9141 47.5859 71.1641 47.6719C71.4141 47.7539 71.627 47.8867 71.8027 48.0703C71.9824 48.2539 72.1191 48.4922 72.2129 48.7852C72.3066 49.0742 72.3535 49.4277 72.3535 49.8457V54H71.2637V49.834C71.2637 49.502 71.2148 49.2363 71.1172 49.0371C71.0195 48.834 70.877 48.6875 70.6895 48.5977C70.502 48.5039 70.2715 48.457 69.998 48.457C69.7285 48.457 69.4824 48.5137 69.2598 48.627C69.041 48.7402 68.8516 48.8965 68.6914 49.0957C68.5352 49.2949 68.4121 49.5234 68.3223 49.7812C68.2363 50.0352 68.1934 50.3047 68.1934 50.5898ZM76.6074 54.1172C76.166 54.1172 75.7656 54.043 75.4062 53.8945C75.0508 53.7422 74.7441 53.5293 74.4863 53.2559C74.2324 52.9824 74.0371 52.6582 73.9004 52.2832C73.7637 51.9082 73.6953 51.498 73.6953 51.0527V50.8066C73.6953 50.291 73.7715 49.832 73.9238 49.4297C74.0762 49.0234 74.2832 48.6797 74.5449 48.3984C74.8066 48.1172 75.1035 47.9043 75.4355 47.7598C75.7676 47.6152 76.1113 47.543 76.4668 47.543C76.9199 47.543 77.3105 47.6211 77.6387 47.7773C77.9707 47.9336 78.2422 48.1523 78.4531 48.4336C78.6641 48.7109 78.8203 49.0391 78.9219 49.418C79.0234 49.793 79.0742 50.2031 79.0742 50.6484V51.1348H74.3398V50.25H77.9902V50.168C77.9746 49.8867 77.916 49.6133 77.8145 49.3477C77.7168 49.082 77.5605 48.8633 77.3457 48.6914C77.1309 48.5195 76.8379 48.4336 76.4668 48.4336C76.2207 48.4336 75.9941 48.4863 75.7871 48.5918C75.5801 48.6934 75.4023 48.8457 75.2539 49.0488C75.1055 49.252 74.9902 49.5 74.9082 49.793C74.8262 50.0859 74.7852 50.4238 74.7852 50.8066V51.0527C74.7852 51.3535 74.8262 51.6367 74.9082 51.9023C74.9941 52.1641 75.1172 52.3945 75.2773 52.5938C75.4414 52.793 75.6387 52.9492 75.8691 53.0625C76.1035 53.1758 76.3691 53.2324 76.666 53.2324C77.0488 53.2324 77.373 53.1543 77.6387 52.998C77.9043 52.8418 78.1367 52.6328 78.3359 52.3711L78.9922 52.8926C78.8555 53.0996 78.6816 53.2969 78.4707 53.4844C78.2598 53.6719 78 53.8242 77.6914 53.9414C77.3867 54.0586 77.0254 54.1172 76.6074 54.1172ZM81.5176 47.6602V54H80.4277V47.6602H81.5176ZM80.3457 45.9785C80.3457 45.8027 80.3984 45.6543 80.5039 45.5332C80.6133 45.4121 80.7734 45.3516 80.9844 45.3516C81.1914 45.3516 81.3496 45.4121 81.459 45.5332C81.5723 45.6543 81.6289 45.8027 81.6289 45.9785C81.6289 46.1465 81.5723 46.291 81.459 46.4121C81.3496 46.5293 81.1914 46.5879 80.9844 46.5879C80.7734 46.5879 80.6133 46.5293 80.5039 46.4121C80.3984 46.291 80.3457 46.1465 80.3457 45.9785ZM84.3418 48.6562V54H83.2578V47.6602H84.3125L84.3418 48.6562ZM86.3223 47.625L86.3164 48.6328C86.2266 48.6133 86.1406 48.6016 86.0586 48.5977C85.9805 48.5898 85.8906 48.5859 85.7891 48.5859C85.5391 48.5859 85.3184 48.625 85.127 48.7031C84.9355 48.7812 84.7734 48.8906 84.6406 49.0312C84.5078 49.1719 84.4023 49.3398 84.3242 49.5352C84.25 49.7266 84.2012 49.9375 84.1777 50.168L83.873 50.3438C83.873 49.9609 83.9102 49.6016 83.9844 49.2656C84.0625 48.9297 84.1816 48.6328 84.3418 48.375C84.502 48.1133 84.7051 47.9102 84.9512 47.7656C85.2012 47.6172 85.498 47.543 85.8418 47.543C85.9199 47.543 86.0098 47.5527 86.1113 47.5723C86.2129 47.5879 86.2832 47.6055 86.3223 47.625ZM20.832 61H21.9219V68.7695L21.8281 70H20.832V61ZM26.2051 66.7773V66.9004C26.2051 67.3613 26.1504 67.7891 26.041 68.1836C25.9316 68.5742 25.7715 68.9141 25.5605 69.2031C25.3496 69.4922 25.0918 69.7168 24.7871 69.877C24.4824 70.0371 24.1328 70.1172 23.7383 70.1172C23.3359 70.1172 22.9824 70.0488 22.6777 69.9121C22.377 69.7715 22.123 69.5703 21.916 69.3086C21.709 69.0469 21.543 68.7305 21.418 68.3594C21.2969 67.9883 21.2129 67.5703 21.166 67.1055V66.5664C21.2129 66.0977 21.2969 65.6777 21.418 65.3066C21.543 64.9355 21.709 64.6191 21.916 64.3574C22.123 64.0918 22.377 63.8906 22.6777 63.7539C22.9785 63.6133 23.3281 63.543 23.7266 63.543C24.125 63.543 24.4785 63.6211 24.7871 63.7773C25.0957 63.9297 25.3535 64.1484 25.5605 64.4336C25.7715 64.7188 25.9316 65.0605 26.041 65.459C26.1504 65.8535 26.2051 66.293 26.2051 66.7773ZM25.1152 66.9004V66.7773C25.1152 66.4609 25.0859 66.1641 25.0273 65.8867C24.9688 65.6055 24.875 65.3594 24.7461 65.1484C24.6172 64.9336 24.4473 64.7656 24.2363 64.6445C24.0254 64.5195 23.7656 64.457 23.457 64.457C23.1836 64.457 22.9453 64.5039 22.7422 64.5977C22.543 64.6914 22.373 64.8184 22.2324 64.9785C22.0918 65.1348 21.9766 65.3145 21.8867 65.5176C21.8008 65.7168 21.7363 65.9238 21.6934 66.1387V67.5508C21.7559 67.8242 21.8574 68.0879 21.998 68.3418C22.1426 68.5918 22.334 68.7969 22.5723 68.957C22.8145 69.1172 23.1133 69.1973 23.4688 69.1973C23.7617 69.1973 24.0117 69.1387 24.2188 69.0215C24.4297 68.9004 24.5996 68.7344 24.7285 68.5234C24.8613 68.3125 24.959 68.0684 25.0215 67.791C25.084 67.5137 25.1152 67.2168 25.1152 66.9004ZM30.207 70.1172C29.7656 70.1172 29.3652 70.043 29.0059 69.8945C28.6504 69.7422 28.3438 69.5293 28.0859 69.2559C27.832 68.9824 27.6367 68.6582 27.5 68.2832C27.3633 67.9082 27.2949 67.498 27.2949 67.0527V66.8066C27.2949 66.291 27.3711 65.832 27.5234 65.4297C27.6758 65.0234 27.8828 64.6797 28.1445 64.3984C28.4062 64.1172 28.7031 63.9043 29.0352 63.7598C29.3672 63.6152 29.7109 63.543 30.0664 63.543C30.5195 63.543 30.9102 63.6211 31.2383 63.7773C31.5703 63.9336 31.8418 64.1523 32.0527 64.4336C32.2637 64.7109 32.4199 65.0391 32.5215 65.418C32.623 65.793 32.6738 66.2031 32.6738 66.6484V67.1348H27.9395V66.25H31.5898V66.168C31.5742 65.8867 31.5156 65.6133 31.4141 65.3477C31.3164 65.082 31.1602 64.8633 30.9453 64.6914C30.7305 64.5195 30.4375 64.4336 30.0664 64.4336C29.8203 64.4336 29.5938 64.4863 29.3867 64.5918C29.1797 64.6934 29.002 64.8457 28.8535 65.0488C28.7051 65.252 28.5898 65.5 28.5078 65.793C28.4258 66.0859 28.3848 66.4238 28.3848 66.8066V67.0527C28.3848 67.3535 28.4258 67.6367 28.5078 67.9023C28.5938 68.1641 28.7168 68.3945 28.877 68.5938C29.041 68.793 29.2383 68.9492 29.4688 69.0625C29.7031 69.1758 29.9688 69.2324 30.2656 69.2324C30.6484 69.2324 30.9727 69.1543 31.2383 68.998C31.5039 68.8418 31.7363 68.6328 31.9355 68.3711L32.5918 68.8926C32.4551 69.0996 32.2812 69.2969 32.0703 69.4844C31.8594 69.6719 31.5996 69.8242 31.291 69.9414C30.9863 70.0586 30.625 70.1172 30.207 70.1172ZM38.0469 63.6602H39.0312V69.8652C39.0312 70.4238 38.918 70.9004 38.6914 71.2949C38.4648 71.6895 38.1484 71.9883 37.7422 72.1914C37.3398 72.3984 36.875 72.502 36.3477 72.502C36.1289 72.502 35.8711 72.4668 35.5742 72.3965C35.2812 72.3301 34.9922 72.2148 34.707 72.0508C34.4258 71.8906 34.1895 71.6738 33.998 71.4004L34.5664 70.7559C34.832 71.0762 35.1094 71.2988 35.3984 71.4238C35.6914 71.5488 35.9805 71.6113 36.2656 71.6113C36.6094 71.6113 36.9062 71.5469 37.1562 71.418C37.4062 71.2891 37.5996 71.0977 37.7363 70.8438C37.877 70.5938 37.9473 70.2852 37.9473 69.918V65.0547L38.0469 63.6602ZM33.6816 66.9004V66.7773C33.6816 66.293 33.7383 65.8535 33.8516 65.459C33.9688 65.0605 34.1348 64.7188 34.3496 64.4336C34.5684 64.1484 34.832 63.9297 35.1406 63.7773C35.4492 63.6211 35.7969 63.543 36.1836 63.543C36.582 63.543 36.9297 63.6133 37.2266 63.7539C37.5273 63.8906 37.7812 64.0918 37.9883 64.3574C38.1992 64.6191 38.3652 64.9355 38.4863 65.3066C38.6074 65.6777 38.6914 66.0977 38.7383 66.5664V67.1055C38.6953 67.5703 38.6113 67.9883 38.4863 68.3594C38.3652 68.7305 38.1992 69.0469 37.9883 69.3086C37.7812 69.5703 37.5273 69.7715 37.2266 69.9121C36.9258 70.0488 36.5742 70.1172 36.1719 70.1172C35.793 70.1172 35.4492 70.0371 35.1406 69.877C34.8359 69.7168 34.5742 69.4922 34.3555 69.2031C34.1367 68.9141 33.9688 68.5742 33.8516 68.1836C33.7383 67.7891 33.6816 67.3613 33.6816 66.9004ZM34.7656 66.7773V66.9004C34.7656 67.2168 34.7969 67.5137 34.8594 67.791C34.9258 68.0684 35.0254 68.3125 35.1582 68.5234C35.2949 68.7344 35.4688 68.9004 35.6797 69.0215C35.8906 69.1387 36.1426 69.1973 36.4355 69.1973C36.7949 69.1973 37.0918 69.1211 37.3262 68.9688C37.5605 68.8164 37.7461 68.6152 37.8828 68.3652C38.0234 68.1152 38.1328 67.8438 38.2109 67.5508V66.1387C38.168 65.9238 38.1016 65.7168 38.0117 65.5176C37.9258 65.3145 37.8125 65.1348 37.6719 64.9785C37.5352 64.8184 37.3652 64.6914 37.1621 64.5977C36.959 64.5039 36.7207 64.457 36.4473 64.457C36.1504 64.457 35.8945 64.5195 35.6797 64.6445C35.4688 64.7656 35.2949 64.9336 35.1582 65.1484C35.0254 65.3594 34.9258 65.6055 34.8594 65.8867C34.7969 66.1641 34.7656 66.4609 34.7656 66.7773ZM41.8555 63.6602V70H40.7656V63.6602H41.8555ZM40.6836 61.9785C40.6836 61.8027 40.7363 61.6543 40.8418 61.5332C40.9512 61.4121 41.1113 61.3516 41.3223 61.3516C41.5293 61.3516 41.6875 61.4121 41.7969 61.5332C41.9102 61.6543 41.9668 61.8027 41.9668 61.9785C41.9668 62.1465 41.9102 62.291 41.7969 62.4121C41.6875 62.5293 41.5293 62.5879 41.3223 62.5879C41.1113 62.5879 40.9512 62.5293 40.8418 62.4121C40.7363 62.291 40.6836 62.1465 40.6836 61.9785ZM44.6797 65.0137V70H43.5957V63.6602H44.6211L44.6797 65.0137ZM44.4219 66.5898L43.9707 66.5723C43.9746 66.1387 44.0391 65.7383 44.1641 65.3711C44.2891 65 44.4648 64.6777 44.6914 64.4043C44.918 64.1309 45.1875 63.9199 45.5 63.7715C45.8164 63.6191 46.166 63.543 46.5488 63.543C46.8613 63.543 47.1426 63.5859 47.3926 63.6719C47.6426 63.7539 47.8555 63.8867 48.0312 64.0703C48.2109 64.2539 48.3477 64.4922 48.4414 64.7852C48.5352 65.0742 48.582 65.4277 48.582 65.8457V70H47.4922V65.834C47.4922 65.502 47.4434 65.2363 47.3457 65.0371C47.248 64.834 47.1055 64.6875 46.918 64.5977C46.7305 64.5039 46.5 64.457 46.2266 64.457C45.957 64.457 45.7109 64.5137 45.4883 64.627C45.2695 64.7402 45.0801 64.8965 44.9199 65.0957C44.7637 65.2949 44.6406 65.5234 44.5508 65.7812C44.4648 66.0352 44.4219 66.3047 44.4219 66.5898ZM51.3125 65.0137V70H50.2285V63.6602H51.2539L51.3125 65.0137ZM51.0547 66.5898L50.6035 66.5723C50.6074 66.1387 50.6719 65.7383 50.7969 65.3711C50.9219 65 51.0977 64.6777 51.3242 64.4043C51.5508 64.1309 51.8203 63.9199 52.1328 63.7715C52.4492 63.6191 52.7988 63.543 53.1816 63.543C53.4941 63.543 53.7754 63.5859 54.0254 63.6719C54.2754 63.7539 54.4883 63.8867 54.6641 64.0703C54.8438 64.2539 54.9805 64.4922 55.0742 64.7852C55.168 65.0742 55.2148 65.4277 55.2148 65.8457V70H54.125V65.834C54.125 65.502 54.0762 65.2363 53.9785 65.0371C53.8809 64.834 53.7383 64.6875 53.5508 64.5977C53.3633 64.5039 53.1328 64.457 52.8594 64.457C52.5898 64.457 52.3438 64.5137 52.1211 64.627C51.9023 64.7402 51.7129 64.8965 51.5527 65.0957C51.3965 65.2949 51.2734 65.5234 51.1836 65.7812C51.0977 66.0352 51.0547 66.3047 51.0547 66.5898ZM58.0391 63.6602V70H56.9492V63.6602H58.0391ZM56.8672 61.9785C56.8672 61.8027 56.9199 61.6543 57.0254 61.5332C57.1348 61.4121 57.2949 61.3516 57.5059 61.3516C57.7129 61.3516 57.8711 61.4121 57.9805 61.5332C58.0938 61.6543 58.1504 61.8027 58.1504 61.9785C58.1504 62.1465 58.0938 62.291 57.9805 62.4121C57.8711 62.5293 57.7129 62.5879 57.5059 62.5879C57.2949 62.5879 57.1348 62.5293 57.0254 62.4121C56.9199 62.291 56.8672 62.1465 56.8672 61.9785ZM60.8633 65.0137V70H59.7793V63.6602H60.8047L60.8633 65.0137ZM60.6055 66.5898L60.1543 66.5723C60.1582 66.1387 60.2227 65.7383 60.3477 65.3711C60.4727 65 60.6484 64.6777 60.875 64.4043C61.1016 64.1309 61.3711 63.9199 61.6836 63.7715C62 63.6191 62.3496 63.543 62.7324 63.543C63.0449 63.543 63.3262 63.5859 63.5762 63.6719C63.8262 63.7539 64.0391 63.8867 64.2148 64.0703C64.3945 64.2539 64.5312 64.4922 64.625 64.7852C64.7188 65.0742 64.7656 65.4277 64.7656 65.8457V70H63.6758V65.834C63.6758 65.502 63.627 65.2363 63.5293 65.0371C63.4316 64.834 63.2891 64.6875 63.1016 64.5977C62.9141 64.5039 62.6836 64.457 62.4102 64.457C62.1406 64.457 61.8945 64.5137 61.6719 64.627C61.4531 64.7402 61.2637 64.8965 61.1035 65.0957C60.9473 65.2949 60.8242 65.5234 60.7344 65.7812C60.6484 66.0352 60.6055 66.3047 60.6055 66.5898ZM70.5195 63.6602H71.5039V69.8652C71.5039 70.4238 71.3906 70.9004 71.1641 71.2949C70.9375 71.6895 70.6211 71.9883 70.2148 72.1914C69.8125 72.3984 69.3477 72.502 68.8203 72.502C68.6016 72.502 68.3438 72.4668 68.0469 72.3965C67.7539 72.3301 67.4648 72.2148 67.1797 72.0508C66.8984 71.8906 66.6621 71.6738 66.4707 71.4004L67.0391 70.7559C67.3047 71.0762 67.582 71.2988 67.8711 71.4238C68.1641 71.5488 68.4531 71.6113 68.7383 71.6113C69.082 71.6113 69.3789 71.5469 69.6289 71.418C69.8789 71.2891 70.0723 71.0977 70.209 70.8438C70.3496 70.5938 70.4199 70.2852 70.4199 69.918V65.0547L70.5195 63.6602ZM66.1543 66.9004V66.7773C66.1543 66.293 66.2109 65.8535 66.3242 65.459C66.4414 65.0605 66.6074 64.7188 66.8223 64.4336C67.041 64.1484 67.3047 63.9297 67.6133 63.7773C67.9219 63.6211 68.2695 63.543 68.6562 63.543C69.0547 63.543 69.4023 63.6133 69.6992 63.7539C70 63.8906 70.2539 64.0918 70.4609 64.3574C70.6719 64.6191 70.8379 64.9355 70.959 65.3066C71.0801 65.6777 71.1641 66.0977 71.2109 66.5664V67.1055C71.168 67.5703 71.084 67.9883 70.959 68.3594C70.8379 68.7305 70.6719 69.0469 70.4609 69.3086C70.2539 69.5703 70 69.7715 69.6992 69.9121C69.3984 70.0488 69.0469 70.1172 68.6445 70.1172C68.2656 70.1172 67.9219 70.0371 67.6133 69.877C67.3086 69.7168 67.0469 69.4922 66.8281 69.2031C66.6094 68.9141 66.4414 68.5742 66.3242 68.1836C66.2109 67.7891 66.1543 67.3613 66.1543 66.9004ZM67.2383 66.7773V66.9004C67.2383 67.2168 67.2695 67.5137 67.332 67.791C67.3984 68.0684 67.498 68.3125 67.6309 68.5234C67.7676 68.7344 67.9414 68.9004 68.1523 69.0215C68.3633 69.1387 68.6152 69.1973 68.9082 69.1973C69.2676 69.1973 69.5645 69.1211 69.7988 68.9688C70.0332 68.8164 70.2188 68.6152 70.3555 68.3652C70.4961 68.1152 70.6055 67.8438 70.6836 67.5508V66.1387C70.6406 65.9238 70.5742 65.7168 70.4844 65.5176C70.3984 65.3145 70.2852 65.1348 70.1445 64.9785C70.0078 64.8184 69.8379 64.6914 69.6348 64.5977C69.4316 64.5039 69.1934 64.457 68.9199 64.457C68.623 64.457 68.3672 64.5195 68.1523 64.6445C67.9414 64.7656 67.7676 64.9336 67.6309 65.1484C67.498 65.3594 67.3984 65.6055 67.332 65.8867C67.2695 66.1641 67.2383 66.4609 67.2383 66.7773ZM77.3047 63.6602V70H76.2148V63.6602H77.3047ZM76.1328 61.9785C76.1328 61.8027 76.1855 61.6543 76.291 61.5332C76.4004 61.4121 76.5605 61.3516 76.7715 61.3516C76.9785 61.3516 77.1367 61.4121 77.2461 61.5332C77.3594 61.6543 77.416 61.8027 77.416 61.9785C77.416 62.1465 77.3594 62.291 77.2461 62.4121C77.1367 62.5293 76.9785 62.5879 76.7715 62.5879C76.5605 62.5879 76.4004 62.5293 76.291 62.4121C76.1855 62.291 76.1328 62.1465 76.1328 61.9785ZM80.1289 65.0137V70H79.0449V63.6602H80.0703L80.1289 65.0137ZM79.8711 66.5898L79.4199 66.5723C79.4238 66.1387 79.4883 65.7383 79.6133 65.3711C79.7383 65 79.9141 64.6777 80.1406 64.4043C80.3672 64.1309 80.6367 63.9199 80.9492 63.7715C81.2656 63.6191 81.6152 63.543 81.998 63.543C82.3105 63.543 82.5918 63.5859 82.8418 63.6719C83.0918 63.7539 83.3047 63.8867 83.4805 64.0703C83.6602 64.2539 83.7969 64.4922 83.8906 64.7852C83.9844 65.0742 84.0312 65.4277 84.0312 65.8457V70H82.9414V65.834C82.9414 65.502 82.8926 65.2363 82.7949 65.0371C82.6973 64.834 82.5547 64.6875 82.3672 64.5977C82.1797 64.5039 81.9492 64.457 81.6758 64.457C81.4062 64.457 81.1602 64.5137 80.9375 64.627C80.7188 64.7402 80.5293 64.8965 80.3691 65.0957C80.2129 65.2949 80.0898 65.5234 80 65.7812C79.9141 66.0352 79.8711 66.3047 79.8711 66.5898ZM92.3926 68.916V65.6523C92.3926 65.4023 92.3418 65.1855 92.2402 65.002C92.1426 64.8145 91.9941 64.6699 91.7949 64.5684C91.5957 64.4668 91.3496 64.416 91.0566 64.416C90.7832 64.416 90.543 64.4629 90.3359 64.5566C90.1328 64.6504 89.9727 64.7734 89.8555 64.9258C89.7422 65.0781 89.6855 65.2422 89.6855 65.418H88.6016C88.6016 65.1914 88.6602 64.9668 88.7773 64.7441C88.8945 64.5215 89.0625 64.3203 89.2812 64.1406C89.5039 63.957 89.7695 63.8125 90.0781 63.707C90.3906 63.5977 90.7383 63.543 91.1211 63.543C91.582 63.543 91.9883 63.6211 92.3398 63.7773C92.6953 63.9336 92.9727 64.1699 93.1719 64.4863C93.375 64.7988 93.4766 65.1914 93.4766 65.6641V68.6172C93.4766 68.8281 93.4941 69.0527 93.5293 69.291C93.5684 69.5293 93.625 69.7344 93.6992 69.9062V70H92.5684C92.5137 69.875 92.4707 69.709 92.4395 69.502C92.4082 69.291 92.3926 69.0957 92.3926 68.916ZM92.5801 66.1562L92.5918 66.918H91.4961C91.1875 66.918 90.9121 66.9434 90.6699 66.9941C90.4277 67.041 90.2246 67.1133 90.0605 67.2109C89.8965 67.3086 89.7715 67.4316 89.6855 67.5801C89.5996 67.7246 89.5566 67.8945 89.5566 68.0898C89.5566 68.2891 89.6016 68.4707 89.6914 68.6348C89.7812 68.7988 89.916 68.9297 90.0957 69.0273C90.2793 69.1211 90.5039 69.168 90.7695 69.168C91.1016 69.168 91.3945 69.0977 91.6484 68.957C91.9023 68.8164 92.1035 68.6445 92.252 68.4414C92.4043 68.2383 92.4863 68.041 92.498 67.8496L92.9609 68.3711C92.9336 68.5352 92.8594 68.7168 92.7383 68.916C92.6172 69.1152 92.4551 69.3066 92.252 69.4902C92.0527 69.6699 91.8145 69.8203 91.5371 69.9414C91.2637 70.0586 90.9551 70.1172 90.6113 70.1172C90.1816 70.1172 89.8047 70.0332 89.4805 69.8652C89.1602 69.6973 88.9102 69.4727 88.7305 69.1914C88.5547 68.9062 88.4668 68.5879 88.4668 68.2363C88.4668 67.8965 88.5332 67.5977 88.666 67.3398C88.7988 67.0781 88.9902 66.8613 89.2402 66.6895C89.4902 66.5137 89.791 66.3809 90.1426 66.291C90.4941 66.2012 90.8867 66.1562 91.3203 66.1562H92.5801ZM96.2656 65.0137V70H95.1816V63.6602H96.207L96.2656 65.0137ZM96.0078 66.5898L95.5566 66.5723C95.5605 66.1387 95.625 65.7383 95.75 65.3711C95.875 65 96.0508 64.6777 96.2773 64.4043C96.5039 64.1309 96.7734 63.9199 97.0859 63.7715C97.4023 63.6191 97.752 63.543 98.1348 63.543C98.4473 63.543 98.7285 63.5859 98.9785 63.6719C99.2285 63.7539 99.4414 63.8867 99.6172 64.0703C99.7969 64.2539 99.9336 64.4922 100.027 64.7852C100.121 65.0742 100.168 65.4277 100.168 65.8457V70H99.0781V65.834C99.0781 65.502 99.0293 65.2363 98.9316 65.0371C98.834 64.834 98.6914 64.6875 98.5039 64.5977C98.3164 64.5039 98.0859 64.457 97.8125 64.457C97.543 64.457 97.2969 64.5137 97.0742 64.627C96.8555 64.7402 96.666 64.8965 96.5059 65.0957C96.3496 65.2949 96.2266 65.5234 96.1367 65.7812C96.0508 66.0352 96.0078 66.3047 96.0078 66.5898ZM46.0332 79.6602V86H44.9434V79.6602H46.0332ZM44.8613 77.9785C44.8613 77.8027 44.9141 77.6543 45.0195 77.5332C45.1289 77.4121 45.2891 77.3516 45.5 77.3516C45.707 77.3516 45.8652 77.4121 45.9746 77.5332C46.0879 77.6543 46.1445 77.8027 46.1445 77.9785C46.1445 78.1465 46.0879 78.291 45.9746 78.4121C45.8652 78.5293 45.707 78.5879 45.5 78.5879C45.2891 78.5879 45.1289 78.5293 45.0195 78.4121C44.9141 78.291 44.8613 78.1465 44.8613 77.9785ZM51.7695 84.7695V77H52.8594V86H51.8633L51.7695 84.7695ZM47.5039 82.9004V82.7773C47.5039 82.293 47.5625 81.8535 47.6797 81.459C47.8008 81.0605 47.9707 80.7188 48.1895 80.4336C48.4121 80.1484 48.6758 79.9297 48.9805 79.7773C49.2891 79.6211 49.6328 79.543 50.0117 79.543C50.4102 79.543 50.7578 79.6133 51.0547 79.7539C51.3555 79.8906 51.6094 80.0918 51.8164 80.3574C52.0273 80.6191 52.1934 80.9355 52.3145 81.3066C52.4355 81.6777 52.5195 82.0977 52.5664 82.5664V83.1055C52.5234 83.5703 52.4395 83.9883 52.3145 84.3594C52.1934 84.7305 52.0273 85.0469 51.8164 85.3086C51.6094 85.5703 51.3555 85.7715 51.0547 85.9121C50.7539 86.0488 50.4023 86.1172 50 86.1172C49.6289 86.1172 49.2891 86.0371 48.9805 85.877C48.6758 85.7168 48.4121 85.4922 48.1895 85.2031C47.9707 84.9141 47.8008 84.5742 47.6797 84.1836C47.5625 83.7891 47.5039 83.3613 47.5039 82.9004ZM48.5938 82.7773V82.9004C48.5938 83.2168 48.625 83.5137 48.6875 83.791C48.7539 84.0684 48.8555 84.3125 48.9922 84.5234C49.1289 84.7344 49.3027 84.9004 49.5137 85.0215C49.7246 85.1387 49.9766 85.1973 50.2695 85.1973C50.6289 85.1973 50.9238 85.1211 51.1543 84.9688C51.3887 84.8164 51.5762 84.6152 51.7168 84.3652C51.8574 84.1152 51.9668 83.8438 52.0449 83.5508V82.1387C51.998 81.9238 51.9297 81.7168 51.8398 81.5176C51.7539 81.3145 51.6406 81.1348 51.5 80.9785C51.3633 80.8184 51.1934 80.6914 50.9902 80.5977C50.791 80.5039 50.5547 80.457 50.2812 80.457C49.9844 80.457 49.7285 80.5195 49.5137 80.6445C49.3027 80.7656 49.1289 80.9336 48.9922 81.1484C48.8555 81.3594 48.7539 81.6055 48.6875 81.8867C48.625 82.1641 48.5938 82.4609 48.5938 82.7773ZM57.1777 86.1172C56.7363 86.1172 56.3359 86.043 55.9766 85.8945C55.6211 85.7422 55.3145 85.5293 55.0566 85.2559C54.8027 84.9824 54.6074 84.6582 54.4707 84.2832C54.334 83.9082 54.2656 83.498 54.2656 83.0527V82.8066C54.2656 82.291 54.3418 81.832 54.4941 81.4297C54.6465 81.0234 54.8535 80.6797 55.1152 80.3984C55.377 80.1172 55.6738 79.9043 56.0059 79.7598C56.3379 79.6152 56.6816 79.543 57.0371 79.543C57.4902 79.543 57.8809 79.6211 58.209 79.7773C58.541 79.9336 58.8125 80.1523 59.0234 80.4336C59.2344 80.7109 59.3906 81.0391 59.4922 81.418C59.5938 81.793 59.6445 82.2031 59.6445 82.6484V83.1348H54.9102V82.25H58.5605V82.168C58.5449 81.8867 58.4863 81.6133 58.3848 81.3477C58.2871 81.082 58.1309 80.8633 57.916 80.6914C57.7012 80.5195 57.4082 80.4336 57.0371 80.4336C56.791 80.4336 56.5645 80.4863 56.3574 80.5918C56.1504 80.6934 55.9727 80.8457 55.8242 81.0488C55.6758 81.252 55.5605 81.5 55.4785 81.793C55.3965 82.0859 55.3555 82.4238 55.3555 82.8066V83.0527C55.3555 83.3535 55.3965 83.6367 55.4785 83.9023C55.5645 84.1641 55.6875 84.3945 55.8477 84.5938C56.0117 84.793 56.209 84.9492 56.4395 85.0625C56.6738 85.1758 56.9395 85.2324 57.2363 85.2324C57.6191 85.2324 57.9434 85.1543 58.209 84.998C58.4746 84.8418 58.707 84.6328 58.9062 84.3711L59.5625 84.8926C59.4258 85.0996 59.252 85.2969 59.041 85.4844C58.8301 85.6719 58.5703 85.8242 58.2617 85.9414C57.957 86.0586 57.5957 86.1172 57.1777 86.1172ZM64.6484 84.916V81.6523C64.6484 81.4023 64.5977 81.1855 64.4961 81.002C64.3984 80.8145 64.25 80.6699 64.0508 80.5684C63.8516 80.4668 63.6055 80.416 63.3125 80.416C63.0391 80.416 62.7988 80.4629 62.5918 80.5566C62.3887 80.6504 62.2285 80.7734 62.1113 80.9258C61.998 81.0781 61.9414 81.2422 61.9414 81.418H60.8574C60.8574 81.1914 60.916 80.9668 61.0332 80.7441C61.1504 80.5215 61.3184 80.3203 61.5371 80.1406C61.7598 79.957 62.0254 79.8125 62.334 79.707C62.6465 79.5977 62.9941 79.543 63.377 79.543C63.8379 79.543 64.2441 79.6211 64.5957 79.7773C64.9512 79.9336 65.2285 80.1699 65.4277 80.4863C65.6309 80.7988 65.7324 81.1914 65.7324 81.6641V84.6172C65.7324 84.8281 65.75 85.0527 65.7852 85.291C65.8242 85.5293 65.8809 85.7344 65.9551 85.9062V86H64.8242C64.7695 85.875 64.7266 85.709 64.6953 85.502C64.6641 85.291 64.6484 85.0957 64.6484 84.916ZM64.8359 82.1562L64.8477 82.918H63.752C63.4434 82.918 63.168 82.9434 62.9258 82.9941C62.6836 83.041 62.4805 83.1133 62.3164 83.2109C62.1523 83.3086 62.0273 83.4316 61.9414 83.5801C61.8555 83.7246 61.8125 83.8945 61.8125 84.0898C61.8125 84.2891 61.8574 84.4707 61.9473 84.6348C62.0371 84.7988 62.1719 84.9297 62.3516 85.0273C62.5352 85.1211 62.7598 85.168 63.0254 85.168C63.3574 85.168 63.6504 85.0977 63.9043 84.957C64.1582 84.8164 64.3594 84.6445 64.5078 84.4414C64.6602 84.2383 64.7422 84.041 64.7539 83.8496L65.2168 84.3711C65.1895 84.5352 65.1152 84.7168 64.9941 84.916C64.873 85.1152 64.7109 85.3066 64.5078 85.4902C64.3086 85.6699 64.0703 85.8203 63.793 85.9414C63.5195 86.0586 63.2109 86.1172 62.8672 86.1172C62.4375 86.1172 62.0605 86.0332 61.7363 85.8652C61.416 85.6973 61.166 85.4727 60.9863 85.1914C60.8105 84.9062 60.7227 84.5879 60.7227 84.2363C60.7227 83.8965 60.7891 83.5977 60.9219 83.3398C61.0547 83.0781 61.2461 82.8613 61.4961 82.6895C61.7461 82.5137 62.0469 82.3809 62.3984 82.291C62.75 82.2012 63.1426 82.1562 63.5762 82.1562H64.8359ZM71.7031 77.4688L71.627 83.5918H70.6484L70.5664 77.4688H71.7031ZM70.5312 85.4551C70.5312 85.2793 70.584 85.1309 70.6895 85.0098C70.7988 84.8887 70.959 84.8281 71.1699 84.8281C71.377 84.8281 71.5352 84.8887 71.6445 85.0098C71.7578 85.1309 71.8145 85.2793 71.8145 85.4551C71.8145 85.623 71.7578 85.7676 71.6445 85.8887C71.5352 86.0098 71.377 86.0703 71.1699 86.0703C70.959 86.0703 70.7988 86.0098 70.6895 85.8887C70.584 85.7676 70.5312 85.623 70.5312 85.4551ZM74.6738 77V77.75C74.6738 77.9844 74.6328 78.2324 74.5508 78.4941C74.4727 78.752 74.3574 79.002 74.2051 79.2441C74.0527 79.4824 73.8691 79.6914 73.6543 79.8711L73.0332 79.4434C73.2168 79.1855 73.3555 78.9219 73.4492 78.6523C73.5469 78.3789 73.5957 78.084 73.5957 77.7676V77H74.6738ZM76.4727 77V77.75C76.4727 77.9844 76.4316 78.2324 76.3496 78.4941C76.2715 78.752 76.1562 79.002 76.0039 79.2441C75.8516 79.4824 75.668 79.6914 75.4531 79.8711L74.832 79.4434C75.0156 79.1855 75.1543 78.9219 75.248 78.6523C75.3457 78.3789 75.3945 78.084 75.3945 77.7676V77H76.4727Z" fill="white"/>
</svg>
