<svg width="301" height="75" viewBox="0 0 301 75" fill="none" xmlns="http://www.w3.org/2000/svg">
<path d="M39.5547 12.0781H43.9843C44.4274 12.0781 44.807 11.9218 45.1251 11.6047C45.4432 11.2898 45.6034 10.9141 45.6034 10.4753V6.70508H39.5547V12.076V12.0781Z" fill="#DCA54C"/>
<path d="M68.6749 9.45894C68.1637 8.60976 67.4858 7.93867 66.6411 7.44567C65.7965 6.95266 64.8618 6.70508 63.8395 6.70508H48.9667V10.4753C48.9667 11.3788 48.7451 12.2085 48.3019 12.9621C47.8588 13.7157 47.2576 14.3108 46.4963 14.7495C45.735 15.1882 44.8969 15.4075 43.9843 15.4075H39.5547V36.2939H48.947V16.007H69.4428V12.2541C69.4428 11.2398 69.1861 10.3081 68.6749 9.45894Z" fill="#DCA54C"/>
<path d="M52.7869 19.8077C52.4688 20.1226 52.3086 20.5005 52.3086 20.937V36.2917H63.8378C64.8623 36.2917 65.7948 36.0441 66.6394 35.5511C67.4841 35.0581 68.162 34.387 68.6732 33.5379C69.1844 32.6887 69.4411 31.757 69.4411 30.7427V19.332H53.9255C53.4824 19.332 53.1028 19.4906 52.7847 19.8055L52.7869 19.8077Z" fill="#DCA54C"/>
<path d="M40.2295 60.0928L42.2119 52.0469H43.2852L43.3535 53.7422L41.2344 62H40.0996L40.2295 60.0928ZM38.9785 52.0469L40.6055 60.0654V62H39.3682L37.1123 52.0469H38.9785ZM45.4111 60.0312L47.0107 52.0469H48.8838L46.6279 62H45.3906L45.4111 60.0312ZM43.7979 52.0469L45.7803 60.1201L45.8965 62H44.7617L42.6494 53.7354L42.7314 52.0469H43.7979ZM51.8506 54.6035V62H50.0391V54.6035H51.8506ZM49.916 52.6689C49.916 52.4001 50.0072 52.1768 50.1895 51.999C50.3763 51.8213 50.627 51.7324 50.9414 51.7324C51.2559 51.7324 51.5042 51.8213 51.6865 51.999C51.8734 52.1768 51.9668 52.4001 51.9668 52.6689C51.9668 52.9333 51.8734 53.1543 51.6865 53.332C51.5042 53.5098 51.2559 53.5986 50.9414 53.5986C50.627 53.5986 50.3763 53.5098 50.1895 53.332C50.0072 53.1543 49.916 52.9333 49.916 52.6689ZM55.3779 56.1143V62H53.5732V54.6035H55.2822L55.3779 56.1143ZM57.627 54.5557L57.5996 56.2373C57.4993 56.2191 57.3854 56.2054 57.2578 56.1963C57.1348 56.1872 57.0186 56.1826 56.9092 56.1826C56.6312 56.1826 56.3874 56.2214 56.1777 56.2988C55.9681 56.3717 55.7926 56.4788 55.6514 56.6201C55.5146 56.7614 55.4098 56.9346 55.3369 57.1396C55.264 57.3402 55.223 57.568 55.2139 57.8232L54.8242 57.7754C54.8242 57.306 54.8721 56.8708 54.9678 56.4697C55.0635 56.0687 55.2025 55.7178 55.3848 55.417C55.5671 55.1162 55.7949 54.8838 56.0684 54.7197C56.3464 54.5511 56.6654 54.4668 57.0254 54.4668C57.1257 54.4668 57.2327 54.4759 57.3467 54.4941C57.4652 54.5078 57.5586 54.5283 57.627 54.5557ZM63.9023 56.1211V62H62.0977V54.6035H63.7998L63.9023 56.1211ZM63.6357 58.0352H63.082C63.082 57.5202 63.1436 57.0462 63.2666 56.6133C63.3942 56.1803 63.5811 55.8044 63.8271 55.4854C64.0732 55.1618 64.3763 54.9111 64.7363 54.7334C65.1009 54.5557 65.5225 54.4668 66.001 54.4668C66.3337 54.4668 66.639 54.5169 66.917 54.6172C67.195 54.7129 67.4342 54.8656 67.6348 55.0752C67.8398 55.2803 67.9971 55.5492 68.1064 55.8818C68.2158 56.21 68.2705 56.6042 68.2705 57.0645V62H66.4658V57.249C66.4658 56.9027 66.4157 56.6315 66.3154 56.4355C66.2197 56.2396 66.0807 56.1029 65.8984 56.0254C65.7161 55.9434 65.4974 55.9023 65.2422 55.9023C64.9596 55.9023 64.7158 55.9593 64.5107 56.0732C64.3102 56.1826 64.1439 56.3353 64.0117 56.5312C63.8841 56.7272 63.7884 56.9528 63.7246 57.208C63.6654 57.4632 63.6357 57.7389 63.6357 58.0352ZM68.1338 57.7002L67.3887 57.8369C67.3932 57.3721 67.457 56.9368 67.5801 56.5312C67.7031 56.1211 67.8831 55.7633 68.1201 55.458C68.3617 55.1481 68.6602 54.9066 69.0156 54.7334C69.3757 54.5557 69.7904 54.4668 70.2598 54.4668C70.6243 54.4668 70.9525 54.5192 71.2441 54.624C71.5404 54.7243 71.7933 54.8861 72.0029 55.1094C72.2126 55.3281 72.3721 55.613 72.4814 55.9639C72.5954 56.3148 72.6523 56.7432 72.6523 57.249V62H70.834V57.2422C70.834 56.8822 70.7839 56.6064 70.6836 56.415C70.5879 56.2236 70.4489 56.0915 70.2666 56.0186C70.0843 55.9411 69.8701 55.9023 69.624 55.9023C69.3734 55.9023 69.1546 55.9502 68.9678 56.0459C68.7855 56.137 68.6305 56.2646 68.5029 56.4287C68.3799 56.5928 68.2865 56.7842 68.2227 57.0029C68.1634 57.2171 68.1338 57.4495 68.1338 57.7002ZM78.3467 60.4277V57.0166C78.3467 56.766 78.3034 56.5495 78.2168 56.3672C78.1302 56.1849 77.998 56.0436 77.8203 55.9434C77.6426 55.8431 77.417 55.793 77.1436 55.793C76.902 55.793 76.6901 55.834 76.5078 55.916C76.3301 55.998 76.1934 56.1143 76.0977 56.2646C76.002 56.4105 75.9541 56.5791 75.9541 56.7705H74.1426C74.1426 56.4652 74.2155 56.1758 74.3613 55.9023C74.5072 55.6243 74.7145 55.3783 74.9834 55.1641C75.2568 54.9453 75.5827 54.7744 75.9609 54.6514C76.3438 54.5283 76.7721 54.4668 77.2461 54.4668C77.8066 54.4668 78.3057 54.5625 78.7432 54.7539C79.1852 54.9408 79.5316 55.2233 79.7822 55.6016C80.0374 55.9798 80.165 56.4561 80.165 57.0303V60.2568C80.165 60.626 80.1878 60.9427 80.2334 61.207C80.2835 61.4668 80.3564 61.6924 80.4521 61.8838V62H78.6133C78.5267 61.8132 78.4606 61.5762 78.415 61.2891C78.3695 60.9974 78.3467 60.7103 78.3467 60.4277ZM78.5996 57.4951L78.6133 58.5684H77.4717C77.1891 58.5684 76.9408 58.598 76.7266 58.6572C76.5124 58.7119 76.3369 58.7939 76.2002 58.9033C76.0635 59.0081 75.9609 59.1357 75.8926 59.2861C75.8242 59.432 75.79 59.5983 75.79 59.7852C75.79 59.9674 75.8311 60.1315 75.9131 60.2773C75.9997 60.4232 76.1227 60.5394 76.2822 60.626C76.4463 60.708 76.6377 60.749 76.8564 60.749C77.1755 60.749 77.4535 60.6852 77.6904 60.5576C77.9274 60.4255 78.112 60.266 78.2441 60.0791C78.3763 59.8923 78.4469 59.7145 78.4561 59.5459L78.9756 60.3252C78.9118 60.512 78.8161 60.7103 78.6885 60.9199C78.5609 61.1296 78.3968 61.3255 78.1963 61.5078C77.9958 61.6901 77.7542 61.8405 77.4717 61.959C77.1891 62.0775 76.861 62.1367 76.4873 62.1367C76.0088 62.1367 75.5804 62.041 75.2021 61.8496C74.8239 61.6582 74.5254 61.3962 74.3066 61.0635C74.0879 60.7308 73.9785 60.3525 73.9785 59.9287C73.9785 59.5368 74.0514 59.1904 74.1973 58.8896C74.3431 58.5889 74.5596 58.3359 74.8467 58.1309C75.1338 57.9212 75.4893 57.764 75.9131 57.6592C76.3415 57.5498 76.8314 57.4951 77.3828 57.4951H78.5996ZM84.8271 60.7148C85.0824 60.7148 85.3102 60.6647 85.5107 60.5645C85.7113 60.4642 85.8708 60.3229 85.9893 60.1406C86.1123 59.9583 86.1784 59.7464 86.1875 59.5049H87.8896C87.8805 60.0062 87.7393 60.4551 87.4658 60.8516C87.1924 61.248 86.8278 61.5625 86.3721 61.7949C85.9209 62.0228 85.415 62.1367 84.8545 62.1367C84.2848 62.1367 83.7881 62.041 83.3643 61.8496C82.9404 61.6582 82.5872 61.3916 82.3047 61.0498C82.0267 60.708 81.8171 60.3115 81.6758 59.8604C81.5391 59.4092 81.4707 58.9261 81.4707 58.4111V58.1924C81.4707 57.6774 81.5391 57.1943 81.6758 56.7432C81.8171 56.292 82.0267 55.8955 82.3047 55.5537C82.5872 55.2119 82.9404 54.9453 83.3643 54.7539C83.7881 54.5625 84.2826 54.4668 84.8477 54.4668C85.4447 54.4668 85.9688 54.583 86.4199 54.8154C86.8757 55.0479 87.2311 55.376 87.4863 55.7998C87.7461 56.2236 87.8805 56.7227 87.8896 57.2969H86.1875C86.1784 57.0326 86.1191 56.7956 86.0098 56.5859C85.9004 56.3763 85.7454 56.2077 85.5449 56.0801C85.3444 55.9525 85.1006 55.8887 84.8135 55.8887C84.5081 55.8887 84.2529 55.9525 84.0479 56.0801C83.8473 56.2077 83.6901 56.3831 83.5762 56.6064C83.4668 56.8252 83.3893 57.0713 83.3438 57.3447C83.3027 57.6136 83.2822 57.8962 83.2822 58.1924V58.4111C83.2822 58.7119 83.3027 58.999 83.3438 59.2725C83.3893 59.5459 83.4668 59.792 83.5762 60.0107C83.6901 60.2249 83.8473 60.3958 84.0479 60.5234C84.2529 60.651 84.5127 60.7148 84.8271 60.7148ZM90.8633 51.5V62H89.0518V51.5H90.8633ZM90.5762 58.0352H90.043C90.043 57.5202 90.1113 57.0462 90.248 56.6133C90.3848 56.1803 90.5785 55.8044 90.8291 55.4854C91.0798 55.1618 91.3783 54.9111 91.7246 54.7334C92.0755 54.5557 92.4629 54.4668 92.8867 54.4668C93.2513 54.4668 93.5817 54.5192 93.8779 54.624C94.1787 54.7243 94.4362 54.8861 94.6504 55.1094C94.8646 55.3327 95.0286 55.6243 95.1426 55.9844C95.2611 56.3398 95.3203 56.7728 95.3203 57.2832V62H93.502V57.2695C93.502 56.9277 93.4518 56.6589 93.3516 56.4629C93.2513 56.2624 93.1077 56.1188 92.9209 56.0322C92.7386 55.9456 92.513 55.9023 92.2441 55.9023C91.9525 55.9023 91.7018 55.9593 91.4922 56.0732C91.2826 56.1826 91.1094 56.3353 90.9727 56.5312C90.8405 56.7272 90.7402 56.9528 90.6719 57.208C90.6081 57.4632 90.5762 57.7389 90.5762 58.0352ZM100.235 62.1367C99.6748 62.1367 99.1712 62.0456 98.7246 61.8633C98.278 61.681 97.8975 61.4281 97.583 61.1045C97.2731 60.7764 97.0339 60.3958 96.8652 59.9629C96.7012 59.5254 96.6191 59.056 96.6191 58.5547V58.2812C96.6191 57.7116 96.7012 57.1943 96.8652 56.7295C97.0293 56.2601 97.2617 55.8568 97.5625 55.5195C97.8633 55.1823 98.2233 54.9225 98.6426 54.7402C99.0618 54.5579 99.5244 54.4668 100.03 54.4668C100.554 54.4668 101.017 54.5557 101.418 54.7334C101.819 54.9066 102.154 55.1527 102.423 55.4717C102.692 55.7907 102.895 56.1735 103.031 56.6201C103.168 57.0622 103.236 57.5521 103.236 58.0898V58.8486H97.4395V57.6045H101.459V57.4678C101.45 57.1807 101.395 56.9186 101.295 56.6816C101.195 56.4401 101.04 56.2487 100.83 56.1074C100.62 55.9616 100.349 55.8887 100.017 55.8887C99.7477 55.8887 99.513 55.9479 99.3125 56.0664C99.1165 56.1803 98.9525 56.3444 98.8203 56.5586C98.6927 56.7682 98.597 57.0189 98.5332 57.3105C98.4694 57.6022 98.4375 57.9258 98.4375 58.2812V58.5547C98.4375 58.8646 98.4785 59.1517 98.5605 59.416C98.6471 59.6803 98.7725 59.9105 98.9365 60.1064C99.1051 60.2979 99.3057 60.4482 99.5381 60.5576C99.7751 60.6624 100.044 60.7148 100.345 60.7148C100.723 60.7148 101.065 60.6419 101.37 60.4961C101.68 60.3457 101.949 60.1247 102.177 59.833L103.086 60.7764C102.931 61.0042 102.721 61.223 102.457 61.4326C102.197 61.6423 101.883 61.8132 101.514 61.9453C101.145 62.0729 100.718 62.1367 100.235 62.1367ZM106.217 56.1826V62H104.412V54.6035H106.107L106.217 56.1826ZM105.93 58.0352H105.396C105.401 57.4974 105.474 57.0098 105.615 56.5723C105.757 56.1348 105.955 55.7588 106.21 55.4443C106.47 55.1299 106.777 54.8883 107.133 54.7197C107.488 54.5511 107.885 54.4668 108.322 54.4668C108.678 54.4668 108.999 54.5169 109.286 54.6172C109.573 54.7174 109.819 54.877 110.024 55.0957C110.234 55.3145 110.394 55.6016 110.503 55.957C110.617 56.3079 110.674 56.7409 110.674 57.2559V62H108.855V57.2422C108.855 56.9049 108.805 56.6383 108.705 56.4424C108.609 56.2464 108.468 56.1074 108.281 56.0254C108.099 55.9434 107.873 55.9023 107.604 55.9023C107.326 55.9023 107.083 55.9593 106.873 56.0732C106.668 56.1826 106.495 56.3353 106.354 56.5312C106.217 56.7272 106.112 56.9528 106.039 57.208C105.966 57.4632 105.93 57.7389 105.93 58.0352ZM118.863 62H116.717L116.73 60.5234H118.863C119.442 60.5234 119.927 60.3958 120.319 60.1406C120.711 59.8809 121.007 59.5094 121.208 59.0264C121.409 58.5387 121.509 57.9554 121.509 57.2764V56.7637C121.509 56.2396 121.452 55.777 121.338 55.376C121.224 54.9749 121.055 54.6377 120.832 54.3643C120.613 54.0908 120.342 53.8835 120.019 53.7422C119.695 53.6009 119.324 53.5303 118.904 53.5303H116.676V52.0469H118.904C119.57 52.0469 120.176 52.1585 120.723 52.3818C121.274 52.6051 121.75 52.9264 122.151 53.3457C122.557 53.7604 122.867 54.2572 123.081 54.8359C123.3 55.4147 123.409 56.0618 123.409 56.7773V57.2764C123.409 57.9873 123.3 58.6344 123.081 59.2178C122.867 59.7965 122.557 60.2933 122.151 60.708C121.75 61.1227 121.272 61.4417 120.716 61.665C120.16 61.8883 119.542 62 118.863 62ZM117.77 52.0469V62H115.89V52.0469H117.77ZM126.786 54.6035V62H124.975V54.6035H126.786ZM124.852 52.6689C124.852 52.4001 124.943 52.1768 125.125 51.999C125.312 51.8213 125.562 51.7324 125.877 51.7324C126.191 51.7324 126.44 51.8213 126.622 51.999C126.809 52.1768 126.902 52.4001 126.902 52.6689C126.902 52.9333 126.809 53.1543 126.622 53.332C126.44 53.5098 126.191 53.5986 125.877 53.5986C125.562 53.5986 125.312 53.5098 125.125 53.332C124.943 53.1543 124.852 52.9333 124.852 52.6689ZM133.212 54.6035H134.853V61.7744C134.853 62.4443 134.707 63.0117 134.415 63.4766C134.128 63.946 133.725 64.3014 133.205 64.543C132.686 64.7891 132.082 64.9121 131.394 64.9121C131.097 64.9121 130.776 64.8711 130.43 64.7891C130.088 64.707 129.757 64.5771 129.438 64.3994C129.124 64.2262 128.862 64.0007 128.652 63.7227L129.466 62.6562C129.712 62.9434 129.99 63.1598 130.3 63.3057C130.61 63.4561 130.945 63.5312 131.305 63.5312C131.669 63.5312 131.979 63.4629 132.234 63.3262C132.494 63.194 132.692 62.998 132.829 62.7383C132.97 62.4831 133.041 62.1686 133.041 61.7949V56.292L133.212 54.6035ZM128.215 58.3906V58.2471C128.215 57.682 128.283 57.1693 128.42 56.709C128.557 56.2441 128.753 55.8454 129.008 55.5127C129.268 55.18 129.58 54.9225 129.944 54.7402C130.313 54.5579 130.728 54.4668 131.188 54.4668C131.676 54.4668 132.086 54.5557 132.419 54.7334C132.756 54.9111 133.034 55.1641 133.253 55.4922C133.476 55.8203 133.649 56.21 133.772 56.6611C133.9 57.1077 133.998 57.5999 134.066 58.1377V58.5273C134.003 59.0514 133.9 59.5322 133.759 59.9697C133.622 60.4072 133.44 60.79 133.212 61.1182C132.984 61.4417 132.701 61.6924 132.364 61.8701C132.027 62.0479 131.631 62.1367 131.175 62.1367C130.719 62.1367 130.309 62.0433 129.944 61.8564C129.58 61.6696 129.268 61.4076 129.008 61.0703C128.753 60.7331 128.557 60.3366 128.42 59.8809C128.283 59.4251 128.215 58.9284 128.215 58.3906ZM130.02 58.2471V58.3906C130.02 58.7096 130.051 59.0081 130.115 59.2861C130.179 59.5641 130.277 59.8102 130.409 60.0244C130.541 60.234 130.708 60.3981 130.908 60.5166C131.109 60.6351 131.348 60.6943 131.626 60.6943C132 60.6943 132.305 60.6169 132.542 60.4619C132.784 60.3024 132.966 60.0859 133.089 59.8125C133.216 59.5345 133.299 59.2223 133.335 58.876V57.8027C133.312 57.5293 133.262 57.2764 133.185 57.0439C133.112 56.8115 133.009 56.611 132.877 56.4424C132.745 56.2738 132.576 56.1416 132.371 56.0459C132.166 55.9502 131.922 55.9023 131.64 55.9023C131.366 55.9023 131.127 55.9639 130.922 56.0869C130.717 56.2054 130.548 56.3717 130.416 56.5859C130.284 56.8001 130.184 57.0485 130.115 57.3311C130.051 57.6136 130.02 57.9189 130.02 58.2471ZM138.394 54.6035V62H136.582V54.6035H138.394ZM136.459 52.6689C136.459 52.4001 136.55 52.1768 136.732 51.999C136.919 51.8213 137.17 51.7324 137.484 51.7324C137.799 51.7324 138.047 51.8213 138.229 51.999C138.416 52.1768 138.51 52.4001 138.51 52.6689C138.51 52.9333 138.416 53.1543 138.229 53.332C138.047 53.5098 137.799 53.5986 137.484 53.5986C137.17 53.5986 136.919 53.5098 136.732 53.332C136.55 53.1543 136.459 52.9333 136.459 52.6689ZM143.616 54.6035V55.9023H139.378V54.6035H143.616ZM140.513 52.7852H142.324V59.8672C142.324 60.0859 142.354 60.2546 142.413 60.373C142.472 60.4915 142.561 60.5713 142.68 60.6123C142.798 60.6533 142.939 60.6738 143.104 60.6738C143.222 60.6738 143.331 60.667 143.432 60.6533C143.532 60.6396 143.616 60.626 143.685 60.6123L143.691 61.9658C143.541 62.016 143.37 62.057 143.179 62.0889C142.992 62.1208 142.78 62.1367 142.543 62.1367C142.137 62.1367 141.782 62.0684 141.477 61.9316C141.171 61.7904 140.934 61.5648 140.766 61.2549C140.597 60.9404 140.513 60.5257 140.513 60.0107V52.7852ZM148.894 60.4277V57.0166C148.894 56.766 148.85 56.5495 148.764 56.3672C148.677 56.1849 148.545 56.0436 148.367 55.9434C148.189 55.8431 147.964 55.793 147.69 55.793C147.449 55.793 147.237 55.834 147.055 55.916C146.877 55.998 146.74 56.1143 146.645 56.2646C146.549 56.4105 146.501 56.5791 146.501 56.7705H144.689C144.689 56.4652 144.762 56.1758 144.908 55.9023C145.054 55.6243 145.261 55.3783 145.53 55.1641C145.804 54.9453 146.13 54.7744 146.508 54.6514C146.891 54.5283 147.319 54.4668 147.793 54.4668C148.354 54.4668 148.853 54.5625 149.29 54.7539C149.732 54.9408 150.078 55.2233 150.329 55.6016C150.584 55.9798 150.712 56.4561 150.712 57.0303V60.2568C150.712 60.626 150.735 60.9427 150.78 61.207C150.83 61.4668 150.903 61.6924 150.999 61.8838V62H149.16C149.074 61.8132 149.007 61.5762 148.962 61.2891C148.916 60.9974 148.894 60.7103 148.894 60.4277ZM149.146 57.4951L149.16 58.5684H148.019C147.736 58.5684 147.488 58.598 147.273 58.6572C147.059 58.7119 146.884 58.7939 146.747 58.9033C146.61 59.0081 146.508 59.1357 146.439 59.2861C146.371 59.432 146.337 59.5983 146.337 59.7852C146.337 59.9674 146.378 60.1315 146.46 60.2773C146.547 60.4232 146.67 60.5394 146.829 60.626C146.993 60.708 147.185 60.749 147.403 60.749C147.722 60.749 148 60.6852 148.237 60.5576C148.474 60.4255 148.659 60.266 148.791 60.0791C148.923 59.8923 148.994 59.7145 149.003 59.5459L149.522 60.3252C149.459 60.512 149.363 60.7103 149.235 60.9199C149.108 61.1296 148.944 61.3255 148.743 61.5078C148.543 61.6901 148.301 61.8405 148.019 61.959C147.736 62.0775 147.408 62.1367 147.034 62.1367C146.556 62.1367 146.127 62.041 145.749 61.8496C145.371 61.6582 145.072 61.3962 144.854 61.0635C144.635 60.7308 144.525 60.3525 144.525 59.9287C144.525 59.5368 144.598 59.1904 144.744 58.8896C144.89 58.5889 145.106 58.3359 145.394 58.1309C145.681 57.9212 146.036 57.764 146.46 57.6592C146.888 57.5498 147.378 57.4951 147.93 57.4951H149.146ZM154.253 51.5V62H152.441V51.5H154.253ZM157.89 54.6035V62H156.078V54.6035H157.89ZM155.955 52.6689C155.955 52.4001 156.046 52.1768 156.229 51.999C156.415 51.8213 156.666 51.7324 156.98 51.7324C157.295 51.7324 157.543 51.8213 157.726 51.999C157.912 52.1768 158.006 52.4001 158.006 52.6689C158.006 52.9333 157.912 53.1543 157.726 53.332C157.543 53.5098 157.295 53.5986 156.98 53.5986C156.666 53.5986 156.415 53.5098 156.229 53.332C156.046 53.1543 155.955 52.9333 155.955 52.6689ZM163.68 59.9766C163.68 59.8216 163.639 59.6826 163.557 59.5596C163.475 59.4365 163.32 59.3249 163.092 59.2246C162.868 59.1198 162.54 59.0218 162.107 58.9307C161.725 58.8486 161.371 58.7461 161.048 58.623C160.724 58.5 160.446 58.3519 160.214 58.1787C159.981 58.001 159.799 57.7936 159.667 57.5566C159.539 57.3151 159.476 57.0371 159.476 56.7227C159.476 56.4173 159.542 56.1302 159.674 55.8613C159.806 55.5879 159.997 55.3486 160.248 55.1436C160.499 54.9339 160.804 54.7699 161.164 54.6514C161.524 54.5283 161.93 54.4668 162.381 54.4668C163.01 54.4668 163.55 54.5693 164.001 54.7744C164.457 54.9795 164.805 55.262 165.047 55.6221C165.288 55.9775 165.409 56.3786 165.409 56.8252H163.604C163.604 56.6292 163.559 56.4515 163.468 56.292C163.381 56.1325 163.247 56.0049 163.064 55.9092C162.882 55.8089 162.652 55.7588 162.374 55.7588C162.123 55.7588 161.911 55.7998 161.738 55.8818C161.57 55.9639 161.442 56.071 161.355 56.2031C161.269 56.3353 161.226 56.4811 161.226 56.6406C161.226 56.7591 161.248 56.8662 161.294 56.9619C161.344 57.0531 161.424 57.1374 161.533 57.2148C161.643 57.2923 161.791 57.363 161.978 57.4268C162.169 57.4906 162.404 57.5521 162.682 57.6113C163.233 57.7207 163.714 57.8665 164.124 58.0488C164.539 58.2266 164.862 58.4635 165.095 58.7598C165.327 59.056 165.443 59.4342 165.443 59.8945C165.443 60.2227 165.373 60.5234 165.231 60.7969C165.09 61.0658 164.885 61.3005 164.616 61.501C164.347 61.7015 164.026 61.8587 163.652 61.9727C163.279 62.082 162.857 62.1367 162.388 62.1367C161.709 62.1367 161.134 62.016 160.665 61.7744C160.196 61.5283 159.84 61.2184 159.599 60.8447C159.357 60.4665 159.236 60.0745 159.236 59.6689H160.966C160.979 59.9561 161.057 60.1862 161.198 60.3594C161.34 60.5326 161.517 60.6579 161.731 60.7354C161.95 60.8083 162.18 60.8447 162.422 60.8447C162.695 60.8447 162.925 60.8083 163.112 60.7354C163.299 60.6579 163.44 60.5553 163.536 60.4277C163.632 60.2956 163.68 60.1452 163.68 59.9766ZM168.731 54.6035V62H166.92V54.6035H168.731ZM166.797 52.6689C166.797 52.4001 166.888 52.1768 167.07 51.999C167.257 51.8213 167.508 51.7324 167.822 51.7324C168.137 51.7324 168.385 51.8213 168.567 51.999C168.754 52.1768 168.848 52.4001 168.848 52.6689C168.848 52.9333 168.754 53.1543 168.567 53.332C168.385 53.5098 168.137 53.5986 167.822 53.5986C167.508 53.5986 167.257 53.5098 167.07 53.332C166.888 53.1543 166.797 52.9333 166.797 52.6689ZM173.776 62.1367C173.216 62.1367 172.712 62.0456 172.266 61.8633C171.819 61.681 171.438 61.4281 171.124 61.1045C170.814 60.7764 170.575 60.3958 170.406 59.9629C170.242 59.5254 170.16 59.056 170.16 58.5547V58.2812C170.16 57.7116 170.242 57.1943 170.406 56.7295C170.57 56.2601 170.803 55.8568 171.104 55.5195C171.404 55.1823 171.764 54.9225 172.184 54.7402C172.603 54.5579 173.065 54.4668 173.571 54.4668C174.095 54.4668 174.558 54.5557 174.959 54.7334C175.36 54.9066 175.695 55.1527 175.964 55.4717C176.233 55.7907 176.436 56.1735 176.572 56.6201C176.709 57.0622 176.777 57.5521 176.777 58.0898V58.8486H170.98V57.6045H175V57.4678C174.991 57.1807 174.936 56.9186 174.836 56.6816C174.736 56.4401 174.581 56.2487 174.371 56.1074C174.161 55.9616 173.89 55.8887 173.558 55.8887C173.289 55.8887 173.054 55.9479 172.854 56.0664C172.658 56.1803 172.493 56.3444 172.361 56.5586C172.234 56.7682 172.138 57.0189 172.074 57.3105C172.01 57.6022 171.979 57.9258 171.979 58.2812V58.5547C171.979 58.8646 172.02 59.1517 172.102 59.416C172.188 59.6803 172.313 59.9105 172.478 60.1064C172.646 60.2979 172.847 60.4482 173.079 60.5576C173.316 60.6624 173.585 60.7148 173.886 60.7148C174.264 60.7148 174.606 60.6419 174.911 60.4961C175.221 60.3457 175.49 60.1247 175.718 59.833L176.627 60.7764C176.472 61.0042 176.262 61.223 175.998 61.4326C175.738 61.6423 175.424 61.8132 175.055 61.9453C174.686 62.0729 174.259 62.1367 173.776 62.1367ZM179.792 56.1143V62H177.987V54.6035H179.696L179.792 56.1143ZM182.041 54.5557L182.014 56.2373C181.913 56.2191 181.799 56.2054 181.672 56.1963C181.549 56.1872 181.433 56.1826 181.323 56.1826C181.045 56.1826 180.801 56.2214 180.592 56.2988C180.382 56.3717 180.207 56.4788 180.065 56.6201C179.929 56.7614 179.824 56.9346 179.751 57.1396C179.678 57.3402 179.637 57.568 179.628 57.8232L179.238 57.7754C179.238 57.306 179.286 56.8708 179.382 56.4697C179.478 56.0687 179.617 55.7178 179.799 55.417C179.981 55.1162 180.209 54.8838 180.482 54.7197C180.76 54.5511 181.079 54.4668 181.439 54.4668C181.54 54.4668 181.647 54.4759 181.761 54.4941C181.879 54.5078 181.973 54.5283 182.041 54.5557ZM187.435 60.2432V54.6035H189.253V62H187.544L187.435 60.2432ZM187.667 58.7119L188.228 58.6982C188.228 59.195 188.173 59.653 188.063 60.0723C187.954 60.4915 187.783 60.8561 187.551 61.166C187.323 61.4714 187.034 61.7106 186.683 61.8838C186.332 62.0524 185.917 62.1367 185.438 62.1367C185.074 62.1367 184.741 62.0866 184.44 61.9863C184.14 61.8815 183.88 61.7197 183.661 61.501C183.447 61.2777 183.281 60.9928 183.162 60.6465C183.044 60.2956 182.984 59.874 182.984 59.3818V54.6035H184.789V59.3955C184.789 59.6416 184.816 59.8467 184.871 60.0107C184.93 60.1748 185.01 60.3092 185.11 60.4141C185.215 60.5143 185.336 60.5872 185.473 60.6328C185.614 60.6738 185.764 60.6943 185.924 60.6943C186.361 60.6943 186.705 60.6077 186.956 60.4346C187.211 60.2568 187.394 60.0199 187.503 59.7236C187.612 59.4229 187.667 59.0856 187.667 58.7119ZM192.623 56.1826V62H190.818V54.6035H192.514L192.623 56.1826ZM192.336 58.0352H191.803C191.807 57.4974 191.88 57.0098 192.021 56.5723C192.163 56.1348 192.361 55.7588 192.616 55.4443C192.876 55.1299 193.184 54.8883 193.539 54.7197C193.895 54.5511 194.291 54.4668 194.729 54.4668C195.084 54.4668 195.405 54.5169 195.692 54.6172C195.979 54.7174 196.226 54.877 196.431 55.0957C196.64 55.3145 196.8 55.6016 196.909 55.957C197.023 56.3079 197.08 56.7409 197.08 57.2559V62H195.262V57.2422C195.262 56.9049 195.212 56.6383 195.111 56.4424C195.016 56.2464 194.874 56.1074 194.688 56.0254C194.505 55.9434 194.28 55.9023 194.011 55.9023C193.733 55.9023 193.489 55.9593 193.279 56.0732C193.074 56.1826 192.901 56.3353 192.76 56.5312C192.623 56.7272 192.518 56.9528 192.445 57.208C192.372 57.4632 192.336 57.7389 192.336 58.0352ZM203.376 54.6035H205.017V61.7744C205.017 62.4443 204.871 63.0117 204.579 63.4766C204.292 63.946 203.889 64.3014 203.369 64.543C202.85 64.7891 202.246 64.9121 201.558 64.9121C201.261 64.9121 200.94 64.8711 200.594 64.7891C200.252 64.707 199.922 64.5771 199.603 64.3994C199.288 64.2262 199.026 64.0007 198.816 63.7227L199.63 62.6562C199.876 62.9434 200.154 63.1598 200.464 63.3057C200.774 63.4561 201.109 63.5312 201.469 63.5312C201.833 63.5312 202.143 63.4629 202.398 63.3262C202.658 63.194 202.856 62.998 202.993 62.7383C203.134 62.4831 203.205 62.1686 203.205 61.7949V56.292L203.376 54.6035ZM198.379 58.3906V58.2471C198.379 57.682 198.447 57.1693 198.584 56.709C198.721 56.2441 198.917 55.8454 199.172 55.5127C199.432 55.18 199.744 54.9225 200.108 54.7402C200.478 54.5579 200.892 54.4668 201.353 54.4668C201.84 54.4668 202.25 54.5557 202.583 54.7334C202.92 54.9111 203.198 55.1641 203.417 55.4922C203.64 55.8203 203.813 56.21 203.937 56.6611C204.064 57.1077 204.162 57.5999 204.23 58.1377V58.5273C204.167 59.0514 204.064 59.5322 203.923 59.9697C203.786 60.4072 203.604 60.79 203.376 61.1182C203.148 61.4417 202.866 61.6924 202.528 61.8701C202.191 62.0479 201.795 62.1367 201.339 62.1367C200.883 62.1367 200.473 62.0433 200.108 61.8564C199.744 61.6696 199.432 61.4076 199.172 61.0703C198.917 60.7331 198.721 60.3366 198.584 59.8809C198.447 59.4251 198.379 58.9284 198.379 58.3906ZM200.184 58.2471V58.3906C200.184 58.7096 200.215 59.0081 200.279 59.2861C200.343 59.5641 200.441 59.8102 200.573 60.0244C200.705 60.234 200.872 60.3981 201.072 60.5166C201.273 60.6351 201.512 60.6943 201.79 60.6943C202.164 60.6943 202.469 60.6169 202.706 60.4619C202.948 60.3024 203.13 60.0859 203.253 59.8125C203.381 59.5345 203.463 59.2223 203.499 58.876V57.8027C203.476 57.5293 203.426 57.2764 203.349 57.0439C203.276 56.8115 203.173 56.611 203.041 56.4424C202.909 56.2738 202.74 56.1416 202.535 56.0459C202.33 55.9502 202.086 55.9023 201.804 55.9023C201.53 55.9023 201.291 55.9639 201.086 56.0869C200.881 56.2054 200.712 56.3717 200.58 56.5859C200.448 56.8001 200.348 57.0485 200.279 57.3311C200.215 57.6136 200.184 57.9189 200.184 58.2471ZM214.197 59.9766C214.197 59.8216 214.156 59.6826 214.074 59.5596C213.992 59.4365 213.837 59.3249 213.609 59.2246C213.386 59.1198 213.058 59.0218 212.625 58.9307C212.242 58.8486 211.889 58.7461 211.565 58.623C211.242 58.5 210.964 58.3519 210.731 58.1787C210.499 58.001 210.317 57.7936 210.185 57.5566C210.057 57.3151 209.993 57.0371 209.993 56.7227C209.993 56.4173 210.059 56.1302 210.191 55.8613C210.324 55.5879 210.515 55.3486 210.766 55.1436C211.016 54.9339 211.322 54.7699 211.682 54.6514C212.042 54.5283 212.447 54.4668 212.898 54.4668C213.527 54.4668 214.067 54.5693 214.519 54.7744C214.974 54.9795 215.323 55.262 215.564 55.6221C215.806 55.9775 215.927 56.3786 215.927 56.8252H214.122C214.122 56.6292 214.076 56.4515 213.985 56.292C213.899 56.1325 213.764 56.0049 213.582 55.9092C213.4 55.8089 213.17 55.7588 212.892 55.7588C212.641 55.7588 212.429 55.7998 212.256 55.8818C212.087 55.9639 211.96 56.071 211.873 56.2031C211.786 56.3353 211.743 56.4811 211.743 56.6406C211.743 56.7591 211.766 56.8662 211.812 56.9619C211.862 57.0531 211.941 57.1374 212.051 57.2148C212.16 57.2923 212.308 57.363 212.495 57.4268C212.687 57.4906 212.921 57.5521 213.199 57.6113C213.751 57.7207 214.231 57.8665 214.642 58.0488C215.056 58.2266 215.38 58.4635 215.612 58.7598C215.845 59.056 215.961 59.4342 215.961 59.8945C215.961 60.2227 215.89 60.5234 215.749 60.7969C215.608 61.0658 215.403 61.3005 215.134 61.501C214.865 61.7015 214.544 61.8587 214.17 61.9727C213.796 62.082 213.375 62.1367 212.905 62.1367C212.226 62.1367 211.652 62.016 211.183 61.7744C210.713 61.5283 210.358 61.2184 210.116 60.8447C209.875 60.4665 209.754 60.0745 209.754 59.6689H211.483C211.497 59.9561 211.575 60.1862 211.716 60.3594C211.857 60.5326 212.035 60.6579 212.249 60.7354C212.468 60.8083 212.698 60.8447 212.939 60.8447C213.213 60.8447 213.443 60.8083 213.63 60.7354C213.817 60.6579 213.958 60.5553 214.054 60.4277C214.149 60.2956 214.197 60.1452 214.197 59.9766ZM219.249 54.6035V62H217.438V54.6035H219.249ZM217.314 52.6689C217.314 52.4001 217.406 52.1768 217.588 51.999C217.775 51.8213 218.025 51.7324 218.34 51.7324C218.654 51.7324 218.903 51.8213 219.085 51.999C219.272 52.1768 219.365 52.4001 219.365 52.6689C219.365 52.9333 219.272 53.1543 219.085 53.332C218.903 53.5098 218.654 53.5986 218.34 53.5986C218.025 53.5986 217.775 53.5098 217.588 53.332C217.406 53.1543 217.314 52.9333 217.314 52.6689ZM224.007 60.7148C224.262 60.7148 224.49 60.6647 224.69 60.5645C224.891 60.4642 225.05 60.3229 225.169 60.1406C225.292 59.9583 225.358 59.7464 225.367 59.5049H227.069C227.06 60.0062 226.919 60.4551 226.646 60.8516C226.372 61.248 226.007 61.5625 225.552 61.7949C225.101 62.0228 224.595 62.1367 224.034 62.1367C223.465 62.1367 222.968 62.041 222.544 61.8496C222.12 61.6582 221.767 61.3916 221.484 61.0498C221.206 60.708 220.997 60.3115 220.855 59.8604C220.719 59.4092 220.65 58.9261 220.65 58.4111V58.1924C220.65 57.6774 220.719 57.1943 220.855 56.7432C220.997 56.292 221.206 55.8955 221.484 55.5537C221.767 55.2119 222.12 54.9453 222.544 54.7539C222.968 54.5625 223.462 54.4668 224.027 54.4668C224.624 54.4668 225.148 54.583 225.6 54.8154C226.055 55.0479 226.411 55.376 226.666 55.7998C226.926 56.2236 227.06 56.7227 227.069 57.2969H225.367C225.358 57.0326 225.299 56.7956 225.189 56.5859C225.08 56.3763 224.925 56.2077 224.725 56.0801C224.524 55.9525 224.28 55.8887 223.993 55.8887C223.688 55.8887 223.433 55.9525 223.228 56.0801C223.027 56.2077 222.87 56.3831 222.756 56.6064C222.646 56.8252 222.569 57.0713 222.523 57.3447C222.482 57.6136 222.462 57.8962 222.462 58.1924V58.4111C222.462 58.7119 222.482 58.999 222.523 59.2725C222.569 59.5459 222.646 59.792 222.756 60.0107C222.87 60.2249 223.027 60.3958 223.228 60.5234C223.433 60.651 223.692 60.7148 224.007 60.7148ZM230.043 51.5V62H228.231V51.5H230.043ZM229.756 58.0352H229.223C229.223 57.5202 229.291 57.0462 229.428 56.6133C229.564 56.1803 229.758 55.8044 230.009 55.4854C230.259 55.1618 230.558 54.9111 230.904 54.7334C231.255 54.5557 231.643 54.4668 232.066 54.4668C232.431 54.4668 232.761 54.5192 233.058 54.624C233.358 54.7243 233.616 54.8861 233.83 55.1094C234.044 55.3327 234.208 55.6243 234.322 55.9844C234.441 56.3398 234.5 56.7728 234.5 57.2832V62H232.682V57.2695C232.682 56.9277 232.632 56.6589 232.531 56.4629C232.431 56.2624 232.287 56.1188 232.101 56.0322C231.918 55.9456 231.693 55.9023 231.424 55.9023C231.132 55.9023 230.882 55.9593 230.672 56.0732C230.462 56.1826 230.289 56.3353 230.152 56.5312C230.02 56.7272 229.92 56.9528 229.852 57.208C229.788 57.4632 229.756 57.7389 229.756 58.0352ZM239.593 54.6035V55.9023H235.354V54.6035H239.593ZM236.489 52.7852H238.301V59.8672C238.301 60.0859 238.33 60.2546 238.39 60.373C238.449 60.4915 238.538 60.5713 238.656 60.6123C238.775 60.6533 238.916 60.6738 239.08 60.6738C239.199 60.6738 239.308 60.667 239.408 60.6533C239.508 60.6396 239.593 60.626 239.661 60.6123L239.668 61.9658C239.518 62.016 239.347 62.057 239.155 62.0889C238.968 62.1208 238.757 62.1367 238.52 62.1367C238.114 62.1367 237.758 62.0684 237.453 61.9316C237.148 61.7904 236.911 61.5648 236.742 61.2549C236.574 60.9404 236.489 60.5257 236.489 60.0107V52.7852ZM240.789 51.5H242.601V60.3662L242.423 62H240.789V51.5ZM247.358 58.2266V58.3701C247.358 58.9215 247.297 59.4274 247.174 59.8877C247.055 60.348 246.875 60.7467 246.634 61.084C246.392 61.4167 246.091 61.6764 245.731 61.8633C245.376 62.0456 244.959 62.1367 244.48 62.1367C244.025 62.1367 243.628 62.0479 243.291 61.8701C242.958 61.6924 242.678 61.4417 242.45 61.1182C242.222 60.79 242.04 60.4049 241.903 59.9629C241.767 59.5163 241.664 59.0286 241.596 58.5V58.1104C241.664 57.5771 241.767 57.0895 241.903 56.6475C242.04 56.2054 242.222 55.8203 242.45 55.4922C242.678 55.1641 242.958 54.9111 243.291 54.7334C243.624 54.5557 244.016 54.4668 244.467 54.4668C244.95 54.4668 245.371 54.5602 245.731 54.7471C246.096 54.9294 246.397 55.1891 246.634 55.5264C246.875 55.859 247.055 56.2555 247.174 56.7158C247.297 57.1715 247.358 57.6751 247.358 58.2266ZM245.547 58.3701V58.2266C245.547 57.9121 245.522 57.6159 245.472 57.3379C245.422 57.0553 245.34 56.807 245.226 56.5928C245.112 56.3786 244.957 56.21 244.761 56.0869C244.565 55.9639 244.319 55.9023 244.022 55.9023C243.74 55.9023 243.498 55.9502 243.298 56.0459C243.102 56.1416 242.938 56.2738 242.806 56.4424C242.678 56.611 242.578 56.8092 242.505 57.0371C242.437 57.265 242.391 57.5111 242.368 57.7754V58.8418C242.4 59.1927 242.475 59.5094 242.594 59.792C242.712 60.07 242.888 60.291 243.12 60.4551C243.357 60.6191 243.662 60.7012 244.036 60.7012C244.328 60.7012 244.572 60.6442 244.768 60.5303C244.964 60.4118 245.118 60.2477 245.232 60.0381C245.346 59.8239 245.426 59.5755 245.472 59.293C245.522 59.0104 245.547 58.7028 245.547 58.3701ZM252.745 60.4277V57.0166C252.745 56.766 252.702 56.5495 252.615 56.3672C252.529 56.1849 252.396 56.0436 252.219 55.9434C252.041 55.8431 251.815 55.793 251.542 55.793C251.3 55.793 251.089 55.834 250.906 55.916C250.729 55.998 250.592 56.1143 250.496 56.2646C250.4 56.4105 250.353 56.5791 250.353 56.7705H248.541C248.541 56.4652 248.614 56.1758 248.76 55.9023C248.906 55.6243 249.113 55.3783 249.382 55.1641C249.655 54.9453 249.981 54.7744 250.359 54.6514C250.742 54.5283 251.171 54.4668 251.645 54.4668C252.205 54.4668 252.704 54.5625 253.142 54.7539C253.584 54.9408 253.93 55.2233 254.181 55.6016C254.436 55.9798 254.563 56.4561 254.563 57.0303V60.2568C254.563 60.626 254.586 60.9427 254.632 61.207C254.682 61.4668 254.755 61.6924 254.851 61.8838V62H253.012C252.925 61.8132 252.859 61.5762 252.813 61.2891C252.768 60.9974 252.745 60.7103 252.745 60.4277ZM252.998 57.4951L253.012 58.5684H251.87C251.588 58.5684 251.339 58.598 251.125 58.6572C250.911 58.7119 250.735 58.7939 250.599 58.9033C250.462 59.0081 250.359 59.1357 250.291 59.2861C250.223 59.432 250.188 59.5983 250.188 59.7852C250.188 59.9674 250.229 60.1315 250.312 60.2773C250.398 60.4232 250.521 60.5394 250.681 60.626C250.845 60.708 251.036 60.749 251.255 60.749C251.574 60.749 251.852 60.6852 252.089 60.5576C252.326 60.4255 252.51 60.266 252.643 60.0791C252.775 59.8923 252.845 59.7145 252.854 59.5459L253.374 60.3252C253.31 60.512 253.215 60.7103 253.087 60.9199C252.959 61.1296 252.795 61.3255 252.595 61.5078C252.394 61.6901 252.153 61.8405 251.87 61.959C251.588 62.0775 251.259 62.1367 250.886 62.1367C250.407 62.1367 249.979 62.041 249.601 61.8496C249.222 61.6582 248.924 61.3962 248.705 61.0635C248.486 60.7308 248.377 60.3525 248.377 59.9287C248.377 59.5368 248.45 59.1904 248.596 58.8896C248.742 58.5889 248.958 58.3359 249.245 58.1309C249.532 57.9212 249.888 57.764 250.312 57.6592C250.74 57.5498 251.23 57.4951 251.781 57.4951H252.998ZM257.995 56.1143V62H256.19V54.6035H257.899L257.995 56.1143ZM260.244 54.5557L260.217 56.2373C260.117 56.2191 260.003 56.2054 259.875 56.1963C259.752 56.1872 259.636 56.1826 259.526 56.1826C259.248 56.1826 259.005 56.2214 258.795 56.2988C258.585 56.3717 258.41 56.4788 258.269 56.6201C258.132 56.7614 258.027 56.9346 257.954 57.1396C257.881 57.3402 257.84 57.568 257.831 57.8232L257.441 57.7754C257.441 57.306 257.489 56.8708 257.585 56.4697C257.681 56.0687 257.82 55.7178 258.002 55.417C258.184 55.1162 258.412 54.8838 258.686 54.7197C258.964 54.5511 259.283 54.4668 259.643 54.4668C259.743 54.4668 259.85 54.4759 259.964 54.4941C260.082 54.5078 260.176 54.5283 260.244 54.5557ZM263.293 52.0469L263.095 59.0127H261.57L261.372 52.0469H263.293ZM261.317 61.1592C261.317 60.8903 261.409 60.6647 261.591 60.4824C261.778 60.2956 262.028 60.2021 262.343 60.2021C262.657 60.2021 262.906 60.2956 263.088 60.4824C263.275 60.6647 263.368 60.8903 263.368 61.1592C263.368 61.4235 263.275 61.6468 263.088 61.8291C262.906 62.0114 262.657 62.1025 262.343 62.1025C262.028 62.1025 261.778 62.0114 261.591 61.8291C261.409 61.6468 261.317 61.4235 261.317 61.1592Z" fill="white"/>
<path d="M90.244 35V10.52H93.032V35H90.244ZM106.831 35V13.274H95.9515V10.52H120.431V13.274H109.585V35H106.831ZM123.076 26.33V23.542H136.336V26.33H123.076ZM140.607 35V10.52H161.007C161.755 10.52 162.435 10.7013 163.047 11.064C163.681 11.4267 164.18 11.9253 164.543 12.56C164.905 13.172 165.087 13.852 165.087 14.6V30.92C165.087 31.668 164.905 32.3593 164.543 32.994C164.18 33.606 163.681 34.0933 163.047 34.456C162.435 34.8187 161.755 35 161.007 35H140.607ZM144.687 32.246H161.007C161.369 32.246 161.675 32.1213 161.925 31.872C162.197 31.6 162.333 31.2827 162.333 30.92V14.6C162.333 14.2373 162.197 13.9313 161.925 13.682C161.675 13.41 161.369 13.274 161.007 13.274H144.687C144.324 13.274 144.007 13.41 143.735 13.682C143.485 13.9313 143.361 14.2373 143.361 14.6V30.92C143.361 31.2827 143.485 31.6 143.735 31.872C144.007 32.1213 144.324 32.246 144.687 32.246ZM172.838 35C172.09 35 171.399 34.8187 170.764 34.456C170.152 34.0707 169.654 33.572 169.268 32.96C168.906 32.3253 168.724 31.634 168.724 30.886V19.394C168.724 18.646 168.906 17.966 169.268 17.354C169.654 16.7193 170.152 16.2207 170.764 15.858C171.399 15.4727 172.09 15.28 172.838 15.28H184.67C185.441 15.28 186.132 15.4727 186.744 15.858C187.379 16.2207 187.878 16.7193 188.24 17.354C188.626 17.966 188.818 18.646 188.818 19.394V30.886C188.818 31.634 188.626 32.3253 188.24 32.96C187.878 33.572 187.379 34.0707 186.744 34.456C186.132 34.8187 185.441 35 184.67 35H172.838ZM172.838 32.212H184.67C185.033 32.212 185.339 32.0873 185.588 31.838C185.86 31.566 185.996 31.2487 185.996 30.886V19.394C185.996 19.0313 185.86 18.7253 185.588 18.476C185.339 18.204 185.033 18.068 184.67 18.068H172.838C172.476 18.068 172.158 18.204 171.886 18.476C171.637 18.7253 171.512 19.0313 171.512 19.394V30.886C171.512 31.2487 171.637 31.566 171.886 31.838C172.158 32.0873 172.476 32.212 172.838 32.212ZM192.367 35V8.82H195.155V15.28H208.347C209.095 15.28 209.775 15.4727 210.387 15.858C211.022 16.2207 211.521 16.7193 211.883 17.354C212.269 17.966 212.461 18.646 212.461 19.394V30.886C212.461 31.634 212.269 32.3253 211.883 32.96C211.521 33.572 211.022 34.0707 210.387 34.456C209.775 34.8187 209.095 35 208.347 35H192.367ZM196.515 32.212H208.347C208.71 32.212 209.016 32.0873 209.265 31.838C209.537 31.566 209.673 31.2487 209.673 30.886V19.394C209.673 19.0313 209.537 18.7253 209.265 18.476C209.016 18.204 208.71 18.068 208.347 18.068H196.515C196.153 18.068 195.835 18.204 195.563 18.476C195.291 18.7253 195.155 19.0313 195.155 19.394V30.886C195.155 31.2487 195.291 31.566 195.563 31.838C195.835 32.0873 196.153 32.212 196.515 32.212ZM219.091 35C218.343 35 217.652 34.8187 217.017 34.456C216.405 34.0707 215.906 33.572 215.521 32.96C215.158 32.3253 214.977 31.634 214.977 30.886V8.82H217.765V30.886C217.765 31.2487 217.89 31.566 218.139 31.838C218.411 32.0873 218.728 32.212 219.091 32.212H222.423V35H219.091ZM228.819 35C228.071 35 227.379 34.8187 226.745 34.456C226.133 34.0707 225.634 33.572 225.249 32.96C224.886 32.3253 224.705 31.634 224.705 30.886V19.394C224.705 18.646 224.886 17.966 225.249 17.354C225.634 16.7193 226.133 16.2207 226.745 15.858C227.379 15.4727 228.071 15.28 228.819 15.28H240.651C241.421 15.28 242.113 15.4727 242.725 15.858C243.359 16.2207 243.858 16.7193 244.221 17.354C244.606 17.966 244.799 18.646 244.799 19.394V26.534H227.493V30.886C227.493 31.2487 227.617 31.566 227.867 31.838C228.139 32.0873 228.456 32.212 228.819 32.212H244.799V35H228.819ZM227.493 23.746H241.977V19.394C241.977 19.0313 241.841 18.7253 241.569 18.476C241.319 18.204 241.013 18.068 240.651 18.068H228.819C228.456 18.068 228.139 18.204 227.867 18.476C227.617 18.7253 227.493 19.0313 227.493 19.394V23.746ZM248.114 35V19.394C248.114 18.646 248.295 17.966 248.658 17.354C249.043 16.7193 249.542 16.2207 250.154 15.858C250.788 15.4727 251.48 15.28 252.228 15.28H263.312V18.068H252.228C251.865 18.068 251.548 18.204 251.276 18.476C251.026 18.7253 250.902 19.0313 250.902 19.394V35H248.114Z" fill="white"/>
</svg>
