<svg width="20" height="20" viewBox="0 0 20 20" fill="none" xmlns="http://www.w3.org/2000/svg">
<g clip-path="url(#clip0_243_2254)">
<path d="M16.8 0H3.2C1.43269 0 0 1.43269 0 3.2V16.8C0 18.5673 1.43269 20 3.2 20H16.8C18.5673 20 20 18.5673 20 16.8V3.2C20 1.43269 18.5673 0 16.8 0Z" fill="#09090B"/>
<path d="M11.6314 11.8158V12.6556H2.97266V12.0875L8.6248 3.69727H9.46464L8.27206 5.73099L4.19882 11.8158H11.6314ZM9.725 3.69727V15.6856H8.72558V3.69727H9.725Z" fill="#DCA54C"/>
<path d="M14.3014 15.1929V15.6071H10.5649V15.2331L12.5213 13.0577C12.7647 12.7869 12.9588 12.5497 13.1037 12.3459C13.2486 12.1395 13.3526 11.9519 13.4154 11.783C13.4811 11.6114 13.5139 11.4452 13.5139 11.2843C13.5139 11.0484 13.466 10.8407 13.3703 10.6611C13.2774 10.4815 13.1379 10.3407 12.952 10.2389C12.766 10.137 12.5363 10.0861 12.2629 10.0861C11.9895 10.0861 11.7516 10.1437 11.5492 10.259C11.3469 10.3742 11.191 10.5351 11.0817 10.7415C10.975 10.9452 10.9217 11.1771 10.9217 11.4371H10.4336C10.4336 11.1155 10.5061 10.8206 10.651 10.5525C10.7986 10.2844 11.0092 10.0713 11.2826 9.91313C11.5561 9.75229 11.8828 9.67188 12.2629 9.67188C12.6238 9.67188 12.9342 9.73487 13.194 9.86086C13.4537 9.98417 13.6533 10.1624 13.7928 10.3957C13.935 10.6289 14.0061 10.9104 14.0061 11.2401C14.0061 11.4171 13.9733 11.5953 13.9076 11.7749C13.8447 11.9545 13.7572 12.1341 13.6451 12.3138C13.5358 12.4907 13.41 12.6663 13.2678 12.8405C13.1283 13.0148 12.982 13.1863 12.8289 13.3552L11.1637 15.1929H14.3014Z" fill="#DCA54C"/>
<path d="M10.0115 3.61914V15.678H9.05859V3.61914H10.0115ZM9.79531 10.9047L9.37091 10.6692C9.40293 10.1667 9.50703 9.69567 9.68321 9.25602C9.85937 8.81638 10.097 8.42906 10.3959 8.0941C10.7002 7.75914 11.0552 7.49744 11.461 7.30902C11.872 7.12061 12.3258 7.0264 12.8223 7.0264C13.2547 7.0264 13.6417 7.08396 13.9834 7.19912C14.3251 7.31426 14.616 7.49743 14.8563 7.74867C15.0965 7.99989 15.278 8.32177 15.4008 8.71432C15.5289 9.10687 15.593 9.58575 15.593 10.151V15.678H14.632V10.1432C14.632 9.55696 14.5493 9.099 14.3838 8.76928C14.2183 8.4343 13.9834 8.19616 13.6791 8.05485C13.3748 7.91353 13.0145 7.84289 12.5981 7.84289C12.1389 7.84289 11.7359 7.94232 11.3889 8.1412C11.0472 8.33487 10.7589 8.58871 10.524 8.90273C10.2945 9.21153 10.1183 9.54389 9.99551 9.89979C9.87273 10.2505 9.80599 10.5854 9.79531 10.9047Z" fill="white"/>
</g>
<defs>
<clipPath id="clip0_243_2254">
<rect width="20" height="20" fill="white"/>
</clipPath>
</defs>
</svg>
