<svg width="20" height="20" viewBox="0 0 200 200" fill="none" xmlns="http://www.w3.org/2000/svg">
<path d="M34.4414 60.2205H54.6314C56.6514 60.2205 58.3814 59.5005 59.8314 58.0405C61.2814 56.5905 62.0114 54.8605 62.0114 52.8405V35.4805H34.4414V60.2105V60.2205Z" fill="#09090B"/>
<path d="M167.171 48.1605C164.841 44.2505 161.751 41.1605 157.901 38.8905C154.051 36.6205 149.791 35.4805 145.131 35.4805H77.3414V52.8405C77.3414 57.0005 76.3314 60.8205 74.3114 64.2905C72.2914 67.7605 69.5514 70.5005 66.0814 72.5205C62.6114 74.5405 58.7914 75.5505 54.6314 75.5505H34.4414V171.72H77.2514V78.3105H170.671V61.0305C170.671 56.3605 169.501 52.0705 167.171 48.1605Z" fill="#09090B"/>
<path d="M94.7503 95.8091C93.3003 97.2591 92.5703 98.9991 92.5703 101.009V171.709H145.12C149.79 171.709 154.04 170.569 157.89 168.299C161.74 166.029 164.83 162.939 167.16 159.029C169.49 155.119 170.66 150.829 170.66 146.159V93.6191H99.9403C97.9203 93.6191 96.1903 94.3491 94.7403 95.7991L94.7503 95.8091Z" fill="#09090B"/>
</svg>
