<svg width="20" height="20" viewBox="0 0 20 20" fill="none" xmlns="http://www.w3.org/2000/svg">
<g clip-path="url(#clip0_243_2261)">
<path d="M0.0625 3.682H3.00994C3.30483 3.682 3.55739 3.57689 3.76907 3.36375C3.98075 3.15207 4.08732 2.89951 4.08732 2.60462V0.0703125H0.0625V3.68054V3.682Z" fill="#09090B"/>
<path d="M19.4391 1.92141C19.0989 1.3506 18.6478 0.89951 18.0858 0.568123C17.5238 0.236736 16.9019 0.0703125 16.2216 0.0703125H6.32527V2.60462C6.32527 3.21192 6.17783 3.76959 5.88294 4.27616C5.58805 4.78273 5.18805 5.18273 4.68148 5.47762C4.17491 5.77251 3.61724 5.91995 3.00994 5.91995H0.0625V19.9593H6.31213V6.32287H19.95V3.80024C19.95 3.11849 19.7792 2.49221 19.4391 1.92141Z" fill="#09090B"/>
<path d="M8.86903 8.87635C8.65735 9.08803 8.55078 9.34204 8.55078 9.63547V19.9566H16.2223C16.904 19.9566 17.5245 19.7902 18.0865 19.4588C18.6485 19.1274 19.0996 18.6763 19.4398 18.1055C19.7799 17.5347 19.9507 16.9085 19.9507 16.2267V8.55664H9.62669C9.3318 8.55664 9.07925 8.66321 8.86757 8.87489L8.86903 8.87635Z" fill="#09090B"/>
</g>
<defs>
<clipPath id="clip0_243_2261">
<rect width="20" height="20" fill="white"/>
</clipPath>
</defs>
</svg>
