<svg width="228" height="65" viewBox="0 0 228 65" fill="none" xmlns="http://www.w3.org/2000/svg">
<path d="M0.554688 12.0781H4.98426C5.42744 12.0781 5.80699 11.9218 6.12511 11.6047C6.44324 11.2898 6.60339 10.9141 6.60339 10.4753V6.70508H0.554688V12.076V12.0781Z" fill="#DCA54C"/>
<path d="M29.6749 9.45894C29.1637 8.60976 28.4858 7.93867 27.6411 7.44567C26.7965 6.95266 25.8618 6.70508 24.8395 6.70508H9.96671V10.4753C9.96671 11.3788 9.74512 12.2085 9.30194 12.9621C8.85877 13.7157 8.25763 14.3108 7.49633 14.7495C6.73503 15.1882 5.89694 15.4075 4.98426 15.4075H0.554688V36.2939H9.94696V16.007H30.4428V12.2541C30.4428 11.2398 30.1861 10.3081 29.6749 9.45894Z" fill="#DCA54C"/>
<path d="M13.7869 19.8077C13.4688 20.1226 13.3086 20.5005 13.3086 20.937V36.2917H24.8378C25.8623 36.2917 26.7948 36.0441 27.6394 35.5511C28.4841 35.0581 29.162 34.387 29.6732 33.5379C30.1844 32.6887 30.4411 31.757 30.4411 30.7427V19.332H14.9255C14.4824 19.332 14.1028 19.4906 13.7847 19.8055L13.7869 19.8077Z" fill="#DCA54C"/>
<path d="M51.244 35V10.52H54.032V35H51.244ZM67.8315 35V13.274H56.9515V10.52H81.4315V13.274H70.5855V35H67.8315ZM84.0763 26.33V23.542H97.3363V26.33H84.0763ZM101.607 35V10.52H122.007C122.755 10.52 123.435 10.7013 124.047 11.064C124.681 11.4267 125.18 11.9253 125.543 12.56C125.905 13.172 126.087 13.852 126.087 14.6V30.92C126.087 31.668 125.905 32.3593 125.543 32.994C125.18 33.606 124.681 34.0933 124.047 34.456C123.435 34.8187 122.755 35 122.007 35H101.607ZM105.687 32.246H122.007C122.369 32.246 122.675 32.1213 122.925 31.872C123.197 31.6 123.333 31.2827 123.333 30.92V14.6C123.333 14.2373 123.197 13.9313 122.925 13.682C122.675 13.41 122.369 13.274 122.007 13.274H105.687C105.324 13.274 105.007 13.41 104.735 13.682C104.485 13.9313 104.361 14.2373 104.361 14.6V30.92C104.361 31.2827 104.485 31.6 104.735 31.872C105.007 32.1213 105.324 32.246 105.687 32.246ZM133.838 35C133.09 35 132.399 34.8187 131.764 34.456C131.152 34.0707 130.654 33.572 130.268 32.96C129.906 32.3253 129.724 31.634 129.724 30.886V19.394C129.724 18.646 129.906 17.966 130.268 17.354C130.654 16.7193 131.152 16.2207 131.764 15.858C132.399 15.4727 133.09 15.28 133.838 15.28H145.67C146.441 15.28 147.132 15.4727 147.744 15.858C148.379 16.2207 148.878 16.7193 149.24 17.354C149.626 17.966 149.818 18.646 149.818 19.394V30.886C149.818 31.634 149.626 32.3253 149.24 32.96C148.878 33.572 148.379 34.0707 147.744 34.456C147.132 34.8187 146.441 35 145.67 35H133.838ZM133.838 32.212H145.67C146.033 32.212 146.339 32.0873 146.588 31.838C146.86 31.566 146.996 31.2487 146.996 30.886V19.394C146.996 19.0313 146.86 18.7253 146.588 18.476C146.339 18.204 146.033 18.068 145.67 18.068H133.838C133.476 18.068 133.158 18.204 132.886 18.476C132.637 18.7253 132.512 19.0313 132.512 19.394V30.886C132.512 31.2487 132.637 31.566 132.886 31.838C133.158 32.0873 133.476 32.212 133.838 32.212ZM153.367 35V8.82H156.155V15.28H169.347C170.095 15.28 170.775 15.4727 171.387 15.858C172.022 16.2207 172.521 16.7193 172.883 17.354C173.269 17.966 173.461 18.646 173.461 19.394V30.886C173.461 31.634 173.269 32.3253 172.883 32.96C172.521 33.572 172.022 34.0707 171.387 34.456C170.775 34.8187 170.095 35 169.347 35H153.367ZM157.515 32.212H169.347C169.71 32.212 170.016 32.0873 170.265 31.838C170.537 31.566 170.673 31.2487 170.673 30.886V19.394C170.673 19.0313 170.537 18.7253 170.265 18.476C170.016 18.204 169.71 18.068 169.347 18.068H157.515C157.153 18.068 156.835 18.204 156.563 18.476C156.291 18.7253 156.155 19.0313 156.155 19.394V30.886C156.155 31.2487 156.291 31.566 156.563 31.838C156.835 32.0873 157.153 32.212 157.515 32.212ZM180.091 35C179.343 35 178.652 34.8187 178.017 34.456C177.405 34.0707 176.906 33.572 176.521 32.96C176.158 32.3253 175.977 31.634 175.977 30.886V8.82H178.765V30.886C178.765 31.2487 178.89 31.566 179.139 31.838C179.411 32.0873 179.728 32.212 180.091 32.212H183.423V35H180.091ZM189.819 35C189.071 35 188.379 34.8187 187.745 34.456C187.133 34.0707 186.634 33.572 186.249 32.96C185.886 32.3253 185.705 31.634 185.705 30.886V19.394C185.705 18.646 185.886 17.966 186.249 17.354C186.634 16.7193 187.133 16.2207 187.745 15.858C188.379 15.4727 189.071 15.28 189.819 15.28H201.651C202.421 15.28 203.113 15.4727 203.725 15.858C204.359 16.2207 204.858 16.7193 205.221 17.354C205.606 17.966 205.799 18.646 205.799 19.394V26.534H188.493V30.886C188.493 31.2487 188.617 31.566 188.867 31.838C189.139 32.0873 189.456 32.212 189.819 32.212H205.799V35H189.819ZM188.493 23.746H202.977V19.394C202.977 19.0313 202.841 18.7253 202.569 18.476C202.319 18.204 202.013 18.068 201.651 18.068H189.819C189.456 18.068 189.139 18.204 188.867 18.476C188.617 18.7253 188.493 19.0313 188.493 19.394V23.746ZM209.114 35V19.394C209.114 18.646 209.295 17.966 209.658 17.354C210.043 16.7193 210.542 16.2207 211.154 15.858C211.788 15.4727 212.48 15.28 213.228 15.28H224.312V18.068H213.228C212.865 18.068 212.548 18.204 212.276 18.476C212.026 18.7253 211.902 19.0313 211.902 19.394V35H209.114Z" fill="#09090B"/>
<path d="M3.72949 60.0928L5.71191 52.0469H6.78516L6.85352 53.7422L4.73438 62H3.59961L3.72949 60.0928ZM2.47852 52.0469L4.10547 60.0654V62H2.86816L0.612305 52.0469H2.47852ZM8.91113 60.0312L10.5107 52.0469H12.3838L10.1279 62H8.89062L8.91113 60.0312ZM7.29785 52.0469L9.28027 60.1201L9.39648 62H8.26172L6.14941 53.7354L6.23145 52.0469H7.29785ZM15.3506 54.6035V62H13.5391V54.6035H15.3506ZM13.416 52.6689C13.416 52.4001 13.5072 52.1768 13.6895 51.999C13.8763 51.8213 14.127 51.7324 14.4414 51.7324C14.7559 51.7324 15.0042 51.8213 15.1865 51.999C15.3734 52.1768 15.4668 52.4001 15.4668 52.6689C15.4668 52.9333 15.3734 53.1543 15.1865 53.332C15.0042 53.5098 14.7559 53.5986 14.4414 53.5986C14.127 53.5986 13.8763 53.5098 13.6895 53.332C13.5072 53.1543 13.416 52.9333 13.416 52.6689ZM18.8779 56.1143V62H17.0732V54.6035H18.7822L18.8779 56.1143ZM21.127 54.5557L21.0996 56.2373C20.9993 56.2191 20.8854 56.2054 20.7578 56.1963C20.6348 56.1872 20.5186 56.1826 20.4092 56.1826C20.1312 56.1826 19.8874 56.2214 19.6777 56.2988C19.4681 56.3717 19.2926 56.4788 19.1514 56.6201C19.0146 56.7614 18.9098 56.9346 18.8369 57.1396C18.764 57.3402 18.723 57.568 18.7139 57.8232L18.3242 57.7754C18.3242 57.306 18.3721 56.8708 18.4678 56.4697C18.5635 56.0687 18.7025 55.7178 18.8848 55.417C19.0671 55.1162 19.2949 54.8838 19.5684 54.7197C19.8464 54.5511 20.1654 54.4668 20.5254 54.4668C20.6257 54.4668 20.7327 54.4759 20.8467 54.4941C20.9652 54.5078 21.0586 54.5283 21.127 54.5557ZM27.4023 56.1211V62H25.5977V54.6035H27.2998L27.4023 56.1211ZM27.1357 58.0352H26.582C26.582 57.5202 26.6436 57.0462 26.7666 56.6133C26.8942 56.1803 27.0811 55.8044 27.3271 55.4854C27.5732 55.1618 27.8763 54.9111 28.2363 54.7334C28.6009 54.5557 29.0225 54.4668 29.501 54.4668C29.8337 54.4668 30.139 54.5169 30.417 54.6172C30.695 54.7129 30.9342 54.8656 31.1348 55.0752C31.3398 55.2803 31.4971 55.5492 31.6064 55.8818C31.7158 56.21 31.7705 56.6042 31.7705 57.0645V62H29.9658V57.249C29.9658 56.9027 29.9157 56.6315 29.8154 56.4355C29.7197 56.2396 29.5807 56.1029 29.3984 56.0254C29.2161 55.9434 28.9974 55.9023 28.7422 55.9023C28.4596 55.9023 28.2158 55.9593 28.0107 56.0732C27.8102 56.1826 27.6439 56.3353 27.5117 56.5312C27.3841 56.7272 27.2884 56.9528 27.2246 57.208C27.1654 57.4632 27.1357 57.7389 27.1357 58.0352ZM31.6338 57.7002L30.8887 57.8369C30.8932 57.3721 30.957 56.9368 31.0801 56.5312C31.2031 56.1211 31.3831 55.7633 31.6201 55.458C31.8617 55.1481 32.1602 54.9066 32.5156 54.7334C32.8757 54.5557 33.2904 54.4668 33.7598 54.4668C34.1243 54.4668 34.4525 54.5192 34.7441 54.624C35.0404 54.7243 35.2933 54.8861 35.5029 55.1094C35.7126 55.3281 35.8721 55.613 35.9814 55.9639C36.0954 56.3148 36.1523 56.7432 36.1523 57.249V62H34.334V57.2422C34.334 56.8822 34.2839 56.6064 34.1836 56.415C34.0879 56.2236 33.9489 56.0915 33.7666 56.0186C33.5843 55.9411 33.3701 55.9023 33.124 55.9023C32.8734 55.9023 32.6546 55.9502 32.4678 56.0459C32.2855 56.137 32.1305 56.2646 32.0029 56.4287C31.8799 56.5928 31.7865 56.7842 31.7227 57.0029C31.6634 57.2171 31.6338 57.4495 31.6338 57.7002ZM41.8467 60.4277V57.0166C41.8467 56.766 41.8034 56.5495 41.7168 56.3672C41.6302 56.1849 41.498 56.0436 41.3203 55.9434C41.1426 55.8431 40.917 55.793 40.6436 55.793C40.402 55.793 40.1901 55.834 40.0078 55.916C39.8301 55.998 39.6934 56.1143 39.5977 56.2646C39.502 56.4105 39.4541 56.5791 39.4541 56.7705H37.6426C37.6426 56.4652 37.7155 56.1758 37.8613 55.9023C38.0072 55.6243 38.2145 55.3783 38.4834 55.1641C38.7568 54.9453 39.0827 54.7744 39.4609 54.6514C39.8438 54.5283 40.2721 54.4668 40.7461 54.4668C41.3066 54.4668 41.8057 54.5625 42.2432 54.7539C42.6852 54.9408 43.0316 55.2233 43.2822 55.6016C43.5374 55.9798 43.665 56.4561 43.665 57.0303V60.2568C43.665 60.626 43.6878 60.9427 43.7334 61.207C43.7835 61.4668 43.8564 61.6924 43.9521 61.8838V62H42.1133C42.0267 61.8132 41.9606 61.5762 41.915 61.2891C41.8695 60.9974 41.8467 60.7103 41.8467 60.4277ZM42.0996 57.4951L42.1133 58.5684H40.9717C40.6891 58.5684 40.4408 58.598 40.2266 58.6572C40.0124 58.7119 39.8369 58.7939 39.7002 58.9033C39.5635 59.0081 39.4609 59.1357 39.3926 59.2861C39.3242 59.432 39.29 59.5983 39.29 59.7852C39.29 59.9674 39.3311 60.1315 39.4131 60.2773C39.4997 60.4232 39.6227 60.5394 39.7822 60.626C39.9463 60.708 40.1377 60.749 40.3564 60.749C40.6755 60.749 40.9535 60.6852 41.1904 60.5576C41.4274 60.4255 41.612 60.266 41.7441 60.0791C41.8763 59.8923 41.9469 59.7145 41.9561 59.5459L42.4756 60.3252C42.4118 60.512 42.3161 60.7103 42.1885 60.9199C42.0609 61.1296 41.8968 61.3255 41.6963 61.5078C41.4958 61.6901 41.2542 61.8405 40.9717 61.959C40.6891 62.0775 40.361 62.1367 39.9873 62.1367C39.5088 62.1367 39.0804 62.041 38.7021 61.8496C38.3239 61.6582 38.0254 61.3962 37.8066 61.0635C37.5879 60.7308 37.4785 60.3525 37.4785 59.9287C37.4785 59.5368 37.5514 59.1904 37.6973 58.8896C37.8431 58.5889 38.0596 58.3359 38.3467 58.1309C38.6338 57.9212 38.9893 57.764 39.4131 57.6592C39.8415 57.5498 40.3314 57.4951 40.8828 57.4951H42.0996ZM48.3271 60.7148C48.5824 60.7148 48.8102 60.6647 49.0107 60.5645C49.2113 60.4642 49.3708 60.3229 49.4893 60.1406C49.6123 59.9583 49.6784 59.7464 49.6875 59.5049H51.3896C51.3805 60.0062 51.2393 60.4551 50.9658 60.8516C50.6924 61.248 50.3278 61.5625 49.8721 61.7949C49.4209 62.0228 48.915 62.1367 48.3545 62.1367C47.7848 62.1367 47.2881 62.041 46.8643 61.8496C46.4404 61.6582 46.0872 61.3916 45.8047 61.0498C45.5267 60.708 45.3171 60.3115 45.1758 59.8604C45.0391 59.4092 44.9707 58.9261 44.9707 58.4111V58.1924C44.9707 57.6774 45.0391 57.1943 45.1758 56.7432C45.3171 56.292 45.5267 55.8955 45.8047 55.5537C46.0872 55.2119 46.4404 54.9453 46.8643 54.7539C47.2881 54.5625 47.7826 54.4668 48.3477 54.4668C48.9447 54.4668 49.4688 54.583 49.9199 54.8154C50.3757 55.0479 50.7311 55.376 50.9863 55.7998C51.2461 56.2236 51.3805 56.7227 51.3896 57.2969H49.6875C49.6784 57.0326 49.6191 56.7956 49.5098 56.5859C49.4004 56.3763 49.2454 56.2077 49.0449 56.0801C48.8444 55.9525 48.6006 55.8887 48.3135 55.8887C48.0081 55.8887 47.7529 55.9525 47.5479 56.0801C47.3473 56.2077 47.1901 56.3831 47.0762 56.6064C46.9668 56.8252 46.8893 57.0713 46.8438 57.3447C46.8027 57.6136 46.7822 57.8962 46.7822 58.1924V58.4111C46.7822 58.7119 46.8027 58.999 46.8438 59.2725C46.8893 59.5459 46.9668 59.792 47.0762 60.0107C47.1901 60.2249 47.3473 60.3958 47.5479 60.5234C47.7529 60.651 48.0127 60.7148 48.3271 60.7148ZM54.3633 51.5V62H52.5518V51.5H54.3633ZM54.0762 58.0352H53.543C53.543 57.5202 53.6113 57.0462 53.748 56.6133C53.8848 56.1803 54.0785 55.8044 54.3291 55.4854C54.5798 55.1618 54.8783 54.9111 55.2246 54.7334C55.5755 54.5557 55.9629 54.4668 56.3867 54.4668C56.7513 54.4668 57.0817 54.5192 57.3779 54.624C57.6787 54.7243 57.9362 54.8861 58.1504 55.1094C58.3646 55.3327 58.5286 55.6243 58.6426 55.9844C58.7611 56.3398 58.8203 56.7728 58.8203 57.2832V62H57.002V57.2695C57.002 56.9277 56.9518 56.6589 56.8516 56.4629C56.7513 56.2624 56.6077 56.1188 56.4209 56.0322C56.2386 55.9456 56.013 55.9023 55.7441 55.9023C55.4525 55.9023 55.2018 55.9593 54.9922 56.0732C54.7826 56.1826 54.6094 56.3353 54.4727 56.5312C54.3405 56.7272 54.2402 56.9528 54.1719 57.208C54.1081 57.4632 54.0762 57.7389 54.0762 58.0352ZM63.7354 62.1367C63.1748 62.1367 62.6712 62.0456 62.2246 61.8633C61.778 61.681 61.3975 61.4281 61.083 61.1045C60.7731 60.7764 60.5339 60.3958 60.3652 59.9629C60.2012 59.5254 60.1191 59.056 60.1191 58.5547V58.2812C60.1191 57.7116 60.2012 57.1943 60.3652 56.7295C60.5293 56.2601 60.7617 55.8568 61.0625 55.5195C61.3633 55.1823 61.7233 54.9225 62.1426 54.7402C62.5618 54.5579 63.0244 54.4668 63.5303 54.4668C64.0544 54.4668 64.5169 54.5557 64.918 54.7334C65.319 54.9066 65.654 55.1527 65.9229 55.4717C66.1917 55.7907 66.3945 56.1735 66.5312 56.6201C66.668 57.0622 66.7363 57.5521 66.7363 58.0898V58.8486H60.9395V57.6045H64.959V57.4678C64.9499 57.1807 64.8952 56.9186 64.7949 56.6816C64.6947 56.4401 64.5397 56.2487 64.3301 56.1074C64.1204 55.9616 63.8493 55.8887 63.5166 55.8887C63.2477 55.8887 63.013 55.9479 62.8125 56.0664C62.6165 56.1803 62.4525 56.3444 62.3203 56.5586C62.1927 56.7682 62.097 57.0189 62.0332 57.3105C61.9694 57.6022 61.9375 57.9258 61.9375 58.2812V58.5547C61.9375 58.8646 61.9785 59.1517 62.0605 59.416C62.1471 59.6803 62.2725 59.9105 62.4365 60.1064C62.6051 60.2979 62.8057 60.4482 63.0381 60.5576C63.2751 60.6624 63.5439 60.7148 63.8447 60.7148C64.223 60.7148 64.5648 60.6419 64.8701 60.4961C65.18 60.3457 65.4489 60.1247 65.6768 59.833L66.5859 60.7764C66.431 61.0042 66.2214 61.223 65.957 61.4326C65.6973 61.6423 65.3828 61.8132 65.0137 61.9453C64.6445 62.0729 64.2184 62.1367 63.7354 62.1367ZM69.7168 56.1826V62H67.9121V54.6035H69.6074L69.7168 56.1826ZM69.4297 58.0352H68.8965C68.901 57.4974 68.974 57.0098 69.1152 56.5723C69.2565 56.1348 69.4548 55.7588 69.71 55.4443C69.9697 55.1299 70.2773 54.8883 70.6328 54.7197C70.9883 54.5511 71.3848 54.4668 71.8223 54.4668C72.1777 54.4668 72.499 54.5169 72.7861 54.6172C73.0732 54.7174 73.3193 54.877 73.5244 55.0957C73.734 55.3145 73.8936 55.6016 74.0029 55.957C74.1169 56.3079 74.1738 56.7409 74.1738 57.2559V62H72.3555V57.2422C72.3555 56.9049 72.3053 56.6383 72.2051 56.4424C72.1094 56.2464 71.9681 56.1074 71.7812 56.0254C71.599 55.9434 71.3734 55.9023 71.1045 55.9023C70.8265 55.9023 70.5827 55.9593 70.373 56.0732C70.168 56.1826 69.9948 56.3353 69.8535 56.5312C69.7168 56.7272 69.612 56.9528 69.5391 57.208C69.4661 57.4632 69.4297 57.7389 69.4297 58.0352ZM82.3633 62H80.2168L80.2305 60.5234H82.3633C82.9421 60.5234 83.4274 60.3958 83.8193 60.1406C84.2113 59.8809 84.5075 59.5094 84.708 59.0264C84.9085 58.5387 85.0088 57.9554 85.0088 57.2764V56.7637C85.0088 56.2396 84.9518 55.777 84.8379 55.376C84.724 54.9749 84.5553 54.6377 84.332 54.3643C84.1133 54.0908 83.8421 53.8835 83.5186 53.7422C83.195 53.6009 82.8236 53.5303 82.4043 53.5303H80.1758V52.0469H82.4043C83.0697 52.0469 83.6758 52.1585 84.2227 52.3818C84.7741 52.6051 85.2503 52.9264 85.6514 53.3457C86.057 53.7604 86.3669 54.2572 86.5811 54.8359C86.7998 55.4147 86.9092 56.0618 86.9092 56.7773V57.2764C86.9092 57.9873 86.7998 58.6344 86.5811 59.2178C86.3669 59.7965 86.057 60.2933 85.6514 60.708C85.2503 61.1227 84.7718 61.4417 84.2158 61.665C83.6598 61.8883 83.0423 62 82.3633 62ZM81.2695 52.0469V62H79.3896V52.0469H81.2695ZM90.2861 54.6035V62H88.4746V54.6035H90.2861ZM88.3516 52.6689C88.3516 52.4001 88.4427 52.1768 88.625 51.999C88.8118 51.8213 89.0625 51.7324 89.377 51.7324C89.6914 51.7324 89.9398 51.8213 90.1221 51.999C90.3089 52.1768 90.4023 52.4001 90.4023 52.6689C90.4023 52.9333 90.3089 53.1543 90.1221 53.332C89.9398 53.5098 89.6914 53.5986 89.377 53.5986C89.0625 53.5986 88.8118 53.5098 88.625 53.332C88.4427 53.1543 88.3516 52.9333 88.3516 52.6689ZM96.7119 54.6035H98.3525V61.7744C98.3525 62.4443 98.2067 63.0117 97.915 63.4766C97.6279 63.946 97.2246 64.3014 96.7051 64.543C96.1855 64.7891 95.5817 64.9121 94.8936 64.9121C94.5973 64.9121 94.276 64.8711 93.9297 64.7891C93.5879 64.707 93.2575 64.5771 92.9385 64.3994C92.624 64.2262 92.362 64.0007 92.1523 63.7227L92.9658 62.6562C93.2119 62.9434 93.4899 63.1598 93.7998 63.3057C94.1097 63.4561 94.4447 63.5312 94.8047 63.5312C95.1693 63.5312 95.4792 63.4629 95.7344 63.3262C95.9941 63.194 96.1924 62.998 96.3291 62.7383C96.4704 62.4831 96.541 62.1686 96.541 61.7949V56.292L96.7119 54.6035ZM91.7148 58.3906V58.2471C91.7148 57.682 91.7832 57.1693 91.9199 56.709C92.0566 56.2441 92.2526 55.8454 92.5078 55.5127C92.7676 55.18 93.0798 54.9225 93.4443 54.7402C93.8135 54.5579 94.2282 54.4668 94.6885 54.4668C95.1761 54.4668 95.5863 54.5557 95.9189 54.7334C96.2562 54.9111 96.5342 55.1641 96.7529 55.4922C96.9762 55.8203 97.1494 56.21 97.2725 56.6611C97.4001 57.1077 97.498 57.5999 97.5664 58.1377V58.5273C97.5026 59.0514 97.4001 59.5322 97.2588 59.9697C97.1221 60.4072 96.9398 60.79 96.7119 61.1182C96.484 61.4417 96.2015 61.6924 95.8643 61.8701C95.527 62.0479 95.1305 62.1367 94.6748 62.1367C94.2191 62.1367 93.8089 62.0433 93.4443 61.8564C93.0798 61.6696 92.7676 61.4076 92.5078 61.0703C92.2526 60.7331 92.0566 60.3366 91.9199 59.8809C91.7832 59.4251 91.7148 58.9284 91.7148 58.3906ZM93.5195 58.2471V58.3906C93.5195 58.7096 93.5514 59.0081 93.6152 59.2861C93.679 59.5641 93.777 59.8102 93.9092 60.0244C94.0413 60.234 94.2077 60.3981 94.4082 60.5166C94.6087 60.6351 94.848 60.6943 95.126 60.6943C95.4997 60.6943 95.805 60.6169 96.042 60.4619C96.2835 60.3024 96.4658 60.0859 96.5889 59.8125C96.7165 59.5345 96.7985 59.2223 96.835 58.876V57.8027C96.8122 57.5293 96.762 57.2764 96.6846 57.0439C96.6117 56.8115 96.5091 56.611 96.377 56.4424C96.2448 56.2738 96.0762 56.1416 95.8711 56.0459C95.666 55.9502 95.4222 55.9023 95.1396 55.9023C94.8662 55.9023 94.627 55.9639 94.4219 56.0869C94.2168 56.2054 94.0482 56.3717 93.916 56.5859C93.7839 56.8001 93.6836 57.0485 93.6152 57.3311C93.5514 57.6136 93.5195 57.9189 93.5195 58.2471ZM101.894 54.6035V62H100.082V54.6035H101.894ZM99.959 52.6689C99.959 52.4001 100.05 52.1768 100.232 51.999C100.419 51.8213 100.67 51.7324 100.984 51.7324C101.299 51.7324 101.547 51.8213 101.729 51.999C101.916 52.1768 102.01 52.4001 102.01 52.6689C102.01 52.9333 101.916 53.1543 101.729 53.332C101.547 53.5098 101.299 53.5986 100.984 53.5986C100.67 53.5986 100.419 53.5098 100.232 53.332C100.05 53.1543 99.959 52.9333 99.959 52.6689ZM107.116 54.6035V55.9023H102.878V54.6035H107.116ZM104.013 52.7852H105.824V59.8672C105.824 60.0859 105.854 60.2546 105.913 60.373C105.972 60.4915 106.061 60.5713 106.18 60.6123C106.298 60.6533 106.439 60.6738 106.604 60.6738C106.722 60.6738 106.831 60.667 106.932 60.6533C107.032 60.6396 107.116 60.626 107.185 60.6123L107.191 61.9658C107.041 62.016 106.87 62.057 106.679 62.0889C106.492 62.1208 106.28 62.1367 106.043 62.1367C105.637 62.1367 105.282 62.0684 104.977 61.9316C104.671 61.7904 104.434 61.5648 104.266 61.2549C104.097 60.9404 104.013 60.5257 104.013 60.0107V52.7852ZM112.394 60.4277V57.0166C112.394 56.766 112.35 56.5495 112.264 56.3672C112.177 56.1849 112.045 56.0436 111.867 55.9434C111.689 55.8431 111.464 55.793 111.19 55.793C110.949 55.793 110.737 55.834 110.555 55.916C110.377 55.998 110.24 56.1143 110.145 56.2646C110.049 56.4105 110.001 56.5791 110.001 56.7705H108.189C108.189 56.4652 108.262 56.1758 108.408 55.9023C108.554 55.6243 108.761 55.3783 109.03 55.1641C109.304 54.9453 109.63 54.7744 110.008 54.6514C110.391 54.5283 110.819 54.4668 111.293 54.4668C111.854 54.4668 112.353 54.5625 112.79 54.7539C113.232 54.9408 113.578 55.2233 113.829 55.6016C114.084 55.9798 114.212 56.4561 114.212 57.0303V60.2568C114.212 60.626 114.235 60.9427 114.28 61.207C114.33 61.4668 114.403 61.6924 114.499 61.8838V62H112.66C112.574 61.8132 112.507 61.5762 112.462 61.2891C112.416 60.9974 112.394 60.7103 112.394 60.4277ZM112.646 57.4951L112.66 58.5684H111.519C111.236 58.5684 110.988 58.598 110.773 58.6572C110.559 58.7119 110.384 58.7939 110.247 58.9033C110.11 59.0081 110.008 59.1357 109.939 59.2861C109.871 59.432 109.837 59.5983 109.837 59.7852C109.837 59.9674 109.878 60.1315 109.96 60.2773C110.047 60.4232 110.17 60.5394 110.329 60.626C110.493 60.708 110.685 60.749 110.903 60.749C111.222 60.749 111.5 60.6852 111.737 60.5576C111.974 60.4255 112.159 60.266 112.291 60.0791C112.423 59.8923 112.494 59.7145 112.503 59.5459L113.022 60.3252C112.959 60.512 112.863 60.7103 112.735 60.9199C112.608 61.1296 112.444 61.3255 112.243 61.5078C112.043 61.6901 111.801 61.8405 111.519 61.959C111.236 62.0775 110.908 62.1367 110.534 62.1367C110.056 62.1367 109.627 62.041 109.249 61.8496C108.871 61.6582 108.572 61.3962 108.354 61.0635C108.135 60.7308 108.025 60.3525 108.025 59.9287C108.025 59.5368 108.098 59.1904 108.244 58.8896C108.39 58.5889 108.606 58.3359 108.894 58.1309C109.181 57.9212 109.536 57.764 109.96 57.6592C110.388 57.5498 110.878 57.4951 111.43 57.4951H112.646ZM117.753 51.5V62H115.941V51.5H117.753ZM121.39 54.6035V62H119.578V54.6035H121.39ZM119.455 52.6689C119.455 52.4001 119.546 52.1768 119.729 51.999C119.915 51.8213 120.166 51.7324 120.48 51.7324C120.795 51.7324 121.043 51.8213 121.226 51.999C121.412 52.1768 121.506 52.4001 121.506 52.6689C121.506 52.9333 121.412 53.1543 121.226 53.332C121.043 53.5098 120.795 53.5986 120.48 53.5986C120.166 53.5986 119.915 53.5098 119.729 53.332C119.546 53.1543 119.455 52.9333 119.455 52.6689ZM127.18 59.9766C127.18 59.8216 127.139 59.6826 127.057 59.5596C126.975 59.4365 126.82 59.3249 126.592 59.2246C126.368 59.1198 126.04 59.0218 125.607 58.9307C125.225 58.8486 124.871 58.7461 124.548 58.623C124.224 58.5 123.946 58.3519 123.714 58.1787C123.481 58.001 123.299 57.7936 123.167 57.5566C123.039 57.3151 122.976 57.0371 122.976 56.7227C122.976 56.4173 123.042 56.1302 123.174 55.8613C123.306 55.5879 123.497 55.3486 123.748 55.1436C123.999 54.9339 124.304 54.7699 124.664 54.6514C125.024 54.5283 125.43 54.4668 125.881 54.4668C126.51 54.4668 127.05 54.5693 127.501 54.7744C127.957 54.9795 128.305 55.262 128.547 55.6221C128.788 55.9775 128.909 56.3786 128.909 56.8252H127.104C127.104 56.6292 127.059 56.4515 126.968 56.292C126.881 56.1325 126.747 56.0049 126.564 55.9092C126.382 55.8089 126.152 55.7588 125.874 55.7588C125.623 55.7588 125.411 55.7998 125.238 55.8818C125.07 55.9639 124.942 56.071 124.855 56.2031C124.769 56.3353 124.726 56.4811 124.726 56.6406C124.726 56.7591 124.748 56.8662 124.794 56.9619C124.844 57.0531 124.924 57.1374 125.033 57.2148C125.143 57.2923 125.291 57.363 125.478 57.4268C125.669 57.4906 125.904 57.5521 126.182 57.6113C126.733 57.7207 127.214 57.8665 127.624 58.0488C128.039 58.2266 128.362 58.4635 128.595 58.7598C128.827 59.056 128.943 59.4342 128.943 59.8945C128.943 60.2227 128.873 60.5234 128.731 60.7969C128.59 61.0658 128.385 61.3005 128.116 61.501C127.847 61.7015 127.526 61.8587 127.152 61.9727C126.779 62.082 126.357 62.1367 125.888 62.1367C125.209 62.1367 124.634 62.016 124.165 61.7744C123.696 61.5283 123.34 61.2184 123.099 60.8447C122.857 60.4665 122.736 60.0745 122.736 59.6689H124.466C124.479 59.9561 124.557 60.1862 124.698 60.3594C124.84 60.5326 125.017 60.6579 125.231 60.7354C125.45 60.8083 125.68 60.8447 125.922 60.8447C126.195 60.8447 126.425 60.8083 126.612 60.7354C126.799 60.6579 126.94 60.5553 127.036 60.4277C127.132 60.2956 127.18 60.1452 127.18 59.9766ZM132.231 54.6035V62H130.42V54.6035H132.231ZM130.297 52.6689C130.297 52.4001 130.388 52.1768 130.57 51.999C130.757 51.8213 131.008 51.7324 131.322 51.7324C131.637 51.7324 131.885 51.8213 132.067 51.999C132.254 52.1768 132.348 52.4001 132.348 52.6689C132.348 52.9333 132.254 53.1543 132.067 53.332C131.885 53.5098 131.637 53.5986 131.322 53.5986C131.008 53.5986 130.757 53.5098 130.57 53.332C130.388 53.1543 130.297 52.9333 130.297 52.6689ZM137.276 62.1367C136.716 62.1367 136.212 62.0456 135.766 61.8633C135.319 61.681 134.938 61.4281 134.624 61.1045C134.314 60.7764 134.075 60.3958 133.906 59.9629C133.742 59.5254 133.66 59.056 133.66 58.5547V58.2812C133.66 57.7116 133.742 57.1943 133.906 56.7295C134.07 56.2601 134.303 55.8568 134.604 55.5195C134.904 55.1823 135.264 54.9225 135.684 54.7402C136.103 54.5579 136.565 54.4668 137.071 54.4668C137.595 54.4668 138.058 54.5557 138.459 54.7334C138.86 54.9066 139.195 55.1527 139.464 55.4717C139.733 55.7907 139.936 56.1735 140.072 56.6201C140.209 57.0622 140.277 57.5521 140.277 58.0898V58.8486H134.48V57.6045H138.5V57.4678C138.491 57.1807 138.436 56.9186 138.336 56.6816C138.236 56.4401 138.081 56.2487 137.871 56.1074C137.661 55.9616 137.39 55.8887 137.058 55.8887C136.789 55.8887 136.554 55.9479 136.354 56.0664C136.158 56.1803 135.993 56.3444 135.861 56.5586C135.734 56.7682 135.638 57.0189 135.574 57.3105C135.51 57.6022 135.479 57.9258 135.479 58.2812V58.5547C135.479 58.8646 135.52 59.1517 135.602 59.416C135.688 59.6803 135.813 59.9105 135.978 60.1064C136.146 60.2979 136.347 60.4482 136.579 60.5576C136.816 60.6624 137.085 60.7148 137.386 60.7148C137.764 60.7148 138.106 60.6419 138.411 60.4961C138.721 60.3457 138.99 60.1247 139.218 59.833L140.127 60.7764C139.972 61.0042 139.762 61.223 139.498 61.4326C139.238 61.6423 138.924 61.8132 138.555 61.9453C138.186 62.0729 137.759 62.1367 137.276 62.1367ZM143.292 56.1143V62H141.487V54.6035H143.196L143.292 56.1143ZM145.541 54.5557L145.514 56.2373C145.413 56.2191 145.299 56.2054 145.172 56.1963C145.049 56.1872 144.933 56.1826 144.823 56.1826C144.545 56.1826 144.301 56.2214 144.092 56.2988C143.882 56.3717 143.707 56.4788 143.565 56.6201C143.429 56.7614 143.324 56.9346 143.251 57.1396C143.178 57.3402 143.137 57.568 143.128 57.8232L142.738 57.7754C142.738 57.306 142.786 56.8708 142.882 56.4697C142.978 56.0687 143.117 55.7178 143.299 55.417C143.481 55.1162 143.709 54.8838 143.982 54.7197C144.26 54.5511 144.579 54.4668 144.939 54.4668C145.04 54.4668 145.147 54.4759 145.261 54.4941C145.379 54.5078 145.473 54.5283 145.541 54.5557ZM150.935 60.2432V54.6035H152.753V62H151.044L150.935 60.2432ZM151.167 58.7119L151.728 58.6982C151.728 59.195 151.673 59.653 151.563 60.0723C151.454 60.4915 151.283 60.8561 151.051 61.166C150.823 61.4714 150.534 61.7106 150.183 61.8838C149.832 62.0524 149.417 62.1367 148.938 62.1367C148.574 62.1367 148.241 62.0866 147.94 61.9863C147.64 61.8815 147.38 61.7197 147.161 61.501C146.947 61.2777 146.781 60.9928 146.662 60.6465C146.544 60.2956 146.484 59.874 146.484 59.3818V54.6035H148.289V59.3955C148.289 59.6416 148.316 59.8467 148.371 60.0107C148.43 60.1748 148.51 60.3092 148.61 60.4141C148.715 60.5143 148.836 60.5872 148.973 60.6328C149.114 60.6738 149.264 60.6943 149.424 60.6943C149.861 60.6943 150.205 60.6077 150.456 60.4346C150.711 60.2568 150.894 60.0199 151.003 59.7236C151.112 59.4229 151.167 59.0856 151.167 58.7119ZM156.123 56.1826V62H154.318V54.6035H156.014L156.123 56.1826ZM155.836 58.0352H155.303C155.307 57.4974 155.38 57.0098 155.521 56.5723C155.663 56.1348 155.861 55.7588 156.116 55.4443C156.376 55.1299 156.684 54.8883 157.039 54.7197C157.395 54.5511 157.791 54.4668 158.229 54.4668C158.584 54.4668 158.905 54.5169 159.192 54.6172C159.479 54.7174 159.726 54.877 159.931 55.0957C160.14 55.3145 160.3 55.6016 160.409 55.957C160.523 56.3079 160.58 56.7409 160.58 57.2559V62H158.762V57.2422C158.762 56.9049 158.712 56.6383 158.611 56.4424C158.516 56.2464 158.374 56.1074 158.188 56.0254C158.005 55.9434 157.78 55.9023 157.511 55.9023C157.233 55.9023 156.989 55.9593 156.779 56.0732C156.574 56.1826 156.401 56.3353 156.26 56.5312C156.123 56.7272 156.018 56.9528 155.945 57.208C155.872 57.4632 155.836 57.7389 155.836 58.0352ZM166.876 54.6035H168.517V61.7744C168.517 62.4443 168.371 63.0117 168.079 63.4766C167.792 63.946 167.389 64.3014 166.869 64.543C166.35 64.7891 165.746 64.9121 165.058 64.9121C164.761 64.9121 164.44 64.8711 164.094 64.7891C163.752 64.707 163.422 64.5771 163.103 64.3994C162.788 64.2262 162.526 64.0007 162.316 63.7227L163.13 62.6562C163.376 62.9434 163.654 63.1598 163.964 63.3057C164.274 63.4561 164.609 63.5312 164.969 63.5312C165.333 63.5312 165.643 63.4629 165.898 63.3262C166.158 63.194 166.356 62.998 166.493 62.7383C166.634 62.4831 166.705 62.1686 166.705 61.7949V56.292L166.876 54.6035ZM161.879 58.3906V58.2471C161.879 57.682 161.947 57.1693 162.084 56.709C162.221 56.2441 162.417 55.8454 162.672 55.5127C162.932 55.18 163.244 54.9225 163.608 54.7402C163.978 54.5579 164.392 54.4668 164.853 54.4668C165.34 54.4668 165.75 54.5557 166.083 54.7334C166.42 54.9111 166.698 55.1641 166.917 55.4922C167.14 55.8203 167.313 56.21 167.437 56.6611C167.564 57.1077 167.662 57.5999 167.73 58.1377V58.5273C167.667 59.0514 167.564 59.5322 167.423 59.9697C167.286 60.4072 167.104 60.79 166.876 61.1182C166.648 61.4417 166.366 61.6924 166.028 61.8701C165.691 62.0479 165.295 62.1367 164.839 62.1367C164.383 62.1367 163.973 62.0433 163.608 61.8564C163.244 61.6696 162.932 61.4076 162.672 61.0703C162.417 60.7331 162.221 60.3366 162.084 59.8809C161.947 59.4251 161.879 58.9284 161.879 58.3906ZM163.684 58.2471V58.3906C163.684 58.7096 163.715 59.0081 163.779 59.2861C163.843 59.5641 163.941 59.8102 164.073 60.0244C164.205 60.234 164.372 60.3981 164.572 60.5166C164.773 60.6351 165.012 60.6943 165.29 60.6943C165.664 60.6943 165.969 60.6169 166.206 60.4619C166.448 60.3024 166.63 60.0859 166.753 59.8125C166.881 59.5345 166.963 59.2223 166.999 58.876V57.8027C166.976 57.5293 166.926 57.2764 166.849 57.0439C166.776 56.8115 166.673 56.611 166.541 56.4424C166.409 56.2738 166.24 56.1416 166.035 56.0459C165.83 55.9502 165.586 55.9023 165.304 55.9023C165.03 55.9023 164.791 55.9639 164.586 56.0869C164.381 56.2054 164.212 56.3717 164.08 56.5859C163.948 56.8001 163.848 57.0485 163.779 57.3311C163.715 57.6136 163.684 57.9189 163.684 58.2471ZM177.697 59.9766C177.697 59.8216 177.656 59.6826 177.574 59.5596C177.492 59.4365 177.337 59.3249 177.109 59.2246C176.886 59.1198 176.558 59.0218 176.125 58.9307C175.742 58.8486 175.389 58.7461 175.065 58.623C174.742 58.5 174.464 58.3519 174.231 58.1787C173.999 58.001 173.817 57.7936 173.685 57.5566C173.557 57.3151 173.493 57.0371 173.493 56.7227C173.493 56.4173 173.559 56.1302 173.691 55.8613C173.824 55.5879 174.015 55.3486 174.266 55.1436C174.516 54.9339 174.822 54.7699 175.182 54.6514C175.542 54.5283 175.947 54.4668 176.398 54.4668C177.027 54.4668 177.567 54.5693 178.019 54.7744C178.474 54.9795 178.823 55.262 179.064 55.6221C179.306 55.9775 179.427 56.3786 179.427 56.8252H177.622C177.622 56.6292 177.576 56.4515 177.485 56.292C177.399 56.1325 177.264 56.0049 177.082 55.9092C176.9 55.8089 176.67 55.7588 176.392 55.7588C176.141 55.7588 175.929 55.7998 175.756 55.8818C175.587 55.9639 175.46 56.071 175.373 56.2031C175.286 56.3353 175.243 56.4811 175.243 56.6406C175.243 56.7591 175.266 56.8662 175.312 56.9619C175.362 57.0531 175.441 57.1374 175.551 57.2148C175.66 57.2923 175.808 57.363 175.995 57.4268C176.187 57.4906 176.421 57.5521 176.699 57.6113C177.251 57.7207 177.731 57.8665 178.142 58.0488C178.556 58.2266 178.88 58.4635 179.112 58.7598C179.345 59.056 179.461 59.4342 179.461 59.8945C179.461 60.2227 179.39 60.5234 179.249 60.7969C179.108 61.0658 178.903 61.3005 178.634 61.501C178.365 61.7015 178.044 61.8587 177.67 61.9727C177.296 62.082 176.875 62.1367 176.405 62.1367C175.726 62.1367 175.152 62.016 174.683 61.7744C174.213 61.5283 173.858 61.2184 173.616 60.8447C173.375 60.4665 173.254 60.0745 173.254 59.6689H174.983C174.997 59.9561 175.075 60.1862 175.216 60.3594C175.357 60.5326 175.535 60.6579 175.749 60.7354C175.968 60.8083 176.198 60.8447 176.439 60.8447C176.713 60.8447 176.943 60.8083 177.13 60.7354C177.317 60.6579 177.458 60.5553 177.554 60.4277C177.649 60.2956 177.697 60.1452 177.697 59.9766ZM182.749 54.6035V62H180.938V54.6035H182.749ZM180.814 52.6689C180.814 52.4001 180.906 52.1768 181.088 51.999C181.275 51.8213 181.525 51.7324 181.84 51.7324C182.154 51.7324 182.403 51.8213 182.585 51.999C182.772 52.1768 182.865 52.4001 182.865 52.6689C182.865 52.9333 182.772 53.1543 182.585 53.332C182.403 53.5098 182.154 53.5986 181.84 53.5986C181.525 53.5986 181.275 53.5098 181.088 53.332C180.906 53.1543 180.814 52.9333 180.814 52.6689ZM187.507 60.7148C187.762 60.7148 187.99 60.6647 188.19 60.5645C188.391 60.4642 188.55 60.3229 188.669 60.1406C188.792 59.9583 188.858 59.7464 188.867 59.5049H190.569C190.56 60.0062 190.419 60.4551 190.146 60.8516C189.872 61.248 189.507 61.5625 189.052 61.7949C188.601 62.0228 188.095 62.1367 187.534 62.1367C186.965 62.1367 186.468 62.041 186.044 61.8496C185.62 61.6582 185.267 61.3916 184.984 61.0498C184.706 60.708 184.497 60.3115 184.355 59.8604C184.219 59.4092 184.15 58.9261 184.15 58.4111V58.1924C184.15 57.6774 184.219 57.1943 184.355 56.7432C184.497 56.292 184.706 55.8955 184.984 55.5537C185.267 55.2119 185.62 54.9453 186.044 54.7539C186.468 54.5625 186.962 54.4668 187.527 54.4668C188.124 54.4668 188.648 54.583 189.1 54.8154C189.555 55.0479 189.911 55.376 190.166 55.7998C190.426 56.2236 190.56 56.7227 190.569 57.2969H188.867C188.858 57.0326 188.799 56.7956 188.689 56.5859C188.58 56.3763 188.425 56.2077 188.225 56.0801C188.024 55.9525 187.78 55.8887 187.493 55.8887C187.188 55.8887 186.933 55.9525 186.728 56.0801C186.527 56.2077 186.37 56.3831 186.256 56.6064C186.146 56.8252 186.069 57.0713 186.023 57.3447C185.982 57.6136 185.962 57.8962 185.962 58.1924V58.4111C185.962 58.7119 185.982 58.999 186.023 59.2725C186.069 59.5459 186.146 59.792 186.256 60.0107C186.37 60.2249 186.527 60.3958 186.728 60.5234C186.933 60.651 187.192 60.7148 187.507 60.7148ZM193.543 51.5V62H191.731V51.5H193.543ZM193.256 58.0352H192.723C192.723 57.5202 192.791 57.0462 192.928 56.6133C193.064 56.1803 193.258 55.8044 193.509 55.4854C193.759 55.1618 194.058 54.9111 194.404 54.7334C194.755 54.5557 195.143 54.4668 195.566 54.4668C195.931 54.4668 196.261 54.5192 196.558 54.624C196.858 54.7243 197.116 54.8861 197.33 55.1094C197.544 55.3327 197.708 55.6243 197.822 55.9844C197.941 56.3398 198 56.7728 198 57.2832V62H196.182V57.2695C196.182 56.9277 196.132 56.6589 196.031 56.4629C195.931 56.2624 195.787 56.1188 195.601 56.0322C195.418 55.9456 195.193 55.9023 194.924 55.9023C194.632 55.9023 194.382 55.9593 194.172 56.0732C193.962 56.1826 193.789 56.3353 193.652 56.5312C193.52 56.7272 193.42 56.9528 193.352 57.208C193.288 57.4632 193.256 57.7389 193.256 58.0352ZM203.093 54.6035V55.9023H198.854V54.6035H203.093ZM199.989 52.7852H201.801V59.8672C201.801 60.0859 201.83 60.2546 201.89 60.373C201.949 60.4915 202.038 60.5713 202.156 60.6123C202.275 60.6533 202.416 60.6738 202.58 60.6738C202.699 60.6738 202.808 60.667 202.908 60.6533C203.008 60.6396 203.093 60.626 203.161 60.6123L203.168 61.9658C203.018 62.016 202.847 62.057 202.655 62.0889C202.468 62.1208 202.257 62.1367 202.02 62.1367C201.614 62.1367 201.258 62.0684 200.953 61.9316C200.648 61.7904 200.411 61.5648 200.242 61.2549C200.074 60.9404 199.989 60.5257 199.989 60.0107V52.7852ZM204.289 51.5H206.101V60.3662L205.923 62H204.289V51.5ZM210.858 58.2266V58.3701C210.858 58.9215 210.797 59.4274 210.674 59.8877C210.555 60.348 210.375 60.7467 210.134 61.084C209.892 61.4167 209.591 61.6764 209.231 61.8633C208.876 62.0456 208.459 62.1367 207.98 62.1367C207.525 62.1367 207.128 62.0479 206.791 61.8701C206.458 61.6924 206.178 61.4417 205.95 61.1182C205.722 60.79 205.54 60.4049 205.403 59.9629C205.267 59.5163 205.164 59.0286 205.096 58.5V58.1104C205.164 57.5771 205.267 57.0895 205.403 56.6475C205.54 56.2054 205.722 55.8203 205.95 55.4922C206.178 55.1641 206.458 54.9111 206.791 54.7334C207.124 54.5557 207.516 54.4668 207.967 54.4668C208.45 54.4668 208.871 54.5602 209.231 54.7471C209.596 54.9294 209.897 55.1891 210.134 55.5264C210.375 55.859 210.555 56.2555 210.674 56.7158C210.797 57.1715 210.858 57.6751 210.858 58.2266ZM209.047 58.3701V58.2266C209.047 57.9121 209.022 57.6159 208.972 57.3379C208.922 57.0553 208.84 56.807 208.726 56.5928C208.612 56.3786 208.457 56.21 208.261 56.0869C208.065 55.9639 207.819 55.9023 207.522 55.9023C207.24 55.9023 206.998 55.9502 206.798 56.0459C206.602 56.1416 206.438 56.2738 206.306 56.4424C206.178 56.611 206.078 56.8092 206.005 57.0371C205.937 57.265 205.891 57.5111 205.868 57.7754V58.8418C205.9 59.1927 205.975 59.5094 206.094 59.792C206.212 60.07 206.388 60.291 206.62 60.4551C206.857 60.6191 207.162 60.7012 207.536 60.7012C207.828 60.7012 208.072 60.6442 208.268 60.5303C208.464 60.4118 208.618 60.2477 208.732 60.0381C208.846 59.8239 208.926 59.5755 208.972 59.293C209.022 59.0104 209.047 58.7028 209.047 58.3701ZM216.245 60.4277V57.0166C216.245 56.766 216.202 56.5495 216.115 56.3672C216.029 56.1849 215.896 56.0436 215.719 55.9434C215.541 55.8431 215.315 55.793 215.042 55.793C214.8 55.793 214.589 55.834 214.406 55.916C214.229 55.998 214.092 56.1143 213.996 56.2646C213.9 56.4105 213.853 56.5791 213.853 56.7705H212.041C212.041 56.4652 212.114 56.1758 212.26 55.9023C212.406 55.6243 212.613 55.3783 212.882 55.1641C213.155 54.9453 213.481 54.7744 213.859 54.6514C214.242 54.5283 214.671 54.4668 215.145 54.4668C215.705 54.4668 216.204 54.5625 216.642 54.7539C217.084 54.9408 217.43 55.2233 217.681 55.6016C217.936 55.9798 218.063 56.4561 218.063 57.0303V60.2568C218.063 60.626 218.086 60.9427 218.132 61.207C218.182 61.4668 218.255 61.6924 218.351 61.8838V62H216.512C216.425 61.8132 216.359 61.5762 216.313 61.2891C216.268 60.9974 216.245 60.7103 216.245 60.4277ZM216.498 57.4951L216.512 58.5684H215.37C215.088 58.5684 214.839 58.598 214.625 58.6572C214.411 58.7119 214.235 58.7939 214.099 58.9033C213.962 59.0081 213.859 59.1357 213.791 59.2861C213.723 59.432 213.688 59.5983 213.688 59.7852C213.688 59.9674 213.729 60.1315 213.812 60.2773C213.898 60.4232 214.021 60.5394 214.181 60.626C214.345 60.708 214.536 60.749 214.755 60.749C215.074 60.749 215.352 60.6852 215.589 60.5576C215.826 60.4255 216.01 60.266 216.143 60.0791C216.275 59.8923 216.345 59.7145 216.354 59.5459L216.874 60.3252C216.81 60.512 216.715 60.7103 216.587 60.9199C216.459 61.1296 216.295 61.3255 216.095 61.5078C215.894 61.6901 215.653 61.8405 215.37 61.959C215.088 62.0775 214.759 62.1367 214.386 62.1367C213.907 62.1367 213.479 62.041 213.101 61.8496C212.722 61.6582 212.424 61.3962 212.205 61.0635C211.986 60.7308 211.877 60.3525 211.877 59.9287C211.877 59.5368 211.95 59.1904 212.096 58.8896C212.242 58.5889 212.458 58.3359 212.745 58.1309C213.032 57.9212 213.388 57.764 213.812 57.6592C214.24 57.5498 214.73 57.4951 215.281 57.4951H216.498ZM221.495 56.1143V62H219.69V54.6035H221.399L221.495 56.1143ZM223.744 54.5557L223.717 56.2373C223.617 56.2191 223.503 56.2054 223.375 56.1963C223.252 56.1872 223.136 56.1826 223.026 56.1826C222.748 56.1826 222.505 56.2214 222.295 56.2988C222.085 56.3717 221.91 56.4788 221.769 56.6201C221.632 56.7614 221.527 56.9346 221.454 57.1396C221.381 57.3402 221.34 57.568 221.331 57.8232L220.941 57.7754C220.941 57.306 220.989 56.8708 221.085 56.4697C221.181 56.0687 221.32 55.7178 221.502 55.417C221.684 55.1162 221.912 54.8838 222.186 54.7197C222.464 54.5511 222.783 54.4668 223.143 54.4668C223.243 54.4668 223.35 54.4759 223.464 54.4941C223.582 54.5078 223.676 54.5283 223.744 54.5557ZM226.793 52.0469L226.595 59.0127H225.07L224.872 52.0469H226.793ZM224.817 61.1592C224.817 60.8903 224.909 60.6647 225.091 60.4824C225.278 60.2956 225.528 60.2021 225.843 60.2021C226.157 60.2021 226.406 60.2956 226.588 60.4824C226.775 60.6647 226.868 60.8903 226.868 61.1592C226.868 61.4235 226.775 61.6468 226.588 61.8291C226.406 62.0114 226.157 62.1025 225.843 62.1025C225.528 62.1025 225.278 62.0114 225.091 61.8291C224.909 61.6468 224.817 61.4235 224.817 61.1592Z" fill="#DCA54C"/>
</svg>
