<svg width="598" height="592" viewBox="0 0 598 592" fill="none" xmlns="http://www.w3.org/2000/svg">
<path d="M0.117188 107.573H88.7087C97.5722 107.573 105.163 104.445 111.526 98.1036C117.888 91.8054 121.091 84.2909 121.091 75.5168V0.111328H0.117188V107.529V107.573Z" fill="#DCA54C"/>
<path d="M67.4536 90.0234V95H66.5957L64.3638 91.4351V95H63.5059V90.0234H64.3638L66.6025 93.5952V90.0234H67.4536ZM70.4785 94.2583V92.4946C70.4785 92.3625 70.4546 92.2485 70.4067 92.1528C70.3589 92.0571 70.286 91.9831 70.188 91.9307C70.0923 91.8783 69.9715 91.8521 69.8257 91.8521C69.6912 91.8521 69.575 91.8748 69.4771 91.9204C69.3791 91.966 69.3027 92.0275 69.248 92.105C69.1934 92.1825 69.166 92.2702 69.166 92.3682H68.3457C68.3457 92.2223 68.381 92.0811 68.4517 91.9443C68.5223 91.8076 68.6248 91.6857 68.7593 91.5786C68.8937 91.4715 69.0544 91.3872 69.2412 91.3257C69.4281 91.2642 69.6377 91.2334 69.8701 91.2334C70.1481 91.2334 70.3942 91.2801 70.6084 91.3735C70.8249 91.467 70.9946 91.6082 71.1177 91.7974C71.243 91.9842 71.3057 92.2189 71.3057 92.5015V94.1455C71.3057 94.3141 71.3171 94.4657 71.3398 94.6001C71.3649 94.7323 71.4002 94.8473 71.4458 94.9453V95H70.6016C70.5628 94.9111 70.5321 94.7983 70.5093 94.6616C70.4888 94.5226 70.4785 94.3882 70.4785 94.2583ZM70.5981 92.751L70.605 93.2603H70.0137C69.861 93.2603 69.7266 93.2751 69.6104 93.3047C69.4941 93.332 69.3973 93.373 69.3198 93.4277C69.2424 93.4824 69.1842 93.5485 69.1455 93.626C69.1068 93.7035 69.0874 93.7912 69.0874 93.8892C69.0874 93.9871 69.1102 94.0771 69.1558 94.1592C69.2013 94.2389 69.2674 94.3016 69.354 94.3472C69.4429 94.3927 69.55 94.4155 69.6753 94.4155C69.8439 94.4155 69.9909 94.3813 70.1162 94.313C70.2438 94.2424 70.3441 94.1569 70.417 94.0566C70.4899 93.9541 70.5286 93.8573 70.5332 93.7661L70.7998 94.1318C70.7725 94.2253 70.7257 94.3255 70.6597 94.4326C70.5936 94.5397 70.507 94.6423 70.3999 94.7402C70.2951 94.8359 70.1686 94.9146 70.0205 94.9761C69.8747 95.0376 69.7061 95.0684 69.5146 95.0684C69.2731 95.0684 69.0578 95.0205 68.8687 94.9248C68.6795 94.8268 68.5314 94.6958 68.4243 94.5317C68.3172 94.3654 68.2637 94.1774 68.2637 93.9678C68.2637 93.7718 68.3001 93.5986 68.373 93.4482C68.4482 93.2956 68.5576 93.168 68.7012 93.0654C68.847 92.9629 69.0247 92.8854 69.2344 92.833C69.444 92.7783 69.6833 92.751 69.9521 92.751H70.5981ZM72.9941 92.0127V96.4219H72.1704V91.3018H72.9292L72.9941 92.0127ZM75.4038 93.1167V93.1885C75.4038 93.4574 75.3719 93.7069 75.3081 93.937C75.2466 94.1649 75.1543 94.3643 75.0312 94.5352C74.9105 94.7038 74.7612 94.8348 74.5835 94.9282C74.4058 95.0216 74.2007 95.0684 73.9683 95.0684C73.7381 95.0684 73.5365 95.0262 73.3633 94.9419C73.1924 94.8553 73.0477 94.7334 72.9292 94.5762C72.8107 94.4189 72.715 94.2344 72.6421 94.0225C72.5715 93.8083 72.5213 93.5736 72.4917 93.3184V93.0415C72.5213 92.7703 72.5715 92.5243 72.6421 92.3032C72.715 92.0822 72.8107 91.8919 72.9292 91.7324C73.0477 91.5729 73.1924 91.4499 73.3633 91.3633C73.5342 91.2767 73.7336 91.2334 73.9614 91.2334C74.1938 91.2334 74.4001 91.279 74.5801 91.3701C74.7601 91.459 74.9116 91.5866 75.0347 91.7529C75.1577 91.917 75.25 92.1152 75.3115 92.3477C75.373 92.5778 75.4038 92.8341 75.4038 93.1167ZM74.5801 93.1885V93.1167C74.5801 92.9458 74.5641 92.7874 74.5322 92.6416C74.5003 92.4935 74.4502 92.3636 74.3818 92.252C74.3135 92.1403 74.2257 92.0537 74.1187 91.9922C74.0138 91.9284 73.8874 91.8965 73.7393 91.8965C73.5934 91.8965 73.4681 91.9215 73.3633 91.9717C73.2585 92.0195 73.1707 92.0868 73.1001 92.1733C73.0295 92.2599 72.9748 92.3613 72.936 92.4775C72.8973 92.5915 72.87 92.7157 72.854 92.8501V93.5132C72.8813 93.6772 72.9281 93.8276 72.9941 93.9644C73.0602 94.1011 73.1536 94.2104 73.2744 94.2925C73.3975 94.3722 73.5547 94.4121 73.7461 94.4121C73.8942 94.4121 74.0207 94.3802 74.1255 94.3164C74.2303 94.2526 74.3158 94.1649 74.3818 94.0532C74.4502 93.9393 74.5003 93.8083 74.5322 93.6602C74.5641 93.512 74.5801 93.3548 74.5801 93.1885ZM75.9473 93.1919V93.1133C75.9473 92.8467 75.986 92.5994 76.0635 92.3716C76.141 92.1414 76.2526 91.9421 76.3984 91.7734C76.5465 91.6025 76.7266 91.4704 76.9385 91.377C77.1527 91.2812 77.3942 91.2334 77.6631 91.2334C77.9342 91.2334 78.1758 91.2812 78.3877 91.377C78.6019 91.4704 78.783 91.6025 78.9312 91.7734C79.0793 91.9421 79.1921 92.1414 79.2695 92.3716C79.347 92.5994 79.3857 92.8467 79.3857 93.1133V93.1919C79.3857 93.4585 79.347 93.7057 79.2695 93.9336C79.1921 94.1615 79.0793 94.3608 78.9312 94.5317C78.783 94.7004 78.603 94.8325 78.3911 94.9282C78.1792 95.0216 77.9388 95.0684 77.6699 95.0684C77.3988 95.0684 77.1561 95.0216 76.9419 94.9282C76.73 94.8325 76.55 94.7004 76.4019 94.5317C76.2537 94.3608 76.141 94.1615 76.0635 93.9336C75.986 93.7057 75.9473 93.4585 75.9473 93.1919ZM76.771 93.1133V93.1919C76.771 93.3582 76.7881 93.5155 76.8223 93.6636C76.8564 93.8117 76.91 93.9416 76.9829 94.0532C77.0558 94.1649 77.1493 94.2526 77.2632 94.3164C77.3771 94.3802 77.5127 94.4121 77.6699 94.4121C77.8226 94.4121 77.9548 94.3802 78.0664 94.3164C78.1803 94.2526 78.2738 94.1649 78.3467 94.0532C78.4196 93.9416 78.4731 93.8117 78.5073 93.6636C78.5438 93.5155 78.562 93.3582 78.562 93.1919V93.1133C78.562 92.9492 78.5438 92.7943 78.5073 92.6484C78.4731 92.5003 78.4185 92.3693 78.3433 92.2554C78.2703 92.1414 78.1769 92.0526 78.063 91.9888C77.9513 91.9227 77.818 91.8896 77.6631 91.8896C77.5081 91.8896 77.3737 91.9227 77.2598 91.9888C77.1481 92.0526 77.0558 92.1414 76.9829 92.2554C76.91 92.3693 76.8564 92.5003 76.8223 92.6484C76.7881 92.7943 76.771 92.9492 76.771 93.1133ZM80.958 89.75V95H80.1309V89.75H80.958ZM83.4907 95.0684C83.2173 95.0684 82.9701 95.0239 82.749 94.9351C82.5303 94.8439 82.3434 94.7174 82.1885 94.5557C82.0358 94.3939 81.9185 94.2036 81.8364 93.9849C81.7544 93.7661 81.7134 93.5303 81.7134 93.2773V93.1406C81.7134 92.8512 81.7555 92.5892 81.8398 92.3545C81.9242 92.1198 82.0415 91.9193 82.1919 91.7529C82.3423 91.5843 82.52 91.4556 82.7251 91.3667C82.9302 91.2778 83.1523 91.2334 83.3916 91.2334C83.6559 91.2334 83.8872 91.2778 84.0854 91.3667C84.2837 91.4556 84.4478 91.5809 84.5776 91.7427C84.7098 91.9022 84.8078 92.0924 84.8716 92.3135C84.9377 92.5345 84.9707 92.7783 84.9707 93.0449V93.397H82.1133V92.8057H84.1572V92.7407C84.1527 92.5926 84.123 92.4536 84.0684 92.3237C84.016 92.1938 83.9351 92.089 83.8257 92.0093C83.7163 91.9295 83.5705 91.8896 83.3882 91.8896C83.2515 91.8896 83.1296 91.9193 83.0225 91.9785C82.9176 92.0355 82.8299 92.1187 82.7593 92.228C82.6886 92.3374 82.634 92.4696 82.5952 92.6245C82.5588 92.7772 82.5405 92.9492 82.5405 93.1406V93.2773C82.5405 93.4391 82.5622 93.5895 82.6055 93.7285C82.651 93.8652 82.7171 93.9849 82.8037 94.0874C82.8903 94.1899 82.9951 94.2708 83.1182 94.3301C83.2412 94.387 83.3813 94.4155 83.5386 94.4155C83.7368 94.4155 83.9134 94.3757 84.0684 94.2959C84.2233 94.2161 84.3577 94.1034 84.4717 93.9575L84.9058 94.3779C84.826 94.4941 84.7223 94.6058 84.5947 94.7129C84.4671 94.8177 84.311 94.9032 84.1265 94.9692C83.9442 95.0353 83.7323 95.0684 83.4907 95.0684ZM85.4561 93.1919V93.1133C85.4561 92.8467 85.4948 92.5994 85.5723 92.3716C85.6497 92.1414 85.7614 91.9421 85.9072 91.7734C86.0553 91.6025 86.2354 91.4704 86.4473 91.377C86.6615 91.2812 86.903 91.2334 87.1719 91.2334C87.443 91.2334 87.6846 91.2812 87.8965 91.377C88.1107 91.4704 88.2918 91.6025 88.4399 91.7734C88.5881 91.9421 88.7008 92.1414 88.7783 92.3716C88.8558 92.5994 88.8945 92.8467 88.8945 93.1133V93.1919C88.8945 93.4585 88.8558 93.7057 88.7783 93.9336C88.7008 94.1615 88.5881 94.3608 88.4399 94.5317C88.2918 94.7004 88.1118 94.8325 87.8999 94.9282C87.688 95.0216 87.4476 95.0684 87.1787 95.0684C86.9076 95.0684 86.6649 95.0216 86.4507 94.9282C86.2388 94.8325 86.0588 94.7004 85.9106 94.5317C85.7625 94.3608 85.6497 94.1615 85.5723 93.9336C85.4948 93.7057 85.4561 93.4585 85.4561 93.1919ZM86.2798 93.1133V93.1919C86.2798 93.3582 86.2969 93.5155 86.3311 93.6636C86.3652 93.8117 86.4188 93.9416 86.4917 94.0532C86.5646 94.1649 86.658 94.2526 86.772 94.3164C86.8859 94.3802 87.0215 94.4121 87.1787 94.4121C87.3314 94.4121 87.4635 94.3802 87.5752 94.3164C87.6891 94.2526 87.7826 94.1649 87.8555 94.0532C87.9284 93.9416 87.9819 93.8117 88.0161 93.6636C88.0526 93.5155 88.0708 93.3582 88.0708 93.1919V93.1133C88.0708 92.9492 88.0526 92.7943 88.0161 92.6484C87.9819 92.5003 87.9272 92.3693 87.8521 92.2554C87.7791 92.1414 87.6857 92.0526 87.5718 91.9888C87.4601 91.9227 87.3268 91.8896 87.1719 91.8896C87.0169 91.8896 86.8825 91.9227 86.7686 91.9888C86.6569 92.0526 86.5646 92.1414 86.4917 92.2554C86.4188 92.3693 86.3652 92.5003 86.3311 92.6484C86.2969 92.7943 86.2798 92.9492 86.2798 93.1133ZM90.4019 92.0913V95H89.5781V91.3018H90.354L90.4019 92.0913ZM90.2549 93.0142L89.9883 93.0107C89.9906 92.7487 90.027 92.5083 90.0977 92.2896C90.1706 92.0708 90.2708 91.8828 90.3984 91.7256C90.5283 91.5684 90.6833 91.4476 90.8633 91.3633C91.0433 91.2767 91.2438 91.2334 91.4648 91.2334C91.6426 91.2334 91.8032 91.2585 91.9468 91.3086C92.0926 91.3564 92.2168 91.4351 92.3193 91.5444C92.4242 91.6538 92.5039 91.7962 92.5586 91.9717C92.6133 92.1449 92.6406 92.3579 92.6406 92.6108V95H91.8135V92.6074C91.8135 92.4297 91.7873 92.2896 91.7349 92.187C91.6847 92.0822 91.6107 92.0081 91.5127 91.9648C91.417 91.9193 91.2974 91.8965 91.1538 91.8965C91.0125 91.8965 90.8861 91.9261 90.7744 91.9854C90.6628 92.0446 90.5682 92.1255 90.4907 92.228C90.4155 92.3306 90.3574 92.4491 90.3164 92.5835C90.2754 92.7179 90.2549 92.8615 90.2549 93.0142ZM98.5947 92.1016V92.7817H95.9526V92.1016H98.5947ZM96.1646 90.0234V95H95.3066V90.0234H96.1646ZM99.2544 90.0234V95H98.3999V90.0234H99.2544ZM101.076 91.3018V95H100.249V91.3018H101.076ZM100.194 90.3311C100.194 90.2057 100.235 90.1021 100.317 90.02C100.402 89.9357 100.518 89.8936 100.666 89.8936C100.812 89.8936 100.927 89.9357 101.011 90.02C101.096 90.1021 101.138 90.2057 101.138 90.3311C101.138 90.4541 101.096 90.5566 101.011 90.6387C100.927 90.7207 100.812 90.7617 100.666 90.7617C100.518 90.7617 100.402 90.7207 100.317 90.6387C100.235 90.5566 100.194 90.4541 100.194 90.3311ZM102.86 89.75V95H102.033V89.75H102.86ZM104.645 89.75V95H103.817V89.75H104.645Z" fill="white"/>
<path d="M14.3398 15.8359V14.9629C14.3398 14.709 14.3887 14.4473 14.4863 14.1777C14.584 13.9082 14.7129 13.6543 14.873 13.416C15.0332 13.1738 15.209 12.9688 15.4004 12.8008L16.1855 13.2578C16.0449 13.4922 15.9238 13.7441 15.8223 14.0137C15.7207 14.2832 15.6699 14.5996 15.6699 14.9629V15.8359H14.3398ZM16.332 15.8359V14.9629C16.332 14.709 16.3809 14.4473 16.4785 14.1777C16.5762 13.9082 16.7051 13.6543 16.8652 13.416C17.0254 13.1738 17.2012 12.9688 17.3926 12.8008L18.1777 13.2578C18.0371 13.4922 17.916 13.7441 17.8145 14.0137C17.7129 14.2832 17.6621 14.5996 17.6621 14.9629V15.8359H16.332ZM22.0566 14.9277L19.7363 22H17.8672L21.0371 13.4688H22.2266L22.0566 14.9277ZM23.9844 22L21.6582 14.9277L21.4707 13.4688H22.6719L25.8594 22H23.9844ZM23.8789 18.8242V20.2012H19.373V18.8242H23.8789ZM28.3262 13V22H26.6328V13H28.3262ZM31.502 13V22H29.8086V13H31.502ZM39.3066 20.5703V17.7461C39.3066 17.543 39.2734 17.3691 39.207 17.2246C39.1406 17.0762 39.0371 16.9609 38.8965 16.8789C38.7598 16.7969 38.582 16.7559 38.3633 16.7559C38.1758 16.7559 38.0137 16.7891 37.877 16.8555C37.7402 16.918 37.6348 17.0098 37.5605 17.1309C37.4863 17.248 37.4492 17.3867 37.4492 17.5469H35.7617C35.7617 17.2773 35.8242 17.0215 35.9492 16.7793C36.0742 16.5371 36.2559 16.3242 36.4941 16.1406C36.7324 15.9531 37.0156 15.8066 37.3438 15.7012C37.6758 15.5957 38.0469 15.543 38.457 15.543C38.9492 15.543 39.3867 15.625 39.7695 15.7891C40.1523 15.9531 40.4531 16.1992 40.6719 16.5273C40.8945 16.8555 41.0059 17.2656 41.0059 17.7578V20.4707C41.0059 20.8184 41.0273 21.1035 41.0703 21.3262C41.1133 21.5449 41.1758 21.7363 41.2578 21.9004V22H39.5527C39.4707 21.8281 39.4082 21.6133 39.3652 21.3555C39.3262 21.0938 39.3066 20.832 39.3066 20.5703ZM39.5293 18.1387L39.541 19.0938H38.5977C38.375 19.0938 38.1816 19.1191 38.0176 19.1699C37.8535 19.2207 37.7188 19.293 37.6133 19.3867C37.5078 19.4766 37.4297 19.582 37.3789 19.7031C37.332 19.8242 37.3086 19.957 37.3086 20.1016C37.3086 20.2461 37.3418 20.377 37.4082 20.4941C37.4746 20.6074 37.5703 20.6973 37.6953 20.7637C37.8203 20.8262 37.9668 20.8574 38.1348 20.8574C38.3887 20.8574 38.6094 20.8066 38.7969 20.7051C38.9844 20.6035 39.1289 20.4785 39.2305 20.3301C39.3359 20.1816 39.3906 20.041 39.3945 19.9082L39.8398 20.623C39.7773 20.7832 39.6914 20.9492 39.582 21.1211C39.4766 21.293 39.3418 21.4551 39.1777 21.6074C39.0137 21.7559 38.8164 21.8789 38.5859 21.9766C38.3555 22.0703 38.082 22.1172 37.7656 22.1172C37.3633 22.1172 36.998 22.0371 36.6699 21.877C36.3457 21.7129 36.0879 21.4883 35.8965 21.2031C35.709 20.9141 35.6152 20.5859 35.6152 20.2188C35.6152 19.8867 35.6777 19.5918 35.8027 19.334C35.9277 19.0762 36.1113 18.8594 36.3535 18.6836C36.5996 18.5039 36.9062 18.3691 37.2734 18.2793C37.6406 18.1855 38.0664 18.1387 38.5508 18.1387H39.5293ZM44.9258 20.7988C45.1328 20.7988 45.3164 20.7598 45.4766 20.6816C45.6367 20.5996 45.7617 20.4863 45.8516 20.3418C45.9453 20.1934 45.9941 20.0195 45.998 19.8203H47.5859C47.582 20.2656 47.4629 20.6621 47.2285 21.0098C46.9941 21.3535 46.6797 21.625 46.2852 21.8242C45.8906 22.0195 45.4492 22.1172 44.9609 22.1172C44.4688 22.1172 44.0391 22.0352 43.6719 21.8711C43.3086 21.707 43.0059 21.4805 42.7637 21.1914C42.5215 20.8984 42.3398 20.5586 42.2188 20.1719C42.0977 19.7812 42.0371 19.3633 42.0371 18.918V18.748C42.0371 18.2988 42.0977 17.8809 42.2188 17.4941C42.3398 17.1035 42.5215 16.7637 42.7637 16.4746C43.0059 16.1816 43.3086 15.9531 43.6719 15.7891C44.0352 15.625 44.4609 15.543 44.9492 15.543C45.4688 15.543 45.9238 15.6426 46.3145 15.8418C46.709 16.041 47.0176 16.3262 47.2402 16.6973C47.4668 17.0645 47.582 17.5 47.5859 18.0039H45.998C45.9941 17.793 45.9492 17.6016 45.8633 17.4297C45.7812 17.2578 45.6602 17.1211 45.5 17.0195C45.3438 16.9141 45.1504 16.8613 44.9199 16.8613C44.6738 16.8613 44.4727 16.9141 44.3164 17.0195C44.1602 17.1211 44.0391 17.2617 43.9531 17.4414C43.8672 17.6172 43.8066 17.8184 43.7715 18.0449C43.7402 18.2676 43.7246 18.502 43.7246 18.748V18.918C43.7246 19.1641 43.7402 19.4004 43.7715 19.627C43.8027 19.8535 43.8613 20.0547 43.9473 20.2305C44.0371 20.4062 44.1602 20.5449 44.3164 20.6465C44.4727 20.748 44.6758 20.7988 44.9258 20.7988ZM50.2109 13V22H48.5234V13H50.2109ZM49.9707 18.6074H49.5078C49.5117 18.166 49.5703 17.7598 49.6836 17.3887C49.7969 17.0137 49.959 16.6895 50.1699 16.416C50.3809 16.1387 50.6328 15.9238 50.9258 15.7715C51.2227 15.6191 51.5508 15.543 51.9102 15.543C52.2227 15.543 52.5059 15.5879 52.7598 15.6777C53.0176 15.7637 53.2383 15.9043 53.4219 16.0996C53.6094 16.291 53.7539 16.543 53.8555 16.8555C53.957 17.168 54.0078 17.5469 54.0078 17.9922V22H52.3086V17.9805C52.3086 17.6992 52.2676 17.4785 52.1855 17.3184C52.1074 17.1543 51.9922 17.0391 51.8398 16.9727C51.6914 16.9023 51.5078 16.8672 51.2891 16.8672C51.0469 16.8672 50.8398 16.9121 50.668 17.002C50.5 17.0918 50.3652 17.2168 50.2637 17.377C50.1621 17.5332 50.0879 17.7168 50.041 17.9277C49.9941 18.1387 49.9707 18.3652 49.9707 18.6074ZM57.0723 15.6602V22H55.3789V15.6602H57.0723ZM55.2734 14.0078C55.2734 13.7617 55.3594 13.5586 55.5312 13.3984C55.7031 13.2383 55.9336 13.1582 56.2227 13.1582C56.5078 13.1582 56.7363 13.2383 56.9082 13.3984C57.084 13.5586 57.1719 13.7617 57.1719 14.0078C57.1719 14.2539 57.084 14.457 56.9082 14.6172C56.7363 14.7773 56.5078 14.8574 56.2227 14.8574C55.9336 14.8574 55.7031 14.7773 55.5312 14.6172C55.3594 14.457 55.2734 14.2539 55.2734 14.0078ZM61.3848 22.1172C60.8926 22.1172 60.4512 22.0391 60.0605 21.8828C59.6699 21.7227 59.3379 21.502 59.0645 21.2207C58.7949 20.9395 58.5879 20.6133 58.4434 20.2422C58.2988 19.8672 58.2266 19.4688 58.2266 19.0469V18.8125C58.2266 18.332 58.2949 17.8926 58.4316 17.4941C58.5684 17.0957 58.7637 16.75 59.0176 16.457C59.2754 16.1641 59.5879 15.9395 59.9551 15.7832C60.3223 15.623 60.7363 15.543 61.1973 15.543C61.6465 15.543 62.0449 15.6172 62.3926 15.7656C62.7402 15.9141 63.0312 16.125 63.2656 16.3984C63.5039 16.6719 63.6836 17 63.8047 17.3828C63.9258 17.7617 63.9863 18.1836 63.9863 18.6484V19.3516H58.9473V18.2266H62.3281V18.0977C62.3281 17.8633 62.2852 17.6543 62.1992 17.4707C62.1172 17.2832 61.9922 17.1348 61.8242 17.0254C61.6562 16.916 61.4414 16.8613 61.1797 16.8613C60.957 16.8613 60.7656 16.9102 60.6055 17.0078C60.4453 17.1055 60.3145 17.2422 60.2129 17.418C60.1152 17.5938 60.041 17.8008 59.9902 18.0391C59.9434 18.2734 59.9199 18.5312 59.9199 18.8125V19.0469C59.9199 19.3008 59.9551 19.5352 60.0254 19.75C60.0996 19.9648 60.2031 20.1504 60.3359 20.3066C60.4727 20.4629 60.6367 20.584 60.8281 20.6699C61.0234 20.7559 61.2441 20.7988 61.4902 20.7988C61.7949 20.7988 62.0781 20.7402 62.3398 20.623C62.6055 20.502 62.834 20.3203 63.0254 20.0781L63.8457 20.9688C63.7129 21.1602 63.5312 21.3438 63.3008 21.5195C63.0742 21.6953 62.8008 21.8398 62.4805 21.9531C62.1602 22.0625 61.7949 22.1172 61.3848 22.1172ZM67.0215 20.7695L68.4277 15.6602H70.1914L68.0527 22H66.9863L67.0215 20.7695ZM66.0547 15.6602L67.4668 20.7754L67.4961 22H66.4238L64.2852 15.6602H66.0547ZM73.7832 22.1172C73.291 22.1172 72.8496 22.0391 72.459 21.8828C72.0684 21.7227 71.7363 21.502 71.4629 21.2207C71.1934 20.9395 70.9863 20.6133 70.8418 20.2422C70.6973 19.8672 70.625 19.4688 70.625 19.0469V18.8125C70.625 18.332 70.6934 17.8926 70.8301 17.4941C70.9668 17.0957 71.1621 16.75 71.416 16.457C71.6738 16.1641 71.9863 15.9395 72.3535 15.7832C72.7207 15.623 73.1348 15.543 73.5957 15.543C74.0449 15.543 74.4434 15.6172 74.791 15.7656C75.1387 15.9141 75.4297 16.125 75.6641 16.3984C75.9023 16.6719 76.082 17 76.2031 17.3828C76.3242 17.7617 76.3848 18.1836 76.3848 18.6484V19.3516H71.3457V18.2266H74.7266V18.0977C74.7266 17.8633 74.6836 17.6543 74.5977 17.4707C74.5156 17.2832 74.3906 17.1348 74.2227 17.0254C74.0547 16.916 73.8398 16.8613 73.5781 16.8613C73.3555 16.8613 73.1641 16.9102 73.0039 17.0078C72.8438 17.1055 72.7129 17.2422 72.6113 17.418C72.5137 17.5938 72.4395 17.8008 72.3887 18.0391C72.3418 18.2734 72.3184 18.5312 72.3184 18.8125V19.0469C72.3184 19.3008 72.3535 19.5352 72.4238 19.75C72.498 19.9648 72.6016 20.1504 72.7344 20.3066C72.8711 20.4629 73.0352 20.584 73.2266 20.6699C73.4219 20.7559 73.6426 20.7988 73.8887 20.7988C74.1934 20.7988 74.4766 20.7402 74.7383 20.623C75.0039 20.502 75.2324 20.3203 75.4238 20.0781L76.2441 20.9688C76.1113 21.1602 75.9297 21.3438 75.6992 21.5195C75.4727 21.6953 75.1992 21.8398 74.8789 21.9531C74.5586 22.0625 74.1934 22.1172 73.7832 22.1172ZM79.0332 16.9727V22H77.3398V15.6602H78.9277L79.0332 16.9727ZM78.7988 18.6074H78.3301C78.3301 18.166 78.3828 17.7598 78.4883 17.3887C78.5977 17.0137 78.7559 16.6895 78.9629 16.416C79.1738 16.1387 79.4336 15.9238 79.7422 15.7715C80.0508 15.6191 80.4082 15.543 80.8145 15.543C81.0957 15.543 81.3535 15.5859 81.5879 15.6719C81.8223 15.7539 82.0234 15.8848 82.1914 16.0645C82.3633 16.2402 82.4961 16.4707 82.5898 16.7559C82.6836 17.0371 82.7305 17.375 82.7305 17.7695V22H81.043V17.957C81.043 17.668 81.0039 17.4453 80.9258 17.2891C80.8477 17.1328 80.7363 17.0234 80.5918 16.9609C80.4512 16.8984 80.2812 16.8672 80.082 16.8672C79.8633 16.8672 79.6719 16.9121 79.5078 17.002C79.3477 17.0918 79.2148 17.2168 79.1094 17.377C79.0039 17.5332 78.9258 17.7168 78.875 17.9277C78.8242 18.1387 78.7988 18.3652 78.7988 18.6074ZM82.5723 18.4141L81.9688 18.4902C81.9688 18.0762 82.0195 17.6914 82.1211 17.3359C82.2266 16.9805 82.3809 16.668 82.584 16.3984C82.791 16.1289 83.0469 15.9199 83.3516 15.7715C83.6562 15.6191 84.0078 15.543 84.4062 15.543C84.7109 15.543 84.9883 15.5879 85.2383 15.6777C85.4883 15.7637 85.7012 15.9023 85.877 16.0938C86.0566 16.2812 86.1934 16.5273 86.2871 16.832C86.3848 17.1367 86.4336 17.5098 86.4336 17.9512V22H84.7402V17.9512C84.7402 17.6582 84.7012 17.4355 84.623 17.2832C84.5488 17.127 84.4395 17.0195 84.2949 16.9609C84.1543 16.8984 83.9863 16.8672 83.791 16.8672C83.5879 16.8672 83.4102 16.9082 83.2578 16.9902C83.1055 17.0684 82.9785 17.1777 82.877 17.3184C82.7754 17.459 82.6992 17.623 82.6484 17.8105C82.5977 17.9941 82.5723 18.1953 82.5723 18.4141ZM90.6582 22.1172C90.166 22.1172 89.7246 22.0391 89.334 21.8828C88.9434 21.7227 88.6113 21.502 88.3379 21.2207C88.0684 20.9395 87.8613 20.6133 87.7168 20.2422C87.5723 19.8672 87.5 19.4688 87.5 19.0469V18.8125C87.5 18.332 87.5684 17.8926 87.7051 17.4941C87.8418 17.0957 88.0371 16.75 88.291 16.457C88.5488 16.1641 88.8613 15.9395 89.2285 15.7832C89.5957 15.623 90.0098 15.543 90.4707 15.543C90.9199 15.543 91.3184 15.6172 91.666 15.7656C92.0137 15.9141 92.3047 16.125 92.5391 16.3984C92.7773 16.6719 92.957 17 93.0781 17.3828C93.1992 17.7617 93.2598 18.1836 93.2598 18.6484V19.3516H88.2207V18.2266H91.6016V18.0977C91.6016 17.8633 91.5586 17.6543 91.4727 17.4707C91.3906 17.2832 91.2656 17.1348 91.0977 17.0254C90.9297 16.916 90.7148 16.8613 90.4531 16.8613C90.2305 16.8613 90.0391 16.9102 89.8789 17.0078C89.7188 17.1055 89.5879 17.2422 89.4863 17.418C89.3887 17.5938 89.3145 17.8008 89.2637 18.0391C89.2168 18.2734 89.1934 18.5312 89.1934 18.8125V19.0469C89.1934 19.3008 89.2285 19.5352 89.2988 19.75C89.373 19.9648 89.4766 20.1504 89.6094 20.3066C89.7461 20.4629 89.9102 20.584 90.1016 20.6699C90.2969 20.7559 90.5176 20.7988 90.7637 20.7988C91.0684 20.7988 91.3516 20.7402 91.6133 20.623C91.8789 20.502 92.1074 20.3203 92.2988 20.0781L93.1191 20.9688C92.9863 21.1602 92.8047 21.3438 92.5742 21.5195C92.3477 21.6953 92.0742 21.8398 91.7539 21.9531C91.4336 22.0625 91.0684 22.1172 90.6582 22.1172ZM95.873 17.0137V22H94.1855V15.6602H95.7676L95.873 17.0137ZM95.627 18.6074H95.1699C95.1699 18.1387 95.2305 17.7168 95.3516 17.3418C95.4727 16.9629 95.6426 16.6406 95.8613 16.375C96.0801 16.1055 96.3398 15.9004 96.6406 15.7598C96.9453 15.6152 97.2852 15.543 97.6602 15.543C97.957 15.543 98.2285 15.5859 98.4746 15.6719C98.7207 15.7578 98.9316 15.8945 99.1074 16.082C99.2871 16.2695 99.4238 16.5176 99.5176 16.8262C99.6152 17.1348 99.6641 17.5117 99.6641 17.957V22H97.9648V17.9512C97.9648 17.6699 97.9258 17.4512 97.8477 17.2949C97.7695 17.1387 97.6543 17.0293 97.502 16.9668C97.3535 16.9004 97.1699 16.8672 96.9512 16.8672C96.7246 16.8672 96.5273 16.9121 96.3594 17.002C96.1953 17.0918 96.0586 17.2168 95.9492 17.377C95.8438 17.5332 95.7637 17.7168 95.709 17.9277C95.6543 18.1387 95.627 18.3652 95.627 18.6074ZM104.053 15.6602V16.8555H100.361V15.6602H104.053ZM101.275 14.0957H102.963V20.0898C102.963 20.2734 102.986 20.4141 103.033 20.5117C103.084 20.6094 103.158 20.6777 103.256 20.7168C103.354 20.752 103.477 20.7695 103.625 20.7695C103.73 20.7695 103.824 20.7656 103.906 20.7578C103.992 20.7461 104.064 20.7344 104.123 20.7227L104.129 21.9648C103.984 22.0117 103.828 22.0488 103.66 22.0762C103.492 22.1035 103.307 22.1172 103.104 22.1172C102.732 22.1172 102.408 22.0566 102.131 21.9355C101.857 21.8105 101.646 21.6113 101.498 21.3379C101.35 21.0645 101.275 20.7051 101.275 20.2598V14.0957ZM106.613 20.5762L106.607 21.707C106.607 22.1406 106.498 22.5781 106.279 23.0195C106.064 23.4609 105.791 23.8223 105.459 24.1035L104.58 23.6523C104.678 23.4727 104.773 23.293 104.867 23.1133C104.961 22.9336 105.039 22.7363 105.102 22.5215C105.164 22.3066 105.195 22.0625 105.195 21.7891V20.5762H106.613ZM18.4941 36.5703V33.7461C18.4941 33.543 18.4609 33.3691 18.3945 33.2246C18.3281 33.0762 18.2246 32.9609 18.084 32.8789C17.9473 32.7969 17.7695 32.7559 17.5508 32.7559C17.3633 32.7559 17.2012 32.7891 17.0645 32.8555C16.9277 32.918 16.8223 33.0098 16.748 33.1309C16.6738 33.248 16.6367 33.3867 16.6367 33.5469H14.9492C14.9492 33.2773 15.0117 33.0215 15.1367 32.7793C15.2617 32.5371 15.4434 32.3242 15.6816 32.1406C15.9199 31.9531 16.2031 31.8066 16.5312 31.7012C16.8633 31.5957 17.2344 31.543 17.6445 31.543C18.1367 31.543 18.5742 31.625 18.957 31.7891C19.3398 31.9531 19.6406 32.1992 19.8594 32.5273C20.082 32.8555 20.1934 33.2656 20.1934 33.7578V36.4707C20.1934 36.8184 20.2148 37.1035 20.2578 37.3262C20.3008 37.5449 20.3633 37.7363 20.4453 37.9004V38H18.7402C18.6582 37.8281 18.5957 37.6133 18.5527 37.3555C18.5137 37.0938 18.4941 36.832 18.4941 36.5703ZM18.7168 34.1387L18.7285 35.0938H17.7852C17.5625 35.0938 17.3691 35.1191 17.2051 35.1699C17.041 35.2207 16.9062 35.293 16.8008 35.3867C16.6953 35.4766 16.6172 35.582 16.5664 35.7031C16.5195 35.8242 16.4961 35.957 16.4961 36.1016C16.4961 36.2461 16.5293 36.377 16.5957 36.4941C16.6621 36.6074 16.7578 36.6973 16.8828 36.7637C17.0078 36.8262 17.1543 36.8574 17.3223 36.8574C17.5762 36.8574 17.7969 36.8066 17.9844 36.7051C18.1719 36.6035 18.3164 36.4785 18.418 36.3301C18.5234 36.1816 18.5781 36.041 18.582 35.9082L19.0273 36.623C18.9648 36.7832 18.8789 36.9492 18.7695 37.1211C18.6641 37.293 18.5293 37.4551 18.3652 37.6074C18.2012 37.7559 18.0039 37.8789 17.7734 37.9766C17.543 38.0703 17.2695 38.1172 16.9531 38.1172C16.5508 38.1172 16.1855 38.0371 15.8574 37.877C15.5332 37.7129 15.2754 37.4883 15.084 37.2031C14.8965 36.9141 14.8027 36.5859 14.8027 36.2188C14.8027 35.8867 14.8652 35.5918 14.9902 35.334C15.1152 35.0762 15.2988 34.8594 15.541 34.6836C15.7871 34.5039 16.0938 34.3691 16.4609 34.2793C16.8281 34.1855 17.2539 34.1387 17.7383 34.1387H18.7168ZM23.2754 29V38H21.582V29H23.2754ZM26.4512 29V38H24.7578V29H26.4512ZM33.752 38.1172C33.2598 38.1172 32.8184 38.0391 32.4277 37.8828C32.0371 37.7227 31.7051 37.502 31.4316 37.2207C31.1621 36.9395 30.9551 36.6133 30.8105 36.2422C30.666 35.8672 30.5938 35.4688 30.5938 35.0469V34.8125C30.5938 34.332 30.6621 33.8926 30.7988 33.4941C30.9355 33.0957 31.1309 32.75 31.3848 32.457C31.6426 32.1641 31.9551 31.9395 32.3223 31.7832C32.6895 31.623 33.1035 31.543 33.5645 31.543C34.0137 31.543 34.4121 31.6172 34.7598 31.7656C35.1074 31.9141 35.3984 32.125 35.6328 32.3984C35.8711 32.6719 36.0508 33 36.1719 33.3828C36.293 33.7617 36.3535 34.1836 36.3535 34.6484V35.3516H31.3145V34.2266H34.6953V34.0977C34.6953 33.8633 34.6523 33.6543 34.5664 33.4707C34.4844 33.2832 34.3594 33.1348 34.1914 33.0254C34.0234 32.916 33.8086 32.8613 33.5469 32.8613C33.3242 32.8613 33.1328 32.9102 32.9727 33.0078C32.8125 33.1055 32.6816 33.2422 32.5801 33.418C32.4824 33.5938 32.4082 33.8008 32.3574 34.0391C32.3105 34.2734 32.2871 34.5312 32.2871 34.8125V35.0469C32.2871 35.3008 32.3223 35.5352 32.3926 35.75C32.4668 35.9648 32.5703 36.1504 32.7031 36.3066C32.8398 36.4629 33.0039 36.584 33.1953 36.6699C33.3906 36.7559 33.6113 36.7988 33.8574 36.7988C34.1621 36.7988 34.4453 36.7402 34.707 36.623C34.9727 36.502 35.2012 36.3203 35.3926 36.0781L36.2129 36.9688C36.0801 37.1602 35.8984 37.3438 35.668 37.5195C35.4414 37.6953 35.168 37.8398 34.8477 37.9531C34.5273 38.0625 34.1621 38.1172 33.752 38.1172ZM40.7363 36.5703V33.7461C40.7363 33.543 40.7031 33.3691 40.6367 33.2246C40.5703 33.0762 40.4668 32.9609 40.3262 32.8789C40.1895 32.7969 40.0117 32.7559 39.793 32.7559C39.6055 32.7559 39.4434 32.7891 39.3066 32.8555C39.1699 32.918 39.0645 33.0098 38.9902 33.1309C38.916 33.248 38.8789 33.3867 38.8789 33.5469H37.1914C37.1914 33.2773 37.2539 33.0215 37.3789 32.7793C37.5039 32.5371 37.6855 32.3242 37.9238 32.1406C38.1621 31.9531 38.4453 31.8066 38.7734 31.7012C39.1055 31.5957 39.4766 31.543 39.8867 31.543C40.3789 31.543 40.8164 31.625 41.1992 31.7891C41.582 31.9531 41.8828 32.1992 42.1016 32.5273C42.3242 32.8555 42.4355 33.2656 42.4355 33.7578V36.4707C42.4355 36.8184 42.457 37.1035 42.5 37.3262C42.543 37.5449 42.6055 37.7363 42.6875 37.9004V38H40.9824C40.9004 37.8281 40.8379 37.6133 40.7949 37.3555C40.7559 37.0938 40.7363 36.832 40.7363 36.5703ZM40.959 34.1387L40.9707 35.0938H40.0273C39.8047 35.0938 39.6113 35.1191 39.4473 35.1699C39.2832 35.2207 39.1484 35.293 39.043 35.3867C38.9375 35.4766 38.8594 35.582 38.8086 35.7031C38.7617 35.8242 38.7383 35.957 38.7383 36.1016C38.7383 36.2461 38.7715 36.377 38.8379 36.4941C38.9043 36.6074 39 36.6973 39.125 36.7637C39.25 36.8262 39.3965 36.8574 39.5645 36.8574C39.8184 36.8574 40.0391 36.8066 40.2266 36.7051C40.4141 36.6035 40.5586 36.4785 40.6602 36.3301C40.7656 36.1816 40.8203 36.041 40.8242 35.9082L41.2695 36.623C41.207 36.7832 41.1211 36.9492 41.0117 37.1211C40.9062 37.293 40.7715 37.4551 40.6074 37.6074C40.4434 37.7559 40.2461 37.8789 40.0156 37.9766C39.7852 38.0703 39.5117 38.1172 39.1953 38.1172C38.793 38.1172 38.4277 38.0371 38.0996 37.877C37.7754 37.7129 37.5176 37.4883 37.3262 37.2031C37.1387 36.9141 37.0449 36.5859 37.0449 36.2188C37.0449 35.8867 37.1074 35.5918 37.2324 35.334C37.3574 35.0762 37.541 34.8594 37.7832 34.6836C38.0293 34.5039 38.3359 34.3691 38.7031 34.2793C39.0703 34.1855 39.4961 34.1387 39.9805 34.1387H40.959ZM45.4238 33.043V38H43.7363V31.6602H45.3242L45.4238 33.043ZM47.334 31.6191L47.3047 33.1836C47.2227 33.1719 47.123 33.1621 47.0059 33.1543C46.8926 33.1426 46.7891 33.1367 46.6953 33.1367C46.457 33.1367 46.25 33.168 46.0742 33.2305C45.9023 33.2891 45.7578 33.377 45.6406 33.4941C45.5273 33.6113 45.4414 33.7539 45.3828 33.9219C45.3281 34.0898 45.2969 34.2812 45.2891 34.4961L44.9492 34.3906C44.9492 33.9805 44.9902 33.6035 45.0723 33.2598C45.1543 32.9121 45.2734 32.6094 45.4297 32.3516C45.5898 32.0938 45.7852 31.8945 46.0156 31.7539C46.2461 31.6133 46.5098 31.543 46.8066 31.543C46.9004 31.543 46.9961 31.5508 47.0938 31.5664C47.1914 31.5781 47.2715 31.5957 47.334 31.6191ZM49.7832 33.0137V38H48.0957V31.6602H49.6777L49.7832 33.0137ZM49.5371 34.6074H49.0801C49.0801 34.1387 49.1406 33.7168 49.2617 33.3418C49.3828 32.9629 49.5527 32.6406 49.7715 32.375C49.9902 32.1055 50.25 31.9004 50.5508 31.7598C50.8555 31.6152 51.1953 31.543 51.5703 31.543C51.8672 31.543 52.1387 31.5859 52.3848 31.6719C52.6309 31.7578 52.8418 31.8945 53.0176 32.082C53.1973 32.2695 53.334 32.5176 53.4277 32.8262C53.5254 33.1348 53.5742 33.5117 53.5742 33.957V38H51.875V33.9512C51.875 33.6699 51.8359 33.4512 51.7578 33.2949C51.6797 33.1387 51.5645 33.0293 51.4121 32.9668C51.2637 32.9004 51.0801 32.8672 50.8613 32.8672C50.6348 32.8672 50.4375 32.9121 50.2695 33.002C50.1055 33.0918 49.9688 33.2168 49.8594 33.377C49.7539 33.5332 49.6738 33.7168 49.6191 33.9277C49.5645 34.1387 49.5371 34.3652 49.5371 34.6074ZM57.7754 38.1172C57.2832 38.1172 56.8418 38.0391 56.4512 37.8828C56.0605 37.7227 55.7285 37.502 55.4551 37.2207C55.1855 36.9395 54.9785 36.6133 54.834 36.2422C54.6895 35.8672 54.6172 35.4688 54.6172 35.0469V34.8125C54.6172 34.332 54.6855 33.8926 54.8223 33.4941C54.959 33.0957 55.1543 32.75 55.4082 32.457C55.666 32.1641 55.9785 31.9395 56.3457 31.7832C56.7129 31.623 57.127 31.543 57.5879 31.543C58.0371 31.543 58.4355 31.6172 58.7832 31.7656C59.1309 31.9141 59.4219 32.125 59.6562 32.3984C59.8945 32.6719 60.0742 33 60.1953 33.3828C60.3164 33.7617 60.377 34.1836 60.377 34.6484V35.3516H55.3379V34.2266H58.7188V34.0977C58.7188 33.8633 58.6758 33.6543 58.5898 33.4707C58.5078 33.2832 58.3828 33.1348 58.2148 33.0254C58.0469 32.916 57.832 32.8613 57.5703 32.8613C57.3477 32.8613 57.1562 32.9102 56.9961 33.0078C56.8359 33.1055 56.7051 33.2422 56.6035 33.418C56.5059 33.5938 56.4316 33.8008 56.3809 34.0391C56.334 34.2734 56.3105 34.5312 56.3105 34.8125V35.0469C56.3105 35.3008 56.3457 35.5352 56.416 35.75C56.4902 35.9648 56.5938 36.1504 56.7266 36.3066C56.8633 36.4629 57.0273 36.584 57.2188 36.6699C57.4141 36.7559 57.6348 36.7988 57.8809 36.7988C58.1855 36.7988 58.4688 36.7402 58.7305 36.623C58.9961 36.502 59.2246 36.3203 59.416 36.0781L60.2363 36.9688C60.1035 37.1602 59.9219 37.3438 59.6914 37.5195C59.4648 37.6953 59.1914 37.8398 58.8711 37.9531C58.5508 38.0625 58.1855 38.1172 57.7754 38.1172ZM65.082 36.6172V29H66.7812V38H65.252L65.082 36.6172ZM61.0742 34.9062V34.7832C61.0742 34.2988 61.1289 33.8594 61.2383 33.4648C61.3477 33.0664 61.5078 32.7246 61.7188 32.4395C61.9297 32.1543 62.1895 31.9336 62.498 31.7773C62.8066 31.6211 63.1582 31.543 63.5527 31.543C63.9238 31.543 64.248 31.6211 64.5254 31.7773C64.8066 31.9336 65.0449 32.1562 65.2402 32.4453C65.4395 32.7305 65.5996 33.0684 65.7207 33.459C65.8418 33.8457 65.9297 34.2695 65.9844 34.7305V35C65.9297 35.4414 65.8418 35.8516 65.7207 36.2305C65.5996 36.6094 65.4395 36.9414 65.2402 37.2266C65.0449 37.5078 64.8066 37.7266 64.5254 37.8828C64.2441 38.0391 63.916 38.1172 63.541 38.1172C63.1465 38.1172 62.7949 38.0371 62.4863 37.877C62.1816 37.7168 61.9238 37.4922 61.7129 37.2031C61.5059 36.9141 61.3477 36.5742 61.2383 36.1836C61.1289 35.793 61.0742 35.3672 61.0742 34.9062ZM62.7617 34.7832V34.9062C62.7617 35.168 62.7812 35.4121 62.8203 35.6387C62.8633 35.8652 62.9316 36.0664 63.0254 36.2422C63.123 36.4141 63.248 36.5488 63.4004 36.6465C63.5566 36.7402 63.7461 36.7871 63.9688 36.7871C64.2578 36.7871 64.4961 36.7227 64.6836 36.5938C64.8711 36.4609 65.0137 36.2793 65.1113 36.0488C65.2129 35.8184 65.2715 35.5527 65.2871 35.252V34.4844C65.2754 34.2383 65.2402 34.0176 65.1816 33.8223C65.127 33.623 65.0449 33.4531 64.9355 33.3125C64.8301 33.1719 64.6973 33.0625 64.5371 32.9844C64.3809 32.9062 64.1953 32.8672 63.9805 32.8672C63.7617 32.8672 63.5742 32.918 63.418 33.0195C63.2617 33.1172 63.1348 33.252 63.0371 33.4238C62.9434 33.5957 62.873 33.7988 62.8262 34.0332C62.7832 34.2637 62.7617 34.5137 62.7617 34.7832ZM72.7754 33.043V38H71.0879V31.6602H72.6758L72.7754 33.043ZM74.6855 31.6191L74.6562 33.1836C74.5742 33.1719 74.4746 33.1621 74.3574 33.1543C74.2441 33.1426 74.1406 33.1367 74.0469 33.1367C73.8086 33.1367 73.6016 33.168 73.4258 33.2305C73.2539 33.2891 73.1094 33.377 72.9922 33.4941C72.8789 33.6113 72.793 33.7539 72.7344 33.9219C72.6797 34.0898 72.6484 34.2812 72.6406 34.4961L72.3008 34.3906C72.3008 33.9805 72.3418 33.6035 72.4238 33.2598C72.5059 32.9121 72.625 32.6094 72.7812 32.3516C72.9414 32.0938 73.1367 31.8945 73.3672 31.7539C73.5977 31.6133 73.8613 31.543 74.1582 31.543C74.252 31.543 74.3477 31.5508 74.4453 31.5664C74.543 31.5781 74.623 31.5957 74.6855 31.6191ZM77.2637 31.6602V38H75.5703V31.6602H77.2637ZM75.4648 30.0078C75.4648 29.7617 75.5508 29.5586 75.7227 29.3984C75.8945 29.2383 76.125 29.1582 76.4141 29.1582C76.6992 29.1582 76.9277 29.2383 77.0996 29.3984C77.2754 29.5586 77.3633 29.7617 77.3633 30.0078C77.3633 30.2539 77.2754 30.457 77.0996 30.6172C76.9277 30.7773 76.6992 30.8574 76.4141 30.8574C76.125 30.8574 75.8945 30.7773 75.7227 30.6172C75.5508 30.457 75.4648 30.2539 75.4648 30.0078ZM81.2773 36.7988C81.4844 36.7988 81.668 36.7598 81.8281 36.6816C81.9883 36.5996 82.1133 36.4863 82.2031 36.3418C82.2969 36.1934 82.3457 36.0195 82.3496 35.8203H83.9375C83.9336 36.2656 83.8145 36.6621 83.5801 37.0098C83.3457 37.3535 83.0312 37.625 82.6367 37.8242C82.2422 38.0195 81.8008 38.1172 81.3125 38.1172C80.8203 38.1172 80.3906 38.0352 80.0234 37.8711C79.6602 37.707 79.3574 37.4805 79.1152 37.1914C78.873 36.8984 78.6914 36.5586 78.5703 36.1719C78.4492 35.7812 78.3887 35.3633 78.3887 34.918V34.748C78.3887 34.2988 78.4492 33.8809 78.5703 33.4941C78.6914 33.1035 78.873 32.7637 79.1152 32.4746C79.3574 32.1816 79.6602 31.9531 80.0234 31.7891C80.3867 31.625 80.8125 31.543 81.3008 31.543C81.8203 31.543 82.2754 31.6426 82.666 31.8418C83.0605 32.041 83.3691 32.3262 83.5918 32.6973C83.8184 33.0645 83.9336 33.5 83.9375 34.0039H82.3496C82.3457 33.793 82.3008 33.6016 82.2148 33.4297C82.1328 33.2578 82.0117 33.1211 81.8516 33.0195C81.6953 32.9141 81.502 32.8613 81.2715 32.8613C81.0254 32.8613 80.8242 32.9141 80.668 33.0195C80.5117 33.1211 80.3906 33.2617 80.3047 33.4414C80.2188 33.6172 80.1582 33.8184 80.123 34.0449C80.0918 34.2676 80.0762 34.502 80.0762 34.748V34.918C80.0762 35.1641 80.0918 35.4004 80.123 35.627C80.1543 35.8535 80.2129 36.0547 80.2988 36.2305C80.3887 36.4062 80.5117 36.5449 80.668 36.6465C80.8242 36.748 81.0273 36.7988 81.2773 36.7988ZM86.5625 29V38H84.875V29H86.5625ZM86.3223 34.6074H85.8594C85.8633 34.166 85.9219 33.7598 86.0352 33.3887C86.1484 33.0137 86.3105 32.6895 86.5215 32.416C86.7324 32.1387 86.9844 31.9238 87.2773 31.7715C87.5742 31.6191 87.9023 31.543 88.2617 31.543C88.5742 31.543 88.8574 31.5879 89.1113 31.6777C89.3691 31.7637 89.5898 31.9043 89.7734 32.0996C89.9609 32.291 90.1055 32.543 90.207 32.8555C90.3086 33.168 90.3594 33.5469 90.3594 33.9922V38H88.6602V33.9805C88.6602 33.6992 88.6191 33.4785 88.5371 33.3184C88.459 33.1543 88.3438 33.0391 88.1914 32.9727C88.043 32.9023 87.8594 32.8672 87.6406 32.8672C87.3984 32.8672 87.1914 32.9121 87.0195 33.002C86.8516 33.0918 86.7168 33.2168 86.6152 33.377C86.5137 33.5332 86.4395 33.7168 86.3926 33.9277C86.3457 34.1387 86.3223 34.3652 86.3223 34.6074ZM94.5605 38.1172C94.0684 38.1172 93.627 38.0391 93.2363 37.8828C92.8457 37.7227 92.5137 37.502 92.2402 37.2207C91.9707 36.9395 91.7637 36.6133 91.6191 36.2422C91.4746 35.8672 91.4023 35.4688 91.4023 35.0469V34.8125C91.4023 34.332 91.4707 33.8926 91.6074 33.4941C91.7441 33.0957 91.9395 32.75 92.1934 32.457C92.4512 32.1641 92.7637 31.9395 93.1309 31.7832C93.498 31.623 93.9121 31.543 94.373 31.543C94.8223 31.543 95.2207 31.6172 95.5684 31.7656C95.916 31.9141 96.207 32.125 96.4414 32.3984C96.6797 32.6719 96.8594 33 96.9805 33.3828C97.1016 33.7617 97.1621 34.1836 97.1621 34.6484V35.3516H92.123V34.2266H95.5039V34.0977C95.5039 33.8633 95.4609 33.6543 95.375 33.4707C95.293 33.2832 95.168 33.1348 95 33.0254C94.832 32.916 94.6172 32.8613 94.3555 32.8613C94.1328 32.8613 93.9414 32.9102 93.7812 33.0078C93.6211 33.1055 93.4902 33.2422 93.3887 33.418C93.291 33.5938 93.2168 33.8008 93.166 34.0391C93.1191 34.2734 93.0957 34.5312 93.0957 34.8125V35.0469C93.0957 35.3008 93.1309 35.5352 93.2012 35.75C93.2754 35.9648 93.3789 36.1504 93.5117 36.3066C93.6484 36.4629 93.8125 36.584 94.0039 36.6699C94.1992 36.7559 94.4199 36.7988 94.666 36.7988C94.9707 36.7988 95.2539 36.7402 95.5156 36.623C95.7812 36.502 96.0098 36.3203 96.2012 36.0781L97.0215 36.9688C96.8887 37.1602 96.707 37.3438 96.4766 37.5195C96.25 37.6953 95.9766 37.8398 95.6562 37.9531C95.3359 38.0625 94.9707 38.1172 94.5605 38.1172ZM101.551 36.248C101.551 36.127 101.516 36.0176 101.445 35.9199C101.375 35.8223 101.244 35.7324 101.053 35.6504C100.865 35.5645 100.594 35.4863 100.238 35.416C99.918 35.3457 99.6191 35.2578 99.3418 35.1523C99.0684 35.043 98.8301 34.9121 98.627 34.7598C98.4277 34.6074 98.2715 34.4277 98.1582 34.2207C98.0449 34.0098 97.9883 33.7695 97.9883 33.5C97.9883 33.2344 98.0449 32.9844 98.1582 32.75C98.2754 32.5156 98.4414 32.3086 98.6562 32.1289C98.875 31.9453 99.1406 31.8027 99.4531 31.7012C99.7695 31.5957 100.125 31.543 100.52 31.543C101.07 31.543 101.543 31.6309 101.938 31.8066C102.336 31.9824 102.641 32.2246 102.852 32.5332C103.066 32.8379 103.174 33.1855 103.174 33.5762H101.486C101.486 33.4121 101.451 33.2656 101.381 33.1367C101.314 33.0039 101.209 32.9004 101.064 32.8262C100.924 32.748 100.74 32.709 100.514 32.709C100.326 32.709 100.164 32.7422 100.027 32.8086C99.8906 32.8711 99.7852 32.957 99.7109 33.0664C99.6406 33.1719 99.6055 33.2891 99.6055 33.418C99.6055 33.5156 99.625 33.6035 99.6641 33.6816C99.707 33.7559 99.7754 33.8242 99.8691 33.8867C99.9629 33.9492 100.084 34.0078 100.232 34.0625C100.385 34.1133 100.572 34.1602 100.795 34.2031C101.252 34.2969 101.66 34.4199 102.02 34.5723C102.379 34.7207 102.664 34.9238 102.875 35.1816C103.086 35.4355 103.191 35.7695 103.191 36.1836C103.191 36.4648 103.129 36.7227 103.004 36.957C102.879 37.1914 102.699 37.3965 102.465 37.5723C102.23 37.7441 101.949 37.8789 101.621 37.9766C101.297 38.0703 100.932 38.1172 100.525 38.1172C99.9355 38.1172 99.4355 38.0117 99.0254 37.8008C98.6191 37.5898 98.3105 37.3223 98.0996 36.998C97.8926 36.6699 97.7891 36.334 97.7891 35.9902H99.3887C99.3965 36.2207 99.4551 36.4062 99.5645 36.5469C99.6777 36.6875 99.8203 36.7891 99.9922 36.8516C100.168 36.9141 100.357 36.9453 100.561 36.9453C100.779 36.9453 100.961 36.916 101.105 36.8574C101.25 36.7949 101.359 36.7129 101.434 36.6113C101.512 36.5059 101.551 36.3848 101.551 36.248ZM105.887 36.5762L105.881 37.707C105.881 38.1406 105.771 38.5781 105.553 39.0195C105.338 39.4609 105.064 39.8223 104.732 40.1035L103.854 39.6523C103.951 39.4727 104.047 39.293 104.141 39.1133C104.234 38.9336 104.312 38.7363 104.375 38.5215C104.438 38.3066 104.469 38.0625 104.469 37.7891V36.5762H105.887ZM36.1191 45V54H34.4316V45H36.1191ZM35.8789 50.6074H35.416C35.4199 50.166 35.4785 49.7598 35.5918 49.3887C35.7051 49.0137 35.8672 48.6895 36.0781 48.416C36.2891 48.1387 36.541 47.9238 36.834 47.7715C37.1309 47.6191 37.459 47.543 37.8184 47.543C38.1309 47.543 38.4141 47.5879 38.668 47.6777C38.9258 47.7637 39.1465 47.9043 39.3301 48.0996C39.5176 48.291 39.6621 48.543 39.7637 48.8555C39.8652 49.168 39.916 49.5469 39.916 49.9922V54H38.2168V49.9805C38.2168 49.6992 38.1758 49.4785 38.0938 49.3184C38.0156 49.1543 37.9004 49.0391 37.748 48.9727C37.5996 48.9023 37.416 48.8672 37.1973 48.8672C36.9551 48.8672 36.748 48.9121 36.5762 49.002C36.4082 49.0918 36.2734 49.2168 36.1719 49.377C36.0703 49.5332 35.9961 49.7168 35.9492 49.9277C35.9023 50.1387 35.8789 50.3652 35.8789 50.6074ZM44.6211 52.5703V49.7461C44.6211 49.543 44.5879 49.3691 44.5215 49.2246C44.4551 49.0762 44.3516 48.9609 44.2109 48.8789C44.0742 48.7969 43.8965 48.7559 43.6777 48.7559C43.4902 48.7559 43.3281 48.7891 43.1914 48.8555C43.0547 48.918 42.9492 49.0098 42.875 49.1309C42.8008 49.248 42.7637 49.3867 42.7637 49.5469H41.0762C41.0762 49.2773 41.1387 49.0215 41.2637 48.7793C41.3887 48.5371 41.5703 48.3242 41.8086 48.1406C42.0469 47.9531 42.3301 47.8066 42.6582 47.7012C42.9902 47.5957 43.3613 47.543 43.7715 47.543C44.2637 47.543 44.7012 47.625 45.084 47.7891C45.4668 47.9531 45.7676 48.1992 45.9863 48.5273C46.209 48.8555 46.3203 49.2656 46.3203 49.7578V52.4707C46.3203 52.8184 46.3418 53.1035 46.3848 53.3262C46.4277 53.5449 46.4902 53.7363 46.5723 53.9004V54H44.8672C44.7852 53.8281 44.7227 53.6133 44.6797 53.3555C44.6406 53.0938 44.6211 52.832 44.6211 52.5703ZM44.8438 50.1387L44.8555 51.0938H43.9121C43.6895 51.0938 43.4961 51.1191 43.332 51.1699C43.168 51.2207 43.0332 51.293 42.9277 51.3867C42.8223 51.4766 42.7441 51.582 42.6934 51.7031C42.6465 51.8242 42.623 51.957 42.623 52.1016C42.623 52.2461 42.6562 52.377 42.7227 52.4941C42.7891 52.6074 42.8848 52.6973 43.0098 52.7637C43.1348 52.8262 43.2812 52.8574 43.4492 52.8574C43.7031 52.8574 43.9238 52.8066 44.1113 52.7051C44.2988 52.6035 44.4434 52.4785 44.5449 52.3301C44.6504 52.1816 44.7051 52.041 44.709 51.9082L45.1543 52.623C45.0918 52.7832 45.0059 52.9492 44.8965 53.1211C44.791 53.293 44.6562 53.4551 44.4922 53.6074C44.3281 53.7559 44.1309 53.8789 43.9004 53.9766C43.6699 54.0703 43.3965 54.1172 43.0801 54.1172C42.6777 54.1172 42.3125 54.0371 41.9844 53.877C41.6602 53.7129 41.4023 53.4883 41.2109 53.2031C41.0234 52.9141 40.9297 52.5859 40.9297 52.2188C40.9297 51.8867 40.9922 51.5918 41.1172 51.334C41.2422 51.0762 41.4258 50.8594 41.668 50.6836C41.9141 50.5039 42.2207 50.3691 42.5879 50.2793C42.9551 50.1855 43.3809 50.1387 43.8652 50.1387H44.8438ZM49.6836 52.7695L51.0898 47.6602H52.8535L50.7148 54H49.6484L49.6836 52.7695ZM48.7168 47.6602L50.1289 52.7754L50.1582 54H49.0859L46.9473 47.6602H48.7168ZM56.4453 54.1172C55.9531 54.1172 55.5117 54.0391 55.1211 53.8828C54.7305 53.7227 54.3984 53.502 54.125 53.2207C53.8555 52.9395 53.6484 52.6133 53.5039 52.2422C53.3594 51.8672 53.2871 51.4688 53.2871 51.0469V50.8125C53.2871 50.332 53.3555 49.8926 53.4922 49.4941C53.6289 49.0957 53.8242 48.75 54.0781 48.457C54.3359 48.1641 54.6484 47.9395 55.0156 47.7832C55.3828 47.623 55.7969 47.543 56.2578 47.543C56.707 47.543 57.1055 47.6172 57.4531 47.7656C57.8008 47.9141 58.0918 48.125 58.3262 48.3984C58.5645 48.6719 58.7441 49 58.8652 49.3828C58.9863 49.7617 59.0469 50.1836 59.0469 50.6484V51.3516H54.0078V50.2266H57.3887V50.0977C57.3887 49.8633 57.3457 49.6543 57.2598 49.4707C57.1777 49.2832 57.0527 49.1348 56.8848 49.0254C56.7168 48.916 56.502 48.8613 56.2402 48.8613C56.0176 48.8613 55.8262 48.9102 55.666 49.0078C55.5059 49.1055 55.375 49.2422 55.2734 49.418C55.1758 49.5938 55.1016 49.8008 55.0508 50.0391C55.0039 50.2734 54.9805 50.5312 54.9805 50.8125V51.0469C54.9805 51.3008 55.0156 51.5352 55.0859 51.75C55.1602 51.9648 55.2637 52.1504 55.3965 52.3066C55.5332 52.4629 55.6973 52.584 55.8887 52.6699C56.084 52.7559 56.3047 52.7988 56.5508 52.7988C56.8555 52.7988 57.1387 52.7402 57.4004 52.623C57.666 52.502 57.8945 52.3203 58.0859 52.0781L58.9062 52.9688C58.7734 53.1602 58.5918 53.3438 58.3613 53.5195C58.1348 53.6953 57.8613 53.8398 57.541 53.9531C57.2207 54.0625 56.8555 54.1172 56.4453 54.1172ZM66.1016 47.6602V48.8555H62.4102V47.6602H66.1016ZM63.3242 46.0957H65.0117V52.0898C65.0117 52.2734 65.0352 52.4141 65.082 52.5117C65.1328 52.6094 65.207 52.6777 65.3047 52.7168C65.4023 52.752 65.5254 52.7695 65.6738 52.7695C65.7793 52.7695 65.873 52.7656 65.9551 52.7578C66.041 52.7461 66.1133 52.7344 66.1719 52.7227L66.1777 53.9648C66.0332 54.0117 65.877 54.0488 65.709 54.0762C65.541 54.1035 65.3555 54.1172 65.1523 54.1172C64.7812 54.1172 64.457 54.0566 64.1797 53.9355C63.9062 53.8105 63.6953 53.6113 63.5469 53.3379C63.3984 53.0645 63.3242 52.7051 63.3242 52.2598V46.0957ZM68.709 45V54H67.0215V45H68.709ZM68.4688 50.6074H68.0059C68.0098 50.166 68.0684 49.7598 68.1816 49.3887C68.2949 49.0137 68.457 48.6895 68.668 48.416C68.8789 48.1387 69.1309 47.9238 69.4238 47.7715C69.7207 47.6191 70.0488 47.543 70.4082 47.543C70.7207 47.543 71.0039 47.5879 71.2578 47.6777C71.5156 47.7637 71.7363 47.9043 71.9199 48.0996C72.1074 48.291 72.252 48.543 72.3535 48.8555C72.4551 49.168 72.5059 49.5469 72.5059 49.9922V54H70.8066V49.9805C70.8066 49.6992 70.7656 49.4785 70.6836 49.3184C70.6055 49.1543 70.4902 49.0391 70.3379 48.9727C70.1895 48.9023 70.0059 48.8672 69.7871 48.8672C69.5449 48.8672 69.3379 48.9121 69.166 49.002C68.998 49.0918 68.8633 49.2168 68.7617 49.377C68.6602 49.5332 68.5859 49.7168 68.5391 49.9277C68.4922 50.1387 68.4688 50.3652 68.4688 50.6074ZM76.707 54.1172C76.2148 54.1172 75.7734 54.0391 75.3828 53.8828C74.9922 53.7227 74.6602 53.502 74.3867 53.2207C74.1172 52.9395 73.9102 52.6133 73.7656 52.2422C73.6211 51.8672 73.5488 51.4688 73.5488 51.0469V50.8125C73.5488 50.332 73.6172 49.8926 73.7539 49.4941C73.8906 49.0957 74.0859 48.75 74.3398 48.457C74.5977 48.1641 74.9102 47.9395 75.2773 47.7832C75.6445 47.623 76.0586 47.543 76.5195 47.543C76.9688 47.543 77.3672 47.6172 77.7148 47.7656C78.0625 47.9141 78.3535 48.125 78.5879 48.3984C78.8262 48.6719 79.0059 49 79.127 49.3828C79.248 49.7617 79.3086 50.1836 79.3086 50.6484V51.3516H74.2695V50.2266H77.6504V50.0977C77.6504 49.8633 77.6074 49.6543 77.5215 49.4707C77.4395 49.2832 77.3145 49.1348 77.1465 49.0254C76.9785 48.916 76.7637 48.8613 76.502 48.8613C76.2793 48.8613 76.0879 48.9102 75.9277 49.0078C75.7676 49.1055 75.6367 49.2422 75.5352 49.418C75.4375 49.5938 75.3633 49.8008 75.3125 50.0391C75.2656 50.2734 75.2422 50.5312 75.2422 50.8125V51.0469C75.2422 51.3008 75.2773 51.5352 75.3477 51.75C75.4219 51.9648 75.5254 52.1504 75.6582 52.3066C75.7949 52.4629 75.959 52.584 76.1504 52.6699C76.3457 52.7559 76.5664 52.7988 76.8125 52.7988C77.1172 52.7988 77.4004 52.7402 77.6621 52.623C77.9277 52.502 78.1562 52.3203 78.3477 52.0781L79.168 52.9688C79.0352 53.1602 78.8535 53.3438 78.623 53.5195C78.3965 53.6953 78.123 53.8398 77.8027 53.9531C77.4824 54.0625 77.1172 54.1172 76.707 54.1172ZM82.0508 47.6602V54H80.3574V47.6602H82.0508ZM80.252 46.0078C80.252 45.7617 80.3379 45.5586 80.5098 45.3984C80.6816 45.2383 80.9121 45.1582 81.2012 45.1582C81.4863 45.1582 81.7148 45.2383 81.8867 45.3984C82.0625 45.5586 82.1504 45.7617 82.1504 46.0078C82.1504 46.2539 82.0625 46.457 81.8867 46.6172C81.7148 46.7773 81.4863 46.8574 81.2012 46.8574C80.9121 46.8574 80.6816 46.7773 80.5098 46.6172C80.3379 46.457 80.252 46.2539 80.252 46.0078ZM85.1328 49.043V54H83.4453V47.6602H85.0332L85.1328 49.043ZM87.043 47.6191L87.0137 49.1836C86.9316 49.1719 86.832 49.1621 86.7148 49.1543C86.6016 49.1426 86.498 49.1367 86.4043 49.1367C86.166 49.1367 85.959 49.168 85.7832 49.2305C85.6113 49.2891 85.4668 49.377 85.3496 49.4941C85.2363 49.6113 85.1504 49.7539 85.0918 49.9219C85.0371 50.0898 85.0059 50.2812 84.998 50.4961L84.6582 50.3906C84.6582 49.9805 84.6992 49.6035 84.7812 49.2598C84.8633 48.9121 84.9824 48.6094 85.1387 48.3516C85.2988 48.0938 85.4941 47.8945 85.7246 47.7539C85.9551 47.6133 86.2188 47.543 86.5156 47.543C86.6094 47.543 86.7051 47.5508 86.8027 47.5664C86.9004 47.5781 86.9805 47.5957 87.043 47.6191ZM19.9062 61H21.5938V68.5469L21.4238 70H19.9062V61ZM25.6074 66.7656V66.8887C25.6074 67.3613 25.5566 67.7949 25.4551 68.1895C25.3574 68.584 25.2051 68.9258 24.998 69.2148C24.791 69.5 24.5332 69.7227 24.2246 69.8828C23.9199 70.0391 23.5605 70.1172 23.1465 70.1172C22.7598 70.1172 22.4238 70.0391 22.1387 69.8828C21.8574 69.7266 21.6211 69.5059 21.4297 69.2207C21.2383 68.9355 21.084 68.6016 20.9668 68.2188C20.8496 67.8359 20.7617 67.418 20.7031 66.9648V66.6953C20.7617 66.2422 20.8496 65.8242 20.9668 65.4414C21.084 65.0586 21.2383 64.7246 21.4297 64.4395C21.6211 64.1543 21.8574 63.9336 22.1387 63.7773C22.4199 63.6211 22.752 63.543 23.1348 63.543C23.5527 63.543 23.916 63.623 24.2246 63.7832C24.5371 63.9395 24.7949 64.1621 24.998 64.4512C25.2051 64.7363 25.3574 65.0762 25.4551 65.4707C25.5566 65.8613 25.6074 66.293 25.6074 66.7656ZM23.9199 66.8887V66.7656C23.9199 66.5078 23.9004 66.2656 23.8613 66.0391C23.8262 65.8086 23.7637 65.6074 23.6738 65.4355C23.584 65.2598 23.4609 65.1211 23.3047 65.0195C23.1523 64.918 22.9551 64.8672 22.7129 64.8672C22.4824 64.8672 22.2871 64.9062 22.127 64.9844C21.9668 65.0625 21.834 65.1719 21.7285 65.3125C21.627 65.4531 21.5508 65.6211 21.5 65.8164C21.4492 66.0078 21.418 66.2188 21.4062 66.4492V67.2168C21.418 67.5254 21.4688 67.7988 21.5586 68.0371C21.6523 68.2715 21.793 68.457 21.9805 68.5938C22.1719 68.7266 22.4199 68.793 22.7246 68.793C22.9629 68.793 23.1602 68.7461 23.3164 68.6523C23.4727 68.5586 23.5938 68.4258 23.6797 68.2539C23.7695 68.082 23.832 67.8809 23.8672 67.6504C23.9023 67.416 23.9199 67.1621 23.9199 66.8887ZM29.5742 70.1172C29.082 70.1172 28.6406 70.0391 28.25 69.8828C27.8594 69.7227 27.5273 69.502 27.2539 69.2207C26.9844 68.9395 26.7773 68.6133 26.6328 68.2422C26.4883 67.8672 26.416 67.4688 26.416 67.0469V66.8125C26.416 66.332 26.4844 65.8926 26.6211 65.4941C26.7578 65.0957 26.9531 64.75 27.207 64.457C27.4648 64.1641 27.7773 63.9395 28.1445 63.7832C28.5117 63.623 28.9258 63.543 29.3867 63.543C29.8359 63.543 30.2344 63.6172 30.582 63.7656C30.9297 63.9141 31.2207 64.125 31.4551 64.3984C31.6934 64.6719 31.873 65 31.9941 65.3828C32.1152 65.7617 32.1758 66.1836 32.1758 66.6484V67.3516H27.1367V66.2266H30.5176V66.0977C30.5176 65.8633 30.4746 65.6543 30.3887 65.4707C30.3066 65.2832 30.1816 65.1348 30.0137 65.0254C29.8457 64.916 29.6309 64.8613 29.3691 64.8613C29.1465 64.8613 28.9551 64.9102 28.7949 65.0078C28.6348 65.1055 28.5039 65.2422 28.4023 65.418C28.3047 65.5938 28.2305 65.8008 28.1797 66.0391C28.1328 66.2734 28.1094 66.5312 28.1094 66.8125V67.0469C28.1094 67.3008 28.1445 67.5352 28.2148 67.75C28.2891 67.9648 28.3926 68.1504 28.5254 68.3066C28.6621 68.4629 28.8262 68.584 29.0176 68.6699C29.2129 68.7559 29.4336 68.7988 29.6797 68.7988C29.9844 68.7988 30.2676 68.7402 30.5293 68.623C30.7949 68.502 31.0234 68.3203 31.2148 68.0781L32.0352 68.9688C31.9023 69.1602 31.7207 69.3438 31.4902 69.5195C31.2637 69.6953 30.9902 69.8398 30.6699 69.9531C30.3496 70.0625 29.9844 70.1172 29.5742 70.1172ZM37.1504 63.6602H38.6797V69.7891C38.6797 70.3672 38.5508 70.8574 38.293 71.2598C38.0391 71.666 37.6836 71.9727 37.2266 72.1797C36.7695 72.3906 36.2383 72.4961 35.6328 72.4961C35.3672 72.4961 35.0859 72.4609 34.7891 72.3906C34.4961 72.3203 34.2148 72.2109 33.9453 72.0625C33.6797 71.9141 33.457 71.7266 33.2773 71.5L34.0215 70.5039C34.2168 70.7305 34.4434 70.9062 34.7012 71.0312C34.959 71.1602 35.2441 71.2246 35.5566 71.2246C35.8613 71.2246 36.1191 71.168 36.3301 71.0547C36.541 70.9453 36.7031 70.7832 36.8164 70.5684C36.9297 70.3574 36.9863 70.1016 36.9863 69.8008V65.125L37.1504 63.6602ZM32.8848 66.9062V66.7832C32.8848 66.2988 32.9434 65.8594 33.0605 65.4648C33.1816 65.0664 33.3516 64.7246 33.5703 64.4395C33.793 64.1543 34.0625 63.9336 34.3789 63.7773C34.6953 63.6211 35.0527 63.543 35.4512 63.543C35.873 63.543 36.2266 63.6211 36.5117 63.7773C36.7969 63.9336 37.0312 64.1562 37.2148 64.4453C37.3984 64.7305 37.541 65.0684 37.6426 65.459C37.748 65.8457 37.8301 66.2695 37.8887 66.7305V67C37.8301 67.4414 37.7422 67.8516 37.625 68.2305C37.5078 68.6094 37.3535 68.9414 37.1621 69.2266C36.9707 69.5078 36.7324 69.7266 36.4473 69.8828C36.166 70.0391 35.8301 70.1172 35.4395 70.1172C35.0488 70.1172 34.6953 70.0371 34.3789 69.877C34.0664 69.7168 33.7988 69.4922 33.5762 69.2031C33.3535 68.9141 33.1816 68.5742 33.0605 68.1836C32.9434 67.793 32.8848 67.3672 32.8848 66.9062ZM34.5723 66.7832V66.9062C34.5723 67.168 34.5977 67.4121 34.6484 67.6387C34.6992 67.8652 34.7773 68.0664 34.8828 68.2422C34.9922 68.4141 35.127 68.5488 35.2871 68.6465C35.4512 68.7402 35.6445 68.7871 35.8672 68.7871C36.1758 68.7871 36.4277 68.7227 36.623 68.5938C36.8184 68.4609 36.9648 68.2793 37.0625 68.0488C37.1602 67.8184 37.2168 67.5527 37.2324 67.252V66.4844C37.2246 66.2383 37.1914 66.0176 37.1328 65.8223C37.0742 65.623 36.9922 65.4531 36.8867 65.3125C36.7812 65.1719 36.6445 65.0625 36.4766 64.9844C36.3086 64.9062 36.1094 64.8672 35.8789 64.8672C35.6562 64.8672 35.4629 64.918 35.2988 65.0195C35.1387 65.1172 35.0039 65.252 34.8945 65.4238C34.7891 65.5957 34.709 65.7988 34.6543 66.0332C34.5996 66.2637 34.5723 66.5137 34.5723 66.7832ZM41.7734 63.6602V70H40.0801V63.6602H41.7734ZM39.9746 62.0078C39.9746 61.7617 40.0605 61.5586 40.2324 61.3984C40.4043 61.2383 40.6348 61.1582 40.9238 61.1582C41.209 61.1582 41.4375 61.2383 41.6094 61.3984C41.7852 61.5586 41.873 61.7617 41.873 62.0078C41.873 62.2539 41.7852 62.457 41.6094 62.6172C41.4375 62.7773 41.209 62.8574 40.9238 62.8574C40.6348 62.8574 40.4043 62.7773 40.2324 62.6172C40.0605 62.457 39.9746 62.2539 39.9746 62.0078ZM44.8203 65.0137V70H43.1328V63.6602H44.7148L44.8203 65.0137ZM44.5742 66.6074H44.1172C44.1172 66.1387 44.1777 65.7168 44.2988 65.3418C44.4199 64.9629 44.5898 64.6406 44.8086 64.375C45.0273 64.1055 45.2871 63.9004 45.5879 63.7598C45.8926 63.6152 46.2324 63.543 46.6074 63.543C46.9043 63.543 47.1758 63.5859 47.4219 63.6719C47.668 63.7578 47.8789 63.8945 48.0547 64.082C48.2344 64.2695 48.3711 64.5176 48.4648 64.8262C48.5625 65.1348 48.6113 65.5117 48.6113 65.957V70H46.9121V65.9512C46.9121 65.6699 46.873 65.4512 46.7949 65.2949C46.7168 65.1387 46.6016 65.0293 46.4492 64.9668C46.3008 64.9004 46.1172 64.8672 45.8984 64.8672C45.6719 64.8672 45.4746 64.9121 45.3066 65.002C45.1426 65.0918 45.0059 65.2168 44.8965 65.377C44.791 65.5332 44.7109 65.7168 44.6562 65.9277C44.6016 66.1387 44.5742 66.3652 44.5742 66.6074ZM51.5469 65.0137V70H49.8594V63.6602H51.4414L51.5469 65.0137ZM51.3008 66.6074H50.8438C50.8438 66.1387 50.9043 65.7168 51.0254 65.3418C51.1465 64.9629 51.3164 64.6406 51.5352 64.375C51.7539 64.1055 52.0137 63.9004 52.3145 63.7598C52.6191 63.6152 52.959 63.543 53.334 63.543C53.6309 63.543 53.9023 63.5859 54.1484 63.6719C54.3945 63.7578 54.6055 63.8945 54.7812 64.082C54.9609 64.2695 55.0977 64.5176 55.1914 64.8262C55.2891 65.1348 55.3379 65.5117 55.3379 65.957V70H53.6387V65.9512C53.6387 65.6699 53.5996 65.4512 53.5215 65.2949C53.4434 65.1387 53.3281 65.0293 53.1758 64.9668C53.0273 64.9004 52.8438 64.8672 52.625 64.8672C52.3984 64.8672 52.2012 64.9121 52.0332 65.002C51.8691 65.0918 51.7324 65.2168 51.623 65.377C51.5176 65.5332 51.4375 65.7168 51.3828 65.9277C51.3281 66.1387 51.3008 66.3652 51.3008 66.6074ZM58.4023 63.6602V70H56.709V63.6602H58.4023ZM56.6035 62.0078C56.6035 61.7617 56.6895 61.5586 56.8613 61.3984C57.0332 61.2383 57.2637 61.1582 57.5527 61.1582C57.8379 61.1582 58.0664 61.2383 58.2383 61.3984C58.4141 61.5586 58.502 61.7617 58.502 62.0078C58.502 62.2539 58.4141 62.457 58.2383 62.6172C58.0664 62.7773 57.8379 62.8574 57.5527 62.8574C57.2637 62.8574 57.0332 62.7773 56.8613 62.6172C56.6895 62.457 56.6035 62.2539 56.6035 62.0078ZM61.4492 65.0137V70H59.7617V63.6602H61.3438L61.4492 65.0137ZM61.2031 66.6074H60.7461C60.7461 66.1387 60.8066 65.7168 60.9277 65.3418C61.0488 64.9629 61.2188 64.6406 61.4375 64.375C61.6562 64.1055 61.916 63.9004 62.2168 63.7598C62.5215 63.6152 62.8613 63.543 63.2363 63.543C63.5332 63.543 63.8047 63.5859 64.0508 63.6719C64.2969 63.7578 64.5078 63.8945 64.6836 64.082C64.8633 64.2695 65 64.5176 65.0938 64.8262C65.1914 65.1348 65.2402 65.5117 65.2402 65.957V70H63.541V65.9512C63.541 65.6699 63.502 65.4512 63.4238 65.2949C63.3457 65.1387 63.2305 65.0293 63.0781 64.9668C62.9297 64.9004 62.7461 64.8672 62.5273 64.8672C62.3008 64.8672 62.1035 64.9121 61.9355 65.002C61.7715 65.0918 61.6348 65.2168 61.5254 65.377C61.4199 65.5332 61.3398 65.7168 61.2852 65.9277C61.2305 66.1387 61.2031 66.3652 61.2031 66.6074ZM70.5371 63.6602H72.0664V69.7891C72.0664 70.3672 71.9375 70.8574 71.6797 71.2598C71.4258 71.666 71.0703 71.9727 70.6133 72.1797C70.1562 72.3906 69.625 72.4961 69.0195 72.4961C68.7539 72.4961 68.4727 72.4609 68.1758 72.3906C67.8828 72.3203 67.6016 72.2109 67.332 72.0625C67.0664 71.9141 66.8438 71.7266 66.6641 71.5L67.4082 70.5039C67.6035 70.7305 67.8301 70.9062 68.0879 71.0312C68.3457 71.1602 68.6309 71.2246 68.9434 71.2246C69.248 71.2246 69.5059 71.168 69.7168 71.0547C69.9277 70.9453 70.0898 70.7832 70.2031 70.5684C70.3164 70.3574 70.373 70.1016 70.373 69.8008V65.125L70.5371 63.6602ZM66.2715 66.9062V66.7832C66.2715 66.2988 66.3301 65.8594 66.4473 65.4648C66.5684 65.0664 66.7383 64.7246 66.957 64.4395C67.1797 64.1543 67.4492 63.9336 67.7656 63.7773C68.082 63.6211 68.4395 63.543 68.8379 63.543C69.2598 63.543 69.6133 63.6211 69.8984 63.7773C70.1836 63.9336 70.418 64.1562 70.6016 64.4453C70.7852 64.7305 70.9277 65.0684 71.0293 65.459C71.1348 65.8457 71.2168 66.2695 71.2754 66.7305V67C71.2168 67.4414 71.1289 67.8516 71.0117 68.2305C70.8945 68.6094 70.7402 68.9414 70.5488 69.2266C70.3574 69.5078 70.1191 69.7266 69.834 69.8828C69.5527 70.0391 69.2168 70.1172 68.8262 70.1172C68.4355 70.1172 68.082 70.0371 67.7656 69.877C67.4531 69.7168 67.1855 69.4922 66.9629 69.2031C66.7402 68.9141 66.5684 68.5742 66.4473 68.1836C66.3301 67.793 66.2715 67.3672 66.2715 66.9062ZM67.959 66.7832V66.9062C67.959 67.168 67.9844 67.4121 68.0352 67.6387C68.0859 67.8652 68.1641 68.0664 68.2695 68.2422C68.3789 68.4141 68.5137 68.5488 68.6738 68.6465C68.8379 68.7402 69.0312 68.7871 69.2539 68.7871C69.5625 68.7871 69.8145 68.7227 70.0098 68.5938C70.2051 68.4609 70.3516 68.2793 70.4492 68.0488C70.5469 67.8184 70.6035 67.5527 70.6191 67.252V66.4844C70.6113 66.2383 70.5781 66.0176 70.5195 65.8223C70.4609 65.623 70.3789 65.4531 70.2734 65.3125C70.168 65.1719 70.0312 65.0625 69.8633 64.9844C69.6953 64.9062 69.4961 64.8672 69.2656 64.8672C69.043 64.8672 68.8496 64.918 68.6855 65.0195C68.5254 65.1172 68.3906 65.252 68.2812 65.4238C68.1758 65.5957 68.0957 65.7988 68.041 66.0332C67.9863 66.2637 67.959 66.5137 67.959 66.7832ZM78.1484 63.6602V70H76.4551V63.6602H78.1484ZM76.3496 62.0078C76.3496 61.7617 76.4355 61.5586 76.6074 61.3984C76.7793 61.2383 77.0098 61.1582 77.2988 61.1582C77.584 61.1582 77.8125 61.2383 77.9844 61.3984C78.1602 61.5586 78.248 61.7617 78.248 62.0078C78.248 62.2539 78.1602 62.457 77.9844 62.6172C77.8125 62.7773 77.584 62.8574 77.2988 62.8574C77.0098 62.8574 76.7793 62.7773 76.6074 62.6172C76.4355 62.457 76.3496 62.2539 76.3496 62.0078ZM81.1953 65.0137V70H79.5078V63.6602H81.0898L81.1953 65.0137ZM80.9492 66.6074H80.4922C80.4922 66.1387 80.5527 65.7168 80.6738 65.3418C80.7949 64.9629 80.9648 64.6406 81.1836 64.375C81.4023 64.1055 81.6621 63.9004 81.9629 63.7598C82.2676 63.6152 82.6074 63.543 82.9824 63.543C83.2793 63.543 83.5508 63.5859 83.7969 63.6719C84.043 63.7578 84.2539 63.8945 84.4297 64.082C84.6094 64.2695 84.7461 64.5176 84.8398 64.8262C84.9375 65.1348 84.9863 65.5117 84.9863 65.957V70H83.2871V65.9512C83.2871 65.6699 83.248 65.4512 83.1699 65.2949C83.0918 65.1387 82.9766 65.0293 82.8242 64.9668C82.6758 64.9004 82.4922 64.8672 82.2734 64.8672C82.0469 64.8672 81.8496 64.9121 81.6816 65.002C81.5176 65.0918 81.3809 65.2168 81.2715 65.377C81.166 65.5332 81.0859 65.7168 81.0312 65.9277C80.9766 66.1387 80.9492 66.3652 80.9492 66.6074ZM92.6797 68.5703V65.7461C92.6797 65.543 92.6465 65.3691 92.5801 65.2246C92.5137 65.0762 92.4102 64.9609 92.2695 64.8789C92.1328 64.7969 91.9551 64.7559 91.7363 64.7559C91.5488 64.7559 91.3867 64.7891 91.25 64.8555C91.1133 64.918 91.0078 65.0098 90.9336 65.1309C90.8594 65.248 90.8223 65.3867 90.8223 65.5469H89.1348C89.1348 65.2773 89.1973 65.0215 89.3223 64.7793C89.4473 64.5371 89.6289 64.3242 89.8672 64.1406C90.1055 63.9531 90.3887 63.8066 90.7168 63.7012C91.0488 63.5957 91.4199 63.543 91.8301 63.543C92.3223 63.543 92.7598 63.625 93.1426 63.7891C93.5254 63.9531 93.8262 64.1992 94.0449 64.5273C94.2676 64.8555 94.3789 65.2656 94.3789 65.7578V68.4707C94.3789 68.8184 94.4004 69.1035 94.4434 69.3262C94.4863 69.5449 94.5488 69.7363 94.6309 69.9004V70H92.9258C92.8438 69.8281 92.7812 69.6133 92.7383 69.3555C92.6992 69.0938 92.6797 68.832 92.6797 68.5703ZM92.9023 66.1387L92.9141 67.0938H91.9707C91.748 67.0938 91.5547 67.1191 91.3906 67.1699C91.2266 67.2207 91.0918 67.293 90.9863 67.3867C90.8809 67.4766 90.8027 67.582 90.752 67.7031C90.7051 67.8242 90.6816 67.957 90.6816 68.1016C90.6816 68.2461 90.7148 68.377 90.7812 68.4941C90.8477 68.6074 90.9434 68.6973 91.0684 68.7637C91.1934 68.8262 91.3398 68.8574 91.5078 68.8574C91.7617 68.8574 91.9824 68.8066 92.1699 68.7051C92.3574 68.6035 92.502 68.4785 92.6035 68.3301C92.709 68.1816 92.7637 68.041 92.7676 67.9082L93.2129 68.623C93.1504 68.7832 93.0645 68.9492 92.9551 69.1211C92.8496 69.293 92.7148 69.4551 92.5508 69.6074C92.3867 69.7559 92.1895 69.8789 91.959 69.9766C91.7285 70.0703 91.4551 70.1172 91.1387 70.1172C90.7363 70.1172 90.3711 70.0371 90.043 69.877C89.7188 69.7129 89.4609 69.4883 89.2695 69.2031C89.082 68.9141 88.9883 68.5859 88.9883 68.2188C88.9883 67.8867 89.0508 67.5918 89.1758 67.334C89.3008 67.0762 89.4844 66.8594 89.7266 66.6836C89.9727 66.5039 90.2793 66.3691 90.6465 66.2793C91.0137 66.1855 91.4395 66.1387 91.9238 66.1387H92.9023ZM97.332 65.0137V70H95.6445V63.6602H97.2266L97.332 65.0137ZM97.0859 66.6074H96.6289C96.6289 66.1387 96.6895 65.7168 96.8105 65.3418C96.9316 64.9629 97.1016 64.6406 97.3203 64.375C97.5391 64.1055 97.7988 63.9004 98.0996 63.7598C98.4043 63.6152 98.7441 63.543 99.1191 63.543C99.416 63.543 99.6875 63.5859 99.9336 63.6719C100.18 63.7578 100.391 63.8945 100.566 64.082C100.746 64.2695 100.883 64.5176 100.977 64.8262C101.074 65.1348 101.123 65.5117 101.123 65.957V70H99.4238V65.9512C99.4238 65.6699 99.3848 65.4512 99.3066 65.2949C99.2285 65.1387 99.1133 65.0293 98.9609 64.9668C98.8125 64.9004 98.6289 64.8672 98.4102 64.8672C98.1836 64.8672 97.9863 64.9121 97.8184 65.002C97.6543 65.0918 97.5176 65.2168 97.4082 65.377C97.3027 65.5332 97.2227 65.7168 97.168 65.9277C97.1133 66.1387 97.0859 66.3652 97.0859 66.6074ZM45.957 79.6602V86H44.2637V79.6602H45.957ZM44.1582 78.0078C44.1582 77.7617 44.2441 77.5586 44.416 77.3984C44.5879 77.2383 44.8184 77.1582 45.1074 77.1582C45.3926 77.1582 45.6211 77.2383 45.793 77.3984C45.9688 77.5586 46.0566 77.7617 46.0566 78.0078C46.0566 78.2539 45.9688 78.457 45.793 78.6172C45.6211 78.7773 45.3926 78.8574 45.1074 78.8574C44.8184 78.8574 44.5879 78.7773 44.416 78.6172C44.2441 78.457 44.1582 78.2539 44.1582 78.0078ZM51.0957 84.6172V77H52.7949V86H51.2656L51.0957 84.6172ZM47.0879 82.9062V82.7832C47.0879 82.2988 47.1426 81.8594 47.252 81.4648C47.3613 81.0664 47.5215 80.7246 47.7324 80.4395C47.9434 80.1543 48.2031 79.9336 48.5117 79.7773C48.8203 79.6211 49.1719 79.543 49.5664 79.543C49.9375 79.543 50.2617 79.6211 50.5391 79.7773C50.8203 79.9336 51.0586 80.1562 51.2539 80.4453C51.4531 80.7305 51.6133 81.0684 51.7344 81.459C51.8555 81.8457 51.9434 82.2695 51.998 82.7305V83C51.9434 83.4414 51.8555 83.8516 51.7344 84.2305C51.6133 84.6094 51.4531 84.9414 51.2539 85.2266C51.0586 85.5078 50.8203 85.7266 50.5391 85.8828C50.2578 86.0391 49.9297 86.1172 49.5547 86.1172C49.1602 86.1172 48.8086 86.0371 48.5 85.877C48.1953 85.7168 47.9375 85.4922 47.7266 85.2031C47.5195 84.9141 47.3613 84.5742 47.252 84.1836C47.1426 83.793 47.0879 83.3672 47.0879 82.9062ZM48.7754 82.7832V82.9062C48.7754 83.168 48.7949 83.4121 48.834 83.6387C48.877 83.8652 48.9453 84.0664 49.0391 84.2422C49.1367 84.4141 49.2617 84.5488 49.4141 84.6465C49.5703 84.7402 49.7598 84.7871 49.9824 84.7871C50.2715 84.7871 50.5098 84.7227 50.6973 84.5938C50.8848 84.4609 51.0273 84.2793 51.125 84.0488C51.2266 83.8184 51.2852 83.5527 51.3008 83.252V82.4844C51.2891 82.2383 51.2539 82.0176 51.1953 81.8223C51.1406 81.623 51.0586 81.4531 50.9492 81.3125C50.8438 81.1719 50.7109 81.0625 50.5508 80.9844C50.3945 80.9062 50.209 80.8672 49.9941 80.8672C49.7754 80.8672 49.5879 80.918 49.4316 81.0195C49.2754 81.1172 49.1484 81.252 49.0508 81.4238C48.957 81.5957 48.8867 81.7988 48.8398 82.0332C48.7969 82.2637 48.7754 82.5137 48.7754 82.7832ZM57.0312 86.1172C56.5391 86.1172 56.0977 86.0391 55.707 85.8828C55.3164 85.7227 54.9844 85.502 54.7109 85.2207C54.4414 84.9395 54.2344 84.6133 54.0898 84.2422C53.9453 83.8672 53.873 83.4688 53.873 83.0469V82.8125C53.873 82.332 53.9414 81.8926 54.0781 81.4941C54.2148 81.0957 54.4102 80.75 54.6641 80.457C54.9219 80.1641 55.2344 79.9395 55.6016 79.7832C55.9688 79.623 56.3828 79.543 56.8438 79.543C57.293 79.543 57.6914 79.6172 58.0391 79.7656C58.3867 79.9141 58.6777 80.125 58.9121 80.3984C59.1504 80.6719 59.3301 81 59.4512 81.3828C59.5723 81.7617 59.6328 82.1836 59.6328 82.6484V83.3516H54.5938V82.2266H57.9746V82.0977C57.9746 81.8633 57.9316 81.6543 57.8457 81.4707C57.7637 81.2832 57.6387 81.1348 57.4707 81.0254C57.3027 80.916 57.0879 80.8613 56.8262 80.8613C56.6035 80.8613 56.4121 80.9102 56.252 81.0078C56.0918 81.1055 55.9609 81.2422 55.8594 81.418C55.7617 81.5938 55.6875 81.8008 55.6367 82.0391C55.5898 82.2734 55.5664 82.5312 55.5664 82.8125V83.0469C55.5664 83.3008 55.6016 83.5352 55.6719 83.75C55.7461 83.9648 55.8496 84.1504 55.9824 84.3066C56.1191 84.4629 56.2832 84.584 56.4746 84.6699C56.6699 84.7559 56.8906 84.7988 57.1367 84.7988C57.4414 84.7988 57.7246 84.7402 57.9863 84.623C58.252 84.502 58.4805 84.3203 58.6719 84.0781L59.4922 84.9688C59.3594 85.1602 59.1777 85.3438 58.9473 85.5195C58.7207 85.6953 58.4473 85.8398 58.127 85.9531C57.8066 86.0625 57.4414 86.1172 57.0312 86.1172ZM64.0156 84.5703V81.7461C64.0156 81.543 63.9824 81.3691 63.916 81.2246C63.8496 81.0762 63.7461 80.9609 63.6055 80.8789C63.4688 80.7969 63.291 80.7559 63.0723 80.7559C62.8848 80.7559 62.7227 80.7891 62.5859 80.8555C62.4492 80.918 62.3438 81.0098 62.2695 81.1309C62.1953 81.248 62.1582 81.3867 62.1582 81.5469H60.4707C60.4707 81.2773 60.5332 81.0215 60.6582 80.7793C60.7832 80.5371 60.9648 80.3242 61.2031 80.1406C61.4414 79.9531 61.7246 79.8066 62.0527 79.7012C62.3848 79.5957 62.7559 79.543 63.166 79.543C63.6582 79.543 64.0957 79.625 64.4785 79.7891C64.8613 79.9531 65.1621 80.1992 65.3809 80.5273C65.6035 80.8555 65.7148 81.2656 65.7148 81.7578V84.4707C65.7148 84.8184 65.7363 85.1035 65.7793 85.3262C65.8223 85.5449 65.8848 85.7363 65.9668 85.9004V86H64.2617C64.1797 85.8281 64.1172 85.6133 64.0742 85.3555C64.0352 85.0938 64.0156 84.832 64.0156 84.5703ZM64.2383 82.1387L64.25 83.0938H63.3066C63.084 83.0938 62.8906 83.1191 62.7266 83.1699C62.5625 83.2207 62.4277 83.293 62.3223 83.3867C62.2168 83.4766 62.1387 83.582 62.0879 83.7031C62.041 83.8242 62.0176 83.957 62.0176 84.1016C62.0176 84.2461 62.0508 84.377 62.1172 84.4941C62.1836 84.6074 62.2793 84.6973 62.4043 84.7637C62.5293 84.8262 62.6758 84.8574 62.8438 84.8574C63.0977 84.8574 63.3184 84.8066 63.5059 84.7051C63.6934 84.6035 63.8379 84.4785 63.9395 84.3301C64.0449 84.1816 64.0996 84.041 64.1035 83.9082L64.5488 84.623C64.4863 84.7832 64.4004 84.9492 64.291 85.1211C64.1855 85.293 64.0508 85.4551 63.8867 85.6074C63.7227 85.7559 63.5254 85.8789 63.2949 85.9766C63.0645 86.0703 62.791 86.1172 62.4746 86.1172C62.0723 86.1172 61.707 86.0371 61.3789 85.877C61.0547 85.7129 60.7969 85.4883 60.6055 85.2031C60.418 84.9141 60.3242 84.5859 60.3242 84.2188C60.3242 83.8867 60.3867 83.5918 60.5117 83.334C60.6367 83.0762 60.8203 82.8594 61.0625 82.6836C61.3086 82.5039 61.6152 82.3691 61.9824 82.2793C62.3496 82.1855 62.7754 82.1387 63.2598 82.1387H64.2383ZM71.9082 77.4688L71.7148 83.3926H70.3086L70.1094 77.4688H71.9082ZM70.0625 85.2266C70.0625 84.9766 70.1484 84.7695 70.3203 84.6055C70.4961 84.4375 70.7266 84.3535 71.0117 84.3535C71.3008 84.3535 71.5312 84.4375 71.7031 84.6055C71.875 84.7695 71.9609 84.9766 71.9609 85.2266C71.9609 85.4688 71.875 85.6738 71.7031 85.8418C71.5312 86.0098 71.3008 86.0938 71.0117 86.0938C70.7266 86.0938 70.4961 86.0098 70.3203 85.8418C70.1484 85.6738 70.0625 85.4688 70.0625 85.2266ZM74.8672 77V77.8906C74.8672 78.1445 74.8184 78.4062 74.7207 78.6758C74.627 78.9453 74.5 79.2012 74.3398 79.4434C74.1797 79.6816 74.0039 79.8848 73.8125 80.0527L73.0215 79.5957C73.166 79.3652 73.2891 79.1152 73.3906 78.8457C73.4922 78.5723 73.543 78.2559 73.543 77.8965V77H74.8672ZM76.8887 77V77.8906C76.8887 78.1445 76.8398 78.4062 76.7422 78.6758C76.6484 78.9453 76.5215 79.2012 76.3613 79.4434C76.2012 79.6816 76.0254 79.8848 75.834 80.0527L75.043 79.5957C75.1875 79.3652 75.3105 79.1152 75.4121 78.8457C75.5137 78.5723 75.5645 78.2559 75.5645 77.8965V77H76.8887Z" fill="white"/>
<path d="M582.522 55.1885C572.298 38.205 558.739 24.7831 541.846 14.9231C524.953 5.06306 506.26 0.111328 485.813 0.111328H188.358V75.5167C188.358 93.5862 183.926 110.179 175.062 125.251C166.199 140.324 154.176 152.225 138.95 160.999C123.724 169.773 106.962 174.161 88.7087 174.161H0.117188V591.887H187.963V186.149H597.879V111.091C597.879 90.8063 592.745 72.1721 582.522 55.1885Z" fill="#DCA54C"/>
<path d="M264.753 262.163C258.391 268.461 255.188 276.019 255.188 284.75V591.844H485.771C506.263 591.844 524.911 586.893 541.804 577.033C558.698 567.173 572.256 553.751 582.48 536.767C592.704 519.784 597.838 501.149 597.838 480.865V252.65H287.526C278.663 252.65 271.072 255.821 264.709 262.12L264.753 262.163Z" fill="#DCA54C"/>
<path d="M296.758 372V354C296.758 353.34 296.918 352.74 297.238 352.2C297.558 351.64 297.988 351.2 298.528 350.88C299.088 350.56 299.698 350.4 300.358 350.4H314.758C315.418 350.4 316.018 350.56 316.558 350.88C317.118 351.2 317.558 351.64 317.878 352.2C318.198 352.74 318.358 353.34 318.358 354V372H315.928V364.11H299.188V372H296.758ZM299.188 361.68H315.928V354C315.928 353.68 315.808 353.41 315.568 353.19C315.348 352.95 315.078 352.83 314.758 352.83H300.358C300.038 352.83 299.758 352.95 299.518 353.19C299.298 353.41 299.188 353.68 299.188 354V361.68ZM321.716 372V354.6H335.816C336.476 354.6 337.076 354.77 337.616 355.11C338.176 355.43 338.616 355.87 338.936 356.43C339.276 356.97 339.446 357.57 339.446 358.23V372H336.986V358.23C336.986 357.91 336.866 357.64 336.626 357.42C336.406 357.18 336.136 357.06 335.816 357.06H325.376C325.056 357.06 324.776 357.18 324.536 357.42C324.296 357.64 324.176 357.91 324.176 358.23V372H321.716ZM346.054 372C345.394 372 344.784 371.84 344.224 371.52C343.684 371.18 343.244 370.74 342.904 370.2C342.584 369.64 342.424 369.03 342.424 368.37V368.13H344.884V368.37C344.884 368.69 344.994 368.97 345.214 369.21C345.454 369.43 345.734 369.54 346.054 369.54H356.494C356.814 369.54 357.084 369.43 357.304 369.21C357.544 368.97 357.664 368.69 357.664 368.37V365.7C357.664 365.38 357.544 365.11 357.304 364.89C357.084 364.65 356.814 364.53 356.494 364.53H346.054C345.394 364.53 344.784 364.37 344.224 364.05C343.684 363.71 343.244 363.27 342.904 362.73C342.584 362.17 342.424 361.56 342.424 360.9V358.23C342.424 357.57 342.584 356.97 342.904 356.43C343.244 355.87 343.684 355.43 344.224 355.11C344.784 354.77 345.394 354.6 346.054 354.6H356.494C357.174 354.6 357.784 354.77 358.324 355.11C358.884 355.43 359.324 355.87 359.644 356.43C359.984 356.97 360.154 357.57 360.154 358.23V358.47H357.664V358.23C357.664 357.91 357.544 357.64 357.304 357.42C357.084 357.18 356.814 357.06 356.494 357.06H346.054C345.734 357.06 345.454 357.18 345.214 357.42C344.994 357.64 344.884 357.91 344.884 358.23V360.9C344.884 361.22 344.994 361.5 345.214 361.74C345.454 361.96 345.734 362.07 346.054 362.07H356.494C357.174 362.07 357.784 362.24 358.324 362.58C358.884 362.9 359.324 363.34 359.644 363.9C359.984 364.44 360.154 365.04 360.154 365.7V368.37C360.154 369.03 359.984 369.64 359.644 370.2C359.324 370.74 358.884 371.18 358.324 371.52C357.784 371.84 357.174 372 356.494 372H346.054ZM363.171 378.9V354.6H377.271C377.931 354.6 378.531 354.77 379.071 355.11C379.631 355.43 380.071 355.87 380.391 356.43C380.731 356.97 380.901 357.57 380.901 358.23V368.37C380.901 369.03 380.731 369.64 380.391 370.2C380.071 370.74 379.631 371.18 379.071 371.52C378.531 371.84 377.931 372 377.271 372H365.631V378.9H363.171ZM366.831 369.54H377.271C377.591 369.54 377.861 369.43 378.081 369.21C378.321 368.97 378.441 368.69 378.441 368.37V358.23C378.441 357.91 378.321 357.64 378.081 357.42C377.861 357.18 377.591 357.06 377.271 357.06H366.831C366.511 357.06 366.231 357.18 365.991 357.42C365.751 357.64 365.631 357.91 365.631 358.23V368.37C365.631 368.69 365.751 368.97 365.991 369.21C366.231 369.43 366.511 369.54 366.831 369.54ZM383.033 372V358.23C383.033 357.57 383.193 356.97 383.513 356.43C383.853 355.87 384.293 355.43 384.833 355.11C385.393 354.77 386.003 354.6 386.663 354.6H396.443V357.06H386.663C386.343 357.06 386.063 357.18 385.823 357.42C385.603 357.64 385.493 357.91 385.493 358.23V372H383.033ZM402.044 372C401.384 372 400.774 371.84 400.214 371.52C399.674 371.18 399.234 370.74 398.894 370.2C398.574 369.64 398.414 369.03 398.414 368.37V354.6H400.874V368.37C400.874 368.69 400.984 368.97 401.204 369.21C401.444 369.43 401.724 369.54 402.044 369.54H412.484C412.804 369.54 413.084 369.43 413.324 369.21C413.564 368.97 413.684 368.69 413.684 368.37V354.6H416.144V368.37C416.144 369.03 415.974 369.64 415.634 370.2C415.314 370.74 414.874 371.18 414.314 371.52C413.774 371.84 413.164 372 412.484 372H402.044ZM422.258 372C421.598 372 420.988 371.84 420.428 371.52C419.888 371.18 419.448 370.74 419.108 370.2C418.788 369.64 418.628 369.03 418.628 368.37V358.23C418.628 357.57 418.788 356.97 419.108 356.43C419.448 355.87 419.888 355.43 420.428 355.11C420.988 354.77 421.598 354.6 422.258 354.6H436.298V357.06H422.258C421.938 357.06 421.658 357.18 421.418 357.42C421.198 357.64 421.088 357.91 421.088 358.23V368.37C421.088 368.69 421.198 368.97 421.418 369.21C421.658 369.43 421.938 369.54 422.258 369.54H436.358V372H422.258ZM439.138 372V348.9H441.598V354.6H453.238C453.898 354.6 454.498 354.77 455.038 355.11C455.598 355.43 456.038 355.87 456.358 356.43C456.698 356.97 456.868 357.57 456.868 358.23V372H454.408V358.23C454.408 357.91 454.288 357.64 454.048 357.42C453.828 357.18 453.558 357.06 453.238 357.06H442.798C442.478 357.06 442.198 357.18 441.958 357.42C441.718 357.64 441.598 357.91 441.598 358.23V372H439.138ZM462.627 372C461.967 372 461.357 371.84 460.797 371.52C460.257 371.18 459.817 370.74 459.477 370.2C459.157 369.64 458.997 369.03 458.997 368.37V368.13H461.457V368.37C461.457 368.69 461.567 368.97 461.787 369.21C462.027 369.43 462.307 369.54 462.627 369.54H473.067C473.387 369.54 473.657 369.43 473.877 369.21C474.117 368.97 474.237 368.69 474.237 368.37V365.7C474.237 365.38 474.117 365.11 473.877 364.89C473.657 364.65 473.387 364.53 473.067 364.53H462.627C461.967 364.53 461.357 364.37 460.797 364.05C460.257 363.71 459.817 363.27 459.477 362.73C459.157 362.17 458.997 361.56 458.997 360.9V358.23C458.997 357.57 459.157 356.97 459.477 356.43C459.817 355.87 460.257 355.43 460.797 355.11C461.357 354.77 461.967 354.6 462.627 354.6H473.067C473.747 354.6 474.357 354.77 474.897 355.11C475.457 355.43 475.897 355.87 476.217 356.43C476.557 356.97 476.727 357.57 476.727 358.23V358.47H474.237V358.23C474.237 357.91 474.117 357.64 473.877 357.42C473.657 357.18 473.387 357.06 473.067 357.06H462.627C462.307 357.06 462.027 357.18 461.787 357.42C461.567 357.64 461.457 357.91 461.457 358.23V360.9C461.457 361.22 461.567 361.5 461.787 361.74C462.027 361.96 462.307 362.07 462.627 362.07H473.067C473.747 362.07 474.357 362.24 474.897 362.58C475.457 362.9 475.897 363.34 476.217 363.9C476.557 364.44 476.727 365.04 476.727 365.7V368.37C476.727 369.03 476.557 369.64 476.217 370.2C475.897 370.74 475.457 371.18 474.897 371.52C474.357 371.84 473.747 372 473.067 372H462.627ZM487.767 372L478.167 354.6H481.047L489.207 369.6L497.367 354.6H500.247L490.617 372H487.767ZM505.519 372C504.859 372 504.249 371.84 503.689 371.52C503.149 371.18 502.709 370.74 502.369 370.2C502.049 369.64 501.889 369.03 501.889 368.37V358.23C501.889 357.57 502.049 356.97 502.369 356.43C502.709 355.87 503.149 355.43 503.689 355.11C504.249 354.77 504.859 354.6 505.519 354.6H515.959C516.639 354.6 517.249 354.77 517.789 355.11C518.349 355.43 518.789 355.87 519.109 356.43C519.449 356.97 519.619 357.57 519.619 358.23V368.37C519.619 369.03 519.449 369.64 519.109 370.2C518.789 370.74 518.349 371.18 517.789 371.52C517.249 371.84 516.639 372 515.959 372H505.519ZM505.519 369.54H515.959C516.279 369.54 516.549 369.43 516.769 369.21C517.009 368.97 517.129 368.69 517.129 368.37V358.23C517.129 357.91 517.009 357.64 516.769 357.42C516.549 357.18 516.279 357.06 515.959 357.06H505.519C505.199 357.06 504.919 357.18 504.679 357.42C504.459 357.64 504.349 357.91 504.349 358.23V368.37C504.349 368.69 504.459 368.97 504.679 369.21C504.919 369.43 505.199 369.54 505.519 369.54ZM525.735 372C525.075 372 524.465 371.84 523.905 371.52C523.365 371.18 522.925 370.74 522.585 370.2C522.265 369.64 522.105 369.03 522.105 368.37V348.9H524.565V368.37C524.565 368.69 524.675 368.97 524.895 369.21C525.135 369.43 525.415 369.54 525.735 369.54H528.675V372H525.735ZM534.788 372C534.128 372 533.518 371.84 532.958 371.52C532.418 371.18 531.978 370.74 531.638 370.2C531.318 369.64 531.158 369.03 531.158 368.37V348.9H533.618V368.37C533.618 368.69 533.728 368.97 533.948 369.21C534.188 369.43 534.468 369.54 534.788 369.54H537.728V372H534.788ZM543.371 372C542.711 372 542.101 371.84 541.541 371.52C541.001 371.18 540.561 370.74 540.221 370.2C539.901 369.64 539.741 369.03 539.741 368.37V358.23C539.741 357.57 539.901 356.97 540.221 356.43C540.561 355.87 541.001 355.43 541.541 355.11C542.101 354.77 542.711 354.6 543.371 354.6H553.811C554.491 354.6 555.101 354.77 555.641 355.11C556.201 355.43 556.641 355.87 556.961 356.43C557.301 356.97 557.471 357.57 557.471 358.23V364.53H542.201V368.37C542.201 368.69 542.311 368.97 542.531 369.21C542.771 369.43 543.051 369.54 543.371 369.54H557.471V372H543.371ZM542.201 362.07H554.981V358.23C554.981 357.91 554.861 357.64 554.621 357.42C554.401 357.18 554.131 357.06 553.811 357.06H543.371C543.051 357.06 542.771 357.18 542.531 357.42C542.311 357.64 542.201 357.91 542.201 358.23V362.07ZM307.121 422L299.261 400.4H301.841L308.171 417.74L314.471 400.4H317.411L323.741 417.74L330.011 400.4H332.651L324.791 422H322.661L315.941 403.55L309.221 422H307.121ZM337.678 422C337.018 422 336.408 421.84 335.848 421.52C335.308 421.18 334.868 420.74 334.528 420.2C334.208 419.64 334.048 419.03 334.048 418.37V408.23C334.048 407.57 334.208 406.97 334.528 406.43C334.868 405.87 335.308 405.43 335.848 405.11C336.408 404.77 337.018 404.6 337.678 404.6H348.118C348.798 404.6 349.408 404.77 349.948 405.11C350.508 405.43 350.948 405.87 351.268 406.43C351.608 406.97 351.778 407.57 351.778 408.23V414.53H336.508V418.37C336.508 418.69 336.618 418.97 336.838 419.21C337.078 419.43 337.358 419.54 337.678 419.54H351.778V422H337.678ZM336.508 412.07H349.288V408.23C349.288 407.91 349.168 407.64 348.928 407.42C348.708 407.18 348.438 407.06 348.118 407.06H337.678C337.358 407.06 337.078 407.18 336.838 407.42C336.618 407.64 336.508 407.91 336.508 408.23V412.07ZM354.909 422V398.9H357.369V404.6H369.009C369.669 404.6 370.269 404.77 370.809 405.11C371.369 405.43 371.809 405.87 372.129 406.43C372.469 406.97 372.639 407.57 372.639 408.23V418.37C372.639 419.03 372.469 419.64 372.129 420.2C371.809 420.74 371.369 421.18 370.809 421.52C370.269 421.84 369.669 422 369.009 422H354.909ZM358.569 419.54H369.009C369.329 419.54 369.599 419.43 369.819 419.21C370.059 418.97 370.179 418.69 370.179 418.37V408.23C370.179 407.91 370.059 407.64 369.819 407.42C369.599 407.18 369.329 407.06 369.009 407.06H358.569C358.249 407.06 357.969 407.18 357.729 407.42C357.489 407.64 357.369 407.91 357.369 408.23V418.37C357.369 418.69 357.489 418.97 357.729 419.21C357.969 419.43 358.249 419.54 358.569 419.54ZM386.693 422C386.033 422 385.423 421.84 384.863 421.52C384.323 421.18 383.883 420.74 383.543 420.2C383.223 419.64 383.063 419.03 383.063 418.37V404.6H385.523V418.37C385.523 418.69 385.633 418.97 385.853 419.21C386.093 419.43 386.373 419.54 386.693 419.54H397.133C397.453 419.54 397.733 419.43 397.973 419.21C398.213 418.97 398.333 418.69 398.333 418.37V404.6H400.793V418.37C400.793 419.03 400.623 419.64 400.283 420.2C399.963 420.74 399.523 421.18 398.963 421.52C398.423 421.84 397.813 422 397.133 422H386.693ZM404.099 422V404.6H418.199C418.859 404.6 419.459 404.77 419.999 405.11C420.559 405.43 420.999 405.87 421.319 406.43C421.659 406.97 421.829 407.57 421.829 408.23V422H419.369V408.23C419.369 407.91 419.249 407.64 419.009 407.42C418.789 407.18 418.519 407.06 418.199 407.06H407.759C407.439 407.06 407.159 407.18 406.919 407.42C406.679 407.64 406.559 407.91 406.559 408.23V422H404.099ZM427.717 422C427.037 422 426.417 421.84 425.857 421.52C425.317 421.18 424.877 420.74 424.537 420.2C424.217 419.64 424.057 419.03 424.057 418.37V408.23C424.057 407.57 424.217 406.97 424.537 406.43C424.877 405.87 425.317 405.43 425.857 405.11C426.417 404.77 427.037 404.6 427.717 404.6H439.327V398.9H441.787V422H427.717ZM427.717 419.54H438.157C438.477 419.54 438.747 419.43 438.967 419.21C439.207 418.97 439.327 418.69 439.327 418.37V408.23C439.327 407.91 439.207 407.64 438.967 407.42C438.747 407.18 438.477 407.06 438.157 407.06H427.717C427.397 407.06 427.117 407.18 426.877 407.42C426.657 407.64 426.547 407.91 426.547 408.23V418.37C426.547 418.69 426.657 418.97 426.877 419.21C427.117 419.43 427.397 419.54 427.717 419.54ZM453.231 422V400.4H456.561L465.531 411.08L474.501 400.4H477.831V422H475.401V403.16L465.531 414.89L455.661 403.16V422H453.231ZM484.543 422C483.883 422 483.273 421.84 482.713 421.52C482.173 421.18 481.733 420.74 481.393 420.2C481.073 419.64 480.913 419.03 480.913 418.37V408.23C480.913 407.57 481.073 406.97 481.393 406.43C481.733 405.87 482.173 405.43 482.713 405.11C483.273 404.77 483.883 404.6 484.543 404.6H494.983C495.663 404.6 496.273 404.77 496.813 405.11C497.373 405.43 497.813 405.87 498.133 406.43C498.473 406.97 498.643 407.57 498.643 408.23V418.37C498.643 419.03 498.473 419.64 498.133 420.2C497.813 420.74 497.373 421.18 496.813 421.52C496.273 421.84 495.663 422 494.983 422H484.543ZM484.543 419.54H494.983C495.303 419.54 495.573 419.43 495.793 419.21C496.033 418.97 496.153 418.69 496.153 418.37V408.23C496.153 407.91 496.033 407.64 495.793 407.42C495.573 407.18 495.303 407.06 494.983 407.06H484.543C484.223 407.06 483.943 407.18 483.703 407.42C483.483 407.64 483.373 407.91 483.373 408.23V418.37C483.373 418.69 483.483 418.97 483.703 419.21C483.943 419.43 484.223 419.54 484.543 419.54ZM501.774 422V398.9H504.234V404.6H515.874C516.534 404.6 517.134 404.77 517.674 405.11C518.234 405.43 518.674 405.87 518.994 406.43C519.334 406.97 519.504 407.57 519.504 408.23V418.37C519.504 419.03 519.334 419.64 518.994 420.2C518.674 420.74 518.234 421.18 517.674 421.52C517.134 421.84 516.534 422 515.874 422H501.774ZM505.434 419.54H515.874C516.194 419.54 516.464 419.43 516.684 419.21C516.924 418.97 517.044 418.69 517.044 418.37V408.23C517.044 407.91 516.924 407.64 516.684 407.42C516.464 407.18 516.194 407.06 515.874 407.06H505.434C505.114 407.06 504.834 407.18 504.594 407.42C504.354 407.64 504.234 407.91 504.234 408.23V418.37C504.234 418.69 504.354 418.97 504.594 419.21C504.834 419.43 505.114 419.54 505.434 419.54ZM521.724 422V404.6H524.184V422H521.724ZM521.724 401.36V398.9H524.184V401.36H521.724ZM531.594 422C530.934 422 530.324 421.84 529.764 421.52C529.224 421.18 528.784 420.74 528.444 420.2C528.124 419.64 527.964 419.03 527.964 418.37V398.9H530.424V418.37C530.424 418.69 530.534 418.97 530.754 419.21C530.994 419.43 531.274 419.54 531.594 419.54H534.534V422H531.594ZM540.178 422C539.518 422 538.908 421.84 538.348 421.52C537.808 421.18 537.368 420.74 537.028 420.2C536.708 419.64 536.548 419.03 536.548 418.37V408.23C536.548 407.57 536.708 406.97 537.028 406.43C537.368 405.87 537.808 405.43 538.348 405.11C538.908 404.77 539.518 404.6 540.178 404.6H550.618C551.298 404.6 551.908 404.77 552.448 405.11C553.008 405.43 553.448 405.87 553.768 406.43C554.108 406.97 554.278 407.57 554.278 408.23V414.53H539.008V418.37C539.008 418.69 539.118 418.97 539.338 419.21C539.578 419.43 539.858 419.54 540.178 419.54H554.278V422H540.178ZM539.008 412.07H551.788V408.23C551.788 407.91 551.668 407.64 551.428 407.42C551.208 407.18 550.938 407.06 550.618 407.06H540.178C539.858 407.06 539.578 407.18 539.338 407.42C539.118 407.64 539.008 407.91 539.008 408.23V412.07ZM317.734 472V454C317.734 453.34 317.894 452.74 318.214 452.2C318.534 451.64 318.964 451.2 319.504 450.88C320.064 450.56 320.674 450.4 321.334 450.4H335.734C336.394 450.4 336.994 450.56 337.534 450.88C338.094 451.2 338.534 451.64 338.854 452.2C339.174 452.74 339.334 453.34 339.334 454V472H336.904V464.11H320.164V472H317.734ZM320.164 461.68H336.904V454C336.904 453.68 336.784 453.41 336.544 453.19C336.324 452.95 336.054 452.83 335.734 452.83H321.334C321.014 452.83 320.734 452.95 320.494 453.19C320.274 453.41 320.164 453.68 320.164 454V461.68ZM342.692 478.9V454.6H356.792C357.452 454.6 358.052 454.77 358.592 455.11C359.152 455.43 359.592 455.87 359.912 456.43C360.252 456.97 360.422 457.57 360.422 458.23V468.37C360.422 469.03 360.252 469.64 359.912 470.2C359.592 470.74 359.152 471.18 358.592 471.52C358.052 471.84 357.452 472 356.792 472H345.152V478.9H342.692ZM346.352 469.54H356.792C357.112 469.54 357.382 469.43 357.602 469.21C357.842 468.97 357.962 468.69 357.962 468.37V458.23C357.962 457.91 357.842 457.64 357.602 457.42C357.382 457.18 357.112 457.06 356.792 457.06H346.352C346.032 457.06 345.752 457.18 345.512 457.42C345.272 457.64 345.152 457.91 345.152 458.23V468.37C345.152 468.69 345.272 468.97 345.512 469.21C345.752 469.43 346.032 469.54 346.352 469.54ZM362.614 478.9V454.6H376.714C377.374 454.6 377.974 454.77 378.514 455.11C379.074 455.43 379.514 455.87 379.834 456.43C380.174 456.97 380.344 457.57 380.344 458.23V468.37C380.344 469.03 380.174 469.64 379.834 470.2C379.514 470.74 379.074 471.18 378.514 471.52C377.974 471.84 377.374 472 376.714 472H365.074V478.9H362.614ZM366.274 469.54H376.714C377.034 469.54 377.304 469.43 377.524 469.21C377.764 468.97 377.884 468.69 377.884 468.37V458.23C377.884 457.91 377.764 457.64 377.524 457.42C377.304 457.18 377.034 457.06 376.714 457.06H366.274C365.954 457.06 365.674 457.18 365.434 457.42C365.194 457.64 365.074 457.91 365.074 458.23V468.37C365.074 468.69 365.194 468.97 365.434 469.21C365.674 469.43 365.954 469.54 366.274 469.54ZM386.106 472C385.446 472 384.836 471.84 384.276 471.52C383.736 471.18 383.296 470.74 382.956 470.2C382.636 469.64 382.476 469.03 382.476 468.37V448.9H384.936V468.37C384.936 468.69 385.046 468.97 385.266 469.21C385.506 469.43 385.786 469.54 386.106 469.54H389.046V472H386.106ZM391.529 472V454.6H393.989V472H391.529ZM391.529 451.36V448.9H393.989V451.36H391.529ZM397.829 472V448.9H400.289V462.07H405.089L411.929 454.6H415.169V454.63L407.279 463.3L415.139 471.97V472H411.929L405.089 464.53H400.289V472H397.829ZM420.794 472C420.134 472 419.524 471.84 418.964 471.52C418.424 471.18 417.984 470.74 417.644 470.2C417.324 469.64 417.164 469.03 417.164 468.37V462.07H432.404V458.23C432.404 457.91 432.284 457.64 432.044 457.42C431.824 457.18 431.554 457.06 431.234 457.06H417.164V454.6H431.234C431.914 454.6 432.524 454.77 433.064 455.11C433.624 455.43 434.064 455.87 434.384 456.43C434.724 456.97 434.894 457.57 434.894 458.23V472H420.794ZM420.794 469.54H432.404V464.53H419.624V468.37C419.624 468.69 419.734 468.97 419.954 469.21C420.194 469.43 420.474 469.54 420.794 469.54ZM441.654 472C440.974 472 440.354 471.84 439.794 471.52C439.254 471.18 438.824 470.74 438.504 470.2C438.184 469.64 438.024 469.03 438.024 468.37V448.9H440.484V454.6H448.014V457.06H440.484V468.37C440.484 468.69 440.594 468.97 440.814 469.21C441.054 469.43 441.334 469.54 441.654 469.54H448.014V472H441.654ZM450.445 472V454.6H452.905V472H450.445ZM450.445 451.36V448.9H452.905V451.36H450.445ZM460.285 472C459.625 472 459.015 471.84 458.455 471.52C457.915 471.18 457.475 470.74 457.135 470.2C456.815 469.64 456.655 469.03 456.655 468.37V458.23C456.655 457.57 456.815 456.97 457.135 456.43C457.475 455.87 457.915 455.43 458.455 455.11C459.015 454.77 459.625 454.6 460.285 454.6H470.725C471.405 454.6 472.015 454.77 472.555 455.11C473.115 455.43 473.555 455.87 473.875 456.43C474.215 456.97 474.385 457.57 474.385 458.23V468.37C474.385 469.03 474.215 469.64 473.875 470.2C473.555 470.74 473.115 471.18 472.555 471.52C472.015 471.84 471.405 472 470.725 472H460.285ZM460.285 469.54H470.725C471.045 469.54 471.315 469.43 471.535 469.21C471.775 468.97 471.895 468.69 471.895 468.37V458.23C471.895 457.91 471.775 457.64 471.535 457.42C471.315 457.18 471.045 457.06 470.725 457.06H460.285C459.965 457.06 459.685 457.18 459.445 457.42C459.225 457.64 459.115 457.91 459.115 458.23V468.37C459.115 468.69 459.225 468.97 459.445 469.21C459.685 469.43 459.965 469.54 460.285 469.54ZM477.077 472V454.6H491.177C491.837 454.6 492.437 454.77 492.977 455.11C493.537 455.43 493.977 455.87 494.297 456.43C494.637 456.97 494.807 457.57 494.807 458.23V472H492.347V458.23C492.347 457.91 492.227 457.64 491.987 457.42C491.767 457.18 491.497 457.06 491.177 457.06H480.737C480.417 457.06 480.137 457.18 479.897 457.42C479.657 457.64 479.537 457.91 479.537 458.23V472H477.077ZM501.506 472C500.846 472 500.236 471.84 499.676 471.52C499.136 471.18 498.696 470.74 498.356 470.2C498.036 469.64 497.876 469.03 497.876 468.37V458.23C497.876 457.57 498.036 456.97 498.356 456.43C498.696 455.87 499.136 455.43 499.676 455.11C500.236 454.77 500.846 454.6 501.506 454.6H511.946C512.626 454.6 513.236 454.77 513.776 455.11C514.336 455.43 514.776 455.87 515.096 456.43C515.436 456.97 515.606 457.57 515.606 458.23V464.53H500.336V468.37C500.336 468.69 500.446 468.97 500.666 469.21C500.906 469.43 501.186 469.54 501.506 469.54H515.606V472H501.506ZM500.336 462.07H513.116V458.23C513.116 457.91 512.996 457.64 512.756 457.42C512.536 457.18 512.266 457.06 511.946 457.06H501.506C501.186 457.06 500.906 457.18 500.666 457.42C500.446 457.64 500.336 457.91 500.336 458.23V462.07ZM518.737 472V454.6H532.837C533.497 454.6 534.097 454.77 534.637 455.11C535.197 455.43 535.637 455.87 535.957 456.43C536.297 456.97 536.467 457.57 536.467 458.23V472H534.007V458.23C534.007 457.91 533.887 457.64 533.647 457.42C533.427 457.18 533.157 457.06 532.837 457.06H522.397C522.077 457.06 521.797 457.18 521.557 457.42C521.317 457.64 521.197 457.91 521.197 458.23V472H518.737Z" fill="#09090B"/>
<path d="M238.826 101V99.92L242.666 97.31V98.57H245.486V101H238.826ZM224.666 101C224.006 101 223.396 100.84 222.836 100.52C222.296 100.2 221.866 99.77 221.546 99.23C221.226 98.67 221.066 98.06 221.066 97.4V83C221.066 82.34 221.226 81.74 221.546 81.2C221.866 80.64 222.296 80.2 222.836 79.88C223.396 79.56 224.006 79.4 224.666 79.4H239.066C239.726 79.4 240.326 79.56 240.866 79.88C241.426 80.2 241.866 80.64 242.186 81.2C242.506 81.74 242.666 82.34 242.666 83V97.4C242.666 98.06 242.506 98.67 242.186 99.23C241.866 99.77 241.426 100.2 240.866 100.52C240.326 100.84 239.726 101 239.066 101H224.666ZM224.666 98.57H239.066C239.386 98.57 239.656 98.46 239.876 98.24C240.116 98 240.236 97.72 240.236 97.4V83C240.236 82.68 240.116 82.41 239.876 82.19C239.656 81.95 239.386 81.83 239.066 81.83H224.666C224.346 81.83 224.066 81.95 223.826 82.19C223.606 82.41 223.496 82.68 223.496 83V97.4C223.496 97.72 223.606 98 223.826 98.24C224.066 98.46 224.346 98.57 224.666 98.57ZM251.18 101C250.52 101 249.91 100.84 249.35 100.52C248.81 100.18 248.37 99.74 248.03 99.2C247.71 98.64 247.55 98.03 247.55 97.37V83.6H250.01V97.37C250.01 97.69 250.12 97.97 250.34 98.21C250.58 98.43 250.86 98.54 251.18 98.54H261.62C261.94 98.54 262.22 98.43 262.46 98.21C262.7 97.97 262.82 97.69 262.82 97.37V83.6H265.28V97.37C265.28 98.03 265.11 98.64 264.77 99.2C264.45 99.74 264.01 100.18 263.45 100.52C262.91 100.84 262.3 101 261.62 101H251.18ZM272.009 101C271.349 101 270.739 100.84 270.179 100.52C269.639 100.18 269.199 99.74 268.859 99.2C268.539 98.64 268.379 98.03 268.379 97.37V91.07H283.619V87.23C283.619 86.91 283.499 86.64 283.259 86.42C283.039 86.18 282.769 86.06 282.449 86.06H268.379V83.6H282.449C283.129 83.6 283.739 83.77 284.279 84.11C284.839 84.43 285.279 84.87 285.599 85.43C285.939 85.97 286.109 86.57 286.109 87.23V101H272.009ZM272.009 98.54H283.619V93.53H270.839V97.37C270.839 97.69 270.949 97.97 271.169 98.21C271.409 98.43 271.689 98.54 272.009 98.54ZM292.546 101C291.886 101 291.276 100.84 290.716 100.52C290.176 100.18 289.736 99.74 289.396 99.2C289.076 98.64 288.916 98.03 288.916 97.37V77.9H291.376V97.37C291.376 97.69 291.486 97.97 291.706 98.21C291.946 98.43 292.226 98.54 292.546 98.54H295.486V101H292.546ZM297.969 101V83.6H300.429V101H297.969ZM297.969 80.36V77.9H300.429V80.36H297.969ZM307.869 101C307.189 101 306.569 100.84 306.009 100.52C305.469 100.18 305.039 99.74 304.719 99.2C304.399 98.64 304.239 98.03 304.239 97.37V77.9H306.699V83.6H314.229V86.06H306.699V97.37C306.699 97.69 306.809 97.97 307.029 98.21C307.269 98.43 307.549 98.54 307.869 98.54H314.229V101H307.869ZM320.144 101C319.484 101 318.874 100.84 318.314 100.52C317.774 100.18 317.334 99.74 316.994 99.2C316.674 98.64 316.514 98.03 316.514 97.37V91.07H331.754V87.23C331.754 86.91 331.634 86.64 331.394 86.42C331.174 86.18 330.904 86.06 330.584 86.06H316.514V83.6H330.584C331.264 83.6 331.874 83.77 332.414 84.11C332.974 84.43 333.414 84.87 333.734 85.43C334.074 85.97 334.244 86.57 334.244 87.23V101H320.144ZM320.144 98.54H331.754V93.53H318.974V97.37C318.974 97.69 319.084 97.97 319.304 98.21C319.544 98.43 319.824 98.54 320.144 98.54ZM327.464 81.8V79.34H329.954V81.8H327.464ZM321.974 81.8V79.34H324.464V81.8H321.974ZM341.004 101C340.324 101 339.704 100.84 339.144 100.52C338.604 100.18 338.174 99.74 337.854 99.2C337.534 98.64 337.374 98.03 337.374 97.37V77.9H339.834V83.6H347.364V86.06H339.834V97.37C339.834 97.69 339.944 97.97 340.164 98.21C340.404 98.43 340.684 98.54 341.004 98.54H347.364V101H341.004ZM353.159 101C352.499 101 351.889 100.84 351.329 100.52C350.789 100.18 350.349 99.74 350.009 99.2C349.689 98.64 349.529 98.03 349.529 97.37V97.13H351.989V97.37C351.989 97.69 352.099 97.97 352.319 98.21C352.559 98.43 352.839 98.54 353.159 98.54H363.599C363.919 98.54 364.189 98.43 364.409 98.21C364.649 97.97 364.769 97.69 364.769 97.37V94.7C364.769 94.38 364.649 94.11 364.409 93.89C364.189 93.65 363.919 93.53 363.599 93.53H353.159C352.499 93.53 351.889 93.37 351.329 93.05C350.789 92.71 350.349 92.27 350.009 91.73C349.689 91.17 349.529 90.56 349.529 89.9V87.23C349.529 86.57 349.689 85.97 350.009 85.43C350.349 84.87 350.789 84.43 351.329 84.11C351.889 83.77 352.499 83.6 353.159 83.6H363.599C364.279 83.6 364.889 83.77 365.429 84.11C365.989 84.43 366.429 84.87 366.749 85.43C367.089 85.97 367.259 86.57 367.259 87.23V87.47H364.769V87.23C364.769 86.91 364.649 86.64 364.409 86.42C364.189 86.18 363.919 86.06 363.599 86.06H353.159C352.839 86.06 352.559 86.18 352.319 86.42C352.099 86.64 351.989 86.91 351.989 87.23V89.9C351.989 90.22 352.099 90.5 352.319 90.74C352.559 90.96 352.839 91.07 353.159 91.07H363.599C364.279 91.07 364.889 91.24 365.429 91.58C365.989 91.9 366.429 92.34 366.749 92.9C367.089 93.44 367.259 94.04 367.259 94.7V97.37C367.259 98.03 367.089 98.64 366.749 99.2C366.429 99.74 365.989 100.18 365.429 100.52C364.889 100.84 364.279 101 363.599 101H353.159ZM378.599 93.35V90.89H390.299V93.35H378.599ZM405.631 101C404.971 101 404.361 100.84 403.801 100.52C403.261 100.2 402.831 99.77 402.511 99.23C402.191 98.67 402.031 98.06 402.031 97.4V96.56H404.461V97.4C404.461 97.72 404.571 98 404.791 98.24C405.031 98.46 405.311 98.57 405.631 98.57H420.031C420.351 98.57 420.621 98.46 420.841 98.24C421.081 98 421.201 97.72 421.201 97.4V92.57C421.201 92.25 421.081 91.98 420.841 91.76C420.621 91.54 420.351 91.43 420.031 91.43H405.631C404.971 91.43 404.361 91.27 403.801 90.95C403.261 90.61 402.831 90.17 402.511 89.63C402.191 89.09 402.031 88.49 402.031 87.83V83C402.031 82.34 402.191 81.74 402.511 81.2C402.831 80.64 403.261 80.2 403.801 79.88C404.361 79.56 404.971 79.4 405.631 79.4H420.031C420.691 79.4 421.291 79.56 421.831 79.88C422.391 80.2 422.831 80.64 423.151 81.2C423.471 81.74 423.631 82.34 423.631 83V83.84H421.201V83C421.201 82.68 421.081 82.41 420.841 82.19C420.621 81.95 420.351 81.83 420.031 81.83H405.631C405.311 81.83 405.031 81.95 404.791 82.19C404.571 82.41 404.461 82.68 404.461 83V87.83C404.461 88.15 404.571 88.42 404.791 88.64C405.031 88.86 405.311 88.97 405.631 88.97H420.031C420.691 88.97 421.291 89.14 421.831 89.48C422.391 89.8 422.831 90.23 423.151 90.77C423.471 91.31 423.631 91.91 423.631 92.57V97.4C423.631 98.06 423.471 98.67 423.151 99.23C422.831 99.77 422.391 100.2 421.831 100.52C421.291 100.84 420.691 101 420.031 101H405.631ZM430.329 101C429.669 101 429.059 100.84 428.499 100.52C427.959 100.18 427.519 99.74 427.179 99.2C426.859 98.64 426.699 98.03 426.699 97.37V87.23C426.699 86.57 426.859 85.97 427.179 85.43C427.519 84.87 427.959 84.43 428.499 84.11C429.059 83.77 429.669 83.6 430.329 83.6H440.769C441.449 83.6 442.059 83.77 442.599 84.11C443.159 84.43 443.599 84.87 443.919 85.43C444.259 85.97 444.429 86.57 444.429 87.23V97.37C444.429 98.03 444.259 98.64 443.919 99.2C443.599 99.74 443.159 100.18 442.599 100.52C442.059 100.84 441.449 101 440.769 101H430.329ZM430.329 98.54H440.769C441.089 98.54 441.359 98.43 441.579 98.21C441.819 97.97 441.939 97.69 441.939 97.37V87.23C441.939 86.91 441.819 86.64 441.579 86.42C441.359 86.18 441.089 86.06 440.769 86.06H430.329C430.009 86.06 429.729 86.18 429.489 86.42C429.269 86.64 429.159 86.91 429.159 87.23V97.37C429.159 97.69 429.269 97.97 429.489 98.21C429.729 98.43 430.009 98.54 430.329 98.54ZM447.53 101V81.53C447.53 80.85 447.69 80.24 448.01 79.7C448.33 79.14 448.76 78.7 449.3 78.38C449.86 78.06 450.48 77.9 451.16 77.9H457.52V80.36H451.16C450.84 80.36 450.56 80.48 450.32 80.72C450.1 80.94 449.99 81.21 449.99 81.53V83.6H457.52V86.06H449.99V101H447.53ZM463.524 101C462.844 101 462.224 100.84 461.664 100.52C461.124 100.18 460.694 99.74 460.374 99.2C460.054 98.64 459.894 98.03 459.894 97.37V77.9H462.354V83.6H469.884V86.06H462.354V97.37C462.354 97.69 462.464 97.97 462.684 98.21C462.924 98.43 463.204 98.54 463.524 98.54H469.884V101H463.524ZM478.498 101L471.658 83.6H474.298L479.578 96.56L485.188 83.6H488.428L494.398 96.53L499.318 83.6H501.988L495.418 101H493.288L486.808 86.63L480.658 101H478.498ZM507.937 101C507.277 101 506.667 100.84 506.107 100.52C505.567 100.18 505.127 99.74 504.787 99.2C504.467 98.64 504.307 98.03 504.307 97.37V91.07H519.547V87.23C519.547 86.91 519.427 86.64 519.187 86.42C518.967 86.18 518.697 86.06 518.377 86.06H504.307V83.6H518.377C519.057 83.6 519.667 83.77 520.207 84.11C520.767 84.43 521.207 84.87 521.527 85.43C521.867 85.97 522.037 86.57 522.037 87.23V101H507.937ZM507.937 98.54H519.547V93.53H506.767V97.37C506.767 97.69 506.877 97.97 507.097 98.21C507.337 98.43 507.617 98.54 507.937 98.54ZM524.991 101V87.23C524.991 86.57 525.151 85.97 525.471 85.43C525.811 84.87 526.251 84.43 526.791 84.11C527.351 83.77 527.961 83.6 528.621 83.6H538.401V86.06H528.621C528.301 86.06 528.021 86.18 527.781 86.42C527.561 86.64 527.451 86.91 527.451 87.23V101H524.991ZM543.942 101C543.282 101 542.672 100.84 542.112 100.52C541.572 100.18 541.132 99.74 540.792 99.2C540.472 98.64 540.312 98.03 540.312 97.37V87.23C540.312 86.57 540.472 85.97 540.792 85.43C541.132 84.87 541.572 84.43 542.112 84.11C542.672 83.77 543.282 83.6 543.942 83.6H554.382C555.062 83.6 555.672 83.77 556.212 84.11C556.772 84.43 557.212 84.87 557.532 85.43C557.872 85.97 558.042 86.57 558.042 87.23V93.53H542.772V97.37C542.772 97.69 542.882 97.97 543.102 98.21C543.342 98.43 543.622 98.54 543.942 98.54H558.042V101H543.942ZM542.772 91.07H555.552V87.23C555.552 86.91 555.432 86.64 555.192 86.42C554.972 86.18 554.702 86.06 554.382 86.06H543.942C543.622 86.06 543.342 86.18 543.102 86.42C542.882 86.64 542.772 86.91 542.772 87.23V91.07Z" fill="#09090B"/>
</svg>
