<svg width="227" height="65" viewBox="0 0 227 65" fill="none" xmlns="http://www.w3.org/2000/svg">
<path d="M2.55469 12.0781H6.98426C7.42744 12.0781 7.80699 11.9218 8.12511 11.6047C8.44324 11.2898 8.60339 10.9141 8.60339 10.4753V6.70508H2.55469V12.076V12.0781Z" fill="#DCA54C"/>
<path d="M31.6749 9.45894C31.1637 8.60976 30.4858 7.93867 29.6411 7.44567C28.7965 6.95266 27.8618 6.70508 26.8395 6.70508H11.9667V10.4753C11.9667 11.3788 11.7451 12.2085 11.3019 12.9621C10.8588 13.7157 10.2576 14.3108 9.49633 14.7495C8.73503 15.1882 7.89694 15.4075 6.98426 15.4075H2.55469V36.2939H11.947V16.007H32.4428V12.2541C32.4428 11.2398 32.1861 10.3081 31.6749 9.45894Z" fill="#DCA54C"/>
<path d="M15.7869 19.8077C15.4688 20.1226 15.3086 20.5005 15.3086 20.937V36.2917H26.8378C27.8623 36.2917 28.7948 36.0441 29.6394 35.5511C30.4841 35.0581 31.162 34.387 31.6732 33.5379C32.1844 32.6887 32.4411 31.757 32.4411 30.7427V19.332H16.9255C16.4824 19.332 16.1028 19.4906 15.7847 19.8055L15.7869 19.8077Z" fill="#DCA54C"/>
<path d="M2.35742 64.5088L2.55566 57.543H4.08008L4.27832 64.5088H2.35742ZM4.33301 55.417C4.33301 55.6859 4.23958 55.9115 4.05273 56.0938C3.87044 56.276 3.62207 56.3672 3.30762 56.3672C2.99316 56.3672 2.74251 56.276 2.55566 56.0938C2.37337 55.9115 2.28223 55.6859 2.28223 55.417C2.28223 55.1481 2.37337 54.9225 2.55566 54.7402C2.74251 54.5579 2.99316 54.4668 3.30762 54.4668C3.62207 54.4668 3.87044 54.5579 4.05273 54.7402C4.23958 54.9225 4.33301 55.1481 4.33301 55.417ZM12.7822 56.1553V57.6318H7.5459V56.1553H12.7822ZM8.05859 52.0469V62H6.17871V52.0469H8.05859ZM14.1768 52.0469V62H12.2969V52.0469H14.1768ZM20.0283 60.4277V57.0166C20.0283 56.766 19.985 56.5495 19.8984 56.3672C19.8118 56.1849 19.6797 56.0436 19.502 55.9434C19.3242 55.8431 19.0986 55.793 18.8252 55.793C18.5837 55.793 18.3717 55.834 18.1895 55.916C18.0117 55.998 17.875 56.1143 17.7793 56.2646C17.6836 56.4105 17.6357 56.5791 17.6357 56.7705H15.8242C15.8242 56.4652 15.8971 56.1758 16.043 55.9023C16.1888 55.6243 16.3962 55.3783 16.665 55.1641C16.9385 54.9453 17.2643 54.7744 17.6426 54.6514C18.0254 54.5283 18.4538 54.4668 18.9277 54.4668C19.4883 54.4668 19.9873 54.5625 20.4248 54.7539C20.8669 54.9408 21.2132 55.2233 21.4639 55.6016C21.7191 55.9798 21.8467 56.4561 21.8467 57.0303V60.2568C21.8467 60.626 21.8695 60.9427 21.915 61.207C21.9652 61.4668 22.0381 61.6924 22.1338 61.8838V62H20.2949C20.2083 61.8132 20.1423 61.5762 20.0967 61.2891C20.0511 60.9974 20.0283 60.7103 20.0283 60.4277ZM20.2812 57.4951L20.2949 58.5684H19.1533C18.8708 58.5684 18.6224 58.598 18.4082 58.6572C18.194 58.7119 18.0186 58.7939 17.8818 58.9033C17.7451 59.0081 17.6426 59.1357 17.5742 59.2861C17.5059 59.432 17.4717 59.5983 17.4717 59.7852C17.4717 59.9674 17.5127 60.1315 17.5947 60.2773C17.6813 60.4232 17.8044 60.5394 17.9639 60.626C18.1279 60.708 18.3193 60.749 18.5381 60.749C18.8571 60.749 19.1351 60.6852 19.3721 60.5576C19.609 60.4255 19.7936 60.266 19.9258 60.0791C20.0579 59.8923 20.1286 59.7145 20.1377 59.5459L20.6572 60.3252C20.5934 60.512 20.4977 60.7103 20.3701 60.9199C20.2425 61.1296 20.0785 61.3255 19.8779 61.5078C19.6774 61.6901 19.4359 61.8405 19.1533 61.959C18.8708 62.0775 18.5426 62.1367 18.1689 62.1367C17.6904 62.1367 17.262 62.041 16.8838 61.8496C16.5055 61.6582 16.207 61.3962 15.9883 61.0635C15.7695 60.7308 15.6602 60.3525 15.6602 59.9287C15.6602 59.5368 15.7331 59.1904 15.8789 58.8896C16.0247 58.5889 16.2412 58.3359 16.5283 58.1309C16.8154 57.9212 17.1709 57.764 17.5947 57.6592C18.0231 57.5498 18.513 57.4951 19.0645 57.4951H20.2812ZM26.5088 60.7148C26.764 60.7148 26.9919 60.6647 27.1924 60.5645C27.3929 60.4642 27.5524 60.3229 27.6709 60.1406C27.7939 59.9583 27.86 59.7464 27.8691 59.5049H29.5713C29.5622 60.0062 29.4209 60.4551 29.1475 60.8516C28.874 61.248 28.5094 61.5625 28.0537 61.7949C27.6025 62.0228 27.0967 62.1367 26.5361 62.1367C25.9665 62.1367 25.4697 62.041 25.0459 61.8496C24.6221 61.6582 24.2689 61.3916 23.9863 61.0498C23.7083 60.708 23.4987 60.3115 23.3574 59.8604C23.2207 59.4092 23.1523 58.9261 23.1523 58.4111V58.1924C23.1523 57.6774 23.2207 57.1943 23.3574 56.7432C23.4987 56.292 23.7083 55.8955 23.9863 55.5537C24.2689 55.2119 24.6221 54.9453 25.0459 54.7539C25.4697 54.5625 25.9642 54.4668 26.5293 54.4668C27.1263 54.4668 27.6504 54.583 28.1016 54.8154C28.5573 55.0479 28.9128 55.376 29.168 55.7998C29.4277 56.2236 29.5622 56.7227 29.5713 57.2969H27.8691C27.86 57.0326 27.8008 56.7956 27.6914 56.5859C27.582 56.3763 27.4271 56.2077 27.2266 56.0801C27.026 55.9525 26.7822 55.8887 26.4951 55.8887C26.1898 55.8887 25.9346 55.9525 25.7295 56.0801C25.529 56.2077 25.3717 56.3831 25.2578 56.6064C25.1484 56.8252 25.071 57.0713 25.0254 57.3447C24.9844 57.6136 24.9639 57.8962 24.9639 58.1924V58.4111C24.9639 58.7119 24.9844 58.999 25.0254 59.2725C25.071 59.5459 25.1484 59.792 25.2578 60.0107C25.3717 60.2249 25.529 60.3958 25.7295 60.5234C25.9346 60.651 26.1943 60.7148 26.5088 60.7148ZM34.0967 62.1367C33.5361 62.1367 33.0326 62.0456 32.5859 61.8633C32.1393 61.681 31.7588 61.4281 31.4443 61.1045C31.1344 60.7764 30.8952 60.3958 30.7266 59.9629C30.5625 59.5254 30.4805 59.056 30.4805 58.5547V58.2812C30.4805 57.7116 30.5625 57.1943 30.7266 56.7295C30.8906 56.2601 31.123 55.8568 31.4238 55.5195C31.7246 55.1823 32.0846 54.9225 32.5039 54.7402C32.9232 54.5579 33.3857 54.4668 33.8916 54.4668C34.4157 54.4668 34.8783 54.5557 35.2793 54.7334C35.6803 54.9066 36.0153 55.1527 36.2842 55.4717C36.5531 55.7907 36.7559 56.1735 36.8926 56.6201C37.0293 57.0622 37.0977 57.5521 37.0977 58.0898V58.8486H31.3008V57.6045H35.3203V57.4678C35.3112 57.1807 35.2565 56.9186 35.1562 56.6816C35.056 56.4401 34.901 56.2487 34.6914 56.1074C34.4818 55.9616 34.2106 55.8887 33.8779 55.8887C33.609 55.8887 33.3743 55.9479 33.1738 56.0664C32.9779 56.1803 32.8138 56.3444 32.6816 56.5586C32.554 56.7682 32.4583 57.0189 32.3945 57.3105C32.3307 57.6022 32.2988 57.9258 32.2988 58.2812V58.5547C32.2988 58.8646 32.3398 59.1517 32.4219 59.416C32.5085 59.6803 32.6338 59.9105 32.7979 60.1064C32.9665 60.2979 33.167 60.4482 33.3994 60.5576C33.6364 60.6624 33.9053 60.7148 34.2061 60.7148C34.5843 60.7148 34.9261 60.6419 35.2314 60.4961C35.5413 60.3457 35.8102 60.1247 36.0381 59.833L36.9473 60.7764C36.7923 61.0042 36.5827 61.223 36.3184 61.4326C36.0586 61.6423 35.7441 61.8132 35.375 61.9453C35.0059 62.0729 34.5798 62.1367 34.0967 62.1367ZM40.1055 56.1211V62H38.3008V54.6035H40.0029L40.1055 56.1211ZM39.8389 58.0352H39.2852C39.2852 57.5202 39.3467 57.0462 39.4697 56.6133C39.5973 56.1803 39.7842 55.8044 40.0303 55.4854C40.2764 55.1618 40.5794 54.9111 40.9395 54.7334C41.304 54.5557 41.7256 54.4668 42.2041 54.4668C42.5368 54.4668 42.8421 54.5169 43.1201 54.6172C43.3981 54.7129 43.6374 54.8656 43.8379 55.0752C44.043 55.2803 44.2002 55.5492 44.3096 55.8818C44.4189 56.21 44.4736 56.6042 44.4736 57.0645V62H42.6689V57.249C42.6689 56.9027 42.6188 56.6315 42.5186 56.4355C42.4229 56.2396 42.2839 56.1029 42.1016 56.0254C41.9193 55.9434 41.7005 55.9023 41.4453 55.9023C41.1628 55.9023 40.9189 55.9593 40.7139 56.0732C40.5133 56.1826 40.347 56.3353 40.2148 56.5312C40.0872 56.7272 39.9915 56.9528 39.9277 57.208C39.8685 57.4632 39.8389 57.7389 39.8389 58.0352ZM44.3369 57.7002L43.5918 57.8369C43.5964 57.3721 43.6602 56.9368 43.7832 56.5312C43.9062 56.1211 44.0863 55.7633 44.3232 55.458C44.5648 55.1481 44.8633 54.9066 45.2188 54.7334C45.5788 54.5557 45.9935 54.4668 46.4629 54.4668C46.8275 54.4668 47.1556 54.5192 47.4473 54.624C47.7435 54.7243 47.9964 54.8861 48.2061 55.1094C48.4157 55.3281 48.5752 55.613 48.6846 55.9639C48.7985 56.3148 48.8555 56.7432 48.8555 57.249V62H47.0371V57.2422C47.0371 56.8822 46.987 56.6064 46.8867 56.415C46.791 56.2236 46.652 56.0915 46.4697 56.0186C46.2874 55.9411 46.0732 55.9023 45.8271 55.9023C45.5765 55.9023 45.3577 55.9502 45.1709 56.0459C44.9886 56.137 44.8337 56.2646 44.7061 56.4287C44.583 56.5928 44.4896 56.7842 44.4258 57.0029C44.3665 57.2171 44.3369 57.4495 44.3369 57.7002ZM50.1543 58.377V58.2334C50.1543 57.6911 50.2318 57.1921 50.3867 56.7363C50.5417 56.276 50.7673 55.8773 51.0635 55.54C51.3597 55.2028 51.722 54.9408 52.1504 54.7539C52.5788 54.5625 53.0664 54.4668 53.6133 54.4668C54.1693 54.4668 54.6615 54.5625 55.0898 54.7539C55.5228 54.9408 55.8874 55.2028 56.1836 55.54C56.4798 55.8773 56.7054 56.276 56.8604 56.7363C57.0153 57.1921 57.0928 57.6911 57.0928 58.2334V58.377C57.0928 58.9147 57.0153 59.4137 56.8604 59.874C56.7054 60.3298 56.4798 60.7285 56.1836 61.0703C55.8874 61.4076 55.5251 61.6696 55.0967 61.8564C54.6683 62.0433 54.1784 62.1367 53.627 62.1367C53.0801 62.1367 52.5902 62.0433 52.1572 61.8564C51.7243 61.6696 51.3597 61.4076 51.0635 61.0703C50.7673 60.7285 50.5417 60.3298 50.3867 59.874C50.2318 59.4137 50.1543 58.9147 50.1543 58.377ZM51.959 58.2334V58.377C51.959 58.7005 51.9909 59.0036 52.0547 59.2861C52.1185 59.5687 52.2165 59.8171 52.3486 60.0312C52.4808 60.2454 52.6517 60.4141 52.8613 60.5371C53.0755 60.6556 53.3307 60.7148 53.627 60.7148C53.9186 60.7148 54.1693 60.6556 54.3789 60.5371C54.5885 60.4141 54.7594 60.2454 54.8916 60.0312C55.0283 59.8171 55.1286 59.5687 55.1924 59.2861C55.2562 59.0036 55.2881 58.7005 55.2881 58.377V58.2334C55.2881 57.9144 55.2562 57.6159 55.1924 57.3379C55.1286 57.0553 55.0283 56.807 54.8916 56.5928C54.7594 56.374 54.5863 56.2031 54.3721 56.0801C54.1624 55.9525 53.9095 55.8887 53.6133 55.8887C53.3216 55.8887 53.071 55.9525 52.8613 56.0801C52.6517 56.2031 52.4808 56.374 52.3486 56.5928C52.2165 56.807 52.1185 57.0553 52.0547 57.3379C51.9909 57.6159 51.959 57.9144 51.959 58.2334ZM62.4727 59.9766C62.4727 59.8216 62.4316 59.6826 62.3496 59.5596C62.2676 59.4365 62.1126 59.3249 61.8848 59.2246C61.6615 59.1198 61.3333 59.0218 60.9004 58.9307C60.5176 58.8486 60.1644 58.7461 59.8408 58.623C59.5173 58.5 59.2393 58.3519 59.0068 58.1787C58.7744 58.001 58.5921 57.7936 58.46 57.5566C58.3324 57.3151 58.2686 57.0371 58.2686 56.7227C58.2686 56.4173 58.3346 56.1302 58.4668 55.8613C58.599 55.5879 58.7904 55.3486 59.041 55.1436C59.2917 54.9339 59.597 54.7699 59.957 54.6514C60.3171 54.5283 60.7227 54.4668 61.1738 54.4668C61.8027 54.4668 62.3428 54.5693 62.7939 54.7744C63.2497 54.9795 63.5983 55.262 63.8398 55.6221C64.0814 55.9775 64.2021 56.3786 64.2021 56.8252H62.3975C62.3975 56.6292 62.3519 56.4515 62.2607 56.292C62.1742 56.1325 62.0397 56.0049 61.8574 55.9092C61.6751 55.8089 61.445 55.7588 61.167 55.7588C60.9163 55.7588 60.7044 55.7998 60.5312 55.8818C60.3626 55.9639 60.235 56.071 60.1484 56.2031C60.0618 56.3353 60.0186 56.4811 60.0186 56.6406C60.0186 56.7591 60.0413 56.8662 60.0869 56.9619C60.137 57.0531 60.2168 57.1374 60.3262 57.2148C60.4355 57.2923 60.5837 57.363 60.7705 57.4268C60.9619 57.4906 61.1966 57.5521 61.4746 57.6113C62.026 57.7207 62.5068 57.8665 62.917 58.0488C63.3317 58.2266 63.6553 58.4635 63.8877 58.7598C64.1201 59.056 64.2363 59.4342 64.2363 59.8945C64.2363 60.2227 64.1657 60.5234 64.0244 60.7969C63.8831 61.0658 63.6781 61.3005 63.4092 61.501C63.1403 61.7015 62.819 61.8587 62.4453 61.9727C62.0716 62.082 61.6501 62.1367 61.1807 62.1367C60.5016 62.1367 59.9274 62.016 59.458 61.7744C58.9886 61.5283 58.6331 61.2184 58.3916 60.8447C58.1501 60.4665 58.0293 60.0745 58.0293 59.6689H59.7588C59.7725 59.9561 59.8499 60.1862 59.9912 60.3594C60.1325 60.5326 60.3102 60.6579 60.5244 60.7354C60.7432 60.8083 60.9733 60.8447 61.2148 60.8447C61.4883 60.8447 61.7184 60.8083 61.9053 60.7354C62.0921 60.6579 62.2334 60.5553 62.3291 60.4277C62.4248 60.2956 62.4727 60.1452 62.4727 59.9766ZM71.5508 60.6328L73.2734 54.6035H75.1602L72.624 62H71.4756L71.5508 60.6328ZM70.293 54.6035L72.0361 60.6465L72.0977 62H70.9424L68.3994 54.6035H70.293ZM78.0244 54.6035V62H76.2129V54.6035H78.0244ZM76.0898 52.6689C76.0898 52.4001 76.181 52.1768 76.3633 51.999C76.5501 51.8213 76.8008 51.7324 77.1152 51.7324C77.4297 51.7324 77.6781 51.8213 77.8604 51.999C78.0472 52.1768 78.1406 52.4001 78.1406 52.6689C78.1406 52.9333 78.0472 53.1543 77.8604 53.332C77.6781 53.5098 77.4297 53.5986 77.1152 53.5986C76.8008 53.5986 76.5501 53.5098 76.3633 53.332C76.181 53.1543 76.0898 52.9333 76.0898 52.6689ZM83.8145 59.9766C83.8145 59.8216 83.7734 59.6826 83.6914 59.5596C83.6094 59.4365 83.4544 59.3249 83.2266 59.2246C83.0033 59.1198 82.6751 59.0218 82.2422 58.9307C81.8594 58.8486 81.5062 58.7461 81.1826 58.623C80.859 58.5 80.5811 58.3519 80.3486 58.1787C80.1162 58.001 79.9339 57.7936 79.8018 57.5566C79.6742 57.3151 79.6104 57.0371 79.6104 56.7227C79.6104 56.4173 79.6764 56.1302 79.8086 55.8613C79.9408 55.5879 80.1322 55.3486 80.3828 55.1436C80.6335 54.9339 80.9388 54.7699 81.2988 54.6514C81.6589 54.5283 82.0645 54.4668 82.5156 54.4668C83.1445 54.4668 83.6846 54.5693 84.1357 54.7744C84.5915 54.9795 84.9401 55.262 85.1816 55.6221C85.4232 55.9775 85.5439 56.3786 85.5439 56.8252H83.7393C83.7393 56.6292 83.6937 56.4515 83.6025 56.292C83.516 56.1325 83.3815 56.0049 83.1992 55.9092C83.0169 55.8089 82.7868 55.7588 82.5088 55.7588C82.2581 55.7588 82.0462 55.7998 81.873 55.8818C81.7044 55.9639 81.5768 56.071 81.4902 56.2031C81.4036 56.3353 81.3604 56.4811 81.3604 56.6406C81.3604 56.7591 81.3831 56.8662 81.4287 56.9619C81.4788 57.0531 81.5586 57.1374 81.668 57.2148C81.7773 57.2923 81.9255 57.363 82.1123 57.4268C82.3037 57.4906 82.5384 57.5521 82.8164 57.6113C83.3678 57.7207 83.8486 57.8665 84.2588 58.0488C84.6735 58.2266 84.9971 58.4635 85.2295 58.7598C85.4619 59.056 85.5781 59.4342 85.5781 59.8945C85.5781 60.2227 85.5075 60.5234 85.3662 60.7969C85.2249 61.0658 85.0199 61.3005 84.751 61.501C84.4821 61.7015 84.1608 61.8587 83.7871 61.9727C83.4134 62.082 82.9919 62.1367 82.5225 62.1367C81.8434 62.1367 81.2692 62.016 80.7998 61.7744C80.3304 61.5283 79.9749 61.2184 79.7334 60.8447C79.4919 60.4665 79.3711 60.0745 79.3711 59.6689H81.1006C81.1143 59.9561 81.1917 60.1862 81.333 60.3594C81.4743 60.5326 81.652 60.6579 81.8662 60.7354C82.085 60.8083 82.3151 60.8447 82.5566 60.8447C82.8301 60.8447 83.0602 60.8083 83.2471 60.7354C83.4339 60.6579 83.5752 60.5553 83.6709 60.4277C83.7666 60.2956 83.8145 60.1452 83.8145 59.9766ZM88.8662 54.6035V62H87.0547V54.6035H88.8662ZM86.9316 52.6689C86.9316 52.4001 87.0228 52.1768 87.2051 51.999C87.3919 51.8213 87.6426 51.7324 87.957 51.7324C88.2715 51.7324 88.5199 51.8213 88.7021 51.999C88.889 52.1768 88.9824 52.4001 88.9824 52.6689C88.9824 52.9333 88.889 53.1543 88.7021 53.332C88.5199 53.5098 88.2715 53.5986 87.957 53.5986C87.6426 53.5986 87.3919 53.5098 87.2051 53.332C87.0228 53.1543 86.9316 52.9333 86.9316 52.6689ZM90.582 51.5H92.3936V60.3662L92.2158 62H90.582V51.5ZM97.1514 58.2266V58.3701C97.1514 58.9215 97.0898 59.4274 96.9668 59.8877C96.8483 60.348 96.6683 60.7467 96.4268 61.084C96.1852 61.4167 95.8844 61.6764 95.5244 61.8633C95.1689 62.0456 94.752 62.1367 94.2734 62.1367C93.8177 62.1367 93.4212 62.0479 93.084 61.8701C92.7513 61.6924 92.471 61.4417 92.2432 61.1182C92.0153 60.79 91.833 60.4049 91.6963 59.9629C91.5596 59.5163 91.457 59.0286 91.3887 58.5V58.1104C91.457 57.5771 91.5596 57.0895 91.6963 56.6475C91.833 56.2054 92.0153 55.8203 92.2432 55.4922C92.471 55.1641 92.7513 54.9111 93.084 54.7334C93.4167 54.5557 93.8086 54.4668 94.2598 54.4668C94.7428 54.4668 95.1644 54.5602 95.5244 54.7471C95.889 54.9294 96.1898 55.1891 96.4268 55.5264C96.6683 55.859 96.8483 56.2555 96.9668 56.7158C97.0898 57.1715 97.1514 57.6751 97.1514 58.2266ZM95.3398 58.3701V58.2266C95.3398 57.9121 95.3148 57.6159 95.2646 57.3379C95.2145 57.0553 95.1325 56.807 95.0186 56.5928C94.9046 56.3786 94.7497 56.21 94.5537 56.0869C94.3577 55.9639 94.1117 55.9023 93.8154 55.9023C93.5329 55.9023 93.2913 55.9502 93.0908 56.0459C92.8949 56.1416 92.7308 56.2738 92.5986 56.4424C92.471 56.611 92.3708 56.8092 92.2979 57.0371C92.2295 57.265 92.1839 57.5111 92.1611 57.7754V58.8418C92.193 59.1927 92.2682 59.5094 92.3867 59.792C92.5052 60.07 92.6807 60.291 92.9131 60.4551C93.1501 60.6191 93.4554 60.7012 93.8291 60.7012C94.1208 60.7012 94.3646 60.6442 94.5605 60.5303C94.7565 60.4118 94.9115 60.2477 95.0254 60.0381C95.1393 59.8239 95.2191 59.5755 95.2646 59.293C95.3148 59.0104 95.3398 58.7028 95.3398 58.3701ZM100.378 51.5V62H98.5664V51.5H100.378ZM105.423 62.1367C104.862 62.1367 104.359 62.0456 103.912 61.8633C103.465 61.681 103.085 61.4281 102.771 61.1045C102.461 60.7764 102.221 60.3958 102.053 59.9629C101.889 59.5254 101.807 59.056 101.807 58.5547V58.2812C101.807 57.7116 101.889 57.1943 102.053 56.7295C102.217 56.2601 102.449 55.8568 102.75 55.5195C103.051 55.1823 103.411 54.9225 103.83 54.7402C104.249 54.5579 104.712 54.4668 105.218 54.4668C105.742 54.4668 106.204 54.5557 106.605 54.7334C107.007 54.9066 107.341 55.1527 107.61 55.4717C107.879 55.7907 108.082 56.1735 108.219 56.6201C108.355 57.0622 108.424 57.5521 108.424 58.0898V58.8486H102.627V57.6045H106.646V57.4678C106.637 57.1807 106.583 56.9186 106.482 56.6816C106.382 56.4401 106.227 56.2487 106.018 56.1074C105.808 55.9616 105.537 55.8887 105.204 55.8887C104.935 55.8887 104.701 55.9479 104.5 56.0664C104.304 56.1803 104.14 56.3444 104.008 56.5586C103.88 56.7682 103.785 57.0189 103.721 57.3105C103.657 57.6022 103.625 57.9258 103.625 58.2812V58.5547C103.625 58.8646 103.666 59.1517 103.748 59.416C103.835 59.6803 103.96 59.9105 104.124 60.1064C104.293 60.2979 104.493 60.4482 104.726 60.5576C104.963 60.6624 105.231 60.7148 105.532 60.7148C105.91 60.7148 106.252 60.6419 106.558 60.4961C106.868 60.3457 107.136 60.1247 107.364 59.833L108.273 60.7764C108.118 61.0042 107.909 61.223 107.645 61.4326C107.385 61.6423 107.07 61.8132 106.701 61.9453C106.332 62.0729 105.906 62.1367 105.423 62.1367ZM115.034 51.5V62H113.223V51.5H115.034ZM120.831 60.4277V57.0166C120.831 56.766 120.788 56.5495 120.701 56.3672C120.615 56.1849 120.482 56.0436 120.305 55.9434C120.127 55.8431 119.901 55.793 119.628 55.793C119.386 55.793 119.174 55.834 118.992 55.916C118.814 55.998 118.678 56.1143 118.582 56.2646C118.486 56.4105 118.438 56.5791 118.438 56.7705H116.627C116.627 56.4652 116.7 56.1758 116.846 55.9023C116.992 55.6243 117.199 55.3783 117.468 55.1641C117.741 54.9453 118.067 54.7744 118.445 54.6514C118.828 54.5283 119.257 54.4668 119.73 54.4668C120.291 54.4668 120.79 54.5625 121.228 54.7539C121.67 54.9408 122.016 55.2233 122.267 55.6016C122.522 55.9798 122.649 56.4561 122.649 57.0303V60.2568C122.649 60.626 122.672 60.9427 122.718 61.207C122.768 61.4668 122.841 61.6924 122.937 61.8838V62H121.098C121.011 61.8132 120.945 61.5762 120.899 61.2891C120.854 60.9974 120.831 60.7103 120.831 60.4277ZM121.084 57.4951L121.098 58.5684H119.956C119.674 58.5684 119.425 58.598 119.211 58.6572C118.997 58.7119 118.821 58.7939 118.685 58.9033C118.548 59.0081 118.445 59.1357 118.377 59.2861C118.309 59.432 118.274 59.5983 118.274 59.7852C118.274 59.9674 118.315 60.1315 118.397 60.2773C118.484 60.4232 118.607 60.5394 118.767 60.626C118.931 60.708 119.122 60.749 119.341 60.749C119.66 60.749 119.938 60.6852 120.175 60.5576C120.412 60.4255 120.596 60.266 120.729 60.0791C120.861 59.8923 120.931 59.7145 120.94 59.5459L121.46 60.3252C121.396 60.512 121.3 60.7103 121.173 60.9199C121.045 61.1296 120.881 61.3255 120.681 61.5078C120.48 61.6901 120.239 61.8405 119.956 61.959C119.674 62.0775 119.345 62.1367 118.972 62.1367C118.493 62.1367 118.065 62.041 117.687 61.8496C117.308 61.6582 117.01 61.3962 116.791 61.0635C116.572 60.7308 116.463 60.3525 116.463 59.9287C116.463 59.5368 116.536 59.1904 116.682 58.8896C116.827 58.5889 117.044 58.3359 117.331 58.1309C117.618 57.9212 117.974 57.764 118.397 57.6592C118.826 57.5498 119.316 57.4951 119.867 57.4951H121.084ZM132.199 60.4277V51.5H134.018V62H132.377L132.199 60.4277ZM127.448 58.3906V58.2471C127.448 57.682 127.512 57.1693 127.64 56.709C127.772 56.2441 127.963 55.8454 128.214 55.5127C128.465 55.18 128.768 54.9225 129.123 54.7402C129.483 54.5579 129.891 54.4668 130.347 54.4668C130.789 54.4668 131.174 54.5557 131.502 54.7334C131.835 54.9111 132.117 55.1641 132.35 55.4922C132.587 55.8203 132.776 56.21 132.917 56.6611C133.058 57.1077 133.161 57.5999 133.225 58.1377V58.5273C133.161 59.0514 133.058 59.5322 132.917 59.9697C132.776 60.4072 132.587 60.79 132.35 61.1182C132.117 61.4417 131.835 61.6924 131.502 61.8701C131.169 62.0479 130.78 62.1367 130.333 62.1367C129.882 62.1367 129.476 62.0433 129.116 61.8564C128.761 61.6696 128.458 61.4076 128.207 61.0703C127.961 60.7331 127.772 60.3366 127.64 59.8809C127.512 59.4251 127.448 58.9284 127.448 58.3906ZM129.26 58.2471V58.3906C129.26 58.7096 129.287 59.0081 129.342 59.2861C129.396 59.5641 129.485 59.8102 129.608 60.0244C129.731 60.234 129.889 60.3981 130.08 60.5166C130.276 60.6351 130.513 60.6943 130.791 60.6943C131.146 60.6943 131.438 60.6169 131.666 60.4619C131.898 60.3024 132.078 60.0859 132.206 59.8125C132.334 59.5345 132.416 59.2223 132.452 58.876V57.8027C132.434 57.5293 132.386 57.2764 132.309 57.0439C132.236 56.8115 132.131 56.611 131.994 56.4424C131.862 56.2738 131.698 56.1416 131.502 56.0459C131.306 55.9502 131.074 55.9023 130.805 55.9023C130.527 55.9023 130.29 55.9639 130.094 56.0869C129.898 56.2054 129.738 56.3717 129.615 56.5859C129.492 56.8001 129.401 57.0485 129.342 57.3311C129.287 57.6136 129.26 57.9189 129.26 58.2471ZM137.565 54.6035V62H135.754V54.6035H137.565ZM135.631 52.6689C135.631 52.4001 135.722 52.1768 135.904 51.999C136.091 51.8213 136.342 51.7324 136.656 51.7324C136.971 51.7324 137.219 51.8213 137.401 51.999C137.588 52.1768 137.682 52.4001 137.682 52.6689C137.682 52.9333 137.588 53.1543 137.401 53.332C137.219 53.5098 136.971 53.5986 136.656 53.5986C136.342 53.5986 136.091 53.5098 135.904 53.332C135.722 53.1543 135.631 52.9333 135.631 52.6689ZM143.991 54.6035H145.632V61.7744C145.632 62.4443 145.486 63.0117 145.194 63.4766C144.907 63.946 144.504 64.3014 143.984 64.543C143.465 64.7891 142.861 64.9121 142.173 64.9121C141.877 64.9121 141.555 64.8711 141.209 64.7891C140.867 64.707 140.537 64.5771 140.218 64.3994C139.903 64.2262 139.641 64.0007 139.432 63.7227L140.245 62.6562C140.491 62.9434 140.769 63.1598 141.079 63.3057C141.389 63.4561 141.724 63.5312 142.084 63.5312C142.449 63.5312 142.758 63.4629 143.014 63.3262C143.273 63.194 143.472 62.998 143.608 62.7383C143.75 62.4831 143.82 62.1686 143.82 61.7949V56.292L143.991 54.6035ZM138.994 58.3906V58.2471C138.994 57.682 139.062 57.1693 139.199 56.709C139.336 56.2441 139.532 55.8454 139.787 55.5127C140.047 55.18 140.359 54.9225 140.724 54.7402C141.093 54.5579 141.507 54.4668 141.968 54.4668C142.455 54.4668 142.866 54.5557 143.198 54.7334C143.535 54.9111 143.813 55.1641 144.032 55.4922C144.256 55.8203 144.429 56.21 144.552 56.6611C144.679 57.1077 144.777 57.5999 144.846 58.1377V58.5273C144.782 59.0514 144.679 59.5322 144.538 59.9697C144.401 60.4072 144.219 60.79 143.991 61.1182C143.763 61.4417 143.481 61.6924 143.144 61.8701C142.806 62.0479 142.41 62.1367 141.954 62.1367C141.498 62.1367 141.088 62.0433 140.724 61.8564C140.359 61.6696 140.047 61.4076 139.787 61.0703C139.532 60.7331 139.336 60.3366 139.199 59.8809C139.062 59.4251 138.994 58.9284 138.994 58.3906ZM140.799 58.2471V58.3906C140.799 58.7096 140.831 59.0081 140.895 59.2861C140.958 59.5641 141.056 59.8102 141.188 60.0244C141.321 60.234 141.487 60.3981 141.688 60.5166C141.888 60.6351 142.127 60.6943 142.405 60.6943C142.779 60.6943 143.084 60.6169 143.321 60.4619C143.563 60.3024 143.745 60.0859 143.868 59.8125C143.996 59.5345 144.078 59.2223 144.114 58.876V57.8027C144.091 57.5293 144.041 57.2764 143.964 57.0439C143.891 56.8115 143.788 56.611 143.656 56.4424C143.524 56.2738 143.355 56.1416 143.15 56.0459C142.945 55.9502 142.701 55.9023 142.419 55.9023C142.146 55.9023 141.906 55.9639 141.701 56.0869C141.496 56.2054 141.327 56.3717 141.195 56.5859C141.063 56.8001 140.963 57.0485 140.895 57.3311C140.831 57.6136 140.799 57.9189 140.799 58.2471ZM149.173 54.6035V62H147.361V54.6035H149.173ZM147.238 52.6689C147.238 52.4001 147.329 52.1768 147.512 51.999C147.699 51.8213 147.949 51.7324 148.264 51.7324C148.578 51.7324 148.826 51.8213 149.009 51.999C149.196 52.1768 149.289 52.4001 149.289 52.6689C149.289 52.9333 149.196 53.1543 149.009 53.332C148.826 53.5098 148.578 53.5986 148.264 53.5986C147.949 53.5986 147.699 53.5098 147.512 53.332C147.329 53.1543 147.238 52.9333 147.238 52.6689ZM154.396 54.6035V55.9023H150.157V54.6035H154.396ZM151.292 52.7852H153.104V59.8672C153.104 60.0859 153.133 60.2546 153.192 60.373C153.252 60.4915 153.34 60.5713 153.459 60.6123C153.577 60.6533 153.719 60.6738 153.883 60.6738C154.001 60.6738 154.111 60.667 154.211 60.6533C154.311 60.6396 154.396 60.626 154.464 60.6123L154.471 61.9658C154.32 62.016 154.149 62.057 153.958 62.0889C153.771 62.1208 153.559 62.1367 153.322 62.1367C152.917 62.1367 152.561 62.0684 152.256 61.9316C151.951 61.7904 151.714 61.5648 151.545 61.2549C151.376 60.9404 151.292 60.5257 151.292 60.0107V52.7852ZM159.673 60.4277V57.0166C159.673 56.766 159.63 56.5495 159.543 56.3672C159.456 56.1849 159.324 56.0436 159.146 55.9434C158.969 55.8431 158.743 55.793 158.47 55.793C158.228 55.793 158.016 55.834 157.834 55.916C157.656 55.998 157.52 56.1143 157.424 56.2646C157.328 56.4105 157.28 56.5791 157.28 56.7705H155.469C155.469 56.4652 155.542 56.1758 155.688 55.9023C155.833 55.6243 156.041 55.3783 156.31 55.1641C156.583 54.9453 156.909 54.7744 157.287 54.6514C157.67 54.5283 158.098 54.4668 158.572 54.4668C159.133 54.4668 159.632 54.5625 160.069 54.7539C160.511 54.9408 160.858 55.2233 161.108 55.6016C161.364 55.9798 161.491 56.4561 161.491 57.0303V60.2568C161.491 60.626 161.514 60.9427 161.56 61.207C161.61 61.4668 161.683 61.6924 161.778 61.8838V62H159.939C159.853 61.8132 159.787 61.5762 159.741 61.2891C159.696 60.9974 159.673 60.7103 159.673 60.4277ZM159.926 57.4951L159.939 58.5684H158.798C158.515 58.5684 158.267 58.598 158.053 58.6572C157.839 58.7119 157.663 58.7939 157.526 58.9033C157.39 59.0081 157.287 59.1357 157.219 59.2861C157.15 59.432 157.116 59.5983 157.116 59.7852C157.116 59.9674 157.157 60.1315 157.239 60.2773C157.326 60.4232 157.449 60.5394 157.608 60.626C157.772 60.708 157.964 60.749 158.183 60.749C158.502 60.749 158.78 60.6852 159.017 60.5576C159.254 60.4255 159.438 60.266 159.57 60.0791C159.702 59.8923 159.773 59.7145 159.782 59.5459L160.302 60.3252C160.238 60.512 160.142 60.7103 160.015 60.9199C159.887 61.1296 159.723 61.3255 159.522 61.5078C159.322 61.6901 159.08 61.8405 158.798 61.959C158.515 62.0775 158.187 62.1367 157.813 62.1367C157.335 62.1367 156.907 62.041 156.528 61.8496C156.15 61.6582 155.852 61.3962 155.633 61.0635C155.414 60.7308 155.305 60.3525 155.305 59.9287C155.305 59.5368 155.378 59.1904 155.523 58.8896C155.669 58.5889 155.886 58.3359 156.173 58.1309C156.46 57.9212 156.815 57.764 157.239 57.6592C157.668 57.5498 158.158 57.4951 158.709 57.4951H159.926ZM165.032 51.5V62H163.221V51.5H165.032ZM168.669 54.6035V62H166.857V54.6035H168.669ZM166.734 52.6689C166.734 52.4001 166.826 52.1768 167.008 51.999C167.195 51.8213 167.445 51.7324 167.76 51.7324C168.074 51.7324 168.323 51.8213 168.505 51.999C168.692 52.1768 168.785 52.4001 168.785 52.6689C168.785 52.9333 168.692 53.1543 168.505 53.332C168.323 53.5098 168.074 53.5986 167.76 53.5986C167.445 53.5986 167.195 53.5098 167.008 53.332C166.826 53.1543 166.734 52.9333 166.734 52.6689ZM176.188 60.5781V62H170.624V60.5781H176.188ZM176.059 55.6836L171.301 62H170.111V60.8857L174.842 54.6035H176.059V55.6836ZM175.396 54.6035V56.0322H170.207V54.6035H175.396ZM181.548 60.4277V57.0166C181.548 56.766 181.505 56.5495 181.418 56.3672C181.331 56.1849 181.199 56.0436 181.021 55.9434C180.844 55.8431 180.618 55.793 180.345 55.793C180.103 55.793 179.891 55.834 179.709 55.916C179.531 55.998 179.395 56.1143 179.299 56.2646C179.203 56.4105 179.155 56.5791 179.155 56.7705H177.344C177.344 56.4652 177.417 56.1758 177.562 55.9023C177.708 55.6243 177.916 55.3783 178.185 55.1641C178.458 54.9453 178.784 54.7744 179.162 54.6514C179.545 54.5283 179.973 54.4668 180.447 54.4668C181.008 54.4668 181.507 54.5625 181.944 54.7539C182.386 54.9408 182.733 55.2233 182.983 55.6016C183.239 55.9798 183.366 56.4561 183.366 57.0303V60.2568C183.366 60.626 183.389 60.9427 183.435 61.207C183.485 61.4668 183.558 61.6924 183.653 61.8838V62H181.814C181.728 61.8132 181.662 61.5762 181.616 61.2891C181.571 60.9974 181.548 60.7103 181.548 60.4277ZM181.801 57.4951L181.814 58.5684H180.673C180.39 58.5684 180.142 58.598 179.928 58.6572C179.714 58.7119 179.538 58.7939 179.401 58.9033C179.265 59.0081 179.162 59.1357 179.094 59.2861C179.025 59.432 178.991 59.5983 178.991 59.7852C178.991 59.9674 179.032 60.1315 179.114 60.2773C179.201 60.4232 179.324 60.5394 179.483 60.626C179.647 60.708 179.839 60.749 180.058 60.749C180.377 60.749 180.655 60.6852 180.892 60.5576C181.129 60.4255 181.313 60.266 181.445 60.0791C181.577 59.8923 181.648 59.7145 181.657 59.5459L182.177 60.3252C182.113 60.512 182.017 60.7103 181.89 60.9199C181.762 61.1296 181.598 61.3255 181.397 61.5078C181.197 61.6901 180.955 61.8405 180.673 61.959C180.39 62.0775 180.062 62.1367 179.688 62.1367C179.21 62.1367 178.782 62.041 178.403 61.8496C178.025 61.6582 177.727 61.3962 177.508 61.0635C177.289 60.7308 177.18 60.3525 177.18 59.9287C177.18 59.5368 177.253 59.1904 177.398 58.8896C177.544 58.5889 177.761 58.3359 178.048 58.1309C178.335 57.9212 178.69 57.764 179.114 57.6592C179.543 57.5498 180.033 57.4951 180.584 57.4951H181.801ZM188.028 60.7148C188.284 60.7148 188.511 60.6647 188.712 60.5645C188.912 60.4642 189.072 60.3229 189.19 60.1406C189.313 59.9583 189.38 59.7464 189.389 59.5049H191.091C191.082 60.0062 190.94 60.4551 190.667 60.8516C190.394 61.248 190.029 61.5625 189.573 61.7949C189.122 62.0228 188.616 62.1367 188.056 62.1367C187.486 62.1367 186.989 62.041 186.565 61.8496C186.142 61.6582 185.788 61.3916 185.506 61.0498C185.228 60.708 185.018 60.3115 184.877 59.8604C184.74 59.4092 184.672 58.9261 184.672 58.4111V58.1924C184.672 57.6774 184.74 57.1943 184.877 56.7432C185.018 56.292 185.228 55.8955 185.506 55.5537C185.788 55.2119 186.142 54.9453 186.565 54.7539C186.989 54.5625 187.484 54.4668 188.049 54.4668C188.646 54.4668 189.17 54.583 189.621 54.8154C190.077 55.0479 190.432 55.376 190.688 55.7998C190.947 56.2236 191.082 56.7227 191.091 57.2969H189.389C189.38 57.0326 189.32 56.7956 189.211 56.5859C189.102 56.3763 188.947 56.2077 188.746 56.0801C188.546 55.9525 188.302 55.8887 188.015 55.8887C187.709 55.8887 187.454 55.9525 187.249 56.0801C187.049 56.2077 186.891 56.3831 186.777 56.6064C186.668 56.8252 186.59 57.0713 186.545 57.3447C186.504 57.6136 186.483 57.8962 186.483 58.1924V58.4111C186.483 58.7119 186.504 58.999 186.545 59.2725C186.59 59.5459 186.668 59.792 186.777 60.0107C186.891 60.2249 187.049 60.3958 187.249 60.5234C187.454 60.651 187.714 60.7148 188.028 60.7148ZM194.208 54.6035V62H192.396V54.6035H194.208ZM192.273 52.6689C192.273 52.4001 192.365 52.1768 192.547 51.999C192.734 51.8213 192.984 51.7324 193.299 51.7324C193.613 51.7324 193.862 51.8213 194.044 51.999C194.231 52.1768 194.324 52.4001 194.324 52.6689C194.324 52.9333 194.231 53.1543 194.044 53.332C193.862 53.5098 193.613 53.5986 193.299 53.5986C192.984 53.5986 192.734 53.5098 192.547 53.332C192.365 53.1543 192.273 52.9333 192.273 52.6689ZM195.609 58.377V58.2334C195.609 57.6911 195.687 57.1921 195.842 56.7363C195.997 56.276 196.222 55.8773 196.519 55.54C196.815 55.2028 197.177 54.9408 197.605 54.7539C198.034 54.5625 198.521 54.4668 199.068 54.4668C199.624 54.4668 200.117 54.5625 200.545 54.7539C200.978 54.9408 201.342 55.2028 201.639 55.54C201.935 55.8773 202.16 56.276 202.315 56.7363C202.47 57.1921 202.548 57.6911 202.548 58.2334V58.377C202.548 58.9147 202.47 59.4137 202.315 59.874C202.16 60.3298 201.935 60.7285 201.639 61.0703C201.342 61.4076 200.98 61.6696 200.552 61.8564C200.123 62.0433 199.633 62.1367 199.082 62.1367C198.535 62.1367 198.045 62.0433 197.612 61.8564C197.179 61.6696 196.815 61.4076 196.519 61.0703C196.222 60.7285 195.997 60.3298 195.842 59.874C195.687 59.4137 195.609 58.9147 195.609 58.377ZM197.414 58.2334V58.377C197.414 58.7005 197.446 59.0036 197.51 59.2861C197.574 59.5687 197.672 59.8171 197.804 60.0312C197.936 60.2454 198.107 60.4141 198.316 60.5371C198.531 60.6556 198.786 60.7148 199.082 60.7148C199.374 60.7148 199.624 60.6556 199.834 60.5371C200.044 60.4141 200.215 60.2454 200.347 60.0312C200.483 59.8171 200.584 59.5687 200.647 59.2861C200.711 59.0036 200.743 58.7005 200.743 58.377V58.2334C200.743 57.9144 200.711 57.6159 200.647 57.3379C200.584 57.0553 200.483 56.807 200.347 56.5928C200.215 56.374 200.041 56.2031 199.827 56.0801C199.618 55.9525 199.365 55.8887 199.068 55.8887C198.777 55.8887 198.526 55.9525 198.316 56.0801C198.107 56.2031 197.936 56.374 197.804 56.5928C197.672 56.807 197.574 57.0553 197.51 57.3379C197.446 57.6159 197.414 57.9144 197.414 58.2334ZM198.173 53.5781L199.513 51.5H201.509L199.643 53.5781H198.173ZM205.631 56.1826V62H203.826V54.6035H205.521L205.631 56.1826ZM205.344 58.0352H204.811C204.815 57.4974 204.888 57.0098 205.029 56.5723C205.171 56.1348 205.369 55.7588 205.624 55.4443C205.884 55.1299 206.191 54.8883 206.547 54.7197C206.902 54.5511 207.299 54.4668 207.736 54.4668C208.092 54.4668 208.413 54.5169 208.7 54.6172C208.987 54.7174 209.233 54.877 209.438 55.0957C209.648 55.3145 209.808 55.6016 209.917 55.957C210.031 56.3079 210.088 56.7409 210.088 57.2559V62H208.27V57.2422C208.27 56.9049 208.219 56.6383 208.119 56.4424C208.023 56.2464 207.882 56.1074 207.695 56.0254C207.513 55.9434 207.287 55.9023 207.019 55.9023C206.741 55.9023 206.497 55.9593 206.287 56.0732C206.082 56.1826 205.909 56.3353 205.768 56.5312C205.631 56.7272 205.526 56.9528 205.453 57.208C205.38 57.4632 205.344 57.7389 205.344 58.0352ZM213.738 52.0469L213.54 59.0127H212.016L211.817 52.0469H213.738ZM211.763 61.1592C211.763 60.8903 211.854 60.6647 212.036 60.4824C212.223 60.2956 212.474 60.2021 212.788 60.2021C213.103 60.2021 213.351 60.2956 213.533 60.4824C213.72 60.6647 213.813 60.8903 213.813 61.1592C213.813 61.4235 213.72 61.6468 213.533 61.8291C213.351 62.0114 213.103 62.1025 212.788 62.1025C212.474 62.1025 212.223 62.0114 212.036 61.8291C211.854 61.6468 211.763 61.4235 211.763 61.1592Z" fill="#DCA54C"/>
<path d="M53.244 35V10.52H56.032V35H53.244ZM69.8315 35V13.274H58.9515V10.52H83.4315V13.274H72.5855V35H69.8315ZM86.0763 26.33V23.542H99.3363V26.33H86.0763ZM103.607 35V10.52H124.007C124.755 10.52 125.435 10.7013 126.047 11.064C126.681 11.4267 127.18 11.9253 127.543 12.56C127.905 13.172 128.087 13.852 128.087 14.6V30.92C128.087 31.668 127.905 32.3593 127.543 32.994C127.18 33.606 126.681 34.0933 126.047 34.456C125.435 34.8187 124.755 35 124.007 35H103.607ZM107.687 32.246H124.007C124.369 32.246 124.675 32.1213 124.925 31.872C125.197 31.6 125.333 31.2827 125.333 30.92V14.6C125.333 14.2373 125.197 13.9313 124.925 13.682C124.675 13.41 124.369 13.274 124.007 13.274H107.687C107.324 13.274 107.007 13.41 106.735 13.682C106.485 13.9313 106.361 14.2373 106.361 14.6V30.92C106.361 31.2827 106.485 31.6 106.735 31.872C107.007 32.1213 107.324 32.246 107.687 32.246ZM135.838 35C135.09 35 134.399 34.8187 133.764 34.456C133.152 34.0707 132.654 33.572 132.268 32.96C131.906 32.3253 131.724 31.634 131.724 30.886V19.394C131.724 18.646 131.906 17.966 132.268 17.354C132.654 16.7193 133.152 16.2207 133.764 15.858C134.399 15.4727 135.09 15.28 135.838 15.28H147.67C148.441 15.28 149.132 15.4727 149.744 15.858C150.379 16.2207 150.878 16.7193 151.24 17.354C151.626 17.966 151.818 18.646 151.818 19.394V30.886C151.818 31.634 151.626 32.3253 151.24 32.96C150.878 33.572 150.379 34.0707 149.744 34.456C149.132 34.8187 148.441 35 147.67 35H135.838ZM135.838 32.212H147.67C148.033 32.212 148.339 32.0873 148.588 31.838C148.86 31.566 148.996 31.2487 148.996 30.886V19.394C148.996 19.0313 148.86 18.7253 148.588 18.476C148.339 18.204 148.033 18.068 147.67 18.068H135.838C135.476 18.068 135.158 18.204 134.886 18.476C134.637 18.7253 134.512 19.0313 134.512 19.394V30.886C134.512 31.2487 134.637 31.566 134.886 31.838C135.158 32.0873 135.476 32.212 135.838 32.212ZM155.367 35V8.82H158.155V15.28H171.347C172.095 15.28 172.775 15.4727 173.387 15.858C174.022 16.2207 174.521 16.7193 174.883 17.354C175.269 17.966 175.461 18.646 175.461 19.394V30.886C175.461 31.634 175.269 32.3253 174.883 32.96C174.521 33.572 174.022 34.0707 173.387 34.456C172.775 34.8187 172.095 35 171.347 35H155.367ZM159.515 32.212H171.347C171.71 32.212 172.016 32.0873 172.265 31.838C172.537 31.566 172.673 31.2487 172.673 30.886V19.394C172.673 19.0313 172.537 18.7253 172.265 18.476C172.016 18.204 171.71 18.068 171.347 18.068H159.515C159.153 18.068 158.835 18.204 158.563 18.476C158.291 18.7253 158.155 19.0313 158.155 19.394V30.886C158.155 31.2487 158.291 31.566 158.563 31.838C158.835 32.0873 159.153 32.212 159.515 32.212ZM182.091 35C181.343 35 180.652 34.8187 180.017 34.456C179.405 34.0707 178.906 33.572 178.521 32.96C178.158 32.3253 177.977 31.634 177.977 30.886V8.82H180.765V30.886C180.765 31.2487 180.89 31.566 181.139 31.838C181.411 32.0873 181.728 32.212 182.091 32.212H185.423V35H182.091ZM191.819 35C191.071 35 190.379 34.8187 189.745 34.456C189.133 34.0707 188.634 33.572 188.249 32.96C187.886 32.3253 187.705 31.634 187.705 30.886V19.394C187.705 18.646 187.886 17.966 188.249 17.354C188.634 16.7193 189.133 16.2207 189.745 15.858C190.379 15.4727 191.071 15.28 191.819 15.28H203.651C204.421 15.28 205.113 15.4727 205.725 15.858C206.359 16.2207 206.858 16.7193 207.221 17.354C207.606 17.966 207.799 18.646 207.799 19.394V26.534H190.493V30.886C190.493 31.2487 190.617 31.566 190.867 31.838C191.139 32.0873 191.456 32.212 191.819 32.212H207.799V35H191.819ZM190.493 23.746H204.977V19.394C204.977 19.0313 204.841 18.7253 204.569 18.476C204.319 18.204 204.013 18.068 203.651 18.068H191.819C191.456 18.068 191.139 18.204 190.867 18.476C190.617 18.7253 190.493 19.0313 190.493 19.394V23.746ZM211.114 35V19.394C211.114 18.646 211.295 17.966 211.658 17.354C212.043 16.7193 212.542 16.2207 213.154 15.858C213.788 15.4727 214.48 15.28 215.228 15.28H226.312V18.068H215.228C214.865 18.068 214.548 18.204 214.276 18.476C214.026 18.7253 213.902 19.0313 213.902 19.394V35H211.114Z" fill="#09090B"/>
</svg>
