<svg width="228" height="65" viewBox="0 0 228 65" fill="none" xmlns="http://www.w3.org/2000/svg">
<path d="M1.55469 12.0781H5.98426C6.42744 12.0781 6.80699 11.9218 7.12511 11.6047C7.44324 11.2898 7.60339 10.9141 7.60339 10.4753V6.70508H1.55469V12.076V12.0781Z" fill="#DCA54C"/>
<path d="M30.6749 9.45894C30.1637 8.60976 29.4858 7.93867 28.6411 7.44567C27.7965 6.95266 26.8618 6.70508 25.8395 6.70508H10.9667V10.4753C10.9667 11.3788 10.7451 12.2085 10.3019 12.9621C9.85877 13.7157 9.25763 14.3108 8.49633 14.7495C7.73503 15.1882 6.89694 15.4075 5.98426 15.4075H1.55469V36.2939H10.947V16.007H31.4428V12.2541C31.4428 11.2398 31.1861 10.3081 30.6749 9.45894Z" fill="#DCA54C"/>
<path d="M14.7869 19.8077C14.4688 20.1226 14.3086 20.5005 14.3086 20.937V36.2917H25.8378C26.8623 36.2917 27.7948 36.0441 28.6394 35.5511C29.4841 35.0581 30.162 34.387 30.6732 33.5379C31.1844 32.6887 31.4411 31.757 31.4411 30.7427V19.332H15.9255C15.4824 19.332 15.1028 19.4906 14.7847 19.8055L14.7869 19.8077Z" fill="#DCA54C"/>
<path d="M52.244 35V10.52H55.032V35H52.244ZM68.8315 35V13.274H57.9515V10.52H82.4315V13.274H71.5855V35H68.8315ZM85.0763 26.33V23.542H98.3363V26.33H85.0763ZM102.607 35V10.52H123.007C123.755 10.52 124.435 10.7013 125.047 11.064C125.681 11.4267 126.18 11.9253 126.543 12.56C126.905 13.172 127.087 13.852 127.087 14.6V30.92C127.087 31.668 126.905 32.3593 126.543 32.994C126.18 33.606 125.681 34.0933 125.047 34.456C124.435 34.8187 123.755 35 123.007 35H102.607ZM106.687 32.246H123.007C123.369 32.246 123.675 32.1213 123.925 31.872C124.197 31.6 124.333 31.2827 124.333 30.92V14.6C124.333 14.2373 124.197 13.9313 123.925 13.682C123.675 13.41 123.369 13.274 123.007 13.274H106.687C106.324 13.274 106.007 13.41 105.735 13.682C105.485 13.9313 105.361 14.2373 105.361 14.6V30.92C105.361 31.2827 105.485 31.6 105.735 31.872C106.007 32.1213 106.324 32.246 106.687 32.246ZM134.838 35C134.09 35 133.399 34.8187 132.764 34.456C132.152 34.0707 131.654 33.572 131.268 32.96C130.906 32.3253 130.724 31.634 130.724 30.886V19.394C130.724 18.646 130.906 17.966 131.268 17.354C131.654 16.7193 132.152 16.2207 132.764 15.858C133.399 15.4727 134.09 15.28 134.838 15.28H146.67C147.441 15.28 148.132 15.4727 148.744 15.858C149.379 16.2207 149.878 16.7193 150.24 17.354C150.626 17.966 150.818 18.646 150.818 19.394V30.886C150.818 31.634 150.626 32.3253 150.24 32.96C149.878 33.572 149.379 34.0707 148.744 34.456C148.132 34.8187 147.441 35 146.67 35H134.838ZM134.838 32.212H146.67C147.033 32.212 147.339 32.0873 147.588 31.838C147.86 31.566 147.996 31.2487 147.996 30.886V19.394C147.996 19.0313 147.86 18.7253 147.588 18.476C147.339 18.204 147.033 18.068 146.67 18.068H134.838C134.476 18.068 134.158 18.204 133.886 18.476C133.637 18.7253 133.512 19.0313 133.512 19.394V30.886C133.512 31.2487 133.637 31.566 133.886 31.838C134.158 32.0873 134.476 32.212 134.838 32.212ZM154.367 35V8.82H157.155V15.28H170.347C171.095 15.28 171.775 15.4727 172.387 15.858C173.022 16.2207 173.521 16.7193 173.883 17.354C174.269 17.966 174.461 18.646 174.461 19.394V30.886C174.461 31.634 174.269 32.3253 173.883 32.96C173.521 33.572 173.022 34.0707 172.387 34.456C171.775 34.8187 171.095 35 170.347 35H154.367ZM158.515 32.212H170.347C170.71 32.212 171.016 32.0873 171.265 31.838C171.537 31.566 171.673 31.2487 171.673 30.886V19.394C171.673 19.0313 171.537 18.7253 171.265 18.476C171.016 18.204 170.71 18.068 170.347 18.068H158.515C158.153 18.068 157.835 18.204 157.563 18.476C157.291 18.7253 157.155 19.0313 157.155 19.394V30.886C157.155 31.2487 157.291 31.566 157.563 31.838C157.835 32.0873 158.153 32.212 158.515 32.212ZM181.091 35C180.343 35 179.652 34.8187 179.017 34.456C178.405 34.0707 177.906 33.572 177.521 32.96C177.158 32.3253 176.977 31.634 176.977 30.886V8.82H179.765V30.886C179.765 31.2487 179.89 31.566 180.139 31.838C180.411 32.0873 180.728 32.212 181.091 32.212H184.423V35H181.091ZM190.819 35C190.071 35 189.379 34.8187 188.745 34.456C188.133 34.0707 187.634 33.572 187.249 32.96C186.886 32.3253 186.705 31.634 186.705 30.886V19.394C186.705 18.646 186.886 17.966 187.249 17.354C187.634 16.7193 188.133 16.2207 188.745 15.858C189.379 15.4727 190.071 15.28 190.819 15.28H202.651C203.421 15.28 204.113 15.4727 204.725 15.858C205.359 16.2207 205.858 16.7193 206.221 17.354C206.606 17.966 206.799 18.646 206.799 19.394V26.534H189.493V30.886C189.493 31.2487 189.617 31.566 189.867 31.838C190.139 32.0873 190.456 32.212 190.819 32.212H206.799V35H190.819ZM189.493 23.746H203.977V19.394C203.977 19.0313 203.841 18.7253 203.569 18.476C203.319 18.204 203.013 18.068 202.651 18.068H190.819C190.456 18.068 190.139 18.204 189.867 18.476C189.617 18.7253 189.493 19.0313 189.493 19.394V23.746ZM210.114 35V19.394C210.114 18.646 210.295 17.966 210.658 17.354C211.043 16.7193 211.542 16.2207 212.154 15.858C212.788 15.4727 213.48 15.28 214.228 15.28H225.312V18.068H214.228C213.865 18.068 213.548 18.204 213.276 18.476C213.026 18.7253 212.902 19.0313 212.902 19.394V35H210.114Z" fill="#09090B"/>
<path d="M5.32324 60.0928L7.30566 52.0469H8.37891L8.44727 53.7422L6.32812 62H5.19336L5.32324 60.0928ZM4.07227 52.0469L5.69922 60.0654V62H4.46191L2.20605 52.0469H4.07227ZM10.5049 60.0312L12.1045 52.0469H13.9775L11.7217 62H10.4844L10.5049 60.0312ZM8.8916 52.0469L10.874 60.1201L10.9902 62H9.85547L7.74316 53.7354L7.8252 52.0469H8.8916ZM18.1338 62.1367C17.5732 62.1367 17.0697 62.0456 16.623 61.8633C16.1764 61.681 15.7959 61.4281 15.4814 61.1045C15.1715 60.7764 14.9323 60.3958 14.7637 59.9629C14.5996 59.5254 14.5176 59.056 14.5176 58.5547V58.2812C14.5176 57.7116 14.5996 57.1943 14.7637 56.7295C14.9277 56.2601 15.1602 55.8568 15.4609 55.5195C15.7617 55.1823 16.1217 54.9225 16.541 54.7402C16.9603 54.5579 17.4229 54.4668 17.9287 54.4668C18.4528 54.4668 18.9154 54.5557 19.3164 54.7334C19.7174 54.9066 20.0524 55.1527 20.3213 55.4717C20.5902 55.7907 20.793 56.1735 20.9297 56.6201C21.0664 57.0622 21.1348 57.5521 21.1348 58.0898V58.8486H15.3379V57.6045H19.3574V57.4678C19.3483 57.1807 19.2936 56.9186 19.1934 56.6816C19.0931 56.4401 18.9382 56.2487 18.7285 56.1074C18.5189 55.9616 18.2477 55.8887 17.915 55.8887C17.6462 55.8887 17.4115 55.9479 17.2109 56.0664C17.015 56.1803 16.8509 56.3444 16.7188 56.5586C16.5911 56.7682 16.4954 57.0189 16.4316 57.3105C16.3678 57.6022 16.3359 57.9258 16.3359 58.2812V58.5547C16.3359 58.8646 16.377 59.1517 16.459 59.416C16.5456 59.6803 16.6709 59.9105 16.835 60.1064C17.0036 60.2979 17.2041 60.4482 17.4365 60.5576C17.6735 60.6624 17.9424 60.7148 18.2432 60.7148C18.6214 60.7148 18.9632 60.6419 19.2686 60.4961C19.5785 60.3457 19.8473 60.1247 20.0752 59.833L20.9844 60.7764C20.8294 61.0042 20.6198 61.223 20.3555 61.4326C20.0957 61.6423 19.7812 61.8132 19.4121 61.9453C19.043 62.0729 18.6169 62.1367 18.1338 62.1367ZM27.6289 56.1211V62H25.8242V54.6035H27.5264L27.6289 56.1211ZM27.3623 58.0352H26.8086C26.8086 57.5202 26.8701 57.0462 26.9932 56.6133C27.1208 56.1803 27.3076 55.8044 27.5537 55.4854C27.7998 55.1618 28.1029 54.9111 28.4629 54.7334C28.8275 54.5557 29.249 54.4668 29.7275 54.4668C30.0602 54.4668 30.3656 54.5169 30.6436 54.6172C30.9215 54.7129 31.1608 54.8656 31.3613 55.0752C31.5664 55.2803 31.7236 55.5492 31.833 55.8818C31.9424 56.21 31.9971 56.6042 31.9971 57.0645V62H30.1924V57.249C30.1924 56.9027 30.1423 56.6315 30.042 56.4355C29.9463 56.2396 29.8073 56.1029 29.625 56.0254C29.4427 55.9434 29.224 55.9023 28.9688 55.9023C28.6862 55.9023 28.4424 55.9593 28.2373 56.0732C28.0368 56.1826 27.8704 56.3353 27.7383 56.5312C27.6107 56.7272 27.515 56.9528 27.4512 57.208C27.3919 57.4632 27.3623 57.7389 27.3623 58.0352ZM31.8604 57.7002L31.1152 57.8369C31.1198 57.3721 31.1836 56.9368 31.3066 56.5312C31.4297 56.1211 31.6097 55.7633 31.8467 55.458C32.0882 55.1481 32.3867 54.9066 32.7422 54.7334C33.1022 54.5557 33.5169 54.4668 33.9863 54.4668C34.3509 54.4668 34.679 54.5192 34.9707 54.624C35.2669 54.7243 35.5199 54.8861 35.7295 55.1094C35.9391 55.3281 36.0986 55.613 36.208 55.9639C36.3219 56.3148 36.3789 56.7432 36.3789 57.249V62H34.5605V57.2422C34.5605 56.8822 34.5104 56.6064 34.4102 56.415C34.3145 56.2236 34.1755 56.0915 33.9932 56.0186C33.8109 55.9411 33.5967 55.9023 33.3506 55.9023C33.0999 55.9023 32.8812 55.9502 32.6943 56.0459C32.512 56.137 32.3571 56.2646 32.2295 56.4287C32.1064 56.5928 32.013 56.7842 31.9492 57.0029C31.89 57.2171 31.8604 57.4495 31.8604 57.7002ZM42.0732 60.4277V57.0166C42.0732 56.766 42.0299 56.5495 41.9434 56.3672C41.8568 56.1849 41.7246 56.0436 41.5469 55.9434C41.3691 55.8431 41.1436 55.793 40.8701 55.793C40.6286 55.793 40.4167 55.834 40.2344 55.916C40.0566 55.998 39.9199 56.1143 39.8242 56.2646C39.7285 56.4105 39.6807 56.5791 39.6807 56.7705H37.8691C37.8691 56.4652 37.9421 56.1758 38.0879 55.9023C38.2337 55.6243 38.4411 55.3783 38.71 55.1641C38.9834 54.9453 39.3092 54.7744 39.6875 54.6514C40.0703 54.5283 40.4987 54.4668 40.9727 54.4668C41.5332 54.4668 42.0322 54.5625 42.4697 54.7539C42.9118 54.9408 43.2581 55.2233 43.5088 55.6016C43.764 55.9798 43.8916 56.4561 43.8916 57.0303V60.2568C43.8916 60.626 43.9144 60.9427 43.96 61.207C44.0101 61.4668 44.083 61.6924 44.1787 61.8838V62H42.3398C42.2533 61.8132 42.1872 61.5762 42.1416 61.2891C42.096 60.9974 42.0732 60.7103 42.0732 60.4277ZM42.3262 57.4951L42.3398 58.5684H41.1982C40.9157 58.5684 40.6673 58.598 40.4531 58.6572C40.2389 58.7119 40.0635 58.7939 39.9268 58.9033C39.79 59.0081 39.6875 59.1357 39.6191 59.2861C39.5508 59.432 39.5166 59.5983 39.5166 59.7852C39.5166 59.9674 39.5576 60.1315 39.6396 60.2773C39.7262 60.4232 39.8493 60.5394 40.0088 60.626C40.1729 60.708 40.3643 60.749 40.583 60.749C40.902 60.749 41.18 60.6852 41.417 60.5576C41.654 60.4255 41.8385 60.266 41.9707 60.0791C42.1029 59.8923 42.1735 59.7145 42.1826 59.5459L42.7021 60.3252C42.6383 60.512 42.5426 60.7103 42.415 60.9199C42.2874 61.1296 42.1234 61.3255 41.9229 61.5078C41.7223 61.6901 41.4808 61.8405 41.1982 61.959C40.9157 62.0775 40.5876 62.1367 40.2139 62.1367C39.7354 62.1367 39.307 62.041 38.9287 61.8496C38.5505 61.6582 38.252 61.3962 38.0332 61.0635C37.8145 60.7308 37.7051 60.3525 37.7051 59.9287C37.7051 59.5368 37.778 59.1904 37.9238 58.8896C38.0697 58.5889 38.2861 58.3359 38.5732 58.1309C38.8604 57.9212 39.2158 57.764 39.6396 57.6592C40.068 57.5498 40.5579 57.4951 41.1094 57.4951H42.3262ZM47.3232 51.4932V62H45.5186V51.4932H47.3232ZM51.958 54.6035L48.7383 58.2197L46.9951 59.9902L46.4209 58.5889L47.7676 56.8936L49.7773 54.6035H51.958ZM50.1123 62L47.8223 58.5547L49.0254 57.3857L52.2041 62H50.1123ZM56.1006 62.1367C55.54 62.1367 55.0365 62.0456 54.5898 61.8633C54.1432 61.681 53.7627 61.4281 53.4482 61.1045C53.1383 60.7764 52.8991 60.3958 52.7305 59.9629C52.5664 59.5254 52.4844 59.056 52.4844 58.5547V58.2812C52.4844 57.7116 52.5664 57.1943 52.7305 56.7295C52.8945 56.2601 53.127 55.8568 53.4277 55.5195C53.7285 55.1823 54.0885 54.9225 54.5078 54.7402C54.9271 54.5579 55.3896 54.4668 55.8955 54.4668C56.4196 54.4668 56.8822 54.5557 57.2832 54.7334C57.6842 54.9066 58.0192 55.1527 58.2881 55.4717C58.557 55.7907 58.7598 56.1735 58.8965 56.6201C59.0332 57.0622 59.1016 57.5521 59.1016 58.0898V58.8486H53.3047V57.6045H57.3242V57.4678C57.3151 57.1807 57.2604 56.9186 57.1602 56.6816C57.0599 56.4401 56.9049 56.2487 56.6953 56.1074C56.4857 55.9616 56.2145 55.8887 55.8818 55.8887C55.613 55.8887 55.3783 55.9479 55.1777 56.0664C54.9818 56.1803 54.8177 56.3444 54.6855 56.5586C54.5579 56.7682 54.4622 57.0189 54.3984 57.3105C54.3346 57.6022 54.3027 57.9258 54.3027 58.2812V58.5547C54.3027 58.8646 54.3438 59.1517 54.4258 59.416C54.5124 59.6803 54.6377 59.9105 54.8018 60.1064C54.9704 60.2979 55.1709 60.4482 55.4033 60.5576C55.6403 60.6624 55.9092 60.7148 56.21 60.7148C56.5882 60.7148 56.93 60.6419 57.2354 60.4961C57.5452 60.3457 57.8141 60.1247 58.042 59.833L58.9512 60.7764C58.7962 61.0042 58.5866 61.223 58.3223 61.4326C58.0625 61.6423 57.748 61.8132 57.3789 61.9453C57.0098 62.0729 56.5837 62.1367 56.1006 62.1367ZM68.2344 60.4277V51.5H70.0527V62H68.4121L68.2344 60.4277ZM63.4834 58.3906V58.2471C63.4834 57.682 63.5472 57.1693 63.6748 56.709C63.807 56.2441 63.9984 55.8454 64.249 55.5127C64.4997 55.18 64.8027 54.9225 65.1582 54.7402C65.5182 54.5579 65.9261 54.4668 66.3818 54.4668C66.8239 54.4668 67.209 54.5557 67.5371 54.7334C67.8698 54.9111 68.1523 55.1641 68.3848 55.4922C68.6217 55.8203 68.8109 56.21 68.9521 56.6611C69.0934 57.1077 69.196 57.5999 69.2598 58.1377V58.5273C69.196 59.0514 69.0934 59.5322 68.9521 59.9697C68.8109 60.4072 68.6217 60.79 68.3848 61.1182C68.1523 61.4417 67.8698 61.6924 67.5371 61.8701C67.2044 62.0479 66.8148 62.1367 66.3682 62.1367C65.917 62.1367 65.5114 62.0433 65.1514 61.8564C64.7959 61.6696 64.4928 61.4076 64.2422 61.0703C63.9961 60.7331 63.807 60.3366 63.6748 59.8809C63.5472 59.4251 63.4834 58.9284 63.4834 58.3906ZM65.2949 58.2471V58.3906C65.2949 58.7096 65.3223 59.0081 65.377 59.2861C65.4316 59.5641 65.5205 59.8102 65.6436 60.0244C65.7666 60.234 65.9238 60.3981 66.1152 60.5166C66.3112 60.6351 66.5482 60.6943 66.8262 60.6943C67.1816 60.6943 67.4733 60.6169 67.7012 60.4619C67.9336 60.3024 68.1136 60.0859 68.2412 59.8125C68.3688 59.5345 68.4508 59.2223 68.4873 58.876V57.8027C68.4691 57.5293 68.4212 57.2764 68.3438 57.0439C68.2708 56.8115 68.166 56.611 68.0293 56.4424C67.8971 56.2738 67.7331 56.1416 67.5371 56.0459C67.3411 55.9502 67.1087 55.9023 66.8398 55.9023C66.5618 55.9023 66.3249 55.9639 66.1289 56.0869C65.9329 56.2054 65.7734 56.3717 65.6504 56.5859C65.5273 56.8001 65.4362 57.0485 65.377 57.3311C65.3223 57.6136 65.2949 57.9189 65.2949 58.2471ZM73.6006 54.6035V62H71.7891V54.6035H73.6006ZM71.666 52.6689C71.666 52.4001 71.7572 52.1768 71.9395 51.999C72.1263 51.8213 72.377 51.7324 72.6914 51.7324C73.0059 51.7324 73.2542 51.8213 73.4365 51.999C73.6234 52.1768 73.7168 52.4001 73.7168 52.6689C73.7168 52.9333 73.6234 53.1543 73.4365 53.332C73.2542 53.5098 73.0059 53.5986 72.6914 53.5986C72.377 53.5986 72.1263 53.5098 71.9395 53.332C71.7572 53.1543 71.666 52.9333 71.666 52.6689ZM80.0264 54.6035H81.667V61.7744C81.667 62.4443 81.5212 63.0117 81.2295 63.4766C80.9424 63.946 80.5391 64.3014 80.0195 64.543C79.5 64.7891 78.8962 64.9121 78.208 64.9121C77.9118 64.9121 77.5905 64.8711 77.2441 64.7891C76.9023 64.707 76.5719 64.5771 76.2529 64.3994C75.9385 64.2262 75.6764 64.0007 75.4668 63.7227L76.2803 62.6562C76.5264 62.9434 76.8044 63.1598 77.1143 63.3057C77.4242 63.4561 77.7591 63.5312 78.1191 63.5312C78.4837 63.5312 78.7936 63.4629 79.0488 63.3262C79.3086 63.194 79.5068 62.998 79.6436 62.7383C79.7848 62.4831 79.8555 62.1686 79.8555 61.7949V56.292L80.0264 54.6035ZM75.0293 58.3906V58.2471C75.0293 57.682 75.0977 57.1693 75.2344 56.709C75.3711 56.2441 75.5671 55.8454 75.8223 55.5127C76.082 55.18 76.3942 54.9225 76.7588 54.7402C77.1279 54.5579 77.5426 54.4668 78.0029 54.4668C78.4906 54.4668 78.9007 54.5557 79.2334 54.7334C79.5706 54.9111 79.8486 55.1641 80.0674 55.4922C80.2907 55.8203 80.4639 56.21 80.5869 56.6611C80.7145 57.1077 80.8125 57.5999 80.8809 58.1377V58.5273C80.8171 59.0514 80.7145 59.5322 80.5732 59.9697C80.4365 60.4072 80.2542 60.79 80.0264 61.1182C79.7985 61.4417 79.516 61.6924 79.1787 61.8701C78.8415 62.0479 78.445 62.1367 77.9893 62.1367C77.5335 62.1367 77.1234 62.0433 76.7588 61.8564C76.3942 61.6696 76.082 61.4076 75.8223 61.0703C75.5671 60.7331 75.3711 60.3366 75.2344 59.8809C75.0977 59.4251 75.0293 58.9284 75.0293 58.3906ZM76.834 58.2471V58.3906C76.834 58.7096 76.8659 59.0081 76.9297 59.2861C76.9935 59.5641 77.0915 59.8102 77.2236 60.0244C77.3558 60.234 77.5221 60.3981 77.7227 60.5166C77.9232 60.6351 78.1624 60.6943 78.4404 60.6943C78.8141 60.6943 79.1195 60.6169 79.3564 60.4619C79.598 60.3024 79.7803 60.0859 79.9033 59.8125C80.0309 59.5345 80.113 59.2223 80.1494 58.876V57.8027C80.1266 57.5293 80.0765 57.2764 79.999 57.0439C79.9261 56.8115 79.8236 56.611 79.6914 56.4424C79.5592 56.2738 79.3906 56.1416 79.1855 56.0459C78.9805 55.9502 78.7367 55.9023 78.4541 55.9023C78.1807 55.9023 77.9414 55.9639 77.7363 56.0869C77.5312 56.2054 77.3626 56.3717 77.2305 56.5859C77.0983 56.8001 76.998 57.0485 76.9297 57.3311C76.8659 57.6136 76.834 57.9189 76.834 58.2471ZM85.208 54.6035V62H83.3965V54.6035H85.208ZM83.2734 52.6689C83.2734 52.4001 83.3646 52.1768 83.5469 51.999C83.7337 51.8213 83.9844 51.7324 84.2988 51.7324C84.6133 51.7324 84.8617 51.8213 85.0439 51.999C85.2308 52.1768 85.3242 52.4001 85.3242 52.6689C85.3242 52.9333 85.2308 53.1543 85.0439 53.332C84.8617 53.5098 84.6133 53.5986 84.2988 53.5986C83.9844 53.5986 83.7337 53.5098 83.5469 53.332C83.3646 53.1543 83.2734 52.9333 83.2734 52.6689ZM90.4307 54.6035V55.9023H86.1924V54.6035H90.4307ZM87.3271 52.7852H89.1387V59.8672C89.1387 60.0859 89.1683 60.2546 89.2275 60.373C89.2868 60.4915 89.3757 60.5713 89.4941 60.6123C89.6126 60.6533 89.7539 60.6738 89.918 60.6738C90.0365 60.6738 90.1458 60.667 90.2461 60.6533C90.3464 60.6396 90.4307 60.626 90.499 60.6123L90.5059 61.9658C90.3555 62.016 90.1846 62.057 89.9932 62.0889C89.8063 62.1208 89.5944 62.1367 89.3574 62.1367C88.9518 62.1367 88.5964 62.0684 88.291 61.9316C87.9857 61.7904 87.7487 61.5648 87.5801 61.2549C87.4115 60.9404 87.3271 60.5257 87.3271 60.0107V52.7852ZM95.708 60.4277V57.0166C95.708 56.766 95.6647 56.5495 95.5781 56.3672C95.4915 56.1849 95.3594 56.0436 95.1816 55.9434C95.0039 55.8431 94.7783 55.793 94.5049 55.793C94.2633 55.793 94.0514 55.834 93.8691 55.916C93.6914 55.998 93.5547 56.1143 93.459 56.2646C93.3633 56.4105 93.3154 56.5791 93.3154 56.7705H91.5039C91.5039 56.4652 91.5768 56.1758 91.7227 55.9023C91.8685 55.6243 92.0758 55.3783 92.3447 55.1641C92.6182 54.9453 92.944 54.7744 93.3223 54.6514C93.7051 54.5283 94.1335 54.4668 94.6074 54.4668C95.168 54.4668 95.667 54.5625 96.1045 54.7539C96.5465 54.9408 96.8929 55.2233 97.1436 55.6016C97.3988 55.9798 97.5264 56.4561 97.5264 57.0303V60.2568C97.5264 60.626 97.5492 60.9427 97.5947 61.207C97.6449 61.4668 97.7178 61.6924 97.8135 61.8838V62H95.9746C95.888 61.8132 95.8219 61.5762 95.7764 61.2891C95.7308 60.9974 95.708 60.7103 95.708 60.4277ZM95.9609 57.4951L95.9746 58.5684H94.833C94.5505 58.5684 94.3021 58.598 94.0879 58.6572C93.8737 58.7119 93.6982 58.7939 93.5615 58.9033C93.4248 59.0081 93.3223 59.1357 93.2539 59.2861C93.1855 59.432 93.1514 59.5983 93.1514 59.7852C93.1514 59.9674 93.1924 60.1315 93.2744 60.2773C93.361 60.4232 93.484 60.5394 93.6436 60.626C93.8076 60.708 93.999 60.749 94.2178 60.749C94.5368 60.749 94.8148 60.6852 95.0518 60.5576C95.2887 60.4255 95.4733 60.266 95.6055 60.0791C95.7376 59.8923 95.8083 59.7145 95.8174 59.5459L96.3369 60.3252C96.2731 60.512 96.1774 60.7103 96.0498 60.9199C95.9222 61.1296 95.7581 61.3255 95.5576 61.5078C95.3571 61.6901 95.1156 61.8405 94.833 61.959C94.5505 62.0775 94.2223 62.1367 93.8486 62.1367C93.3701 62.1367 92.9417 62.041 92.5635 61.8496C92.1852 61.6582 91.8867 61.3962 91.668 61.0635C91.4492 60.7308 91.3398 60.3525 91.3398 59.9287C91.3398 59.5368 91.4128 59.1904 91.5586 58.8896C91.7044 58.5889 91.9209 58.3359 92.208 58.1309C92.4951 57.9212 92.8506 57.764 93.2744 57.6592C93.7028 57.5498 94.1927 57.4951 94.7441 57.4951H95.9609ZM101.067 51.5V62H99.2559V51.5H101.067ZM104.704 54.6035V62H102.893V54.6035H104.704ZM102.77 52.6689C102.77 52.4001 102.861 52.1768 103.043 51.999C103.23 51.8213 103.48 51.7324 103.795 51.7324C104.109 51.7324 104.358 51.8213 104.54 51.999C104.727 52.1768 104.82 52.4001 104.82 52.6689C104.82 52.9333 104.727 53.1543 104.54 53.332C104.358 53.5098 104.109 53.5986 103.795 53.5986C103.48 53.5986 103.23 53.5098 103.043 53.332C102.861 53.1543 102.77 52.9333 102.77 52.6689ZM112.224 60.5781V62H106.659V60.5781H112.224ZM112.094 55.6836L107.336 62H106.146V60.8857L110.877 54.6035H112.094V55.6836ZM111.431 54.6035V56.0322H106.242V54.6035H111.431ZM117.583 60.4277V57.0166C117.583 56.766 117.54 56.5495 117.453 56.3672C117.367 56.1849 117.234 56.0436 117.057 55.9434C116.879 55.8431 116.653 55.793 116.38 55.793C116.138 55.793 115.926 55.834 115.744 55.916C115.566 55.998 115.43 56.1143 115.334 56.2646C115.238 56.4105 115.19 56.5791 115.19 56.7705H113.379C113.379 56.4652 113.452 56.1758 113.598 55.9023C113.743 55.6243 113.951 55.3783 114.22 55.1641C114.493 54.9453 114.819 54.7744 115.197 54.6514C115.58 54.5283 116.008 54.4668 116.482 54.4668C117.043 54.4668 117.542 54.5625 117.979 54.7539C118.422 54.9408 118.768 55.2233 119.019 55.6016C119.274 55.9798 119.401 56.4561 119.401 57.0303V60.2568C119.401 60.626 119.424 60.9427 119.47 61.207C119.52 61.4668 119.593 61.6924 119.688 61.8838V62H117.85C117.763 61.8132 117.697 61.5762 117.651 61.2891C117.606 60.9974 117.583 60.7103 117.583 60.4277ZM117.836 57.4951L117.85 58.5684H116.708C116.425 58.5684 116.177 58.598 115.963 58.6572C115.749 58.7119 115.573 58.7939 115.437 58.9033C115.3 59.0081 115.197 59.1357 115.129 59.2861C115.061 59.432 115.026 59.5983 115.026 59.7852C115.026 59.9674 115.067 60.1315 115.149 60.2773C115.236 60.4232 115.359 60.5394 115.519 60.626C115.683 60.708 115.874 60.749 116.093 60.749C116.412 60.749 116.69 60.6852 116.927 60.5576C117.164 60.4255 117.348 60.266 117.48 60.0791C117.613 59.8923 117.683 59.7145 117.692 59.5459L118.212 60.3252C118.148 60.512 118.052 60.7103 117.925 60.9199C117.797 61.1296 117.633 61.3255 117.433 61.5078C117.232 61.6901 116.991 61.8405 116.708 61.959C116.425 62.0775 116.097 62.1367 115.724 62.1367C115.245 62.1367 114.817 62.041 114.438 61.8496C114.06 61.6582 113.762 61.3962 113.543 61.0635C113.324 60.7308 113.215 60.3525 113.215 59.9287C113.215 59.5368 113.288 59.1904 113.434 58.8896C113.579 58.5889 113.796 58.3359 114.083 58.1309C114.37 57.9212 114.726 57.764 115.149 57.6592C115.578 57.5498 116.068 57.4951 116.619 57.4951H117.836ZM124.528 54.6035V55.9023H120.29V54.6035H124.528ZM121.425 52.7852H123.236V59.8672C123.236 60.0859 123.266 60.2546 123.325 60.373C123.384 60.4915 123.473 60.5713 123.592 60.6123C123.71 60.6533 123.852 60.6738 124.016 60.6738C124.134 60.6738 124.243 60.667 124.344 60.6533C124.444 60.6396 124.528 60.626 124.597 60.6123L124.604 61.9658C124.453 62.016 124.282 62.057 124.091 62.0889C123.904 62.1208 123.692 62.1367 123.455 62.1367C123.049 62.1367 122.694 62.0684 122.389 61.9316C122.083 61.7904 121.846 61.5648 121.678 61.2549C121.509 60.9404 121.425 60.5257 121.425 60.0107V52.7852ZM127.646 54.6035V62H125.834V54.6035H127.646ZM125.711 52.6689C125.711 52.4001 125.802 52.1768 125.984 51.999C126.171 51.8213 126.422 51.7324 126.736 51.7324C127.051 51.7324 127.299 51.8213 127.481 51.999C127.668 52.1768 127.762 52.4001 127.762 52.6689C127.762 52.9333 127.668 53.1543 127.481 53.332C127.299 53.5098 127.051 53.5986 126.736 53.5986C126.422 53.5986 126.171 53.5098 125.984 53.332C125.802 53.1543 125.711 52.9333 125.711 52.6689ZM129.047 58.377V58.2334C129.047 57.6911 129.124 57.1921 129.279 56.7363C129.434 56.276 129.66 55.8773 129.956 55.54C130.252 55.2028 130.615 54.9408 131.043 54.7539C131.471 54.5625 131.959 54.4668 132.506 54.4668C133.062 54.4668 133.554 54.5625 133.982 54.7539C134.415 54.9408 134.78 55.2028 135.076 55.54C135.372 55.8773 135.598 56.276 135.753 56.7363C135.908 57.1921 135.985 57.6911 135.985 58.2334V58.377C135.985 58.9147 135.908 59.4137 135.753 59.874C135.598 60.3298 135.372 60.7285 135.076 61.0703C134.78 61.4076 134.418 61.6696 133.989 61.8564C133.561 62.0433 133.071 62.1367 132.52 62.1367C131.973 62.1367 131.483 62.0433 131.05 61.8564C130.617 61.6696 130.252 61.4076 129.956 61.0703C129.66 60.7285 129.434 60.3298 129.279 59.874C129.124 59.4137 129.047 58.9147 129.047 58.377ZM130.852 58.2334V58.377C130.852 58.7005 130.883 59.0036 130.947 59.2861C131.011 59.5687 131.109 59.8171 131.241 60.0312C131.373 60.2454 131.544 60.4141 131.754 60.5371C131.968 60.6556 132.223 60.7148 132.52 60.7148C132.811 60.7148 133.062 60.6556 133.271 60.5371C133.481 60.4141 133.652 60.2454 133.784 60.0312C133.921 59.8171 134.021 59.5687 134.085 59.2861C134.149 59.0036 134.181 58.7005 134.181 58.377V58.2334C134.181 57.9144 134.149 57.6159 134.085 57.3379C134.021 57.0553 133.921 56.807 133.784 56.5928C133.652 56.374 133.479 56.2031 133.265 56.0801C133.055 55.9525 132.802 55.8887 132.506 55.8887C132.214 55.8887 131.964 55.9525 131.754 56.0801C131.544 56.2031 131.373 56.374 131.241 56.5928C131.109 56.807 131.011 57.0553 130.947 57.3379C130.883 57.6159 130.852 57.9144 130.852 58.2334ZM139.068 56.1826V62H137.264V54.6035H138.959L139.068 56.1826ZM138.781 58.0352H138.248C138.253 57.4974 138.326 57.0098 138.467 56.5723C138.608 56.1348 138.806 55.7588 139.062 55.4443C139.321 55.1299 139.629 54.8883 139.984 54.7197C140.34 54.5511 140.736 54.4668 141.174 54.4668C141.529 54.4668 141.851 54.5169 142.138 54.6172C142.425 54.7174 142.671 54.877 142.876 55.0957C143.086 55.3145 143.245 55.6016 143.354 55.957C143.468 56.3079 143.525 56.7409 143.525 57.2559V62H141.707V57.2422C141.707 56.9049 141.657 56.6383 141.557 56.4424C141.461 56.2464 141.32 56.1074 141.133 56.0254C140.951 55.9434 140.725 55.9023 140.456 55.9023C140.178 55.9023 139.934 55.9593 139.725 56.0732C139.52 56.1826 139.346 56.3353 139.205 56.5312C139.068 56.7272 138.964 56.9528 138.891 57.208C138.818 57.4632 138.781 57.7389 138.781 58.0352ZM151.059 60.6328L152.781 54.6035H154.668L152.132 62H150.983L151.059 60.6328ZM149.801 54.6035L151.544 60.6465L151.605 62H150.45L147.907 54.6035H149.801ZM157.532 54.6035V62H155.721V54.6035H157.532ZM155.598 52.6689C155.598 52.4001 155.689 52.1768 155.871 51.999C156.058 51.8213 156.309 51.7324 156.623 51.7324C156.938 51.7324 157.186 51.8213 157.368 51.999C157.555 52.1768 157.648 52.4001 157.648 52.6689C157.648 52.9333 157.555 53.1543 157.368 53.332C157.186 53.5098 156.938 53.5986 156.623 53.5986C156.309 53.5986 156.058 53.5098 155.871 53.332C155.689 53.1543 155.598 52.9333 155.598 52.6689ZM163.322 59.9766C163.322 59.8216 163.281 59.6826 163.199 59.5596C163.117 59.4365 162.962 59.3249 162.734 59.2246C162.511 59.1198 162.183 59.0218 161.75 58.9307C161.367 58.8486 161.014 58.7461 160.69 58.623C160.367 58.5 160.089 58.3519 159.856 58.1787C159.624 58.001 159.442 57.7936 159.31 57.5566C159.182 57.3151 159.118 57.0371 159.118 56.7227C159.118 56.4173 159.184 56.1302 159.316 55.8613C159.449 55.5879 159.64 55.3486 159.891 55.1436C160.141 54.9339 160.447 54.7699 160.807 54.6514C161.167 54.5283 161.572 54.4668 162.023 54.4668C162.652 54.4668 163.192 54.5693 163.644 54.7744C164.099 54.9795 164.448 55.262 164.689 55.6221C164.931 55.9775 165.052 56.3786 165.052 56.8252H163.247C163.247 56.6292 163.201 56.4515 163.11 56.292C163.024 56.1325 162.889 56.0049 162.707 55.9092C162.525 55.8089 162.295 55.7588 162.017 55.7588C161.766 55.7588 161.554 55.7998 161.381 55.8818C161.212 55.9639 161.085 56.071 160.998 56.2031C160.911 56.3353 160.868 56.4811 160.868 56.6406C160.868 56.7591 160.891 56.8662 160.937 56.9619C160.987 57.0531 161.066 57.1374 161.176 57.2148C161.285 57.2923 161.433 57.363 161.62 57.4268C161.812 57.4906 162.046 57.5521 162.324 57.6113C162.876 57.7207 163.356 57.8665 163.767 58.0488C164.181 58.2266 164.505 58.4635 164.737 58.7598C164.97 59.056 165.086 59.4342 165.086 59.8945C165.086 60.2227 165.015 60.5234 164.874 60.7969C164.733 61.0658 164.528 61.3005 164.259 61.501C163.99 61.7015 163.669 61.8587 163.295 61.9727C162.921 62.082 162.5 62.1367 162.03 62.1367C161.351 62.1367 160.777 62.016 160.308 61.7744C159.838 61.5283 159.483 61.2184 159.241 60.8447C159 60.4665 158.879 60.0745 158.879 59.6689H160.608C160.622 59.9561 160.7 60.1862 160.841 60.3594C160.982 60.5326 161.16 60.6579 161.374 60.7354C161.593 60.8083 161.823 60.8447 162.064 60.8447C162.338 60.8447 162.568 60.8083 162.755 60.7354C162.942 60.6579 163.083 60.5553 163.179 60.4277C163.274 60.2956 163.322 60.1452 163.322 59.9766ZM168.374 54.6035V62H166.562V54.6035H168.374ZM166.439 52.6689C166.439 52.4001 166.531 52.1768 166.713 51.999C166.9 51.8213 167.15 51.7324 167.465 51.7324C167.779 51.7324 168.028 51.8213 168.21 51.999C168.397 52.1768 168.49 52.4001 168.49 52.6689C168.49 52.9333 168.397 53.1543 168.21 53.332C168.028 53.5098 167.779 53.5986 167.465 53.5986C167.15 53.5986 166.9 53.5098 166.713 53.332C166.531 53.1543 166.439 52.9333 166.439 52.6689ZM170.09 51.5H171.901V60.3662L171.724 62H170.09V51.5ZM176.659 58.2266V58.3701C176.659 58.9215 176.598 59.4274 176.475 59.8877C176.356 60.348 176.176 60.7467 175.935 61.084C175.693 61.4167 175.392 61.6764 175.032 61.8633C174.677 62.0456 174.26 62.1367 173.781 62.1367C173.326 62.1367 172.929 62.0479 172.592 61.8701C172.259 61.6924 171.979 61.4417 171.751 61.1182C171.523 60.79 171.341 60.4049 171.204 59.9629C171.067 59.5163 170.965 59.0286 170.896 58.5V58.1104C170.965 57.5771 171.067 57.0895 171.204 56.6475C171.341 56.2054 171.523 55.8203 171.751 55.4922C171.979 55.1641 172.259 54.9111 172.592 54.7334C172.924 54.5557 173.316 54.4668 173.768 54.4668C174.251 54.4668 174.672 54.5602 175.032 54.7471C175.397 54.9294 175.698 55.1891 175.935 55.5264C176.176 55.859 176.356 56.2555 176.475 56.7158C176.598 57.1715 176.659 57.6751 176.659 58.2266ZM174.848 58.3701V58.2266C174.848 57.9121 174.823 57.6159 174.772 57.3379C174.722 57.0553 174.64 56.807 174.526 56.5928C174.412 56.3786 174.257 56.21 174.062 56.0869C173.866 55.9639 173.619 55.9023 173.323 55.9023C173.041 55.9023 172.799 55.9502 172.599 56.0459C172.403 56.1416 172.239 56.2738 172.106 56.4424C171.979 56.611 171.879 56.8092 171.806 57.0371C171.737 57.265 171.692 57.5111 171.669 57.7754V58.8418C171.701 59.1927 171.776 59.5094 171.895 59.792C172.013 60.07 172.188 60.291 172.421 60.4551C172.658 60.6191 172.963 60.7012 173.337 60.7012C173.629 60.7012 173.872 60.6442 174.068 60.5303C174.264 60.4118 174.419 60.2477 174.533 60.0381C174.647 59.8239 174.727 59.5755 174.772 59.293C174.823 59.0104 174.848 58.7028 174.848 58.3701ZM179.886 51.5V62H178.074V51.5H179.886ZM184.931 62.1367C184.37 62.1367 183.867 62.0456 183.42 61.8633C182.973 61.681 182.593 61.4281 182.278 61.1045C181.968 60.7764 181.729 60.3958 181.561 59.9629C181.396 59.5254 181.314 59.056 181.314 58.5547V58.2812C181.314 57.7116 181.396 57.1943 181.561 56.7295C181.725 56.2601 181.957 55.8568 182.258 55.5195C182.559 55.1823 182.919 54.9225 183.338 54.7402C183.757 54.5579 184.22 54.4668 184.726 54.4668C185.25 54.4668 185.712 54.5557 186.113 54.7334C186.514 54.9066 186.849 55.1527 187.118 55.4717C187.387 55.7907 187.59 56.1735 187.727 56.6201C187.863 57.0622 187.932 57.5521 187.932 58.0898V58.8486H182.135V57.6045H186.154V57.4678C186.145 57.1807 186.09 56.9186 185.99 56.6816C185.89 56.4401 185.735 56.2487 185.525 56.1074C185.316 55.9616 185.045 55.8887 184.712 55.8887C184.443 55.8887 184.208 55.9479 184.008 56.0664C183.812 56.1803 183.648 56.3444 183.516 56.5586C183.388 56.7682 183.292 57.0189 183.229 57.3105C183.165 57.6022 183.133 57.9258 183.133 58.2812V58.5547C183.133 58.8646 183.174 59.1517 183.256 59.416C183.342 59.6803 183.468 59.9105 183.632 60.1064C183.8 60.2979 184.001 60.4482 184.233 60.5576C184.47 60.6624 184.739 60.7148 185.04 60.7148C185.418 60.7148 185.76 60.6419 186.065 60.4961C186.375 60.3457 186.644 60.1247 186.872 59.833L187.781 60.7764C187.626 61.0042 187.417 61.223 187.152 61.4326C186.893 61.6423 186.578 61.8132 186.209 61.9453C185.84 62.0729 185.414 62.1367 184.931 62.1367ZM191.199 52.0469L191.001 59.0127H189.477L189.278 52.0469H191.199ZM189.224 61.1592C189.224 60.8903 189.315 60.6647 189.497 60.4824C189.684 60.2956 189.935 60.2021 190.249 60.2021C190.563 60.2021 190.812 60.2956 190.994 60.4824C191.181 60.6647 191.274 60.8903 191.274 61.1592C191.274 61.4235 191.181 61.6468 190.994 61.8291C190.812 62.0114 190.563 62.1025 190.249 62.1025C189.935 62.1025 189.684 62.0114 189.497 61.8291C189.315 61.6468 189.224 61.4235 189.224 61.1592Z" fill="#DCA54C"/>
</svg>
