<svg width="231" height="75" viewBox="0 0 231 75" fill="none" xmlns="http://www.w3.org/2000/svg">
<path d="M2.55469 12.0781H6.98426C7.42744 12.0781 7.80699 11.9218 8.12511 11.6047C8.44324 11.2898 8.60339 10.9141 8.60339 10.4753V6.70508H2.55469V12.076V12.0781Z" fill="#DCA54C"/>
<path d="M31.6749 9.45894C31.1637 8.60976 30.4858 7.93867 29.6411 7.44567C28.7965 6.95266 27.8618 6.70508 26.8395 6.70508H11.9667V10.4753C11.9667 11.3788 11.7451 12.2085 11.3019 12.9621C10.8588 13.7157 10.2576 14.3108 9.49633 14.7495C8.73503 15.1882 7.89694 15.4075 6.98426 15.4075H2.55469V36.2939H11.947V16.007H32.4428V12.2541C32.4428 11.2398 32.1861 10.3081 31.6749 9.45894Z" fill="#DCA54C"/>
<path d="M15.7869 19.8077C15.4688 20.1226 15.3086 20.5005 15.3086 20.937V36.2917H26.8378C27.8623 36.2917 28.7948 36.0441 29.6394 35.5511C30.4841 35.0581 31.162 34.387 31.6732 33.5379C32.1844 32.6887 32.4411 31.757 32.4411 30.7427V19.332H16.9255C16.4824 19.332 16.1028 19.4906 15.7847 19.8055L15.7869 19.8077Z" fill="#DCA54C"/>
<path d="M5.22949 60.0928L7.21191 52.0469H8.28516L8.35352 53.7422L6.23438 62H5.09961L5.22949 60.0928ZM3.97852 52.0469L5.60547 60.0654V62H4.36816L2.1123 52.0469H3.97852ZM10.4111 60.0312L12.0107 52.0469H13.8838L11.6279 62H10.3906L10.4111 60.0312ZM8.79785 52.0469L10.7803 60.1201L10.8965 62H9.76172L7.64941 53.7354L7.73145 52.0469H8.79785ZM16.8506 54.6035V62H15.0391V54.6035H16.8506ZM14.916 52.6689C14.916 52.4001 15.0072 52.1768 15.1895 51.999C15.3763 51.8213 15.627 51.7324 15.9414 51.7324C16.2559 51.7324 16.5042 51.8213 16.6865 51.999C16.8734 52.1768 16.9668 52.4001 16.9668 52.6689C16.9668 52.9333 16.8734 53.1543 16.6865 53.332C16.5042 53.5098 16.2559 53.5986 15.9414 53.5986C15.627 53.5986 15.3763 53.5098 15.1895 53.332C15.0072 53.1543 14.916 52.9333 14.916 52.6689ZM20.3779 56.1143V62H18.5732V54.6035H20.2822L20.3779 56.1143ZM22.627 54.5557L22.5996 56.2373C22.4993 56.2191 22.3854 56.2054 22.2578 56.1963C22.1348 56.1872 22.0186 56.1826 21.9092 56.1826C21.6312 56.1826 21.3874 56.2214 21.1777 56.2988C20.9681 56.3717 20.7926 56.4788 20.6514 56.6201C20.5146 56.7614 20.4098 56.9346 20.3369 57.1396C20.264 57.3402 20.223 57.568 20.2139 57.8232L19.8242 57.7754C19.8242 57.306 19.8721 56.8708 19.9678 56.4697C20.0635 56.0687 20.2025 55.7178 20.3848 55.417C20.5671 55.1162 20.7949 54.8838 21.0684 54.7197C21.3464 54.5511 21.6654 54.4668 22.0254 54.4668C22.1257 54.4668 22.2327 54.4759 22.3467 54.4941C22.4652 54.5078 22.5586 54.5283 22.627 54.5557ZM28.9023 56.1211V62H27.0977V54.6035H28.7998L28.9023 56.1211ZM28.6357 58.0352H28.082C28.082 57.5202 28.1436 57.0462 28.2666 56.6133C28.3942 56.1803 28.5811 55.8044 28.8271 55.4854C29.0732 55.1618 29.3763 54.9111 29.7363 54.7334C30.1009 54.5557 30.5225 54.4668 31.001 54.4668C31.3337 54.4668 31.639 54.5169 31.917 54.6172C32.195 54.7129 32.4342 54.8656 32.6348 55.0752C32.8398 55.2803 32.9971 55.5492 33.1064 55.8818C33.2158 56.21 33.2705 56.6042 33.2705 57.0645V62H31.4658V57.249C31.4658 56.9027 31.4157 56.6315 31.3154 56.4355C31.2197 56.2396 31.0807 56.1029 30.8984 56.0254C30.7161 55.9434 30.4974 55.9023 30.2422 55.9023C29.9596 55.9023 29.7158 55.9593 29.5107 56.0732C29.3102 56.1826 29.1439 56.3353 29.0117 56.5312C28.8841 56.7272 28.7884 56.9528 28.7246 57.208C28.6654 57.4632 28.6357 57.7389 28.6357 58.0352ZM33.1338 57.7002L32.3887 57.8369C32.3932 57.3721 32.457 56.9368 32.5801 56.5312C32.7031 56.1211 32.8831 55.7633 33.1201 55.458C33.3617 55.1481 33.6602 54.9066 34.0156 54.7334C34.3757 54.5557 34.7904 54.4668 35.2598 54.4668C35.6243 54.4668 35.9525 54.5192 36.2441 54.624C36.5404 54.7243 36.7933 54.8861 37.0029 55.1094C37.2126 55.3281 37.3721 55.613 37.4814 55.9639C37.5954 56.3148 37.6523 56.7432 37.6523 57.249V62H35.834V57.2422C35.834 56.8822 35.7839 56.6064 35.6836 56.415C35.5879 56.2236 35.4489 56.0915 35.2666 56.0186C35.0843 55.9411 34.8701 55.9023 34.624 55.9023C34.3734 55.9023 34.1546 55.9502 33.9678 56.0459C33.7855 56.137 33.6305 56.2646 33.5029 56.4287C33.3799 56.5928 33.2865 56.7842 33.2227 57.0029C33.1634 57.2171 33.1338 57.4495 33.1338 57.7002ZM43.3467 60.4277V57.0166C43.3467 56.766 43.3034 56.5495 43.2168 56.3672C43.1302 56.1849 42.998 56.0436 42.8203 55.9434C42.6426 55.8431 42.417 55.793 42.1436 55.793C41.902 55.793 41.6901 55.834 41.5078 55.916C41.3301 55.998 41.1934 56.1143 41.0977 56.2646C41.002 56.4105 40.9541 56.5791 40.9541 56.7705H39.1426C39.1426 56.4652 39.2155 56.1758 39.3613 55.9023C39.5072 55.6243 39.7145 55.3783 39.9834 55.1641C40.2568 54.9453 40.5827 54.7744 40.9609 54.6514C41.3438 54.5283 41.7721 54.4668 42.2461 54.4668C42.8066 54.4668 43.3057 54.5625 43.7432 54.7539C44.1852 54.9408 44.5316 55.2233 44.7822 55.6016C45.0374 55.9798 45.165 56.4561 45.165 57.0303V60.2568C45.165 60.626 45.1878 60.9427 45.2334 61.207C45.2835 61.4668 45.3564 61.6924 45.4521 61.8838V62H43.6133C43.5267 61.8132 43.4606 61.5762 43.415 61.2891C43.3695 60.9974 43.3467 60.7103 43.3467 60.4277ZM43.5996 57.4951L43.6133 58.5684H42.4717C42.1891 58.5684 41.9408 58.598 41.7266 58.6572C41.5124 58.7119 41.3369 58.7939 41.2002 58.9033C41.0635 59.0081 40.9609 59.1357 40.8926 59.2861C40.8242 59.432 40.79 59.5983 40.79 59.7852C40.79 59.9674 40.8311 60.1315 40.9131 60.2773C40.9997 60.4232 41.1227 60.5394 41.2822 60.626C41.4463 60.708 41.6377 60.749 41.8564 60.749C42.1755 60.749 42.4535 60.6852 42.6904 60.5576C42.9274 60.4255 43.112 60.266 43.2441 60.0791C43.3763 59.8923 43.4469 59.7145 43.4561 59.5459L43.9756 60.3252C43.9118 60.512 43.8161 60.7103 43.6885 60.9199C43.5609 61.1296 43.3968 61.3255 43.1963 61.5078C42.9958 61.6901 42.7542 61.8405 42.4717 61.959C42.1891 62.0775 41.861 62.1367 41.4873 62.1367C41.0088 62.1367 40.5804 62.041 40.2021 61.8496C39.8239 61.6582 39.5254 61.3962 39.3066 61.0635C39.0879 60.7308 38.9785 60.3525 38.9785 59.9287C38.9785 59.5368 39.0514 59.1904 39.1973 58.8896C39.3431 58.5889 39.5596 58.3359 39.8467 58.1309C40.1338 57.9212 40.4893 57.764 40.9131 57.6592C41.3415 57.5498 41.8314 57.4951 42.3828 57.4951H43.5996ZM49.8271 60.7148C50.0824 60.7148 50.3102 60.6647 50.5107 60.5645C50.7113 60.4642 50.8708 60.3229 50.9893 60.1406C51.1123 59.9583 51.1784 59.7464 51.1875 59.5049H52.8896C52.8805 60.0062 52.7393 60.4551 52.4658 60.8516C52.1924 61.248 51.8278 61.5625 51.3721 61.7949C50.9209 62.0228 50.415 62.1367 49.8545 62.1367C49.2848 62.1367 48.7881 62.041 48.3643 61.8496C47.9404 61.6582 47.5872 61.3916 47.3047 61.0498C47.0267 60.708 46.8171 60.3115 46.6758 59.8604C46.5391 59.4092 46.4707 58.9261 46.4707 58.4111V58.1924C46.4707 57.6774 46.5391 57.1943 46.6758 56.7432C46.8171 56.292 47.0267 55.8955 47.3047 55.5537C47.5872 55.2119 47.9404 54.9453 48.3643 54.7539C48.7881 54.5625 49.2826 54.4668 49.8477 54.4668C50.4447 54.4668 50.9688 54.583 51.4199 54.8154C51.8757 55.0479 52.2311 55.376 52.4863 55.7998C52.7461 56.2236 52.8805 56.7227 52.8896 57.2969H51.1875C51.1784 57.0326 51.1191 56.7956 51.0098 56.5859C50.9004 56.3763 50.7454 56.2077 50.5449 56.0801C50.3444 55.9525 50.1006 55.8887 49.8135 55.8887C49.5081 55.8887 49.2529 55.9525 49.0479 56.0801C48.8473 56.2077 48.6901 56.3831 48.5762 56.6064C48.4668 56.8252 48.3893 57.0713 48.3438 57.3447C48.3027 57.6136 48.2822 57.8962 48.2822 58.1924V58.4111C48.2822 58.7119 48.3027 58.999 48.3438 59.2725C48.3893 59.5459 48.4668 59.792 48.5762 60.0107C48.6901 60.2249 48.8473 60.3958 49.0479 60.5234C49.2529 60.651 49.5127 60.7148 49.8271 60.7148ZM55.8633 51.5V62H54.0518V51.5H55.8633ZM55.5762 58.0352H55.043C55.043 57.5202 55.1113 57.0462 55.248 56.6133C55.3848 56.1803 55.5785 55.8044 55.8291 55.4854C56.0798 55.1618 56.3783 54.9111 56.7246 54.7334C57.0755 54.5557 57.4629 54.4668 57.8867 54.4668C58.2513 54.4668 58.5817 54.5192 58.8779 54.624C59.1787 54.7243 59.4362 54.8861 59.6504 55.1094C59.8646 55.3327 60.0286 55.6243 60.1426 55.9844C60.2611 56.3398 60.3203 56.7728 60.3203 57.2832V62H58.502V57.2695C58.502 56.9277 58.4518 56.6589 58.3516 56.4629C58.2513 56.2624 58.1077 56.1188 57.9209 56.0322C57.7386 55.9456 57.513 55.9023 57.2441 55.9023C56.9525 55.9023 56.7018 55.9593 56.4922 56.0732C56.2826 56.1826 56.1094 56.3353 55.9727 56.5312C55.8405 56.7272 55.7402 56.9528 55.6719 57.208C55.6081 57.4632 55.5762 57.7389 55.5762 58.0352ZM65.2354 62.1367C64.6748 62.1367 64.1712 62.0456 63.7246 61.8633C63.278 61.681 62.8975 61.4281 62.583 61.1045C62.2731 60.7764 62.0339 60.3958 61.8652 59.9629C61.7012 59.5254 61.6191 59.056 61.6191 58.5547V58.2812C61.6191 57.7116 61.7012 57.1943 61.8652 56.7295C62.0293 56.2601 62.2617 55.8568 62.5625 55.5195C62.8633 55.1823 63.2233 54.9225 63.6426 54.7402C64.0618 54.5579 64.5244 54.4668 65.0303 54.4668C65.5544 54.4668 66.0169 54.5557 66.418 54.7334C66.819 54.9066 67.154 55.1527 67.4229 55.4717C67.6917 55.7907 67.8945 56.1735 68.0312 56.6201C68.168 57.0622 68.2363 57.5521 68.2363 58.0898V58.8486H62.4395V57.6045H66.459V57.4678C66.4499 57.1807 66.3952 56.9186 66.2949 56.6816C66.1947 56.4401 66.0397 56.2487 65.8301 56.1074C65.6204 55.9616 65.3493 55.8887 65.0166 55.8887C64.7477 55.8887 64.513 55.9479 64.3125 56.0664C64.1165 56.1803 63.9525 56.3444 63.8203 56.5586C63.6927 56.7682 63.597 57.0189 63.5332 57.3105C63.4694 57.6022 63.4375 57.9258 63.4375 58.2812V58.5547C63.4375 58.8646 63.4785 59.1517 63.5605 59.416C63.6471 59.6803 63.7725 59.9105 63.9365 60.1064C64.1051 60.2979 64.3057 60.4482 64.5381 60.5576C64.7751 60.6624 65.0439 60.7148 65.3447 60.7148C65.723 60.7148 66.0648 60.6419 66.3701 60.4961C66.68 60.3457 66.9489 60.1247 67.1768 59.833L68.0859 60.7764C67.931 61.0042 67.7214 61.223 67.457 61.4326C67.1973 61.6423 66.8828 61.8132 66.5137 61.9453C66.1445 62.0729 65.7184 62.1367 65.2354 62.1367ZM71.2168 56.1826V62H69.4121V54.6035H71.1074L71.2168 56.1826ZM70.9297 58.0352H70.3965C70.401 57.4974 70.474 57.0098 70.6152 56.5723C70.7565 56.1348 70.9548 55.7588 71.21 55.4443C71.4697 55.1299 71.7773 54.8883 72.1328 54.7197C72.4883 54.5511 72.8848 54.4668 73.3223 54.4668C73.6777 54.4668 73.999 54.5169 74.2861 54.6172C74.5732 54.7174 74.8193 54.877 75.0244 55.0957C75.234 55.3145 75.3936 55.6016 75.5029 55.957C75.6169 56.3079 75.6738 56.7409 75.6738 57.2559V62H73.8555V57.2422C73.8555 56.9049 73.8053 56.6383 73.7051 56.4424C73.6094 56.2464 73.4681 56.1074 73.2812 56.0254C73.099 55.9434 72.8734 55.9023 72.6045 55.9023C72.3265 55.9023 72.0827 55.9593 71.873 56.0732C71.668 56.1826 71.4948 56.3353 71.3535 56.5312C71.2168 56.7272 71.112 56.9528 71.0391 57.208C70.9661 57.4632 70.9297 57.7389 70.9297 58.0352ZM83.8633 62H81.7168L81.7305 60.5234H83.8633C84.4421 60.5234 84.9274 60.3958 85.3193 60.1406C85.7113 59.8809 86.0075 59.5094 86.208 59.0264C86.4085 58.5387 86.5088 57.9554 86.5088 57.2764V56.7637C86.5088 56.2396 86.4518 55.777 86.3379 55.376C86.224 54.9749 86.0553 54.6377 85.832 54.3643C85.6133 54.0908 85.3421 53.8835 85.0186 53.7422C84.695 53.6009 84.3236 53.5303 83.9043 53.5303H81.6758V52.0469H83.9043C84.5697 52.0469 85.1758 52.1585 85.7227 52.3818C86.2741 52.6051 86.7503 52.9264 87.1514 53.3457C87.557 53.7604 87.8669 54.2572 88.0811 54.8359C88.2998 55.4147 88.4092 56.0618 88.4092 56.7773V57.2764C88.4092 57.9873 88.2998 58.6344 88.0811 59.2178C87.8669 59.7965 87.557 60.2933 87.1514 60.708C86.7503 61.1227 86.2718 61.4417 85.7158 61.665C85.1598 61.8883 84.5423 62 83.8633 62ZM82.7695 52.0469V62H80.8896V52.0469H82.7695ZM91.7861 54.6035V62H89.9746V54.6035H91.7861ZM89.8516 52.6689C89.8516 52.4001 89.9427 52.1768 90.125 51.999C90.3118 51.8213 90.5625 51.7324 90.877 51.7324C91.1914 51.7324 91.4398 51.8213 91.6221 51.999C91.8089 52.1768 91.9023 52.4001 91.9023 52.6689C91.9023 52.9333 91.8089 53.1543 91.6221 53.332C91.4398 53.5098 91.1914 53.5986 90.877 53.5986C90.5625 53.5986 90.3118 53.5098 90.125 53.332C89.9427 53.1543 89.8516 52.9333 89.8516 52.6689ZM98.2119 54.6035H99.8525V61.7744C99.8525 62.4443 99.7067 63.0117 99.415 63.4766C99.1279 63.946 98.7246 64.3014 98.2051 64.543C97.6855 64.7891 97.0817 64.9121 96.3936 64.9121C96.0973 64.9121 95.776 64.8711 95.4297 64.7891C95.0879 64.707 94.7575 64.5771 94.4385 64.3994C94.124 64.2262 93.862 64.0007 93.6523 63.7227L94.4658 62.6562C94.7119 62.9434 94.9899 63.1598 95.2998 63.3057C95.6097 63.4561 95.9447 63.5312 96.3047 63.5312C96.6693 63.5312 96.9792 63.4629 97.2344 63.3262C97.4941 63.194 97.6924 62.998 97.8291 62.7383C97.9704 62.4831 98.041 62.1686 98.041 61.7949V56.292L98.2119 54.6035ZM93.2148 58.3906V58.2471C93.2148 57.682 93.2832 57.1693 93.4199 56.709C93.5566 56.2441 93.7526 55.8454 94.0078 55.5127C94.2676 55.18 94.5798 54.9225 94.9443 54.7402C95.3135 54.5579 95.7282 54.4668 96.1885 54.4668C96.6761 54.4668 97.0863 54.5557 97.4189 54.7334C97.7562 54.9111 98.0342 55.1641 98.2529 55.4922C98.4762 55.8203 98.6494 56.21 98.7725 56.6611C98.9001 57.1077 98.998 57.5999 99.0664 58.1377V58.5273C99.0026 59.0514 98.9001 59.5322 98.7588 59.9697C98.6221 60.4072 98.4398 60.79 98.2119 61.1182C97.984 61.4417 97.7015 61.6924 97.3643 61.8701C97.027 62.0479 96.6305 62.1367 96.1748 62.1367C95.7191 62.1367 95.3089 62.0433 94.9443 61.8564C94.5798 61.6696 94.2676 61.4076 94.0078 61.0703C93.7526 60.7331 93.5566 60.3366 93.4199 59.8809C93.2832 59.4251 93.2148 58.9284 93.2148 58.3906ZM95.0195 58.2471V58.3906C95.0195 58.7096 95.0514 59.0081 95.1152 59.2861C95.179 59.5641 95.277 59.8102 95.4092 60.0244C95.5413 60.234 95.7077 60.3981 95.9082 60.5166C96.1087 60.6351 96.348 60.6943 96.626 60.6943C96.9997 60.6943 97.305 60.6169 97.542 60.4619C97.7835 60.3024 97.9658 60.0859 98.0889 59.8125C98.2165 59.5345 98.2985 59.2223 98.335 58.876V57.8027C98.3122 57.5293 98.262 57.2764 98.1846 57.0439C98.1117 56.8115 98.0091 56.611 97.877 56.4424C97.7448 56.2738 97.5762 56.1416 97.3711 56.0459C97.166 55.9502 96.9222 55.9023 96.6396 55.9023C96.3662 55.9023 96.127 55.9639 95.9219 56.0869C95.7168 56.2054 95.5482 56.3717 95.416 56.5859C95.2839 56.8001 95.1836 57.0485 95.1152 57.3311C95.0514 57.6136 95.0195 57.9189 95.0195 58.2471ZM103.394 54.6035V62H101.582V54.6035H103.394ZM101.459 52.6689C101.459 52.4001 101.55 52.1768 101.732 51.999C101.919 51.8213 102.17 51.7324 102.484 51.7324C102.799 51.7324 103.047 51.8213 103.229 51.999C103.416 52.1768 103.51 52.4001 103.51 52.6689C103.51 52.9333 103.416 53.1543 103.229 53.332C103.047 53.5098 102.799 53.5986 102.484 53.5986C102.17 53.5986 101.919 53.5098 101.732 53.332C101.55 53.1543 101.459 52.9333 101.459 52.6689ZM108.616 54.6035V55.9023H104.378V54.6035H108.616ZM105.513 52.7852H107.324V59.8672C107.324 60.0859 107.354 60.2546 107.413 60.373C107.472 60.4915 107.561 60.5713 107.68 60.6123C107.798 60.6533 107.939 60.6738 108.104 60.6738C108.222 60.6738 108.331 60.667 108.432 60.6533C108.532 60.6396 108.616 60.626 108.685 60.6123L108.691 61.9658C108.541 62.016 108.37 62.057 108.179 62.0889C107.992 62.1208 107.78 62.1367 107.543 62.1367C107.137 62.1367 106.782 62.0684 106.477 61.9316C106.171 61.7904 105.934 61.5648 105.766 61.2549C105.597 60.9404 105.513 60.5257 105.513 60.0107V52.7852ZM113.894 60.4277V57.0166C113.894 56.766 113.85 56.5495 113.764 56.3672C113.677 56.1849 113.545 56.0436 113.367 55.9434C113.189 55.8431 112.964 55.793 112.69 55.793C112.449 55.793 112.237 55.834 112.055 55.916C111.877 55.998 111.74 56.1143 111.645 56.2646C111.549 56.4105 111.501 56.5791 111.501 56.7705H109.689C109.689 56.4652 109.762 56.1758 109.908 55.9023C110.054 55.6243 110.261 55.3783 110.53 55.1641C110.804 54.9453 111.13 54.7744 111.508 54.6514C111.891 54.5283 112.319 54.4668 112.793 54.4668C113.354 54.4668 113.853 54.5625 114.29 54.7539C114.732 54.9408 115.078 55.2233 115.329 55.6016C115.584 55.9798 115.712 56.4561 115.712 57.0303V60.2568C115.712 60.626 115.735 60.9427 115.78 61.207C115.83 61.4668 115.903 61.6924 115.999 61.8838V62H114.16C114.074 61.8132 114.007 61.5762 113.962 61.2891C113.916 60.9974 113.894 60.7103 113.894 60.4277ZM114.146 57.4951L114.16 58.5684H113.019C112.736 58.5684 112.488 58.598 112.273 58.6572C112.059 58.7119 111.884 58.7939 111.747 58.9033C111.61 59.0081 111.508 59.1357 111.439 59.2861C111.371 59.432 111.337 59.5983 111.337 59.7852C111.337 59.9674 111.378 60.1315 111.46 60.2773C111.547 60.4232 111.67 60.5394 111.829 60.626C111.993 60.708 112.185 60.749 112.403 60.749C112.722 60.749 113 60.6852 113.237 60.5576C113.474 60.4255 113.659 60.266 113.791 60.0791C113.923 59.8923 113.994 59.7145 114.003 59.5459L114.522 60.3252C114.459 60.512 114.363 60.7103 114.235 60.9199C114.108 61.1296 113.944 61.3255 113.743 61.5078C113.543 61.6901 113.301 61.8405 113.019 61.959C112.736 62.0775 112.408 62.1367 112.034 62.1367C111.556 62.1367 111.127 62.041 110.749 61.8496C110.371 61.6582 110.072 61.3962 109.854 61.0635C109.635 60.7308 109.525 60.3525 109.525 59.9287C109.525 59.5368 109.598 59.1904 109.744 58.8896C109.89 58.5889 110.106 58.3359 110.394 58.1309C110.681 57.9212 111.036 57.764 111.46 57.6592C111.888 57.5498 112.378 57.4951 112.93 57.4951H114.146ZM119.253 51.5V62H117.441V51.5H119.253ZM122.89 54.6035V62H121.078V54.6035H122.89ZM120.955 52.6689C120.955 52.4001 121.046 52.1768 121.229 51.999C121.415 51.8213 121.666 51.7324 121.98 51.7324C122.295 51.7324 122.543 51.8213 122.726 51.999C122.912 52.1768 123.006 52.4001 123.006 52.6689C123.006 52.9333 122.912 53.1543 122.726 53.332C122.543 53.5098 122.295 53.5986 121.98 53.5986C121.666 53.5986 121.415 53.5098 121.229 53.332C121.046 53.1543 120.955 52.9333 120.955 52.6689ZM128.68 59.9766C128.68 59.8216 128.639 59.6826 128.557 59.5596C128.475 59.4365 128.32 59.3249 128.092 59.2246C127.868 59.1198 127.54 59.0218 127.107 58.9307C126.725 58.8486 126.371 58.7461 126.048 58.623C125.724 58.5 125.446 58.3519 125.214 58.1787C124.981 58.001 124.799 57.7936 124.667 57.5566C124.539 57.3151 124.476 57.0371 124.476 56.7227C124.476 56.4173 124.542 56.1302 124.674 55.8613C124.806 55.5879 124.997 55.3486 125.248 55.1436C125.499 54.9339 125.804 54.7699 126.164 54.6514C126.524 54.5283 126.93 54.4668 127.381 54.4668C128.01 54.4668 128.55 54.5693 129.001 54.7744C129.457 54.9795 129.805 55.262 130.047 55.6221C130.288 55.9775 130.409 56.3786 130.409 56.8252H128.604C128.604 56.6292 128.559 56.4515 128.468 56.292C128.381 56.1325 128.247 56.0049 128.064 55.9092C127.882 55.8089 127.652 55.7588 127.374 55.7588C127.123 55.7588 126.911 55.7998 126.738 55.8818C126.57 55.9639 126.442 56.071 126.355 56.2031C126.269 56.3353 126.226 56.4811 126.226 56.6406C126.226 56.7591 126.248 56.8662 126.294 56.9619C126.344 57.0531 126.424 57.1374 126.533 57.2148C126.643 57.2923 126.791 57.363 126.978 57.4268C127.169 57.4906 127.404 57.5521 127.682 57.6113C128.233 57.7207 128.714 57.8665 129.124 58.0488C129.539 58.2266 129.862 58.4635 130.095 58.7598C130.327 59.056 130.443 59.4342 130.443 59.8945C130.443 60.2227 130.373 60.5234 130.231 60.7969C130.09 61.0658 129.885 61.3005 129.616 61.501C129.347 61.7015 129.026 61.8587 128.652 61.9727C128.279 62.082 127.857 62.1367 127.388 62.1367C126.709 62.1367 126.134 62.016 125.665 61.7744C125.196 61.5283 124.84 61.2184 124.599 60.8447C124.357 60.4665 124.236 60.0745 124.236 59.6689H125.966C125.979 59.9561 126.057 60.1862 126.198 60.3594C126.34 60.5326 126.517 60.6579 126.731 60.7354C126.95 60.8083 127.18 60.8447 127.422 60.8447C127.695 60.8447 127.925 60.8083 128.112 60.7354C128.299 60.6579 128.44 60.5553 128.536 60.4277C128.632 60.2956 128.68 60.1452 128.68 59.9766ZM133.731 54.6035V62H131.92V54.6035H133.731ZM131.797 52.6689C131.797 52.4001 131.888 52.1768 132.07 51.999C132.257 51.8213 132.508 51.7324 132.822 51.7324C133.137 51.7324 133.385 51.8213 133.567 51.999C133.754 52.1768 133.848 52.4001 133.848 52.6689C133.848 52.9333 133.754 53.1543 133.567 53.332C133.385 53.5098 133.137 53.5986 132.822 53.5986C132.508 53.5986 132.257 53.5098 132.07 53.332C131.888 53.1543 131.797 52.9333 131.797 52.6689ZM138.776 62.1367C138.216 62.1367 137.712 62.0456 137.266 61.8633C136.819 61.681 136.438 61.4281 136.124 61.1045C135.814 60.7764 135.575 60.3958 135.406 59.9629C135.242 59.5254 135.16 59.056 135.16 58.5547V58.2812C135.16 57.7116 135.242 57.1943 135.406 56.7295C135.57 56.2601 135.803 55.8568 136.104 55.5195C136.404 55.1823 136.764 54.9225 137.184 54.7402C137.603 54.5579 138.065 54.4668 138.571 54.4668C139.095 54.4668 139.558 54.5557 139.959 54.7334C140.36 54.9066 140.695 55.1527 140.964 55.4717C141.233 55.7907 141.436 56.1735 141.572 56.6201C141.709 57.0622 141.777 57.5521 141.777 58.0898V58.8486H135.98V57.6045H140V57.4678C139.991 57.1807 139.936 56.9186 139.836 56.6816C139.736 56.4401 139.581 56.2487 139.371 56.1074C139.161 55.9616 138.89 55.8887 138.558 55.8887C138.289 55.8887 138.054 55.9479 137.854 56.0664C137.658 56.1803 137.493 56.3444 137.361 56.5586C137.234 56.7682 137.138 57.0189 137.074 57.3105C137.01 57.6022 136.979 57.9258 136.979 58.2812V58.5547C136.979 58.8646 137.02 59.1517 137.102 59.416C137.188 59.6803 137.313 59.9105 137.478 60.1064C137.646 60.2979 137.847 60.4482 138.079 60.5576C138.316 60.6624 138.585 60.7148 138.886 60.7148C139.264 60.7148 139.606 60.6419 139.911 60.4961C140.221 60.3457 140.49 60.1247 140.718 59.833L141.627 60.7764C141.472 61.0042 141.262 61.223 140.998 61.4326C140.738 61.6423 140.424 61.8132 140.055 61.9453C139.686 62.0729 139.259 62.1367 138.776 62.1367ZM144.792 56.1143V62H142.987V54.6035H144.696L144.792 56.1143ZM147.041 54.5557L147.014 56.2373C146.913 56.2191 146.799 56.2054 146.672 56.1963C146.549 56.1872 146.433 56.1826 146.323 56.1826C146.045 56.1826 145.801 56.2214 145.592 56.2988C145.382 56.3717 145.207 56.4788 145.065 56.6201C144.929 56.7614 144.824 56.9346 144.751 57.1396C144.678 57.3402 144.637 57.568 144.628 57.8232L144.238 57.7754C144.238 57.306 144.286 56.8708 144.382 56.4697C144.478 56.0687 144.617 55.7178 144.799 55.417C144.981 55.1162 145.209 54.8838 145.482 54.7197C145.76 54.5511 146.079 54.4668 146.439 54.4668C146.54 54.4668 146.647 54.4759 146.761 54.4941C146.879 54.5078 146.973 54.5283 147.041 54.5557ZM152.435 60.2432V54.6035H154.253V62H152.544L152.435 60.2432ZM152.667 58.7119L153.228 58.6982C153.228 59.195 153.173 59.653 153.063 60.0723C152.954 60.4915 152.783 60.8561 152.551 61.166C152.323 61.4714 152.034 61.7106 151.683 61.8838C151.332 62.0524 150.917 62.1367 150.438 62.1367C150.074 62.1367 149.741 62.0866 149.44 61.9863C149.14 61.8815 148.88 61.7197 148.661 61.501C148.447 61.2777 148.281 60.9928 148.162 60.6465C148.044 60.2956 147.984 59.874 147.984 59.3818V54.6035H149.789V59.3955C149.789 59.6416 149.816 59.8467 149.871 60.0107C149.93 60.1748 150.01 60.3092 150.11 60.4141C150.215 60.5143 150.336 60.5872 150.473 60.6328C150.614 60.6738 150.764 60.6943 150.924 60.6943C151.361 60.6943 151.705 60.6077 151.956 60.4346C152.211 60.2568 152.394 60.0199 152.503 59.7236C152.612 59.4229 152.667 59.0856 152.667 58.7119ZM157.623 56.1826V62H155.818V54.6035H157.514L157.623 56.1826ZM157.336 58.0352H156.803C156.807 57.4974 156.88 57.0098 157.021 56.5723C157.163 56.1348 157.361 55.7588 157.616 55.4443C157.876 55.1299 158.184 54.8883 158.539 54.7197C158.895 54.5511 159.291 54.4668 159.729 54.4668C160.084 54.4668 160.405 54.5169 160.692 54.6172C160.979 54.7174 161.226 54.877 161.431 55.0957C161.64 55.3145 161.8 55.6016 161.909 55.957C162.023 56.3079 162.08 56.7409 162.08 57.2559V62H160.262V57.2422C160.262 56.9049 160.212 56.6383 160.111 56.4424C160.016 56.2464 159.874 56.1074 159.688 56.0254C159.505 55.9434 159.28 55.9023 159.011 55.9023C158.733 55.9023 158.489 55.9593 158.279 56.0732C158.074 56.1826 157.901 56.3353 157.76 56.5312C157.623 56.7272 157.518 56.9528 157.445 57.208C157.372 57.4632 157.336 57.7389 157.336 58.0352ZM168.376 54.6035H170.017V61.7744C170.017 62.4443 169.871 63.0117 169.579 63.4766C169.292 63.946 168.889 64.3014 168.369 64.543C167.85 64.7891 167.246 64.9121 166.558 64.9121C166.261 64.9121 165.94 64.8711 165.594 64.7891C165.252 64.707 164.922 64.5771 164.603 64.3994C164.288 64.2262 164.026 64.0007 163.816 63.7227L164.63 62.6562C164.876 62.9434 165.154 63.1598 165.464 63.3057C165.774 63.4561 166.109 63.5312 166.469 63.5312C166.833 63.5312 167.143 63.4629 167.398 63.3262C167.658 63.194 167.856 62.998 167.993 62.7383C168.134 62.4831 168.205 62.1686 168.205 61.7949V56.292L168.376 54.6035ZM163.379 58.3906V58.2471C163.379 57.682 163.447 57.1693 163.584 56.709C163.721 56.2441 163.917 55.8454 164.172 55.5127C164.432 55.18 164.744 54.9225 165.108 54.7402C165.478 54.5579 165.892 54.4668 166.353 54.4668C166.84 54.4668 167.25 54.5557 167.583 54.7334C167.92 54.9111 168.198 55.1641 168.417 55.4922C168.64 55.8203 168.813 56.21 168.937 56.6611C169.064 57.1077 169.162 57.5999 169.23 58.1377V58.5273C169.167 59.0514 169.064 59.5322 168.923 59.9697C168.786 60.4072 168.604 60.79 168.376 61.1182C168.148 61.4417 167.866 61.6924 167.528 61.8701C167.191 62.0479 166.795 62.1367 166.339 62.1367C165.883 62.1367 165.473 62.0433 165.108 61.8564C164.744 61.6696 164.432 61.4076 164.172 61.0703C163.917 60.7331 163.721 60.3366 163.584 59.8809C163.447 59.4251 163.379 58.9284 163.379 58.3906ZM165.184 58.2471V58.3906C165.184 58.7096 165.215 59.0081 165.279 59.2861C165.343 59.5641 165.441 59.8102 165.573 60.0244C165.705 60.234 165.872 60.3981 166.072 60.5166C166.273 60.6351 166.512 60.6943 166.79 60.6943C167.164 60.6943 167.469 60.6169 167.706 60.4619C167.948 60.3024 168.13 60.0859 168.253 59.8125C168.381 59.5345 168.463 59.2223 168.499 58.876V57.8027C168.476 57.5293 168.426 57.2764 168.349 57.0439C168.276 56.8115 168.173 56.611 168.041 56.4424C167.909 56.2738 167.74 56.1416 167.535 56.0459C167.33 55.9502 167.086 55.9023 166.804 55.9023C166.53 55.9023 166.291 55.9639 166.086 56.0869C165.881 56.2054 165.712 56.3717 165.58 56.5859C165.448 56.8001 165.348 57.0485 165.279 57.3311C165.215 57.6136 165.184 57.9189 165.184 58.2471ZM179.197 59.9766C179.197 59.8216 179.156 59.6826 179.074 59.5596C178.992 59.4365 178.837 59.3249 178.609 59.2246C178.386 59.1198 178.058 59.0218 177.625 58.9307C177.242 58.8486 176.889 58.7461 176.565 58.623C176.242 58.5 175.964 58.3519 175.731 58.1787C175.499 58.001 175.317 57.7936 175.185 57.5566C175.057 57.3151 174.993 57.0371 174.993 56.7227C174.993 56.4173 175.059 56.1302 175.191 55.8613C175.324 55.5879 175.515 55.3486 175.766 55.1436C176.016 54.9339 176.322 54.7699 176.682 54.6514C177.042 54.5283 177.447 54.4668 177.898 54.4668C178.527 54.4668 179.067 54.5693 179.519 54.7744C179.974 54.9795 180.323 55.262 180.564 55.6221C180.806 55.9775 180.927 56.3786 180.927 56.8252H179.122C179.122 56.6292 179.076 56.4515 178.985 56.292C178.899 56.1325 178.764 56.0049 178.582 55.9092C178.4 55.8089 178.17 55.7588 177.892 55.7588C177.641 55.7588 177.429 55.7998 177.256 55.8818C177.087 55.9639 176.96 56.071 176.873 56.2031C176.786 56.3353 176.743 56.4811 176.743 56.6406C176.743 56.7591 176.766 56.8662 176.812 56.9619C176.862 57.0531 176.941 57.1374 177.051 57.2148C177.16 57.2923 177.308 57.363 177.495 57.4268C177.687 57.4906 177.921 57.5521 178.199 57.6113C178.751 57.7207 179.231 57.8665 179.642 58.0488C180.056 58.2266 180.38 58.4635 180.612 58.7598C180.845 59.056 180.961 59.4342 180.961 59.8945C180.961 60.2227 180.89 60.5234 180.749 60.7969C180.608 61.0658 180.403 61.3005 180.134 61.501C179.865 61.7015 179.544 61.8587 179.17 61.9727C178.796 62.082 178.375 62.1367 177.905 62.1367C177.226 62.1367 176.652 62.016 176.183 61.7744C175.713 61.5283 175.358 61.2184 175.116 60.8447C174.875 60.4665 174.754 60.0745 174.754 59.6689H176.483C176.497 59.9561 176.575 60.1862 176.716 60.3594C176.857 60.5326 177.035 60.6579 177.249 60.7354C177.468 60.8083 177.698 60.8447 177.939 60.8447C178.213 60.8447 178.443 60.8083 178.63 60.7354C178.817 60.6579 178.958 60.5553 179.054 60.4277C179.149 60.2956 179.197 60.1452 179.197 59.9766ZM184.249 54.6035V62H182.438V54.6035H184.249ZM182.314 52.6689C182.314 52.4001 182.406 52.1768 182.588 51.999C182.775 51.8213 183.025 51.7324 183.34 51.7324C183.654 51.7324 183.903 51.8213 184.085 51.999C184.272 52.1768 184.365 52.4001 184.365 52.6689C184.365 52.9333 184.272 53.1543 184.085 53.332C183.903 53.5098 183.654 53.5986 183.34 53.5986C183.025 53.5986 182.775 53.5098 182.588 53.332C182.406 53.1543 182.314 52.9333 182.314 52.6689ZM189.007 60.7148C189.262 60.7148 189.49 60.6647 189.69 60.5645C189.891 60.4642 190.05 60.3229 190.169 60.1406C190.292 59.9583 190.358 59.7464 190.367 59.5049H192.069C192.06 60.0062 191.919 60.4551 191.646 60.8516C191.372 61.248 191.007 61.5625 190.552 61.7949C190.101 62.0228 189.595 62.1367 189.034 62.1367C188.465 62.1367 187.968 62.041 187.544 61.8496C187.12 61.6582 186.767 61.3916 186.484 61.0498C186.206 60.708 185.997 60.3115 185.855 59.8604C185.719 59.4092 185.65 58.9261 185.65 58.4111V58.1924C185.65 57.6774 185.719 57.1943 185.855 56.7432C185.997 56.292 186.206 55.8955 186.484 55.5537C186.767 55.2119 187.12 54.9453 187.544 54.7539C187.968 54.5625 188.462 54.4668 189.027 54.4668C189.624 54.4668 190.148 54.583 190.6 54.8154C191.055 55.0479 191.411 55.376 191.666 55.7998C191.926 56.2236 192.06 56.7227 192.069 57.2969H190.367C190.358 57.0326 190.299 56.7956 190.189 56.5859C190.08 56.3763 189.925 56.2077 189.725 56.0801C189.524 55.9525 189.28 55.8887 188.993 55.8887C188.688 55.8887 188.433 55.9525 188.228 56.0801C188.027 56.2077 187.87 56.3831 187.756 56.6064C187.646 56.8252 187.569 57.0713 187.523 57.3447C187.482 57.6136 187.462 57.8962 187.462 58.1924V58.4111C187.462 58.7119 187.482 58.999 187.523 59.2725C187.569 59.5459 187.646 59.792 187.756 60.0107C187.87 60.2249 188.027 60.3958 188.228 60.5234C188.433 60.651 188.692 60.7148 189.007 60.7148ZM195.043 51.5V62H193.231V51.5H195.043ZM194.756 58.0352H194.223C194.223 57.5202 194.291 57.0462 194.428 56.6133C194.564 56.1803 194.758 55.8044 195.009 55.4854C195.259 55.1618 195.558 54.9111 195.904 54.7334C196.255 54.5557 196.643 54.4668 197.066 54.4668C197.431 54.4668 197.761 54.5192 198.058 54.624C198.358 54.7243 198.616 54.8861 198.83 55.1094C199.044 55.3327 199.208 55.6243 199.322 55.9844C199.441 56.3398 199.5 56.7728 199.5 57.2832V62H197.682V57.2695C197.682 56.9277 197.632 56.6589 197.531 56.4629C197.431 56.2624 197.287 56.1188 197.101 56.0322C196.918 55.9456 196.693 55.9023 196.424 55.9023C196.132 55.9023 195.882 55.9593 195.672 56.0732C195.462 56.1826 195.289 56.3353 195.152 56.5312C195.02 56.7272 194.92 56.9528 194.852 57.208C194.788 57.4632 194.756 57.7389 194.756 58.0352ZM204.593 54.6035V55.9023H200.354V54.6035H204.593ZM201.489 52.7852H203.301V59.8672C203.301 60.0859 203.33 60.2546 203.39 60.373C203.449 60.4915 203.538 60.5713 203.656 60.6123C203.775 60.6533 203.916 60.6738 204.08 60.6738C204.199 60.6738 204.308 60.667 204.408 60.6533C204.508 60.6396 204.593 60.626 204.661 60.6123L204.668 61.9658C204.518 62.016 204.347 62.057 204.155 62.0889C203.968 62.1208 203.757 62.1367 203.52 62.1367C203.114 62.1367 202.758 62.0684 202.453 61.9316C202.148 61.7904 201.911 61.5648 201.742 61.2549C201.574 60.9404 201.489 60.5257 201.489 60.0107V52.7852ZM205.789 51.5H207.601V60.3662L207.423 62H205.789V51.5ZM212.358 58.2266V58.3701C212.358 58.9215 212.297 59.4274 212.174 59.8877C212.055 60.348 211.875 60.7467 211.634 61.084C211.392 61.4167 211.091 61.6764 210.731 61.8633C210.376 62.0456 209.959 62.1367 209.48 62.1367C209.025 62.1367 208.628 62.0479 208.291 61.8701C207.958 61.6924 207.678 61.4417 207.45 61.1182C207.222 60.79 207.04 60.4049 206.903 59.9629C206.767 59.5163 206.664 59.0286 206.596 58.5V58.1104C206.664 57.5771 206.767 57.0895 206.903 56.6475C207.04 56.2054 207.222 55.8203 207.45 55.4922C207.678 55.1641 207.958 54.9111 208.291 54.7334C208.624 54.5557 209.016 54.4668 209.467 54.4668C209.95 54.4668 210.371 54.5602 210.731 54.7471C211.096 54.9294 211.397 55.1891 211.634 55.5264C211.875 55.859 212.055 56.2555 212.174 56.7158C212.297 57.1715 212.358 57.6751 212.358 58.2266ZM210.547 58.3701V58.2266C210.547 57.9121 210.522 57.6159 210.472 57.3379C210.422 57.0553 210.34 56.807 210.226 56.5928C210.112 56.3786 209.957 56.21 209.761 56.0869C209.565 55.9639 209.319 55.9023 209.022 55.9023C208.74 55.9023 208.498 55.9502 208.298 56.0459C208.102 56.1416 207.938 56.2738 207.806 56.4424C207.678 56.611 207.578 56.8092 207.505 57.0371C207.437 57.265 207.391 57.5111 207.368 57.7754V58.8418C207.4 59.1927 207.475 59.5094 207.594 59.792C207.712 60.07 207.888 60.291 208.12 60.4551C208.357 60.6191 208.662 60.7012 209.036 60.7012C209.328 60.7012 209.572 60.6442 209.768 60.5303C209.964 60.4118 210.118 60.2477 210.232 60.0381C210.346 59.8239 210.426 59.5755 210.472 59.293C210.522 59.0104 210.547 58.7028 210.547 58.3701ZM217.745 60.4277V57.0166C217.745 56.766 217.702 56.5495 217.615 56.3672C217.529 56.1849 217.396 56.0436 217.219 55.9434C217.041 55.8431 216.815 55.793 216.542 55.793C216.3 55.793 216.089 55.834 215.906 55.916C215.729 55.998 215.592 56.1143 215.496 56.2646C215.4 56.4105 215.353 56.5791 215.353 56.7705H213.541C213.541 56.4652 213.614 56.1758 213.76 55.9023C213.906 55.6243 214.113 55.3783 214.382 55.1641C214.655 54.9453 214.981 54.7744 215.359 54.6514C215.742 54.5283 216.171 54.4668 216.645 54.4668C217.205 54.4668 217.704 54.5625 218.142 54.7539C218.584 54.9408 218.93 55.2233 219.181 55.6016C219.436 55.9798 219.563 56.4561 219.563 57.0303V60.2568C219.563 60.626 219.586 60.9427 219.632 61.207C219.682 61.4668 219.755 61.6924 219.851 61.8838V62H218.012C217.925 61.8132 217.859 61.5762 217.813 61.2891C217.768 60.9974 217.745 60.7103 217.745 60.4277ZM217.998 57.4951L218.012 58.5684H216.87C216.588 58.5684 216.339 58.598 216.125 58.6572C215.911 58.7119 215.735 58.7939 215.599 58.9033C215.462 59.0081 215.359 59.1357 215.291 59.2861C215.223 59.432 215.188 59.5983 215.188 59.7852C215.188 59.9674 215.229 60.1315 215.312 60.2773C215.398 60.4232 215.521 60.5394 215.681 60.626C215.845 60.708 216.036 60.749 216.255 60.749C216.574 60.749 216.852 60.6852 217.089 60.5576C217.326 60.4255 217.51 60.266 217.643 60.0791C217.775 59.8923 217.845 59.7145 217.854 59.5459L218.374 60.3252C218.31 60.512 218.215 60.7103 218.087 60.9199C217.959 61.1296 217.795 61.3255 217.595 61.5078C217.394 61.6901 217.153 61.8405 216.87 61.959C216.588 62.0775 216.259 62.1367 215.886 62.1367C215.407 62.1367 214.979 62.041 214.601 61.8496C214.222 61.6582 213.924 61.3962 213.705 61.0635C213.486 60.7308 213.377 60.3525 213.377 59.9287C213.377 59.5368 213.45 59.1904 213.596 58.8896C213.742 58.5889 213.958 58.3359 214.245 58.1309C214.532 57.9212 214.888 57.764 215.312 57.6592C215.74 57.5498 216.23 57.4951 216.781 57.4951H217.998ZM222.995 56.1143V62H221.19V54.6035H222.899L222.995 56.1143ZM225.244 54.5557L225.217 56.2373C225.117 56.2191 225.003 56.2054 224.875 56.1963C224.752 56.1872 224.636 56.1826 224.526 56.1826C224.248 56.1826 224.005 56.2214 223.795 56.2988C223.585 56.3717 223.41 56.4788 223.269 56.6201C223.132 56.7614 223.027 56.9346 222.954 57.1396C222.881 57.3402 222.84 57.568 222.831 57.8232L222.441 57.7754C222.441 57.306 222.489 56.8708 222.585 56.4697C222.681 56.0687 222.82 55.7178 223.002 55.417C223.184 55.1162 223.412 54.8838 223.686 54.7197C223.964 54.5511 224.283 54.4668 224.643 54.4668C224.743 54.4668 224.85 54.4759 224.964 54.4941C225.082 54.5078 225.176 54.5283 225.244 54.5557ZM228.293 52.0469L228.095 59.0127H226.57L226.372 52.0469H228.293ZM226.317 61.1592C226.317 60.8903 226.409 60.6647 226.591 60.4824C226.778 60.2956 227.028 60.2021 227.343 60.2021C227.657 60.2021 227.906 60.2956 228.088 60.4824C228.275 60.6647 228.368 60.8903 228.368 61.1592C228.368 61.4235 228.275 61.6468 228.088 61.8291C227.906 62.0114 227.657 62.1025 227.343 62.1025C227.028 62.1025 226.778 62.0114 226.591 61.8291C226.409 61.6468 226.317 61.4235 226.317 61.1592Z" fill="#DCA54C"/>
<path d="M53.244 35V10.52H56.032V35H53.244ZM69.8315 35V13.274H58.9515V10.52H83.4315V13.274H72.5855V35H69.8315ZM86.0763 26.33V23.542H99.3363V26.33H86.0763ZM103.607 35V10.52H124.007C124.755 10.52 125.435 10.7013 126.047 11.064C126.681 11.4267 127.18 11.9253 127.543 12.56C127.905 13.172 128.087 13.852 128.087 14.6V30.92C128.087 31.668 127.905 32.3593 127.543 32.994C127.18 33.606 126.681 34.0933 126.047 34.456C125.435 34.8187 124.755 35 124.007 35H103.607ZM107.687 32.246H124.007C124.369 32.246 124.675 32.1213 124.925 31.872C125.197 31.6 125.333 31.2827 125.333 30.92V14.6C125.333 14.2373 125.197 13.9313 124.925 13.682C124.675 13.41 124.369 13.274 124.007 13.274H107.687C107.324 13.274 107.007 13.41 106.735 13.682C106.485 13.9313 106.361 14.2373 106.361 14.6V30.92C106.361 31.2827 106.485 31.6 106.735 31.872C107.007 32.1213 107.324 32.246 107.687 32.246ZM135.838 35C135.09 35 134.399 34.8187 133.764 34.456C133.152 34.0707 132.654 33.572 132.268 32.96C131.906 32.3253 131.724 31.634 131.724 30.886V19.394C131.724 18.646 131.906 17.966 132.268 17.354C132.654 16.7193 133.152 16.2207 133.764 15.858C134.399 15.4727 135.09 15.28 135.838 15.28H147.67C148.441 15.28 149.132 15.4727 149.744 15.858C150.379 16.2207 150.878 16.7193 151.24 17.354C151.626 17.966 151.818 18.646 151.818 19.394V30.886C151.818 31.634 151.626 32.3253 151.24 32.96C150.878 33.572 150.379 34.0707 149.744 34.456C149.132 34.8187 148.441 35 147.67 35H135.838ZM135.838 32.212H147.67C148.033 32.212 148.339 32.0873 148.588 31.838C148.86 31.566 148.996 31.2487 148.996 30.886V19.394C148.996 19.0313 148.86 18.7253 148.588 18.476C148.339 18.204 148.033 18.068 147.67 18.068H135.838C135.476 18.068 135.158 18.204 134.886 18.476C134.637 18.7253 134.512 19.0313 134.512 19.394V30.886C134.512 31.2487 134.637 31.566 134.886 31.838C135.158 32.0873 135.476 32.212 135.838 32.212ZM155.367 35V8.82H158.155V15.28H171.347C172.095 15.28 172.775 15.4727 173.387 15.858C174.022 16.2207 174.521 16.7193 174.883 17.354C175.269 17.966 175.461 18.646 175.461 19.394V30.886C175.461 31.634 175.269 32.3253 174.883 32.96C174.521 33.572 174.022 34.0707 173.387 34.456C172.775 34.8187 172.095 35 171.347 35H155.367ZM159.515 32.212H171.347C171.71 32.212 172.016 32.0873 172.265 31.838C172.537 31.566 172.673 31.2487 172.673 30.886V19.394C172.673 19.0313 172.537 18.7253 172.265 18.476C172.016 18.204 171.71 18.068 171.347 18.068H159.515C159.153 18.068 158.835 18.204 158.563 18.476C158.291 18.7253 158.155 19.0313 158.155 19.394V30.886C158.155 31.2487 158.291 31.566 158.563 31.838C158.835 32.0873 159.153 32.212 159.515 32.212ZM182.091 35C181.343 35 180.652 34.8187 180.017 34.456C179.405 34.0707 178.906 33.572 178.521 32.96C178.158 32.3253 177.977 31.634 177.977 30.886V8.82H180.765V30.886C180.765 31.2487 180.89 31.566 181.139 31.838C181.411 32.0873 181.728 32.212 182.091 32.212H185.423V35H182.091ZM191.819 35C191.071 35 190.379 34.8187 189.745 34.456C189.133 34.0707 188.634 33.572 188.249 32.96C187.886 32.3253 187.705 31.634 187.705 30.886V19.394C187.705 18.646 187.886 17.966 188.249 17.354C188.634 16.7193 189.133 16.2207 189.745 15.858C190.379 15.4727 191.071 15.28 191.819 15.28H203.651C204.421 15.28 205.113 15.4727 205.725 15.858C206.359 16.2207 206.858 16.7193 207.221 17.354C207.606 17.966 207.799 18.646 207.799 19.394V26.534H190.493V30.886C190.493 31.2487 190.617 31.566 190.867 31.838C191.139 32.0873 191.456 32.212 191.819 32.212H207.799V35H191.819ZM190.493 23.746H204.977V19.394C204.977 19.0313 204.841 18.7253 204.569 18.476C204.319 18.204 204.013 18.068 203.651 18.068H191.819C191.456 18.068 191.139 18.204 190.867 18.476C190.617 18.7253 190.493 19.0313 190.493 19.394V23.746ZM211.114 35V19.394C211.114 18.646 211.295 17.966 211.658 17.354C212.043 16.7193 212.542 16.2207 213.154 15.858C213.788 15.4727 214.48 15.28 215.228 15.28H226.312V18.068H215.228C214.865 18.068 214.548 18.204 214.276 18.476C214.026 18.7253 213.902 19.0313 213.902 19.394V35H211.114Z" fill="#09090B"/>
</svg>
