<svg width="228" height="65" viewBox="0 0 228 65" fill="none" xmlns="http://www.w3.org/2000/svg">
<path d="M3.55469 12.0781H7.98426C8.42744 12.0781 8.80699 11.9218 9.12511 11.6047C9.44324 11.2898 9.60339 10.9141 9.60339 10.4753V6.70508H3.55469V12.076V12.0781Z" fill="#DCA54C"/>
<path d="M32.6749 9.45894C32.1637 8.60976 31.4858 7.93867 30.6411 7.44567C29.7965 6.95266 28.8618 6.70508 27.8395 6.70508H12.9667V10.4753C12.9667 11.3788 12.7451 12.2085 12.3019 12.9621C11.8588 13.7157 11.2576 14.3108 10.4963 14.7495C9.73503 15.1882 8.89694 15.4075 7.98426 15.4075H3.55469V36.2939H12.947V16.007H33.4428V12.2541C33.4428 11.2398 33.1861 10.3081 32.6749 9.45894Z" fill="#DCA54C"/>
<path d="M16.7869 19.8077C16.4688 20.1226 16.3086 20.5005 16.3086 20.937V36.2917H27.8378C28.8623 36.2917 29.7948 36.0441 30.6394 35.5511C31.4841 35.0581 32.162 34.387 32.6732 33.5379C33.1844 32.6887 33.4411 31.757 33.4411 30.7427V19.332H17.9255C17.4824 19.332 17.1028 19.4906 16.7847 19.8055L16.7869 19.8077Z" fill="#DCA54C"/>
<path d="M5.82324 60.0928L7.80566 52.0469H8.87891L8.94727 53.7422L6.82812 62H5.69336L5.82324 60.0928ZM4.57227 52.0469L6.19922 60.0654V62H4.96191L2.70605 52.0469H4.57227ZM11.0049 60.0312L12.6045 52.0469H14.4775L12.2217 62H10.9844L11.0049 60.0312ZM9.3916 52.0469L11.374 60.1201L11.4902 62H10.3555L8.24316 53.7354L8.3252 52.0469H9.3916ZM18.6338 62.1367C18.0732 62.1367 17.5697 62.0456 17.123 61.8633C16.6764 61.681 16.2959 61.4281 15.9814 61.1045C15.6715 60.7764 15.4323 60.3958 15.2637 59.9629C15.0996 59.5254 15.0176 59.056 15.0176 58.5547V58.2812C15.0176 57.7116 15.0996 57.1943 15.2637 56.7295C15.4277 56.2601 15.6602 55.8568 15.9609 55.5195C16.2617 55.1823 16.6217 54.9225 17.041 54.7402C17.4603 54.5579 17.9229 54.4668 18.4287 54.4668C18.9528 54.4668 19.4154 54.5557 19.8164 54.7334C20.2174 54.9066 20.5524 55.1527 20.8213 55.4717C21.0902 55.7907 21.293 56.1735 21.4297 56.6201C21.5664 57.0622 21.6348 57.5521 21.6348 58.0898V58.8486H15.8379V57.6045H19.8574V57.4678C19.8483 57.1807 19.7936 56.9186 19.6934 56.6816C19.5931 56.4401 19.4382 56.2487 19.2285 56.1074C19.0189 55.9616 18.7477 55.8887 18.415 55.8887C18.1462 55.8887 17.9115 55.9479 17.7109 56.0664C17.515 56.1803 17.3509 56.3444 17.2188 56.5586C17.0911 56.7682 16.9954 57.0189 16.9316 57.3105C16.8678 57.6022 16.8359 57.9258 16.8359 58.2812V58.5547C16.8359 58.8646 16.877 59.1517 16.959 59.416C17.0456 59.6803 17.1709 59.9105 17.335 60.1064C17.5036 60.2979 17.7041 60.4482 17.9365 60.5576C18.1735 60.6624 18.4424 60.7148 18.7432 60.7148C19.1214 60.7148 19.4632 60.6419 19.7686 60.4961C20.0785 60.3457 20.3473 60.1247 20.5752 59.833L21.4844 60.7764C21.3294 61.0042 21.1198 61.223 20.8555 61.4326C20.5957 61.6423 20.2812 61.8132 19.9121 61.9453C19.543 62.0729 19.1169 62.1367 18.6338 62.1367ZM28.1289 56.1211V62H26.3242V54.6035H28.0264L28.1289 56.1211ZM27.8623 58.0352H27.3086C27.3086 57.5202 27.3701 57.0462 27.4932 56.6133C27.6208 56.1803 27.8076 55.8044 28.0537 55.4854C28.2998 55.1618 28.6029 54.9111 28.9629 54.7334C29.3275 54.5557 29.749 54.4668 30.2275 54.4668C30.5602 54.4668 30.8656 54.5169 31.1436 54.6172C31.4215 54.7129 31.6608 54.8656 31.8613 55.0752C32.0664 55.2803 32.2236 55.5492 32.333 55.8818C32.4424 56.21 32.4971 56.6042 32.4971 57.0645V62H30.6924V57.249C30.6924 56.9027 30.6423 56.6315 30.542 56.4355C30.4463 56.2396 30.3073 56.1029 30.125 56.0254C29.9427 55.9434 29.724 55.9023 29.4688 55.9023C29.1862 55.9023 28.9424 55.9593 28.7373 56.0732C28.5368 56.1826 28.3704 56.3353 28.2383 56.5312C28.1107 56.7272 28.015 56.9528 27.9512 57.208C27.8919 57.4632 27.8623 57.7389 27.8623 58.0352ZM32.3604 57.7002L31.6152 57.8369C31.6198 57.3721 31.6836 56.9368 31.8066 56.5312C31.9297 56.1211 32.1097 55.7633 32.3467 55.458C32.5882 55.1481 32.8867 54.9066 33.2422 54.7334C33.6022 54.5557 34.0169 54.4668 34.4863 54.4668C34.8509 54.4668 35.179 54.5192 35.4707 54.624C35.7669 54.7243 36.0199 54.8861 36.2295 55.1094C36.4391 55.3281 36.5986 55.613 36.708 55.9639C36.8219 56.3148 36.8789 56.7432 36.8789 57.249V62H35.0605V57.2422C35.0605 56.8822 35.0104 56.6064 34.9102 56.415C34.8145 56.2236 34.6755 56.0915 34.4932 56.0186C34.3109 55.9411 34.0967 55.9023 33.8506 55.9023C33.5999 55.9023 33.3812 55.9502 33.1943 56.0459C33.012 56.137 32.8571 56.2646 32.7295 56.4287C32.6064 56.5928 32.513 56.7842 32.4492 57.0029C32.39 57.2171 32.3604 57.4495 32.3604 57.7002ZM42.5732 60.4277V57.0166C42.5732 56.766 42.5299 56.5495 42.4434 56.3672C42.3568 56.1849 42.2246 56.0436 42.0469 55.9434C41.8691 55.8431 41.6436 55.793 41.3701 55.793C41.1286 55.793 40.9167 55.834 40.7344 55.916C40.5566 55.998 40.4199 56.1143 40.3242 56.2646C40.2285 56.4105 40.1807 56.5791 40.1807 56.7705H38.3691C38.3691 56.4652 38.4421 56.1758 38.5879 55.9023C38.7337 55.6243 38.9411 55.3783 39.21 55.1641C39.4834 54.9453 39.8092 54.7744 40.1875 54.6514C40.5703 54.5283 40.9987 54.4668 41.4727 54.4668C42.0332 54.4668 42.5322 54.5625 42.9697 54.7539C43.4118 54.9408 43.7581 55.2233 44.0088 55.6016C44.264 55.9798 44.3916 56.4561 44.3916 57.0303V60.2568C44.3916 60.626 44.4144 60.9427 44.46 61.207C44.5101 61.4668 44.583 61.6924 44.6787 61.8838V62H42.8398C42.7533 61.8132 42.6872 61.5762 42.6416 61.2891C42.596 60.9974 42.5732 60.7103 42.5732 60.4277ZM42.8262 57.4951L42.8398 58.5684H41.6982C41.4157 58.5684 41.1673 58.598 40.9531 58.6572C40.7389 58.7119 40.5635 58.7939 40.4268 58.9033C40.29 59.0081 40.1875 59.1357 40.1191 59.2861C40.0508 59.432 40.0166 59.5983 40.0166 59.7852C40.0166 59.9674 40.0576 60.1315 40.1396 60.2773C40.2262 60.4232 40.3493 60.5394 40.5088 60.626C40.6729 60.708 40.8643 60.749 41.083 60.749C41.402 60.749 41.68 60.6852 41.917 60.5576C42.154 60.4255 42.3385 60.266 42.4707 60.0791C42.6029 59.8923 42.6735 59.7145 42.6826 59.5459L43.2021 60.3252C43.1383 60.512 43.0426 60.7103 42.915 60.9199C42.7874 61.1296 42.6234 61.3255 42.4229 61.5078C42.2223 61.6901 41.9808 61.8405 41.6982 61.959C41.4157 62.0775 41.0876 62.1367 40.7139 62.1367C40.2354 62.1367 39.807 62.041 39.4287 61.8496C39.0505 61.6582 38.752 61.3962 38.5332 61.0635C38.3145 60.7308 38.2051 60.3525 38.2051 59.9287C38.2051 59.5368 38.278 59.1904 38.4238 58.8896C38.5697 58.5889 38.7861 58.3359 39.0732 58.1309C39.3604 57.9212 39.7158 57.764 40.1396 57.6592C40.568 57.5498 41.0579 57.4951 41.6094 57.4951H42.8262ZM47.8232 51.4932V62H46.0186V51.4932H47.8232ZM52.458 54.6035L49.2383 58.2197L47.4951 59.9902L46.9209 58.5889L48.2676 56.8936L50.2773 54.6035H52.458ZM50.6123 62L48.3223 58.5547L49.5254 57.3857L52.7041 62H50.6123ZM56.6006 62.1367C56.04 62.1367 55.5365 62.0456 55.0898 61.8633C54.6432 61.681 54.2627 61.4281 53.9482 61.1045C53.6383 60.7764 53.3991 60.3958 53.2305 59.9629C53.0664 59.5254 52.9844 59.056 52.9844 58.5547V58.2812C52.9844 57.7116 53.0664 57.1943 53.2305 56.7295C53.3945 56.2601 53.627 55.8568 53.9277 55.5195C54.2285 55.1823 54.5885 54.9225 55.0078 54.7402C55.4271 54.5579 55.8896 54.4668 56.3955 54.4668C56.9196 54.4668 57.3822 54.5557 57.7832 54.7334C58.1842 54.9066 58.5192 55.1527 58.7881 55.4717C59.057 55.7907 59.2598 56.1735 59.3965 56.6201C59.5332 57.0622 59.6016 57.5521 59.6016 58.0898V58.8486H53.8047V57.6045H57.8242V57.4678C57.8151 57.1807 57.7604 56.9186 57.6602 56.6816C57.5599 56.4401 57.4049 56.2487 57.1953 56.1074C56.9857 55.9616 56.7145 55.8887 56.3818 55.8887C56.113 55.8887 55.8783 55.9479 55.6777 56.0664C55.4818 56.1803 55.3177 56.3444 55.1855 56.5586C55.0579 56.7682 54.9622 57.0189 54.8984 57.3105C54.8346 57.6022 54.8027 57.9258 54.8027 58.2812V58.5547C54.8027 58.8646 54.8438 59.1517 54.9258 59.416C55.0124 59.6803 55.1377 59.9105 55.3018 60.1064C55.4704 60.2979 55.6709 60.4482 55.9033 60.5576C56.1403 60.6624 56.4092 60.7148 56.71 60.7148C57.0882 60.7148 57.43 60.6419 57.7354 60.4961C58.0452 60.3457 58.3141 60.1247 58.542 59.833L59.4512 60.7764C59.2962 61.0042 59.0866 61.223 58.8223 61.4326C58.5625 61.6423 58.248 61.8132 57.8789 61.9453C57.5098 62.0729 57.0837 62.1367 56.6006 62.1367ZM68.7344 60.4277V51.5H70.5527V62H68.9121L68.7344 60.4277ZM63.9834 58.3906V58.2471C63.9834 57.682 64.0472 57.1693 64.1748 56.709C64.307 56.2441 64.4984 55.8454 64.749 55.5127C64.9997 55.18 65.3027 54.9225 65.6582 54.7402C66.0182 54.5579 66.4261 54.4668 66.8818 54.4668C67.3239 54.4668 67.709 54.5557 68.0371 54.7334C68.3698 54.9111 68.6523 55.1641 68.8848 55.4922C69.1217 55.8203 69.3109 56.21 69.4521 56.6611C69.5934 57.1077 69.696 57.5999 69.7598 58.1377V58.5273C69.696 59.0514 69.5934 59.5322 69.4521 59.9697C69.3109 60.4072 69.1217 60.79 68.8848 61.1182C68.6523 61.4417 68.3698 61.6924 68.0371 61.8701C67.7044 62.0479 67.3148 62.1367 66.8682 62.1367C66.417 62.1367 66.0114 62.0433 65.6514 61.8564C65.2959 61.6696 64.9928 61.4076 64.7422 61.0703C64.4961 60.7331 64.307 60.3366 64.1748 59.8809C64.0472 59.4251 63.9834 58.9284 63.9834 58.3906ZM65.7949 58.2471V58.3906C65.7949 58.7096 65.8223 59.0081 65.877 59.2861C65.9316 59.5641 66.0205 59.8102 66.1436 60.0244C66.2666 60.234 66.4238 60.3981 66.6152 60.5166C66.8112 60.6351 67.0482 60.6943 67.3262 60.6943C67.6816 60.6943 67.9733 60.6169 68.2012 60.4619C68.4336 60.3024 68.6136 60.0859 68.7412 59.8125C68.8688 59.5345 68.9508 59.2223 68.9873 58.876V57.8027C68.9691 57.5293 68.9212 57.2764 68.8438 57.0439C68.7708 56.8115 68.666 56.611 68.5293 56.4424C68.3971 56.2738 68.2331 56.1416 68.0371 56.0459C67.8411 55.9502 67.6087 55.9023 67.3398 55.9023C67.0618 55.9023 66.8249 55.9639 66.6289 56.0869C66.4329 56.2054 66.2734 56.3717 66.1504 56.5859C66.0273 56.8001 65.9362 57.0485 65.877 57.3311C65.8223 57.6136 65.7949 57.9189 65.7949 58.2471ZM74.1006 54.6035V62H72.2891V54.6035H74.1006ZM72.166 52.6689C72.166 52.4001 72.2572 52.1768 72.4395 51.999C72.6263 51.8213 72.877 51.7324 73.1914 51.7324C73.5059 51.7324 73.7542 51.8213 73.9365 51.999C74.1234 52.1768 74.2168 52.4001 74.2168 52.6689C74.2168 52.9333 74.1234 53.1543 73.9365 53.332C73.7542 53.5098 73.5059 53.5986 73.1914 53.5986C72.877 53.5986 72.6263 53.5098 72.4395 53.332C72.2572 53.1543 72.166 52.9333 72.166 52.6689ZM80.5264 54.6035H82.167V61.7744C82.167 62.4443 82.0212 63.0117 81.7295 63.4766C81.4424 63.946 81.0391 64.3014 80.5195 64.543C80 64.7891 79.3962 64.9121 78.708 64.9121C78.4118 64.9121 78.0905 64.8711 77.7441 64.7891C77.4023 64.707 77.0719 64.5771 76.7529 64.3994C76.4385 64.2262 76.1764 64.0007 75.9668 63.7227L76.7803 62.6562C77.0264 62.9434 77.3044 63.1598 77.6143 63.3057C77.9242 63.4561 78.2591 63.5312 78.6191 63.5312C78.9837 63.5312 79.2936 63.4629 79.5488 63.3262C79.8086 63.194 80.0068 62.998 80.1436 62.7383C80.2848 62.4831 80.3555 62.1686 80.3555 61.7949V56.292L80.5264 54.6035ZM75.5293 58.3906V58.2471C75.5293 57.682 75.5977 57.1693 75.7344 56.709C75.8711 56.2441 76.0671 55.8454 76.3223 55.5127C76.582 55.18 76.8942 54.9225 77.2588 54.7402C77.6279 54.5579 78.0426 54.4668 78.5029 54.4668C78.9906 54.4668 79.4007 54.5557 79.7334 54.7334C80.0706 54.9111 80.3486 55.1641 80.5674 55.4922C80.7907 55.8203 80.9639 56.21 81.0869 56.6611C81.2145 57.1077 81.3125 57.5999 81.3809 58.1377V58.5273C81.3171 59.0514 81.2145 59.5322 81.0732 59.9697C80.9365 60.4072 80.7542 60.79 80.5264 61.1182C80.2985 61.4417 80.016 61.6924 79.6787 61.8701C79.3415 62.0479 78.945 62.1367 78.4893 62.1367C78.0335 62.1367 77.6234 62.0433 77.2588 61.8564C76.8942 61.6696 76.582 61.4076 76.3223 61.0703C76.0671 60.7331 75.8711 60.3366 75.7344 59.8809C75.5977 59.4251 75.5293 58.9284 75.5293 58.3906ZM77.334 58.2471V58.3906C77.334 58.7096 77.3659 59.0081 77.4297 59.2861C77.4935 59.5641 77.5915 59.8102 77.7236 60.0244C77.8558 60.234 78.0221 60.3981 78.2227 60.5166C78.4232 60.6351 78.6624 60.6943 78.9404 60.6943C79.3141 60.6943 79.6195 60.6169 79.8564 60.4619C80.098 60.3024 80.2803 60.0859 80.4033 59.8125C80.5309 59.5345 80.613 59.2223 80.6494 58.876V57.8027C80.6266 57.5293 80.5765 57.2764 80.499 57.0439C80.4261 56.8115 80.3236 56.611 80.1914 56.4424C80.0592 56.2738 79.8906 56.1416 79.6855 56.0459C79.4805 55.9502 79.2367 55.9023 78.9541 55.9023C78.6807 55.9023 78.4414 55.9639 78.2363 56.0869C78.0312 56.2054 77.8626 56.3717 77.7305 56.5859C77.5983 56.8001 77.498 57.0485 77.4297 57.3311C77.3659 57.6136 77.334 57.9189 77.334 58.2471ZM85.708 54.6035V62H83.8965V54.6035H85.708ZM83.7734 52.6689C83.7734 52.4001 83.8646 52.1768 84.0469 51.999C84.2337 51.8213 84.4844 51.7324 84.7988 51.7324C85.1133 51.7324 85.3617 51.8213 85.5439 51.999C85.7308 52.1768 85.8242 52.4001 85.8242 52.6689C85.8242 52.9333 85.7308 53.1543 85.5439 53.332C85.3617 53.5098 85.1133 53.5986 84.7988 53.5986C84.4844 53.5986 84.2337 53.5098 84.0469 53.332C83.8646 53.1543 83.7734 52.9333 83.7734 52.6689ZM90.9307 54.6035V55.9023H86.6924V54.6035H90.9307ZM87.8271 52.7852H89.6387V59.8672C89.6387 60.0859 89.6683 60.2546 89.7275 60.373C89.7868 60.4915 89.8757 60.5713 89.9941 60.6123C90.1126 60.6533 90.2539 60.6738 90.418 60.6738C90.5365 60.6738 90.6458 60.667 90.7461 60.6533C90.8464 60.6396 90.9307 60.626 90.999 60.6123L91.0059 61.9658C90.8555 62.016 90.6846 62.057 90.4932 62.0889C90.3063 62.1208 90.0944 62.1367 89.8574 62.1367C89.4518 62.1367 89.0964 62.0684 88.791 61.9316C88.4857 61.7904 88.2487 61.5648 88.0801 61.2549C87.9115 60.9404 87.8271 60.5257 87.8271 60.0107V52.7852ZM96.208 60.4277V57.0166C96.208 56.766 96.1647 56.5495 96.0781 56.3672C95.9915 56.1849 95.8594 56.0436 95.6816 55.9434C95.5039 55.8431 95.2783 55.793 95.0049 55.793C94.7633 55.793 94.5514 55.834 94.3691 55.916C94.1914 55.998 94.0547 56.1143 93.959 56.2646C93.8633 56.4105 93.8154 56.5791 93.8154 56.7705H92.0039C92.0039 56.4652 92.0768 56.1758 92.2227 55.9023C92.3685 55.6243 92.5758 55.3783 92.8447 55.1641C93.1182 54.9453 93.444 54.7744 93.8223 54.6514C94.2051 54.5283 94.6335 54.4668 95.1074 54.4668C95.668 54.4668 96.167 54.5625 96.6045 54.7539C97.0465 54.9408 97.3929 55.2233 97.6436 55.6016C97.8988 55.9798 98.0264 56.4561 98.0264 57.0303V60.2568C98.0264 60.626 98.0492 60.9427 98.0947 61.207C98.1449 61.4668 98.2178 61.6924 98.3135 61.8838V62H96.4746C96.388 61.8132 96.3219 61.5762 96.2764 61.2891C96.2308 60.9974 96.208 60.7103 96.208 60.4277ZM96.4609 57.4951L96.4746 58.5684H95.333C95.0505 58.5684 94.8021 58.598 94.5879 58.6572C94.3737 58.7119 94.1982 58.7939 94.0615 58.9033C93.9248 59.0081 93.8223 59.1357 93.7539 59.2861C93.6855 59.432 93.6514 59.5983 93.6514 59.7852C93.6514 59.9674 93.6924 60.1315 93.7744 60.2773C93.861 60.4232 93.984 60.5394 94.1436 60.626C94.3076 60.708 94.499 60.749 94.7178 60.749C95.0368 60.749 95.3148 60.6852 95.5518 60.5576C95.7887 60.4255 95.9733 60.266 96.1055 60.0791C96.2376 59.8923 96.3083 59.7145 96.3174 59.5459L96.8369 60.3252C96.7731 60.512 96.6774 60.7103 96.5498 60.9199C96.4222 61.1296 96.2581 61.3255 96.0576 61.5078C95.8571 61.6901 95.6156 61.8405 95.333 61.959C95.0505 62.0775 94.7223 62.1367 94.3486 62.1367C93.8701 62.1367 93.4417 62.041 93.0635 61.8496C92.6852 61.6582 92.3867 61.3962 92.168 61.0635C91.9492 60.7308 91.8398 60.3525 91.8398 59.9287C91.8398 59.5368 91.9128 59.1904 92.0586 58.8896C92.2044 58.5889 92.4209 58.3359 92.708 58.1309C92.9951 57.9212 93.3506 57.764 93.7744 57.6592C94.2028 57.5498 94.6927 57.4951 95.2441 57.4951H96.4609ZM101.567 51.5V62H99.7559V51.5H101.567ZM105.204 54.6035V62H103.393V54.6035H105.204ZM103.27 52.6689C103.27 52.4001 103.361 52.1768 103.543 51.999C103.73 51.8213 103.98 51.7324 104.295 51.7324C104.609 51.7324 104.858 51.8213 105.04 51.999C105.227 52.1768 105.32 52.4001 105.32 52.6689C105.32 52.9333 105.227 53.1543 105.04 53.332C104.858 53.5098 104.609 53.5986 104.295 53.5986C103.98 53.5986 103.73 53.5098 103.543 53.332C103.361 53.1543 103.27 52.9333 103.27 52.6689ZM112.724 60.5781V62H107.159V60.5781H112.724ZM112.594 55.6836L107.836 62H106.646V60.8857L111.377 54.6035H112.594V55.6836ZM111.931 54.6035V56.0322H106.742V54.6035H111.931ZM118.083 60.4277V57.0166C118.083 56.766 118.04 56.5495 117.953 56.3672C117.867 56.1849 117.734 56.0436 117.557 55.9434C117.379 55.8431 117.153 55.793 116.88 55.793C116.638 55.793 116.426 55.834 116.244 55.916C116.066 55.998 115.93 56.1143 115.834 56.2646C115.738 56.4105 115.69 56.5791 115.69 56.7705H113.879C113.879 56.4652 113.952 56.1758 114.098 55.9023C114.243 55.6243 114.451 55.3783 114.72 55.1641C114.993 54.9453 115.319 54.7744 115.697 54.6514C116.08 54.5283 116.508 54.4668 116.982 54.4668C117.543 54.4668 118.042 54.5625 118.479 54.7539C118.922 54.9408 119.268 55.2233 119.519 55.6016C119.774 55.9798 119.901 56.4561 119.901 57.0303V60.2568C119.901 60.626 119.924 60.9427 119.97 61.207C120.02 61.4668 120.093 61.6924 120.188 61.8838V62H118.35C118.263 61.8132 118.197 61.5762 118.151 61.2891C118.106 60.9974 118.083 60.7103 118.083 60.4277ZM118.336 57.4951L118.35 58.5684H117.208C116.925 58.5684 116.677 58.598 116.463 58.6572C116.249 58.7119 116.073 58.7939 115.937 58.9033C115.8 59.0081 115.697 59.1357 115.629 59.2861C115.561 59.432 115.526 59.5983 115.526 59.7852C115.526 59.9674 115.567 60.1315 115.649 60.2773C115.736 60.4232 115.859 60.5394 116.019 60.626C116.183 60.708 116.374 60.749 116.593 60.749C116.912 60.749 117.19 60.6852 117.427 60.5576C117.664 60.4255 117.848 60.266 117.98 60.0791C118.113 59.8923 118.183 59.7145 118.192 59.5459L118.712 60.3252C118.648 60.512 118.552 60.7103 118.425 60.9199C118.297 61.1296 118.133 61.3255 117.933 61.5078C117.732 61.6901 117.491 61.8405 117.208 61.959C116.925 62.0775 116.597 62.1367 116.224 62.1367C115.745 62.1367 115.317 62.041 114.938 61.8496C114.56 61.6582 114.262 61.3962 114.043 61.0635C113.824 60.7308 113.715 60.3525 113.715 59.9287C113.715 59.5368 113.788 59.1904 113.934 58.8896C114.079 58.5889 114.296 58.3359 114.583 58.1309C114.87 57.9212 115.226 57.764 115.649 57.6592C116.078 57.5498 116.568 57.4951 117.119 57.4951H118.336ZM125.028 54.6035V55.9023H120.79V54.6035H125.028ZM121.925 52.7852H123.736V59.8672C123.736 60.0859 123.766 60.2546 123.825 60.373C123.884 60.4915 123.973 60.5713 124.092 60.6123C124.21 60.6533 124.352 60.6738 124.516 60.6738C124.634 60.6738 124.743 60.667 124.844 60.6533C124.944 60.6396 125.028 60.626 125.097 60.6123L125.104 61.9658C124.953 62.016 124.782 62.057 124.591 62.0889C124.404 62.1208 124.192 62.1367 123.955 62.1367C123.549 62.1367 123.194 62.0684 122.889 61.9316C122.583 61.7904 122.346 61.5648 122.178 61.2549C122.009 60.9404 121.925 60.5257 121.925 60.0107V52.7852ZM128.146 54.6035V62H126.334V54.6035H128.146ZM126.211 52.6689C126.211 52.4001 126.302 52.1768 126.484 51.999C126.671 51.8213 126.922 51.7324 127.236 51.7324C127.551 51.7324 127.799 51.8213 127.981 51.999C128.168 52.1768 128.262 52.4001 128.262 52.6689C128.262 52.9333 128.168 53.1543 127.981 53.332C127.799 53.5098 127.551 53.5986 127.236 53.5986C126.922 53.5986 126.671 53.5098 126.484 53.332C126.302 53.1543 126.211 52.9333 126.211 52.6689ZM129.547 58.377V58.2334C129.547 57.6911 129.624 57.1921 129.779 56.7363C129.934 56.276 130.16 55.8773 130.456 55.54C130.752 55.2028 131.115 54.9408 131.543 54.7539C131.971 54.5625 132.459 54.4668 133.006 54.4668C133.562 54.4668 134.054 54.5625 134.482 54.7539C134.915 54.9408 135.28 55.2028 135.576 55.54C135.872 55.8773 136.098 56.276 136.253 56.7363C136.408 57.1921 136.485 57.6911 136.485 58.2334V58.377C136.485 58.9147 136.408 59.4137 136.253 59.874C136.098 60.3298 135.872 60.7285 135.576 61.0703C135.28 61.4076 134.918 61.6696 134.489 61.8564C134.061 62.0433 133.571 62.1367 133.02 62.1367C132.473 62.1367 131.983 62.0433 131.55 61.8564C131.117 61.6696 130.752 61.4076 130.456 61.0703C130.16 60.7285 129.934 60.3298 129.779 59.874C129.624 59.4137 129.547 58.9147 129.547 58.377ZM131.352 58.2334V58.377C131.352 58.7005 131.383 59.0036 131.447 59.2861C131.511 59.5687 131.609 59.8171 131.741 60.0312C131.873 60.2454 132.044 60.4141 132.254 60.5371C132.468 60.6556 132.723 60.7148 133.02 60.7148C133.311 60.7148 133.562 60.6556 133.771 60.5371C133.981 60.4141 134.152 60.2454 134.284 60.0312C134.421 59.8171 134.521 59.5687 134.585 59.2861C134.649 59.0036 134.681 58.7005 134.681 58.377V58.2334C134.681 57.9144 134.649 57.6159 134.585 57.3379C134.521 57.0553 134.421 56.807 134.284 56.5928C134.152 56.374 133.979 56.2031 133.765 56.0801C133.555 55.9525 133.302 55.8887 133.006 55.8887C132.714 55.8887 132.464 55.9525 132.254 56.0801C132.044 56.2031 131.873 56.374 131.741 56.5928C131.609 56.807 131.511 57.0553 131.447 57.3379C131.383 57.6159 131.352 57.9144 131.352 58.2334ZM139.568 56.1826V62H137.764V54.6035H139.459L139.568 56.1826ZM139.281 58.0352H138.748C138.753 57.4974 138.826 57.0098 138.967 56.5723C139.108 56.1348 139.306 55.7588 139.562 55.4443C139.821 55.1299 140.129 54.8883 140.484 54.7197C140.84 54.5511 141.236 54.4668 141.674 54.4668C142.029 54.4668 142.351 54.5169 142.638 54.6172C142.925 54.7174 143.171 54.877 143.376 55.0957C143.586 55.3145 143.745 55.6016 143.854 55.957C143.968 56.3079 144.025 56.7409 144.025 57.2559V62H142.207V57.2422C142.207 56.9049 142.157 56.6383 142.057 56.4424C141.961 56.2464 141.82 56.1074 141.633 56.0254C141.451 55.9434 141.225 55.9023 140.956 55.9023C140.678 55.9023 140.434 55.9593 140.225 56.0732C140.02 56.1826 139.846 56.3353 139.705 56.5312C139.568 56.7272 139.464 56.9528 139.391 57.208C139.318 57.4632 139.281 57.7389 139.281 58.0352ZM151.559 60.6328L153.281 54.6035H155.168L152.632 62H151.483L151.559 60.6328ZM150.301 54.6035L152.044 60.6465L152.105 62H150.95L148.407 54.6035H150.301ZM158.032 54.6035V62H156.221V54.6035H158.032ZM156.098 52.6689C156.098 52.4001 156.189 52.1768 156.371 51.999C156.558 51.8213 156.809 51.7324 157.123 51.7324C157.438 51.7324 157.686 51.8213 157.868 51.999C158.055 52.1768 158.148 52.4001 158.148 52.6689C158.148 52.9333 158.055 53.1543 157.868 53.332C157.686 53.5098 157.438 53.5986 157.123 53.5986C156.809 53.5986 156.558 53.5098 156.371 53.332C156.189 53.1543 156.098 52.9333 156.098 52.6689ZM163.822 59.9766C163.822 59.8216 163.781 59.6826 163.699 59.5596C163.617 59.4365 163.462 59.3249 163.234 59.2246C163.011 59.1198 162.683 59.0218 162.25 58.9307C161.867 58.8486 161.514 58.7461 161.19 58.623C160.867 58.5 160.589 58.3519 160.356 58.1787C160.124 58.001 159.942 57.7936 159.81 57.5566C159.682 57.3151 159.618 57.0371 159.618 56.7227C159.618 56.4173 159.684 56.1302 159.816 55.8613C159.949 55.5879 160.14 55.3486 160.391 55.1436C160.641 54.9339 160.947 54.7699 161.307 54.6514C161.667 54.5283 162.072 54.4668 162.523 54.4668C163.152 54.4668 163.692 54.5693 164.144 54.7744C164.599 54.9795 164.948 55.262 165.189 55.6221C165.431 55.9775 165.552 56.3786 165.552 56.8252H163.747C163.747 56.6292 163.701 56.4515 163.61 56.292C163.524 56.1325 163.389 56.0049 163.207 55.9092C163.025 55.8089 162.795 55.7588 162.517 55.7588C162.266 55.7588 162.054 55.7998 161.881 55.8818C161.712 55.9639 161.585 56.071 161.498 56.2031C161.411 56.3353 161.368 56.4811 161.368 56.6406C161.368 56.7591 161.391 56.8662 161.437 56.9619C161.487 57.0531 161.566 57.1374 161.676 57.2148C161.785 57.2923 161.933 57.363 162.12 57.4268C162.312 57.4906 162.546 57.5521 162.824 57.6113C163.376 57.7207 163.856 57.8665 164.267 58.0488C164.681 58.2266 165.005 58.4635 165.237 58.7598C165.47 59.056 165.586 59.4342 165.586 59.8945C165.586 60.2227 165.515 60.5234 165.374 60.7969C165.233 61.0658 165.028 61.3005 164.759 61.501C164.49 61.7015 164.169 61.8587 163.795 61.9727C163.421 62.082 163 62.1367 162.53 62.1367C161.851 62.1367 161.277 62.016 160.808 61.7744C160.338 61.5283 159.983 61.2184 159.741 60.8447C159.5 60.4665 159.379 60.0745 159.379 59.6689H161.108C161.122 59.9561 161.2 60.1862 161.341 60.3594C161.482 60.5326 161.66 60.6579 161.874 60.7354C162.093 60.8083 162.323 60.8447 162.564 60.8447C162.838 60.8447 163.068 60.8083 163.255 60.7354C163.442 60.6579 163.583 60.5553 163.679 60.4277C163.774 60.2956 163.822 60.1452 163.822 59.9766ZM168.874 54.6035V62H167.062V54.6035H168.874ZM166.939 52.6689C166.939 52.4001 167.031 52.1768 167.213 51.999C167.4 51.8213 167.65 51.7324 167.965 51.7324C168.279 51.7324 168.528 51.8213 168.71 51.999C168.897 52.1768 168.99 52.4001 168.99 52.6689C168.99 52.9333 168.897 53.1543 168.71 53.332C168.528 53.5098 168.279 53.5986 167.965 53.5986C167.65 53.5986 167.4 53.5098 167.213 53.332C167.031 53.1543 166.939 52.9333 166.939 52.6689ZM170.59 51.5H172.401V60.3662L172.224 62H170.59V51.5ZM177.159 58.2266V58.3701C177.159 58.9215 177.098 59.4274 176.975 59.8877C176.856 60.348 176.676 60.7467 176.435 61.084C176.193 61.4167 175.892 61.6764 175.532 61.8633C175.177 62.0456 174.76 62.1367 174.281 62.1367C173.826 62.1367 173.429 62.0479 173.092 61.8701C172.759 61.6924 172.479 61.4417 172.251 61.1182C172.023 60.79 171.841 60.4049 171.704 59.9629C171.567 59.5163 171.465 59.0286 171.396 58.5V58.1104C171.465 57.5771 171.567 57.0895 171.704 56.6475C171.841 56.2054 172.023 55.8203 172.251 55.4922C172.479 55.1641 172.759 54.9111 173.092 54.7334C173.424 54.5557 173.816 54.4668 174.268 54.4668C174.751 54.4668 175.172 54.5602 175.532 54.7471C175.897 54.9294 176.198 55.1891 176.435 55.5264C176.676 55.859 176.856 56.2555 176.975 56.7158C177.098 57.1715 177.159 57.6751 177.159 58.2266ZM175.348 58.3701V58.2266C175.348 57.9121 175.323 57.6159 175.272 57.3379C175.222 57.0553 175.14 56.807 175.026 56.5928C174.912 56.3786 174.757 56.21 174.562 56.0869C174.366 55.9639 174.119 55.9023 173.823 55.9023C173.541 55.9023 173.299 55.9502 173.099 56.0459C172.903 56.1416 172.739 56.2738 172.606 56.4424C172.479 56.611 172.379 56.8092 172.306 57.0371C172.237 57.265 172.192 57.5111 172.169 57.7754V58.8418C172.201 59.1927 172.276 59.5094 172.395 59.792C172.513 60.07 172.688 60.291 172.921 60.4551C173.158 60.6191 173.463 60.7012 173.837 60.7012C174.129 60.7012 174.372 60.6442 174.568 60.5303C174.764 60.4118 174.919 60.2477 175.033 60.0381C175.147 59.8239 175.227 59.5755 175.272 59.293C175.323 59.0104 175.348 58.7028 175.348 58.3701ZM180.386 51.5V62H178.574V51.5H180.386ZM185.431 62.1367C184.87 62.1367 184.367 62.0456 183.92 61.8633C183.473 61.681 183.093 61.4281 182.778 61.1045C182.468 60.7764 182.229 60.3958 182.061 59.9629C181.896 59.5254 181.814 59.056 181.814 58.5547V58.2812C181.814 57.7116 181.896 57.1943 182.061 56.7295C182.225 56.2601 182.457 55.8568 182.758 55.5195C183.059 55.1823 183.419 54.9225 183.838 54.7402C184.257 54.5579 184.72 54.4668 185.226 54.4668C185.75 54.4668 186.212 54.5557 186.613 54.7334C187.014 54.9066 187.349 55.1527 187.618 55.4717C187.887 55.7907 188.09 56.1735 188.227 56.6201C188.363 57.0622 188.432 57.5521 188.432 58.0898V58.8486H182.635V57.6045H186.654V57.4678C186.645 57.1807 186.59 56.9186 186.49 56.6816C186.39 56.4401 186.235 56.2487 186.025 56.1074C185.816 55.9616 185.545 55.8887 185.212 55.8887C184.943 55.8887 184.708 55.9479 184.508 56.0664C184.312 56.1803 184.148 56.3444 184.016 56.5586C183.888 56.7682 183.792 57.0189 183.729 57.3105C183.665 57.6022 183.633 57.9258 183.633 58.2812V58.5547C183.633 58.8646 183.674 59.1517 183.756 59.416C183.842 59.6803 183.968 59.9105 184.132 60.1064C184.3 60.2979 184.501 60.4482 184.733 60.5576C184.97 60.6624 185.239 60.7148 185.54 60.7148C185.918 60.7148 186.26 60.6419 186.565 60.4961C186.875 60.3457 187.144 60.1247 187.372 59.833L188.281 60.7764C188.126 61.0042 187.917 61.223 187.652 61.4326C187.393 61.6423 187.078 61.8132 186.709 61.9453C186.34 62.0729 185.914 62.1367 185.431 62.1367ZM191.699 52.0469L191.501 59.0127H189.977L189.778 52.0469H191.699ZM189.724 61.1592C189.724 60.8903 189.815 60.6647 189.997 60.4824C190.184 60.2956 190.435 60.2021 190.749 60.2021C191.063 60.2021 191.312 60.2956 191.494 60.4824C191.681 60.6647 191.774 60.8903 191.774 61.1592C191.774 61.4235 191.681 61.6468 191.494 61.8291C191.312 62.0114 191.063 62.1025 190.749 62.1025C190.435 62.1025 190.184 62.0114 189.997 61.8291C189.815 61.6468 189.724 61.4235 189.724 61.1592Z" fill="#DCA54C"/>
<path d="M54.244 35V10.52H57.032V35H54.244ZM70.8315 35V13.274H59.9515V10.52H84.4315V13.274H73.5855V35H70.8315ZM87.0763 26.33V23.542H100.336V26.33H87.0763ZM104.607 35V10.52H125.007C125.755 10.52 126.435 10.7013 127.047 11.064C127.681 11.4267 128.18 11.9253 128.543 12.56C128.905 13.172 129.087 13.852 129.087 14.6V30.92C129.087 31.668 128.905 32.3593 128.543 32.994C128.18 33.606 127.681 34.0933 127.047 34.456C126.435 34.8187 125.755 35 125.007 35H104.607ZM108.687 32.246H125.007C125.369 32.246 125.675 32.1213 125.925 31.872C126.197 31.6 126.333 31.2827 126.333 30.92V14.6C126.333 14.2373 126.197 13.9313 125.925 13.682C125.675 13.41 125.369 13.274 125.007 13.274H108.687C108.324 13.274 108.007 13.41 107.735 13.682C107.485 13.9313 107.361 14.2373 107.361 14.6V30.92C107.361 31.2827 107.485 31.6 107.735 31.872C108.007 32.1213 108.324 32.246 108.687 32.246ZM136.838 35C136.09 35 135.399 34.8187 134.764 34.456C134.152 34.0707 133.654 33.572 133.268 32.96C132.906 32.3253 132.724 31.634 132.724 30.886V19.394C132.724 18.646 132.906 17.966 133.268 17.354C133.654 16.7193 134.152 16.2207 134.764 15.858C135.399 15.4727 136.09 15.28 136.838 15.28H148.67C149.441 15.28 150.132 15.4727 150.744 15.858C151.379 16.2207 151.878 16.7193 152.24 17.354C152.626 17.966 152.818 18.646 152.818 19.394V30.886C152.818 31.634 152.626 32.3253 152.24 32.96C151.878 33.572 151.379 34.0707 150.744 34.456C150.132 34.8187 149.441 35 148.67 35H136.838ZM136.838 32.212H148.67C149.033 32.212 149.339 32.0873 149.588 31.838C149.86 31.566 149.996 31.2487 149.996 30.886V19.394C149.996 19.0313 149.86 18.7253 149.588 18.476C149.339 18.204 149.033 18.068 148.67 18.068H136.838C136.476 18.068 136.158 18.204 135.886 18.476C135.637 18.7253 135.512 19.0313 135.512 19.394V30.886C135.512 31.2487 135.637 31.566 135.886 31.838C136.158 32.0873 136.476 32.212 136.838 32.212ZM156.367 35V8.82H159.155V15.28H172.347C173.095 15.28 173.775 15.4727 174.387 15.858C175.022 16.2207 175.521 16.7193 175.883 17.354C176.269 17.966 176.461 18.646 176.461 19.394V30.886C176.461 31.634 176.269 32.3253 175.883 32.96C175.521 33.572 175.022 34.0707 174.387 34.456C173.775 34.8187 173.095 35 172.347 35H156.367ZM160.515 32.212H172.347C172.71 32.212 173.016 32.0873 173.265 31.838C173.537 31.566 173.673 31.2487 173.673 30.886V19.394C173.673 19.0313 173.537 18.7253 173.265 18.476C173.016 18.204 172.71 18.068 172.347 18.068H160.515C160.153 18.068 159.835 18.204 159.563 18.476C159.291 18.7253 159.155 19.0313 159.155 19.394V30.886C159.155 31.2487 159.291 31.566 159.563 31.838C159.835 32.0873 160.153 32.212 160.515 32.212ZM183.091 35C182.343 35 181.652 34.8187 181.017 34.456C180.405 34.0707 179.906 33.572 179.521 32.96C179.158 32.3253 178.977 31.634 178.977 30.886V8.82H181.765V30.886C181.765 31.2487 181.89 31.566 182.139 31.838C182.411 32.0873 182.728 32.212 183.091 32.212H186.423V35H183.091ZM192.819 35C192.071 35 191.379 34.8187 190.745 34.456C190.133 34.0707 189.634 33.572 189.249 32.96C188.886 32.3253 188.705 31.634 188.705 30.886V19.394C188.705 18.646 188.886 17.966 189.249 17.354C189.634 16.7193 190.133 16.2207 190.745 15.858C191.379 15.4727 192.071 15.28 192.819 15.28H204.651C205.421 15.28 206.113 15.4727 206.725 15.858C207.359 16.2207 207.858 16.7193 208.221 17.354C208.606 17.966 208.799 18.646 208.799 19.394V26.534H191.493V30.886C191.493 31.2487 191.617 31.566 191.867 31.838C192.139 32.0873 192.456 32.212 192.819 32.212H208.799V35H192.819ZM191.493 23.746H205.977V19.394C205.977 19.0313 205.841 18.7253 205.569 18.476C205.319 18.204 205.013 18.068 204.651 18.068H192.819C192.456 18.068 192.139 18.204 191.867 18.476C191.617 18.7253 191.493 19.0313 191.493 19.394V23.746ZM212.114 35V19.394C212.114 18.646 212.295 17.966 212.658 17.354C213.043 16.7193 213.542 16.2207 214.154 15.858C214.788 15.4727 215.48 15.28 216.228 15.28H227.312V18.068H216.228C215.865 18.068 215.548 18.204 215.276 18.476C215.026 18.7253 214.902 19.0313 214.902 19.394V35H212.114Z" fill="#09090B"/>
</svg>
